<svg width="1367" height="654" viewBox="0 0 1367 654" fill="none" xmlns="http://www.w3.org/2000/svg">
<style type="text/css" >
         .change { animation: x .2s ease-in-out alternate 10;animation-iteration-count:1;animation-delay:1.8s; animation-fill-mode: forwards; }

        @keyframes x {
           from { fill: #091E42; }
             to { fill: #6554C0; }
        }
         .addeffects { animation: y .2s ease-in-out alternate 10;animation-iteration-count:1;animation-delay:1s; animation-fill-mode: forwards; }

        @keyframes y {
           from { stroke: none;visibility:hidden;}
             to { stroke: #b399dd;visibility:visible;
             stroke-width:3;}
        }
    
        .moveUp{
            animation: l 2s ease-in-out alternate 10;animation-iteration-count:1; animation-delay:0.7s; animation-fill-mode: forwards; 
        }
               @keyframes l {
           from { visibility: hidden; }
             to { visibility: visible;}
        }
               .hide{
            animation: b ease-in-out alternate 10;animation-iteration-count:1;animation-delay:0.5s; animation-fill-mode: forwards; 
        }
               @keyframes b {
           from { visibility: visible; }
             to { visibility: hidden;}
        }
               .open{
            animation: j ease-in-out alternate 10;animation-iteration-count:1;animation-delay:1.2s; animation-fill-mode: forwards; 
        }
               @keyframes j {
           from { visibility: visible; }
             to { visibility: hidden;}
        }
</style>
<path d="M0 0H1191L646.714 331.895L128.5 481.5L58 314.635L0 152.147V0Z" fill="#6554C0"/>
<g filter="url(#filter0_d)">
<path fill-rule="evenodd" clip-rule="evenodd" d="M108.003 50.1092V429C108.003 429 141 592 363 626C585 660 776.5 454 776.5 454C776.5 454 762.5 381.358 787 334.809C811.5 288.261 856 288.106 856 288.106C856 288.106 908 232.806 932 214.5C962.602 191.158 1011.33 189.183 1038.15 189.015L1038 189.841C1038 189.841 1081.4 184.27 1129.88 202L1343 49H1339H1064.28L1064.24 49.2642C701.068 49.5922 108.003 50.1092 108.003 50.1092Z" fill="#6554C0"/>
</g>
<g clip-path="url(#clip0)">
<path opacity="0.1" d="M1343 423.771C1343.01 433.877 1341.85 443.935 1339.56 453.66C1337.34 463.036 1334.08 472.011 1329.87 480.343C1329.87 510.534 1312.87 536.627 1288.2 549.04C1277.89 554.176 1266.83 556.798 1255.66 556.754H877.154C856.924 556.754 838.176 550.209 822.801 539.061C818.4 535.885 814.226 532.28 810.321 528.281C793.231 510.673 782.636 486.339 782.636 459.463C773.045 441.757 767.96 421.087 768 399.974C768 355.767 789.809 317.755 821.052 300.972C825.2 298.745 829.487 296.907 833.873 295.476C835.425 294.97 836.993 294.516 838.578 294.114C842.803 293.036 847.089 292.331 851.4 292.005C852.958 291.889 854.525 291.823 856.099 291.806H856.964C858.703 291.806 860.427 291.879 862.141 291.999L862.704 290.854C863.394 289.472 864.101 288.104 864.825 286.751C866.132 284.284 867.502 281.853 868.936 279.459C870.438 276.932 872.004 274.445 873.636 271.999L874.053 271.396C874.978 270.014 875.923 268.648 876.888 267.299C879.904 263.084 883.087 258.997 886.438 255.036C922.682 212.443 979.463 185.025 1043.3 185.025C1092.97 185.025 1138.37 201.627 1173.14 229.057C1186.32 220.119 1201.2 215.428 1216.34 215.444C1265.47 215.444 1305.3 263.876 1305.3 323.618C1305.3 327.398 1305.13 331.175 1304.8 334.935C1316.64 344.985 1326.29 358.303 1332.94 373.764C1339.59 389.225 1343.04 406.376 1343 423.771V423.771Z"  fill="#09090A"/>
<path opacity="0.2" d="M886.448 255.011V267.274H876.898C879.89 263.063 883.074 258.976 886.448 255.011Z" class="change"  fill="#091E42"/>
<path opacity="0.2" d="M903.974 251.901H891.152V267.274H903.974V251.901Z" class="change"  fill="#091E42"/>
<path opacity="0.2" d="M921.496 251.901H908.674V267.274H921.496V251.901Z" class="change"  fill="#091E42"/>
<path opacity="0.2" d="M939.022 251.901H926.2V267.274H939.022V251.901Z" class="change"  fill="#091E42"/>
<path opacity="0.2" d="M956.544 251.901H943.722V267.274H956.544V251.901Z" class="change"  fill="#091E42"/>
<path opacity="0.2" d="M974.07 251.901H961.248V267.274H974.07V251.901Z" class="change"  fill="#091E42"/>
<path d="M991.597 251.901H978.775V267.274H991.597V251.901Z" class="change"  fill="#091E42"/>
<path opacity="0.2" d="M1009.12 251.901H996.296V267.274H1009.12V251.901Z" class="change"  fill="#091E42"/>
<path opacity="0.2" d="M1026.64 251.901H1013.82V267.274H1026.64V251.901Z" class="change"  fill="#091E42"/>
<path opacity="0.2" d="M1044.17 251.901H1031.34V267.274H1044.17V251.901Z" class="change"  fill="#091E42"/>
<path d="M1061.69 251.901H1048.87V267.274H1061.69V251.901Z" class="change"  fill="#091E42"/>
<path opacity="0.2" d="M1079.22 251.901H1066.4V267.274H1079.22V251.901Z" class="change"  fill="#091E42"/>
<path opacity="0.2" d="M1096.74 251.901H1083.92V267.274H1096.74V251.901Z" class="change"  fill="#091E42"/>
<path opacity="0.2" d="M1114.27 251.901H1101.44V267.274H1114.27V251.901Z" class="change"  fill="#091E42"/>
<path opacity="0.2" d="M1131.79 251.901H1118.97V267.274H1131.79V251.901Z" class="change"  fill="#091E42"/>
<path opacity="0.2" d="M1149.31 251.901H1136.49V267.274H1149.31V251.901Z" class="change"  fill="#091E42"/>
<path opacity="0.2" d="M1166.84 251.901H1154.02V267.274H1166.84V251.901Z" class="change"  fill="#091E42"/>
<path d="M1184.36 251.901H1171.54V267.274H1184.36V251.901Z" class="change"  fill="#091E42"/>
<path d="M1201.89 251.901H1189.07V267.274H1201.89V251.901Z" class="change"  fill="#091E42"/>
<path opacity="0.2" d="M1219.42 251.901H1206.59V267.274H1219.42V251.901Z" class="change"  fill="#091E42"/>
<path opacity="0.2" d="M1236.94 251.901H1224.11V267.274H1236.94V251.901Z" class="change"  fill="#091E42"/>
<path d="M1254.46 251.901H1241.64V267.274H1254.46V251.901Z" class="change"  fill="#091E42"/>
<path d="M1271.98 251.901H1259.16V267.274H1271.98V251.901Z" class="change"  fill="#091E42"/>
<path d="M868.926 279.452V286.744H864.815C866.122 284.261 867.492 281.831 868.926 279.452Z" class="change"  fill="#091E42"/>
<path opacity="0.2" d="M886.448 271.371H873.626V286.744H886.448V271.371Z" class="change"  fill="#091E42"/>
<path d="M903.974 271.371H891.152V286.744H903.974V271.371Z" class="change"  fill="#091E42"/>
<path opacity="0.2" d="M921.496 271.371H908.674V286.744H921.496V271.371Z" class="change"  fill="#091E42"/>
<path opacity="0.7" d="M939.022 271.371H926.2V286.744H939.022V271.371Z" class="change"  fill="#091E42"/>
<path opacity="0.2" d="M956.544 271.371H943.722V286.744H956.544V271.371Z" class="change"  fill="#091E42"/>
<path opacity="0.4" d="M974.07 271.371H961.248V286.744H974.07V271.371Z" class="change"  fill="#091E42"/>
<path d="M991.597 271.371H978.775V286.744H991.597V271.371Z" class="change"  fill="#091E42"/>
<path opacity="0.4" d="M1009.12 271.371H996.296V286.744H1009.12V271.371Z" class="change"  fill="#091E42"/>
<path opacity="0.2" d="M1026.64 271.371H1013.82V286.744H1026.64V271.371Z" class="change"  fill="#091E42"/>
<path opacity="0.4" d="M1044.17 271.371H1031.34V286.744H1044.17V271.371Z" class="change"  fill="#091E42"/>
<path d="M1061.69 271.371H1048.87V286.744H1061.69V271.371Z" class="change"  fill="#091E42"/>
<path opacity="0.4" d="M1079.22 271.371H1066.4V286.744H1079.22V271.371Z" class="change"  fill="#091E42"/>
<path opacity="0.4" d="M1096.74 271.371H1083.92V286.744H1096.74V271.371Z" class="change"  fill="#091E42"/>
<path opacity="0.2" d="M1114.27 271.371H1101.44V286.744H1114.27V271.371Z" class="change"  fill="#091E42"/>
<path opacity="0.4" d="M1131.79 271.371H1118.97V286.744H1131.79V271.371Z" class="change"  fill="#091E42"/>
<path opacity="0.4" d="M1149.31 271.371H1136.49V286.744H1149.31V271.371Z" class="change"  fill="#091E42"/>
<path opacity="0.2" d="M1166.84 271.371H1154.02V286.744H1166.84V271.371Z" class="change"  fill="#091E42"/>
<path opacity="0.2" d="M1184.36 271.371H1171.54V286.744H1184.36V271.371Z" class="change"  fill="#091E42"/>
<path opacity="0.4" d="M1201.89 271.371H1189.07V286.744H1201.89V271.371Z" class="change"  fill="#091E42"/>
<path opacity="0.2" d="M1219.42 271.371H1206.59V286.744H1219.42V271.371Z" class="change"  fill="#091E42"/>
<path d="M1236.94 271.371H1224.11V286.744H1236.94V271.371Z" class="change"  fill="#091E42"/>
<path d="M1254.46 271.371H1241.64V286.744H1254.46V271.371Z" class="change"  fill="#091E42"/>
<path d="M1271.98 271.371H1259.16V286.744H1271.98V271.371Z" class="change"  fill="#091E42"/>
<path opacity="0.2" d="M833.874 295.476V306.22H821.052V300.971C825.2 298.744 829.487 296.906 833.874 295.476V295.476Z" class="change"  fill="#091E42"/>
<path opacity="0.2" d="M851.4 292.005V306.22H838.578V294.114L851.4 292.005Z" class="change"  fill="#091E42"/>
<path d="M868.922 290.848H856.1V306.22H868.922V290.848Z" class="change"  fill="#091E42"/>
<path opacity="0.7" d="M886.448 290.848H873.626V306.22H886.448V290.848Z" class="change"  fill="#091E42"/>
<path d="M903.974 290.848H891.152V306.22H903.974V290.848Z" class="change"  fill="#091E42"/>
<path opacity="0.7" d="M921.496 290.848H908.674V306.22H921.496V290.848Z" class="change"  fill="#091E42"/>
<path opacity="0.7" d="M939.022 290.848H926.2V306.22H939.022V290.848Z" class="change"  fill="#091E42"/>
<path opacity="0.2" d="M956.544 290.848H943.722V306.22H956.544V290.848Z" class="change"  fill="#091E42"/>
<path opacity="0.4" d="M974.07 290.848H961.248V306.22H974.07V290.848Z" class="change"  fill="#091E42"/>
<path opacity="0.4" d="M991.597 290.848H978.775V306.22H991.597V290.848Z" class="change"  fill="#091E42"/>
<path d="M1009.12 290.848H996.296V306.22H1009.12V290.848Z" class="change"  fill="#091E42"/>
<path opacity="0.2" d="M1026.64 290.848H1013.82V306.22H1026.64V290.848Z" class="change"  fill="#091E42"/>
<path opacity="0.4" d="M1044.17 290.848H1031.34V306.22H1044.17V290.848Z" class="change"  fill="#091E42"/>
<path d="M1061.69 290.848H1048.87V306.22H1061.69V290.848Z" class="change"  fill="#091E42"/>
<path opacity="0.2" d="M1079.22 290.848H1066.4V306.22H1079.22V290.848Z" class="change"  fill="#091E42"/>
<path opacity="0.4" d="M1096.74 290.848H1083.92V306.22H1096.74V290.848Z" class="change"  fill="#091E42"/>
<path opacity="0.2" d="M1114.27 290.848H1101.44V306.22H1114.27V290.848Z" class="change"  fill="#091E42"/>
<path d="M1131.79 290.848H1118.97V306.22H1131.79V290.848Z" class="change"  fill="#091E42"/>
<path opacity="0.2" d="M1149.31 290.848H1136.49V306.22H1149.31V290.848Z" class="change"  fill="#091E42"/>
<path opacity="0.7" d="M1166.84 290.848H1154.02V306.22H1166.84V290.848Z" class="change"  fill="#091E42"/>
<path opacity="0.7" d="M1184.36 290.848H1171.54V306.22H1184.36V290.848Z" class="change"  fill="#091E42"/>
<path opacity="0.4" d="M1201.89 290.848H1189.07V306.22H1201.89V290.848Z" class="change"  fill="#091E42"/>
<path opacity="0.2" d="M1219.42 290.848H1206.59V306.22H1219.42V290.848Z" class="change"  fill="#091E42"/>
<path d="M1236.94 290.848H1224.11V306.22H1236.94V290.848Z" class="change"  fill="#091E42"/>
<path d="M1254.46 290.848H1241.64V306.22H1254.46V290.848Z" class="change"  fill="#091E42"/>
<path d="M1271.98 290.848H1259.16V306.22H1271.98V290.848Z" class="change"  fill="#091E42"/>
<path opacity="0.2" d="M833.874 310.318H821.052V325.69H833.874V310.318Z" class="change"  fill="#091E42"/>
<path opacity="0.2" d="M851.4 310.318H838.578V325.69H851.4V310.318Z" class="change"  fill="#091E42"/>
<path opacity="0.2" d="M868.922 310.318H856.1V325.69H868.922V310.318Z" class="change"  fill="#091E42"/>
<path opacity="0.2" d="M886.448 310.318H873.626V325.69H886.448V310.318Z" class="change"  fill="#091E42"/>
<path d="M903.974 310.318H891.152V325.69H903.974V310.318Z" class="change"  fill="#091E42"/>
<path opacity="0.7" d="M921.496 310.318H908.674V325.69H921.496V310.318Z" class="change"  fill="#091E42"/>
<path opacity="0.7" d="M939.022 310.318H926.2V325.69H939.022V310.318Z" class="change"  fill="#091E42"/>
<path opacity="0.2" d="M956.544 310.318H943.722V325.69H956.544V310.318Z" class="change"  fill="#091E42"/>
<path opacity="0.2" d="M974.07 310.318H961.248V325.69H974.07V310.318Z" class="change"  fill="#091E42"/>
<path opacity="0.4" d="M991.597 310.318H978.775V325.69H991.597V310.318Z" class="change"  fill="#091E42"/>
<path opacity="0.4" d="M1009.12 310.318H996.296V325.69H1009.12V310.318Z" class="change"  fill="#091E42"/>
<path d="M1026.64 310.318H1013.82V325.69H1026.64V310.318Z" class="change"  fill="#091E42"/>
<path opacity="0.2" d="M1044.17 310.318H1031.34V325.69H1044.17V310.318Z" class="change"  fill="#091E42"/>
<path opacity="0.4" d="M1061.69 310.318H1048.87V325.69H1061.69V310.318Z" class="change"  fill="#091E42"/>
<path opacity="0.4" d="M1079.22 310.318H1066.4V325.69H1079.22V310.318Z" class="change"  fill="#091E42"/>
<path opacity="0.4" d="M1096.74 310.318H1083.92V325.69H1096.74V310.318Z" class="change"  fill="#091E42"/>
<path opacity="0.4" d="M1114.27 310.318H1101.44V325.69H1114.27V310.318Z" class="change"  fill="#091E42"/>
<path opacity="0.2" d="M1131.79 310.318H1118.97V325.69H1131.79V310.318Z" class="change"  fill="#091E42"/>
<path opacity="0.2" d="M1149.31 310.318H1136.49V325.69H1149.31V310.318Z" class="change"  fill="#091E42"/>
<path opacity="0.2" d="M1166.84 310.318H1154.02V325.69H1166.84V310.318Z" class="change"  fill="#091E42"/>
<path opacity="0.2" d="M1184.36 310.318H1171.54V325.69H1184.36V310.318Z" class="change"  fill="#091E42"/>
<path opacity="0.7" d="M1201.89 310.318H1189.07V325.69H1201.89V310.318Z" class="change"  fill="#091E42"/>
<path opacity="0.7" d="M1219.42 310.318H1206.59V325.69H1219.42V310.318Z" class="change"  fill="#091E42"/>
<path opacity="0.4" d="M1236.94 310.318H1224.11V325.69H1236.94V310.318Z" class="change"  fill="#091E42"/>
<path opacity="0.2" d="M1254.46 310.318H1241.64V325.69H1254.46V310.318Z" class="change"  fill="#091E42"/>
<path d="M1271.98 310.318H1259.16V325.69H1271.98V310.318Z" class="change"  fill="#091E42"/>
<path opacity="0.2" d="M833.874 329.794H821.052V345.166H833.874V329.794Z" class="change"  fill="#091E42"/>
<path opacity="0.2" d="M851.4 329.794H838.578V345.166H851.4V329.794Z" class="change"  fill="#091E42"/>
<path opacity="0.4" d="M868.922 329.794H856.1V345.166H868.922V329.794Z" class="change"  fill="#091E42"/>
<path opacity="0.2" d="M886.448 329.794H873.626V345.166H886.448V329.794Z" class="change"  fill="#091E42"/>
<path opacity="0.2" d="M903.974 329.794H891.152V345.166H903.974V329.794Z" class="change"  fill="#091E42"/>
<path opacity="0.7" d="M921.496 329.794H908.674V345.166H921.496V329.794Z" class="change"  fill="#091E42"/>
<path opacity="0.7" d="M939.022 329.794H926.2V345.166H939.022V329.794Z" class="change"  fill="#091E42"/>
<path opacity="0.2" d="M956.544 329.794H943.722V345.166H956.544V329.794Z" class="change"  fill="#091E42"/>
<path opacity="0.2" d="M974.07 329.794H961.248V345.166H974.07V329.794Z" class="change"  fill="#091E42"/>
<path opacity="0.4" d="M991.597 329.794H978.775V345.166H991.597V329.794Z" class="change"  fill="#091E42"/>
<path d="M1009.12 329.794H996.296V345.166H1009.12V329.794Z" class="change"  fill="#091E42"/>
<path opacity="0.2" d="M1026.64 329.794H1013.82V345.166H1026.64V329.794Z" class="change"  fill="#091E42"/>
<path d="M1044.17 329.794H1031.34V345.166H1044.17V329.794Z" class="change"  fill="#091E42"/>
<path d="M1061.69 329.794H1048.87V345.166H1061.69V329.794Z" class="change"  fill="#091E42"/>
<path d="M1079.22 329.794H1066.4V345.166H1079.22V329.794Z" class="change"  fill="#091E42"/>
<path opacity="0.2" d="M1096.74 329.794H1083.92V345.166H1096.74V329.794Z" class="change"  fill="#091E42"/>
<path d="M1114.27 329.794H1101.44V345.166H1114.27V329.794Z" class="change"  fill="#091E42"/>
<path opacity="0.2" d="M1131.79 329.794H1118.97V345.166H1131.79V329.794Z" class="change"  fill="#091E42"/>
<path opacity="0.2" d="M1149.31 329.794H1136.49V345.166H1149.31V329.794Z" class="change"  fill="#091E42"/>
<path opacity="0.2" d="M1166.84 329.794H1154.02V345.166H1166.84V329.794Z" class="change"  fill="#091E42"/>
<path opacity="0.2" d="M1184.36 329.794H1171.54V345.166H1184.36V329.794Z" class="change"  fill="#091E42"/>
<path opacity="0.2" d="M1201.89 329.794H1189.07V345.166H1201.89V329.794Z" class="change"  fill="#091E42"/>
<path opacity="0.7" d="M1219.42 329.794H1206.59V345.166H1219.42V329.794Z" class="change"  fill="#091E42"/>
<path opacity="0.2" d="M1236.94 329.794H1224.11V345.166H1236.94V329.794Z" class="change"  fill="#091E42"/>
<path opacity="0.2" d="M1254.46 329.794H1241.64V345.166H1254.46V329.794Z" class="change"  fill="#091E42"/>
<path d="M1271.98 329.794H1259.16V345.166H1271.98V329.794Z" class="change"  fill="#091E42"/>
<path opacity="0.2" d="M833.874 349.264H821.052V364.637H833.874V349.264Z" class="change"  fill="#091E42"/>
<path opacity="0.2" d="M851.4 349.264H838.578V364.637H851.4V349.264Z" class="change"  fill="#091E42"/>
<path opacity="0.2" d="M868.922 349.264H856.1V364.637H868.922V349.264Z" class="change"  fill="#091E42"/>
<path opacity="0.4" d="M886.448 349.264H873.626V364.637H886.448V349.264Z" class="change"  fill="#091E42"/>
<path opacity="0.2" d="M903.974 349.264H891.152V364.637H903.974V349.264Z" class="change"  fill="#091E42"/>
<path opacity="0.2" d="M921.496 349.264H908.674V364.637H921.496V349.264Z" class="change"  fill="#091E42"/>
<path opacity="0.7" d="M939.022 349.264H926.2V364.637H939.022V349.264Z" class="change"  fill="#091E42"/>
<path opacity="0.2" d="M956.544 349.264H943.722V364.637H956.544V349.264Z" class="change"  fill="#091E42"/>
<path opacity="0.2" d="M974.07 349.264H961.248V364.637H974.07V349.264Z" class="change"  fill="#091E42"/>
<path opacity="0.2" d="M991.597 349.264H978.775V364.637H991.597V349.264Z" class="change"  fill="#091E42"/>
<path d="M1009.12 349.264H996.296V364.637H1009.12V349.264Z" class="change"  fill="#091E42"/>
<path opacity="0.2" d="M1026.64 349.264H1013.82V364.637H1026.64V349.264Z" class="change"  fill="#091E42"/>
<path d="M1044.17 349.264H1031.34V364.637H1044.17V349.264Z" class="change"  fill="#091E42"/>
<path d="M1061.69 349.264H1048.87V364.637H1061.69V349.264Z" class="change"  fill="#091E42"/>
<path opacity="0.2" d="M1079.22 349.264H1066.4V364.637H1079.22V349.264Z" class="change"  fill="#091E42"/>
<path opacity="0.2" d="M1096.74 349.264H1083.92V364.637H1096.74V349.264Z" class="change"  fill="#091E42"/>
<path opacity="0.2" d="M1114.27 349.264H1101.44V364.637H1114.27V349.264Z" class="change"  fill="#091E42"/>
<path opacity="0.2" d="M1131.79 349.264H1118.97V364.637H1131.79V349.264Z" class="change"  fill="#091E42"/>
<path opacity="0.2" d="M1149.31 349.264H1136.49V364.637H1149.31V349.264Z" class="change"  fill="#091E42"/>
<path opacity="0.2" d="M1166.84 349.264H1154.02V364.637H1166.84V349.264Z" class="change"  fill="#091E42"/>
<path opacity="0.2" d="M1184.36 349.264H1171.54V364.637H1184.36V349.264Z" class="change"  fill="#091E42"/>
<path opacity="0.2" d="M1201.89 349.264H1189.07V364.637H1201.89V349.264Z" class="change"  fill="#091E42"/>
<path opacity="0.2" d="M1219.42 349.264H1206.59V364.637H1219.42V349.264Z" class="change"  fill="#091E42"/>
<path opacity="0.2" d="M1236.94 349.264H1224.11V364.637H1236.94V349.264Z" class="change"  fill="#091E42"/>
<path opacity="0.4" d="M1254.46 349.264H1241.64V364.637H1254.46V349.264Z" class="change"  fill="#091E42"/>
<path d="M1271.98 349.264H1259.16V364.637H1271.98V349.264Z" class="change"  fill="#091E42"/>
<path opacity="0.7" d="M833.874 368.74H821.052V384.113H833.874V368.74Z" class="change"  fill="#091E42"/>
<path opacity="0.7" d="M851.4 368.74H838.578V384.113H851.4V368.74Z" class="change"  fill="#091E42"/>
<path opacity="0.7" d="M868.922 368.74H856.1V384.113H868.922V368.74Z" class="change"  fill="#091E42"/>
<path opacity="0.7" d="M886.448 368.74H873.626V384.113H886.448V368.74Z" class="change"  fill="#091E42"/>
<path opacity="0.7" d="M903.974 368.74H891.152V384.113H903.974V368.74Z" class="change"  fill="#091E42"/>
<path opacity="0.2" d="M921.496 368.74H908.674V384.113H921.496V368.74Z" class="change"  fill="#091E42"/>
<path opacity="0.2" d="M939.022 368.74H926.2V384.113H939.022V368.74Z" class="change"  fill="#091E42"/>
<path opacity="0.2" d="M956.544 368.74H943.722V384.113H956.544V368.74Z" class="change"  fill="#091E42"/>
<path opacity="0.2" d="M974.07 368.74H961.248V384.113H974.07V368.74Z" class="change"  fill="#091E42"/>
<path opacity="0.2" d="M991.597 368.74H978.775V384.113H991.597V368.74Z" class="change"  fill="#091E42"/>
<path opacity="0.2" d="M1009.12 368.74H996.296V384.113H1009.12V368.74Z" class="change"  fill="#091E42"/>
<path d="M1026.64 368.74H1013.82V384.113H1026.64V368.74Z" class="change"  fill="#091E42"/>
<path opacity="0.2" d="M1044.17 368.74H1031.34V384.113H1044.17V368.74Z" class="change"  fill="#091E42"/>
<path opacity="0.2" d="M1061.69 368.74H1048.87V384.113H1061.69V368.74Z" class="change"  fill="#091E42"/>
<path opacity="0.2" d="M1079.22 368.74H1066.4V384.113H1079.22V368.74Z" class="change"  fill="#091E42"/>
<path d="M1096.74 368.74H1083.92V384.113H1096.74V368.74Z" class="change"  fill="#091E42"/>
<path opacity="0.2" d="M1114.27 368.74H1101.44V384.113H1114.27V368.74Z" class="change"  fill="#091E42"/>
<path opacity="0.2" d="M1131.79 368.74H1118.97V384.113H1131.79V368.74Z" class="change"  fill="#091E42"/>
<path opacity="0.2" d="M1149.31 368.74H1136.49V384.113H1149.31V368.74Z" class="change"  fill="#091E42"/>
<path opacity="0.2" d="M1166.84 368.74H1154.02V384.113H1166.84V368.74Z" class="change"  fill="#091E42"/>
<path opacity="0.2" d="M1184.36 368.74H1171.54V384.113H1184.36V368.74Z" class="change"  fill="#091E42"/>
<path opacity="0.2" d="M1201.89 368.74H1189.07V384.113H1201.89V368.74Z" class="change"  fill="#091E42"/>
<path opacity="0.2" d="M1219.42 368.74H1206.59V384.113H1219.42V368.74Z" class="change"  fill="#091E42"/>
<path opacity="0.2" d="M1236.94 368.74H1224.11V384.113H1236.94V368.74Z" class="change"  fill="#091E42"/>
<path opacity="0.2" d="M1254.46 368.74H1241.64V384.113H1254.46V368.74Z" class="change"  fill="#091E42"/>
<path d="M1271.98 368.74H1259.16V384.113H1271.98V368.74Z" class="change"  fill="#091E42"/>
<path d="M1137.19 425.295C1146.87 425.295 1154.71 415.887 1154.71 404.282C1154.71 392.677 1146.87 383.269 1137.19 383.269C1127.51 383.269 1119.66 392.677 1119.66 404.282C1119.66 415.887 1127.51 425.295 1137.19 425.295Z" fill="#767D9F"/>
<path d="M1136.28 377.55C1138.03 386.702 1139.51 395.922 1140.73 405.21C1141.1 407.97 1141.42 410.88 1140.59 413.49C1139.89 415.665 1138.47 417.364 1137.35 419.269C1136.24 421.173 1135.39 423.613 1136.07 425.795C1136.75 427.976 1138.73 429.169 1140.62 429.784C1146.03 431.532 1151.79 430.26 1157.18 428.368C1159.61 427.616 1161.95 426.455 1164.12 424.921C1166.4 423.186 1168.27 420.775 1169.99 418.292C1177.83 406.885 1182.97 393.194 1187.81 379.587C1184.7 379.926 1181.57 379.374 1178.68 377.976C1175.78 376.578 1173.21 374.375 1171.16 371.548C1169.18 368.758 1167.73 364.872 1168.85 361.461C1165.57 363.612 1161.69 363.757 1158.17 365.227C1155.98 366.228 1153.88 367.468 1151.88 368.933C1149.48 370.6 1147.08 372.3 1144.71 374.031C1141.99 375.996 1139.44 377.743 1136.28 377.55Z" fill="#AE6E79"/>
<path d="M1172.93 393.326C1169.86 400.491 1165.87 407.379 1160.16 411.646C1154.46 415.912 1146.78 417.069 1141.06 412.851C1138.25 410.79 1136.12 407.656 1133.66 405.017C1131.2 402.378 1128.13 400.118 1124.83 400.461C1121.19 400.841 1118.34 404.246 1115.9 407.506C1112.2 412.459 1108.63 417.624 1106.01 423.487C1100.98 434.756 1099.79 447.929 1100.01 460.704C1100.23 473.479 1101.78 486.188 1101.81 498.963C1101.86 514.679 1099.64 530.268 1097.39 545.749C1118.05 542.7 1138.73 549.365 1159.44 551.89C1172.69 553.523 1186.04 553.487 1199.36 553.445C1201.7 553.445 1204.19 553.372 1206.14 551.818C1207.33 550.775 1208.3 549.402 1208.95 547.816C1210.79 543.749 1211.53 539.109 1212.04 534.523C1213.34 522.941 1213.38 511.214 1213.42 499.524C1213.51 471.201 1213.59 442.776 1210.59 414.677C1209.86 407.765 1208.91 400.817 1206.7 394.351C1204.49 387.885 1200.88 381.937 1195.83 378.472C1192.59 376.243 1185.08 372.362 1181.26 374.61C1176.97 377.116 1174.99 388.53 1172.93 393.326Z" fill="#767D9F"/>
<path d="M1174.46 473.304C1173.68 455.829 1170.51 437.178 1177.26 421.667C1178.92 417.859 1172.97 413.104 1174.81 409.416C1177.05 404.92 1178.75 400.065 1179.86 394.996C1180.25 393.254 1180.55 391.41 1180.19 389.663C1179.52 386.475 1176.89 384.577 1174.66 382.636C1172.2 380.491 1170.93 373.953 1170.14 370.415C1169.34 366.878 1176.46 371.139 1179.32 369.879C1183.29 368.138 1188.33 369.234 1192.29 371C1194.51 371.976 1196.91 372.061 1199.27 372.133C1203.84 372.278 1208.44 372.416 1212.98 371.741C1215.02 371.434 1217.07 370.97 1219.12 371.108C1224.35 371.464 1228.9 375.755 1232 380.828C1235.09 385.902 1237.06 391.814 1239.6 397.31C1241.72 401.89 1244.24 406.216 1246.04 410.983C1247.64 415.201 1248.65 419.733 1249.65 424.24L1252.23 435.804C1252.68 437.458 1252.9 439.192 1252.86 440.932C1252.73 442.782 1252.05 444.506 1251.36 446.151C1248.73 452.248 1245.59 458.002 1241.97 463.319C1236.55 471.292 1229.97 478.481 1226.74 488.026C1225.49 491.744 1224.79 495.697 1224.15 499.638C1221.58 515.4 1219.75 531.325 1218.67 547.334C1212.8 544.076 1206.64 541.608 1200.32 539.976C1197.16 539.167 1193.97 538.564 1190.77 538.169C1187.96 537.819 1184.33 538.482 1181.66 537.566C1177.18 536.041 1176.69 526.972 1176.01 522.224C1174.93 514.661 1174.71 506.966 1174.67 499.325C1174.62 490.635 1174.85 481.964 1174.46 473.304Z" fill="#4C4981"/>
<path d="M1076.22 440.625C1078.34 455.087 1080.67 469.592 1085.27 483.181C1085.15 483.313 1085.04 483.434 1084.92 483.555C1084.52 483.97 1084.09 484.362 1083.65 484.76C1082.62 485.628 1081.49 486.363 1080.64 487.496C1080.31 487.929 1080.06 488.429 1079.88 488.972C1079.72 489.396 1079.64 489.855 1079.64 490.319C1079.64 490.783 1079.72 491.242 1079.88 491.666C1077.48 492.937 1074.7 492.545 1072.01 492.425C1069.69 492.322 1067.45 492.425 1065.59 493.949C1063 496.083 1062.22 500.18 1061.81 503.904C1061.65 505.262 1061.52 506.622 1061.41 507.984C1061.3 509.25 1061.22 510.519 1061.15 511.793C1060.92 516.005 1060.89 520.23 1061.05 524.447C1061.08 525.219 1061.12 525.99 1061.16 526.761C1052.95 526.526 1045.46 521.392 1038.38 516.403C1036.76 515.264 1035.09 514.064 1034.04 512.184C1033.07 510.338 1032.67 508.149 1032.88 505.983C1032.88 505.676 1032.93 505.381 1032.96 505.068C1033.19 503.279 1033.57 501.526 1034.11 499.837C1036.33 492.644 1039.59 485.982 1043.76 480.162C1045.56 477.643 1047.58 475.178 1048.42 472.015C1048.79 470.635 1048.93 469.17 1049.3 467.796C1050.97 461.843 1056.99 459.028 1059.05 453.25C1059.55 451.87 1059.78 450.357 1060.41 449.031C1060.97 447.929 1061.69 446.96 1062.54 446.169C1062.91 445.801 1063.29 445.446 1063.67 445.09C1067.2 441.772 1070.6 438.267 1073.88 434.575C1074.49 433.888 1075.09 433.193 1075.69 432.49C1075.61 435.217 1075.79 437.947 1076.22 440.625V440.625Z" fill="#4C4981"/>
<path d="M1126.87 397.852C1126.15 398.768 1125.36 399.63 1124.6 400.485L1124.39 400.708L1123.58 401.612C1122.1 403.142 1120.82 404.927 1119.78 406.909L1119.69 407.078C1117.13 412.58 1118.08 419.353 1118.8 425.602C1119.68 433.389 1120.08 441.245 1119.99 449.104C1119.86 459.95 1118.79 470.725 1118.77 481.56C1118.77 484.018 1118.82 486.471 1118.91 488.93C1119.05 492.925 1119.3 496.914 1119.6 500.903C1119.93 505.278 1120.32 509.647 1120.69 514.016C1120.98 517.397 1121.26 520.771 1121.49 524.146C1121.6 525.894 1121.72 527.635 1121.81 529.383C1121.91 531.431 1122 533.486 1122.05 535.535C1122.08 536.837 1122.1 538.132 1122.1 539.434C1122.1 540.175 1122.1 540.91 1122.1 541.646C1122.1 543.056 1122.07 544.462 1122.01 545.864C1121.94 547.668 1121.84 549.475 1121.7 551.287C1121.54 553.258 1121.27 555.409 1120.11 556.795C1120.04 556.879 1119.97 556.958 1119.89 557.036L1118.26 556.795C1107.04 555.184 1095.7 554.941 1084.44 556.072C1084.68 554.035 1084.91 552.004 1085.13 549.962C1085.23 548.997 1085.33 548.027 1085.43 547.057C1085.54 545.948 1085.64 544.839 1085.74 543.731C1085.86 542.525 1085.96 541.32 1086.06 540.115C1086.33 537.01 1086.56 533.902 1086.75 530.793C1087.04 526.257 1087.27 521.713 1087.42 517.162C1087.49 514.988 1087.55 512.813 1087.59 510.636C1087.64 507.936 1087.67 505.234 1087.67 502.531C1087.67 499.903 1087.65 497.272 1087.61 494.636C1087.61 493.769 1087.58 492.901 1087.52 492.039C1087.48 491.263 1087.39 490.492 1087.26 489.731C1086.88 487.977 1086.38 486.267 1085.75 484.621C1085.64 484.308 1085.53 484.019 1085.43 483.687C1085.37 483.524 1085.31 483.356 1085.26 483.193C1088.15 480.102 1090.21 475.962 1092.19 471.888C1095.4 465.326 1098.69 458.474 1099.23 450.893C1099.77 443.313 1096.62 434.798 1090.58 432.484C1088.94 431.881 1087.2 431.712 1085.51 431.357C1083.91 431.019 1080.58 430.254 1078.73 428.88C1077.72 430.118 1076.72 431.333 1075.71 432.526C1075.77 430.705 1076.14 428.919 1076.8 427.277L1077.51 427.319C1077.46 427.126 1077.43 426.922 1077.43 426.717C1077.43 426.072 1077.81 425.343 1078.6 424.535C1080.97 422.125 1084.69 421.589 1086.19 418.329C1086.81 416.973 1086.91 415.358 1087.42 413.936C1088.86 409.88 1093 408.386 1095.49 405.144C1097.99 401.902 1098.61 397.31 1100.63 393.694C1102.13 391.054 1104.22 388.967 1106.66 387.668C1106.86 387.554 1107.06 387.439 1107.27 387.337C1111.44 385.197 1116.4 384.709 1120.72 384.721C1122.4 384.721 1126.75 384.782 1128.88 385.8C1129.23 385.948 1129.54 386.18 1129.81 386.481C1132.08 389.446 1128.55 395.707 1126.87 397.852Z" fill="#4C4981"/>
<path d="M1076.97 426.855C1080.85 425.454 1084.93 424.992 1088.96 425.496C1093 425.999 1096.91 427.459 1100.46 429.79C1104.08 432.201 1107.33 435.563 1109.32 439.902C1112.31 446.41 1112.18 454.256 1111.97 461.686C1111.86 465.404 1111.73 469.255 1110.36 472.593C1108.78 476.456 1105.79 479.107 1102.75 481.277C1100.84 482.736 1098.75 483.821 1096.55 484.489C1093.18 485.368 1089.67 484.621 1086.27 483.886C1082.57 483.066 1078.6 482.078 1076.03 478.776C1074.52 476.86 1073.69 474.371 1072.88 471.936C1071.71 468.421 1070.54 464.91 1069.36 461.403C1067.33 455.31 1066.64 450.243 1069.33 444.307C1070.55 441.601 1072.04 439.07 1073.25 436.346C1073.85 434.96 1076.01 427.211 1076.97 426.855Z" fill="#4C4981"/>
<path d="M1288.21 531.028V549.046C1277.9 554.181 1266.84 556.803 1255.68 556.759H1120.13C1120.06 556.843 1119.98 556.922 1119.91 557L1118.28 556.759H877.154C856.924 556.759 838.176 550.215 822.801 539.066V511.558L938.766 495.51H938.856L1006.39 502.368L1023.86 504.176L1032.94 505.098L1051.73 507.008L1061.4 507.99L1075.47 509.424L1077.45 509.623L1087.59 510.654L1101.35 512.01L1120.71 513.974L1152.96 517.258L1175.66 519.566L1212.92 523.357L1220.01 524.074L1220.77 524.152L1221.44 524.218L1230.79 525.17L1241.07 526.219L1242.26 526.339L1288.21 531.028Z" fill="#504F60"/>
<path d="M1152 530.365L1006.68 500.626L1001.04 534.788L1067.66 544.351L1088.17 547.431L1144.6 534.107L1152 530.365Z"   fill="#9C9CA1"/>
<path d="M1076.78 545.719L1149.59 529.31C1149.95 529.227 1150.33 529.241 1150.68 529.352C1151.04 529.462 1151.38 529.667 1151.66 529.951C1151.95 530.235 1152.18 530.591 1152.33 530.994C1152.49 531.397 1152.57 531.836 1152.57 532.281V532.281C1152.57 532.987 1152.37 533.67 1151.99 534.213C1151.62 534.756 1151.09 535.124 1150.52 535.252L1079.41 551.215L1076.78 545.719Z"  class='addeffects' fill="#9C9CA1"/>
<path d="M1108.36 494.118C1110.63 493.865 1112.92 493.437 1114.97 492.232C1117.48 490.732 1119.43 488.146 1121.76 486.242C1126.88 482.024 1133.72 481.458 1139.59 483.88C1145.45 486.302 1150.35 491.491 1153.78 497.686C1156.05 501.813 1157.76 507.08 1156.16 511.636C1155.6 513.029 1154.91 514.332 1154.08 515.517L1149.89 522.085C1149.1 523.466 1148.14 524.702 1147.05 525.755C1145.48 527.123 1143.53 527.683 1141.61 528.021C1136.51 528.913 1131.32 528.406 1126.17 528.816C1117.34 529.521 1108.72 532.932 1099.87 532.818C1094.78 532.751 1089.76 531.522 1084.79 530.293L1062.79 524.869C1058.96 523.929 1054.63 522.555 1052.83 518.391C1052.02 516.517 1051.87 514.348 1051.77 512.239C1051.51 506.429 1051.77 499.97 1055.13 495.781C1058.28 491.852 1063.28 490.611 1067.05 487.707C1071.66 484.145 1073.18 485.296 1078.05 487.972C1087.54 493.125 1097.98 495.243 1108.36 494.118V494.118Z" fill="#AE6E79"/>
<path opacity="0.05" d="M1108.36 494.118C1110.63 493.865 1112.92 493.437 1114.97 492.232C1117.48 490.732 1119.43 488.146 1121.76 486.242C1126.88 482.024 1133.72 481.458 1139.59 483.88C1145.45 486.302 1150.35 491.491 1153.78 497.686C1156.05 501.813 1157.76 507.08 1156.16 511.636C1155.6 513.029 1154.91 514.332 1154.08 515.517L1149.89 522.085C1149.1 523.466 1148.14 524.702 1147.05 525.755C1145.48 527.123 1143.53 527.683 1141.61 528.021C1136.51 528.913 1131.32 528.406 1126.17 528.816C1117.34 529.521 1108.72 532.932 1099.87 532.818C1094.78 532.751 1089.76 531.522 1084.79 530.293L1062.79 524.869C1058.96 523.929 1054.63 522.555 1052.83 518.391C1052.02 516.517 1051.87 514.348 1051.77 512.239C1051.51 506.429 1051.77 499.97 1055.13 495.781C1058.28 491.852 1063.28 490.611 1067.05 487.707C1071.66 484.145 1073.18 485.296 1078.05 487.972C1087.54 493.125 1097.98 495.243 1108.36 494.118V494.118Z" fill="black"/>
<path d="M1196.71 485.856C1190.53 488.719 1184.33 491.593 1177.86 493.299C1167.03 496.161 1155.69 495.709 1144.94 498.981C1139.26 500.717 1133.61 503.513 1127.78 502.946C1125.17 502.693 1122.65 501.741 1120.11 501.018C1105.85 496.8 1089.64 498.168 1078.06 509.015C1074.1 512.721 1070.86 517.343 1067.92 522.272C1067.29 523.337 1066.87 524.555 1066.67 525.839C1066.48 527.124 1066.53 528.443 1066.82 529.703C1067.1 530.963 1067.61 532.132 1068.32 533.126C1069.02 534.121 1069.9 534.917 1070.89 535.457C1075.39 537.94 1080.22 539.483 1085.15 540.019C1091.75 540.718 1098.38 539.597 1104.95 538.476C1114.69 536.819 1124.43 535.156 1134.15 533.294C1137.64 532.625 1141.13 531.932 1144.64 531.401C1169.88 527.575 1195.59 532.227 1220.9 529.033C1223.46 528.708 1226.06 528.286 1228.39 526.978C1234.28 523.664 1237.19 514.926 1235.98 507.249C1234.76 499.572 1230.07 493.19 1224.42 489.273C1219.68 485.977 1214.58 484.645 1209.3 483.247C1204.41 481.879 1201.42 483.687 1196.71 485.856Z" fill="#AE6E79"/>
<path opacity="0.1" d="M1250.85 439.962C1253.64 444.337 1254.23 450.206 1253.93 455.684C1253.63 461.162 1252.54 466.579 1252.38 472.081C1252.16 479.625 1253.68 487.146 1253.42 494.666C1253.24 499.927 1252.2 505.086 1250.97 510.135C1249.52 516.095 1247.42 522.501 1242.83 525.363C1236.74 529.166 1223.96 527.026 1217.55 530.003C1218.13 525.646 1223.72 519.337 1224.31 514.98C1224.71 511.967 1225.11 508.87 1224.68 505.851C1224.13 502 1222.24 498.583 1220.01 495.739C1216.45 491.214 1211.81 487.809 1206.7 486.7C1201.6 485.591 1189.11 486.501 1185.03 490.364C1184.53 486.375 1193.88 482.53 1197.16 481.668C1198.8 481.228 1200.68 481.476 1201.99 480.228C1204.51 477.866 1202.68 473.16 1202.8 469.381C1202.9 466.368 1204.37 463.608 1204.66 460.595C1205.17 455.774 1202.54 450.863 1203.57 446.133C1203.95 444.385 1204.8 442.849 1205.39 441.185C1207.18 436.093 1206.4 430.284 1205.44 424.873C1204.85 421.474 1204.27 417.642 1205.85 414.743C1207.31 412.037 1211.46 421.673 1214.12 421.227C1222.9 419.751 1230.85 411.947 1237.94 418.335C1241.56 421.589 1242.03 424.963 1243.47 429.609C1244.87 434.032 1248.51 436.298 1250.85 439.962Z" fill="black"/>
<path d="M1252.36 439.962C1255.15 444.337 1255.74 450.206 1255.44 455.684C1255.14 461.162 1254.05 466.579 1253.89 472.081C1253.67 479.626 1255.19 487.146 1254.93 494.667C1254.75 499.927 1253.71 505.086 1252.48 510.135C1251.03 516.095 1248.92 522.501 1244.34 525.363C1238.24 529.166 1225.47 527.026 1219.06 530.003C1219.64 525.646 1225.23 519.337 1225.81 514.98C1226.22 511.967 1226.62 508.87 1226.19 505.851C1225.64 502 1223.75 498.583 1221.52 495.739C1217.96 491.214 1213.31 487.809 1208.21 486.7C1203.11 485.591 1190.62 486.501 1186.54 490.364C1186.04 486.375 1195.38 482.53 1198.67 481.668C1200.31 481.228 1202.19 481.476 1203.5 480.228C1206.02 477.866 1204.19 473.16 1204.31 469.381C1204.41 466.368 1205.87 463.608 1206.17 460.595C1206.67 455.774 1204.05 450.863 1205.08 446.133C1205.46 444.385 1206.31 442.849 1206.9 441.185C1208.69 436.093 1207.91 430.284 1206.95 424.873C1206.36 421.474 1205.78 417.642 1207.36 414.743C1208.82 412.037 1211.68 411.013 1214.34 410.561C1223.24 409.117 1232.26 411.907 1239.47 418.335C1243.08 421.589 1243.56 424.963 1245 429.609C1246.38 434.032 1250.01 436.298 1252.36 439.962Z" fill="#4C4981"/>
<path d="M919.792 411.411L947.119 532.498C947.455 533.982 948.159 535.308 949.139 536.299C950.118 537.291 951.327 537.901 952.603 538.048L1075.6 552.215C1076.61 552.331 1077.62 552.157 1078.55 551.708C1079.49 551.26 1080.32 550.549 1080.98 549.635C1081.64 548.722 1082.1 547.632 1082.34 546.458C1082.57 545.284 1082.57 544.059 1082.33 542.887L1052.4 396.828C1052.05 395.092 1051.19 393.563 1049.98 392.514C1048.77 391.465 1047.3 390.962 1045.81 391.097L925.386 401.896C924.461 401.982 923.564 402.311 922.758 402.861C921.952 403.411 921.257 404.167 920.722 405.076C920.188 405.985 919.828 407.024 919.667 408.119C919.506 409.214 919.549 410.338 919.792 411.411V411.411Z" class='addeffects' visibility='hidden' fill="#9C9CA1"/>
<path d="M1008.73 499.002C1009.56 498.673 1010.47 498.573 1011.35 498.712L1054.5 505.5L1147.43 513.602C1150.02 513.827 1152 515.99 1152 518.583V522.168C1152 524.429 1150.48 526.408 1148.3 526.996L1079.77 545.442C1078.41 545.808 1077.91 547.483 1078.86 548.528V548.528C1080 549.787 1079.02 551.792 1077.33 551.674L999.5 546.243L932.659 539.799C927.561 539.307 926.411 532.38 931.077 530.267L940.5 526L1008.73 499.002Z" class='open' fill="#9C9CA1"/>
<path opacity="0.1" d="M1171.19 369.957V372.44L1168.24 372.097L1162.68 365.179C1162.68 365.179 1171.28 367.487 1171.19 369.957Z" fill="black" stroke="#4C4981" stroke-miterlimit="10"/>
<path opacity="0.1" d="M1179.21 394.64L1177.14 390.542V374.013C1181.24 383.136 1179.21 394.64 1179.21 394.64Z" fill="black" stroke="#4C4981" stroke-miterlimit="10"/>
<path d="M1163.62 435.039C1171.09 435.039 1177.14 427.687 1177.14 418.618C1177.14 409.549 1171.09 402.197 1163.62 402.197C1156.15 402.197 1150.1 409.549 1150.1 418.618C1150.1 427.687 1156.15 435.039 1163.62 435.039Z" class='hide' fill="white"/>
<path d="M1174.72 388.662C1174.72 388.662 1177.57 398.822 1169.16 403.095L1168.09 405.348L1173.35 411.579C1173.35 411.579 1179.85 397.376 1179.15 392.332C1179.15 392.332 1178.14 387.21 1174.72 388.662Z"  class='hide' fill="white"/>
<path d="M1165.17 435.039C1172.37 435.039 1178.21 428.04 1178.21 419.407C1178.21 410.774 1172.37 403.776 1165.17 403.776C1157.97 403.776 1152.13 410.774 1152.13 419.407C1152.13 428.04 1157.97 435.039 1165.17 435.039Z"  class='hide'  fill="#09090A"/>
<path opacity="0.1" d="M1171.19 369.957V372.44L1168.24 372.097L1162.68 365.179C1162.68 365.179 1171.28 367.487 1171.19 369.957Z" fill="black" stroke="#4C4981" stroke-miterlimit="10"/>
<path d="M1179.21 394.64L1177.14 390.542L1174.12 390.03C1174.77 376.538 1171.85 372.519 1171.85 372.519L1171.17 372.44L1168.21 372.097L1162.65 365.179V363.214C1170.47 364.329 1174.78 368.776 1177.11 373.989C1181.24 383.136 1179.21 394.64 1179.21 394.64Z"    class='hide'  fill="#09090A"/>
<path d="M1134.9 402.54C1155.12 402.54 1171.52 382.886 1171.52 358.641C1171.52 334.395 1155.12 314.741 1134.9 314.741C1114.68 314.741 1098.28 334.395 1098.28 358.641C1098.28 382.886 1114.68 402.54 1134.9 402.54Z" fill="#AE6E79"/>
<path d="M1141.08 425.833C1144.55 423.432 1144.4 415.335 1140.75 407.749C1137.09 400.164 1131.32 395.96 1127.85 398.362C1124.38 400.763 1124.53 408.859 1128.18 416.445C1131.84 424.031 1137.61 428.234 1141.08 425.833Z"  class='hide'  fill="white"/>
<path d="M1136.42 410.772C1140.08 418.359 1144.56 423.427 1141.09 425.837C1137.62 428.247 1127.52 427.042 1123.87 419.449C1120.21 411.857 1123.53 401.371 1127 398.961C1130.47 396.55 1132.76 403.167 1136.42 410.772Z"  class='hide' fill="#09090A"/>
<path opacity="0.1" d="M1168.96 356.116C1168.96 380.358 1155.12 403.721 1134.9 403.721C1125.19 403.721 1115.87 399.096 1109.01 390.864C1102.14 382.631 1098.28 371.465 1098.28 359.822C1098.28 348.179 1102.14 337.013 1109.01 328.78C1115.87 320.547 1125.19 315.922 1134.9 315.922C1155.12 315.946 1168.96 331.867 1168.96 356.116Z"  class='hide'  fill="black"/>
<path d="M1100.51 377.819C1103.98 375.418 1103.83 367.322 1100.18 359.736C1096.52 352.15 1090.75 347.947 1087.28 350.348C1083.81 352.749 1083.96 360.845 1087.61 368.431C1091.27 376.017 1097.04 380.22 1100.51 377.819Z" visibility="hidden" class="moveUp" fill="white"/>
<path d="M1101.15 360.315C1104.8 367.902 1109.28 372.97 1105.82 375.38C1102.35 377.79 1092.25 376.585 1088.59 368.992C1084.94 361.4 1088.25 350.914 1091.72 348.504C1095.19 346.093 1097.49 352.71 1101.15 360.315Z"  visibility="hidden" class="moveUp" fill="#09090A"/>
<path d="M1176.11 340.426L1174.04 336.328L1171.03 335.816C1171.67 322.324 1168.75 318.304 1168.75 318.304L1168.07 318.226L1165.11 317.882L1159.56 310.964V309C1167.37 310.115 1171.68 314.562 1174.02 319.775C1178.14 328.922 1176.11 340.426 1176.11 340.426Z" visibility="hidden" class="moveUp" fill="#09090A"/> 

<path d="M1134.9 402.54C1155.12 402.54 1171.52 382.886 1171.52 358.641C1171.52 334.395 1155.12 314.741 1134.9 314.741C1114.68 314.741 1098.28 334.395 1098.28 358.641C1098.28 382.886 1114.68 402.54 1134.9 402.54Z" fill="#AE6E79"/>

<path d="M1160.52 380.824C1167.99 380.824 1174.04 373.473 1174.04 364.403C1174.04 355.334 1167.99 347.983 1160.52 347.983C1153.05 347.983 1147 355.334 1147 364.403C1147 373.473 1153.05 380.824 1160.52 380.824Z" visibility="hidden" class="moveUp" fill="white"/>
<path d="M1162.07 380.824C1169.27 380.824 1175.11 373.826 1175.11 365.193C1175.11 356.56 1169.27 349.561 1162.07 349.561C1154.87 349.561 1149.04 356.56 1149.04 365.193C1149.04 373.826 1154.87 380.824 1162.07 380.824Z" visibility="hidden" class="moveUp" fill="#09090A"/>
<path d="M1171.62 334.448C1171.62 334.448 1174.47 344.608 1166.06 348.88L1164.99 351.134L1170.26 357.365C1170.26 357.365 1176.75 343.162 1176.05 338.118C1176.05 338.118 1175.04 332.996 1171.62 334.448Z"  visibility="hidden" class="moveUp" fill="white"/>

<path d="M1131.68 339.188C1136.04 341.111 1138.62 346.51 1142.53 349.517C1148.06 353.735 1155.26 352.645 1161.57 350.56C1165.09 349.409 1168.77 348.005 1172.23 349.282C1172.74 349.553 1173.3 349.648 1173.85 349.559C1174.61 349.3 1174.98 348.3 1175.22 347.408C1179.51 332.102 1177.58 314.765 1171.12 300.604C1169.45 296.952 1167.45 293.421 1164.69 290.884C1162.52 288.889 1159.97 287.581 1157.4 286.467C1152.69 284.442 1147.83 283.002 1142.88 282.17C1142.01 281.98 1141.11 281.945 1140.23 282.068C1139.02 282.303 1137.94 283.086 1136.85 283.785C1132.23 286.76 1127.09 288.431 1121.85 288.672C1114.81 288.992 1106.77 287.003 1101.34 292.414C1094.81 298.904 1096.44 311.565 1092.2 320.375C1089.4 326.202 1083.99 330.433 1083.1 337.067C1082.87 339.095 1082.97 341.158 1083.42 343.136C1085.49 353.344 1093.73 361.25 1102.52 361.437C1103.86 361.56 1105.22 361.228 1106.42 360.479C1107.2 359.835 1107.9 359.044 1108.47 358.134C1114.23 349.963 1120.81 334.392 1131.68 339.188Z" fill="#444053"/>
<path opacity="0.1" d="M1175.22 342.967C1174.98 343.859 1174.61 344.859 1173.85 345.118C1173.3 345.207 1172.74 345.111 1172.23 344.841C1168.77 343.563 1165.07 344.967 1161.57 346.118C1155.26 348.203 1148.04 349.318 1142.53 345.076C1138.62 342.063 1136.05 336.639 1131.68 334.747C1120.81 329.926 1114.23 345.522 1108.46 353.693C1107.88 354.602 1107.19 355.394 1106.4 356.037C1105.2 356.787 1103.85 357.119 1102.5 356.995C1093.74 356.809 1085.5 348.902 1083.4 338.694C1083.28 338.092 1083.18 337.489 1083.11 336.887C1083.11 336.941 1083.11 336.989 1083.08 337.043C1082.85 339.071 1082.96 341.134 1083.4 343.111C1085.47 353.32 1093.72 361.226 1102.5 361.413C1103.85 361.536 1105.2 361.204 1106.4 360.454C1107.19 359.811 1107.88 359.02 1108.46 358.11C1114.23 349.939 1120.81 334.368 1131.68 339.164C1136.05 341.087 1138.62 346.486 1142.53 349.493C1148.06 353.711 1155.26 352.621 1161.57 350.536C1165.09 349.385 1168.77 347.981 1172.23 349.258C1172.74 349.528 1173.3 349.624 1173.85 349.535C1174.61 349.276 1174.98 348.276 1175.22 347.384C1176.95 341.121 1177.71 334.534 1177.48 327.944C1177.33 333.055 1176.57 338.114 1175.22 342.967V342.967Z" fill="black"/>
</g>
<defs>
<filter id="filter0_d" x="92.0027" y="33" width="1275" height="620.789" filterUnits="userSpaceOnUse" color-interpolation-filters="sRGB">
<feFlood flood-opacity="0" result="BackgroundImageFix"/>
<feColorMatrix in="SourceAlpha" type="matrix" values="0 0 0 0 0 0 0 0 0 0 0 0 0 0 0 0 0 0 127 0"/>
<feOffset dx="4" dy="4"/>
<feGaussianBlur stdDeviation="10"/>
<feColorMatrix type="matrix" values="0 0 0 0 0 0 0 0 0 0 0 0 0 0 0 0 0 0 0.25 0"/>
<feBlend mode="normal" in2="BackgroundImageFix" result="effect1_dropShadow"/>
<feBlend mode="normal" in="SourceGraphic" in2="effect1_dropShadow" result="shape"/>
</filter>
<clipPath id="clip0">
<rect width="575" height="372" fill="white" transform="translate(768 185)"/>
</clipPath>
</defs>
</svg>
