<svg width="1440" height="1000" viewBox="0 0 1440 1000" fill="none" xmlns="http://www.w3.org/2000/svg">
<style type="text/css" >
         .change { animation: x 0.5s linear alternate 10;animation-iteration-count:1;animation-delay:4.5s; animation-fill-mode: forwards; }

        @keyframes x {
           from { fill: #091E42; }
             to { fill: #6554C0; }
        }
         .addeffects { animation: y 2s linear alternate 10;animation-iteration-count:1;animation-delay:3.1s; animation-fill-mode: forwards; }

        @keyframes y {
           from { stroke: none;visibility:hidden;}
             to { stroke: #b399dd;visibility:visible;
             stroke-width:3;}
        }
        .backg{
            animation: v 1s linear alternate 10;animation-iteration-count:1; animation-delay:1.5s; animation-fill-mode: forwards; 
      
        }
                  @keyframes v {
           from { fill: #E6E6E7; }
             to { fill: #fff;}
        }
        .moveUp{
            animation: l 1s linear alternate 10;animation-iteration-count:1; animation-delay:1.5s; animation-fill-mode: forwards; 
        }
               @keyframes l {
           from { visibility: hidden; }
             to { visibility: visible;}
        }
               .hide{
            animation: b 1s linear alternate 10;animation-iteration-count:1;animation-delay:0.5s; animation-fill-mode: forwards; 
        }
               @keyframes b {
           from { visibility: visible; }
             to { visibility: hidden;}
        }
               .open{
            animation: j 0.5s linear alternate 10;animation-iteration-count:1;animation-delay:2.6s; animation-fill-mode: forwards; 
        }
               @keyframes j {
           from { visibility: visible; }
             to { visibility: hidden;}
        }
</style>
<path d="M0 785.357C229.186 816.71 357.588 849.952 586.549 919L1440 595V816.241C1440 816.241 1401.86 935.58 1075.85 875.91C749.841 816.241 437.783 832.821 403.221 875.91C368.659 919 0 849.932 0 849.932V785.357Z" fill="#531DAB"/>
<path d="M0 0H1440C1440 0 1440 631.409 1440 661.634C1440 691.859 1344.5 826.836 1136.5 859.959C928.5 893.082 571.5 879.419 358.5 859.959C145.5 840.499 0 840.499 0 840.499V0Z" fill="#531DAB"/>
<path d="M0 0H1440C1440 0 1440 631.409 1440 661.634C1440 691.859 1344.5 826.836 1136.5 859.959C928.5 893.082 571.5 879.419 358.5 859.959C145.5 840.499 0 840.499 0 840.499V0Z" fill="url(#paint0_linear)"/>
<path d="M1064.23 825.392C1064.24 838.573 1062.8 851.692 1059.96 864.376C1057.2 876.605 1053.15 888.311 1047.92 899.178C1047.92 938.555 1026.8 972.588 996.16 988.778C983.353 995.477 969.615 998.897 955.741 998.839H485.584C460.456 998.839 437.168 990.303 418.071 975.763C412.604 971.62 407.419 966.918 402.569 961.703C381.341 938.737 368.18 906.998 368.18 871.944C356.267 848.851 349.951 821.891 350 794.354C350 736.696 377.09 687.117 415.898 665.228C421.05 662.323 426.376 659.926 431.824 658.059C433.751 657.399 435.699 656.807 437.668 656.283C442.916 654.877 448.24 653.957 453.595 653.532C455.53 653.381 457.476 653.295 459.431 653.273H460.506C462.666 653.273 464.807 653.368 466.936 653.524L467.636 652.031C468.493 650.228 469.371 648.444 470.27 646.679C471.894 643.462 473.595 640.291 475.377 637.169C477.242 633.873 479.187 630.629 481.215 627.439L481.733 626.652C482.882 624.85 484.055 623.068 485.254 621.308C489 615.811 492.954 610.48 497.116 605.314C542.136 549.761 612.666 514 691.961 514C753.657 514 810.05 535.654 853.239 571.43C869.611 559.772 888.094 553.654 906.9 553.675C967.926 553.675 1017.4 616.844 1017.4 694.764C1017.4 699.695 1017.19 704.621 1016.78 709.525C1031.49 722.633 1043.47 740.003 1051.73 760.169C1059.99 780.334 1064.28 802.704 1064.23 825.392Z" class='backg' fill="#E6E6E7"/>
<path opacity="0.2" d="M497.129 605.281V621.276H485.266C488.983 615.783 492.938 610.453 497.129 605.281Z" class = "change"  fill="#091E42"/>
<path opacity="0.2" d="M518.898 601.225H502.972V621.276H518.898V601.225Z" class = "change"  fill="#091E42"/>
<path opacity="0.2" d="M540.663 601.225H524.737V621.276H540.663V601.225Z" class = "change"  fill="#091E42"/>
<path opacity="0.2" d="M562.433 601.225H546.506V621.276H562.433V601.225Z" class = "change"  fill="#091E42"/>
<path opacity="0.2" d="M584.198 601.225H568.271V621.276H584.198V601.225Z" class = "change"  fill="#091E42"/>
<path opacity="0.2" d="M605.967 601.225H590.041V621.276H605.967V601.225Z" class = "change"  fill="#091E42"/>
<path d="M627.738 601.225H611.812V621.276H627.738V601.225Z" class = "change"  fill="#091E42"/>
<path opacity="0.2" d="M649.504 601.225H633.575V621.276H649.504V601.225Z" class = "change"  fill="#091E42"/>
<path opacity="0.2" d="M671.266 601.225H655.342V621.276H671.266V601.225Z" class = "change"  fill="#091E42"/>
<path opacity="0.2" d="M693.041 601.225H677.104V621.276H693.041V601.225Z" class = "change"  fill="#091E42"/>
<path d="M714.803 601.225H698.879V621.276H714.803V601.225Z" class = "change"  fill="#091E42"/>
<path opacity="0.2" d="M736.578 601.225H720.654V621.276H736.578V601.225Z" class = "change"  fill="#091E42"/>
<path opacity="0.2" d="M758.34 601.225H742.416V621.276H758.34V601.225Z" class = "change"  fill="#091E42"/>
<path opacity="0.2" d="M780.115 601.225H764.178V621.276H780.115V601.225Z" class = "change"  fill="#091E42"/>
<path opacity="0.2" d="M801.877 601.225H785.953V621.276H801.877V601.225Z" class = "change"  fill="#091E42"/>
<path opacity="0.2" d="M823.639 601.225H807.715V621.276H823.639V601.225Z" class = "change"  fill="#091E42"/>
<path opacity="0.2" d="M845.414 601.225H829.49V621.276H845.414V601.225Z" class = "change"  fill="#091E42"/>
<path d="M867.176 601.225H851.252V621.276H867.176V601.225Z" class = "change"  fill="#091E42"/>
<path d="M888.951 601.225H873.027V621.276H888.951V601.225Z" class = "change"  fill="#091E42"/>
<path opacity="0.2" d="M910.725 601.225H894.789V621.276H910.725V601.225Z" class = "change"  fill="#091E42"/>
<path opacity="0.2" d="M932.488 601.225H916.551V621.276H932.488V601.225Z" class = "change"  fill="#091E42"/>
<path d="M954.25 601.225H938.325V621.276H954.25V601.225Z" class = "change"  fill="#091E42"/>
<path d="M976.012 601.225H960.088V621.276H976.012V601.225Z" class = "change"  fill="#091E42"/>
<path d="M475.364 637.159V646.67H470.258C471.881 643.432 473.583 640.262 475.364 637.159Z" class = "change"  fill="#091E42"/>
<path opacity="0.2" d="M497.129 626.619H481.202V646.67H497.129V626.619Z" class = "change"  fill="#091E42"/>
<path d="M518.898 626.619H502.972V646.67H518.898V626.619Z" class = "change"  fill="#091E42"/>
<path opacity="0.2" d="M540.663 626.619H524.737V646.67H540.663V626.619Z" class = "change"  fill="#091E42"/>
<path opacity="0.7" d="M562.433 626.619H546.506V646.67H562.433V626.619Z" class = "change"  fill="#091E42"/>
<path opacity="0.2" d="M584.198 626.619H568.271V646.67H584.198V626.619Z" class = "change"  fill="#091E42"/>
<path opacity="0.4" d="M605.967 626.619H590.041V646.67H605.967V626.619Z" class = "change"  fill="#091E42"/>
<path d="M627.738 626.619H611.812V646.67H627.738V626.619Z" class = "change"  fill="#091E42"/>
<path opacity="0.4" d="M649.504 626.619H633.575V646.67H649.504V626.619Z" class = "change"  fill="#091E42"/>
<path opacity="0.2" d="M671.266 626.619H655.342V646.67H671.266V626.619Z" class = "change"  fill="#091E42"/>
<path opacity="0.4" d="M693.041 626.619H677.104V646.67H693.041V626.619Z" class = "change"  fill="#091E42"/>
<path d="M714.803 626.619H698.879V646.67H714.803V626.619Z" class = "change"  fill="#091E42"/>
<path opacity="0.4" d="M736.578 626.619H720.654V646.67H736.578V626.619Z" class = "change"  fill="#091E42"/>
<path opacity="0.4" d="M758.34 626.619H742.416V646.67H758.34V626.619Z" class = "change"  fill="#091E42"/>
<path opacity="0.2" d="M780.115 626.619H764.178V646.67H780.115V626.619Z" class = "change"  fill="#091E42"/>
<path opacity="0.4" d="M801.877 626.619H785.953V646.67H801.877V626.619Z" class = "change"  fill="#091E42"/>
<path opacity="0.4" d="M823.639 626.619H807.715V646.67H823.639V626.619Z" class = "change"  fill="#091E42"/>
<path opacity="0.2" d="M845.414 626.619H829.49V646.67H845.414V626.619Z" class = "change"  fill="#091E42"/>
<path opacity="0.2" d="M867.176 626.619H851.252V646.67H867.176V626.619Z" class = "change"  fill="#091E42"/>
<path opacity="0.4" d="M888.951 626.619H873.027V646.67H888.951V626.619Z" class = "change"  fill="#091E42"/>
<path opacity="0.2" d="M910.725 626.619H894.789V646.67H910.725V626.619Z" class = "change"  fill="#091E42"/>
<path d="M932.488 626.619H916.551V646.67H932.488V626.619Z" class = "change"  fill="#091E42"/>
<path d="M954.25 626.619H938.325V646.67H954.25V626.619Z" class = "change"  fill="#091E42"/>
<path d="M976.012 626.619H960.088V646.67H976.012V626.619Z" class = "change"  fill="#091E42"/>
<path opacity="0.2" d="M431.825 658.059V672.072H415.898V665.226C421.05 662.322 426.375 659.924 431.825 658.059Z" class = "change"  fill="#091E42"/>
<path opacity="0.2" d="M453.594 653.532V672.072H437.668V656.283L453.594 653.532Z" class = "change"  fill="#091E42"/>
<path d="M475.359 652.023H459.432V672.072H475.359V652.023Z" class = "change"  fill="#091E42"/>
<path opacity="0.7" d="M497.129 652.023H481.202V672.072H497.129V652.023Z" class = "change"  fill="#091E42"/>
<path d="M518.898 652.023H502.972V672.072H518.898V652.023Z" class = "change"  fill="#091E42"/>
<path opacity="0.7" d="M540.663 652.023H524.737V672.072H540.663V652.023Z" class = "change"  fill="#091E42"/>
<path opacity="0.7" d="M562.433 652.023H546.506V672.072H562.433V652.023Z" class = "change"  fill="#091E42"/>
<path opacity="0.2" d="M584.198 652.023H568.271V672.072H584.198V652.023Z" class = "change"  fill="#091E42"/>
<path opacity="0.4" d="M605.967 652.023H590.041V672.072H605.967V652.023Z" class = "change"  fill="#091E42"/>
<path opacity="0.4" d="M627.738 652.023H611.812V672.072H627.738V652.023Z" class = "change"  fill="#091E42"/>
<path d="M649.504 652.023H633.575V672.072H649.504V652.023Z" class = "change"  fill="#091E42"/>
<path opacity="0.2" d="M671.266 652.023H655.342V672.072H671.266V652.023Z" class = "change"  fill="#091E42"/>
<path opacity="0.4" d="M693.041 652.023H677.104V672.072H693.041V652.023Z" class = "change"  fill="#091E42"/>
<path d="M714.803 652.023H698.879V672.072H714.803V652.023Z" class = "change"  fill="#091E42"/>
<path opacity="0.2" d="M736.578 652.023H720.654V672.072H736.578V652.023Z" class = "change"  fill="#091E42"/>
<path opacity="0.4" d="M758.34 652.023H742.416V672.072H758.34V652.023Z" class = "change"  fill="#091E42"/>
<path opacity="0.2" d="M780.115 652.023H764.178V672.072H780.115V652.023Z" class = "change"  fill="#091E42"/>
<path d="M801.877 652.023H785.953V672.072H801.877V652.023Z" class = "change"  fill="#091E42"/>
<path opacity="0.2" d="M823.639 652.023H807.715V672.072H823.639V652.023Z" class = "change"  fill="#091E42"/>
<path opacity="0.7" d="M845.414 652.023H829.49V672.072H845.414V652.023Z" class = "change"  fill="#091E42"/>
<path opacity="0.7" d="M867.176 652.023H851.252V672.072H867.176V652.023Z" class = "change"  fill="#091E42"/>
<path opacity="0.4" d="M888.951 652.023H873.027V672.072H888.951V652.023Z" class = "change"  fill="#091E42"/>
<path opacity="0.2" d="M910.725 652.023H894.789V672.072H910.725V652.023Z" class = "change"  fill="#091E42"/>
<path d="M932.488 652.023H916.551V672.072H932.488V652.023Z" class = "change"  fill="#091E42"/>
<path d="M954.25 652.023H938.325V672.072H954.25V652.023Z" class = "change"  fill="#091E42"/>
<path d="M976.012 652.023H960.088V672.072H976.012V652.023Z" class = "change"  fill="#091E42"/>
<path opacity="0.2" d="M431.825 677.417H415.898V697.467H431.825V677.417Z" class = "change"  fill="#091E42"/>
<path opacity="0.2" d="M453.594 677.417H437.668V697.467H453.594V677.417Z" class = "change"  fill="#091E42"/>
<path opacity="0.2" d="M475.359 677.417H459.432V697.467H475.359V677.417Z" class = "change"  fill="#091E42"/>
<path opacity="0.2" d="M497.129 677.417H481.202V697.467H497.129V677.417Z" class = "change"  fill="#091E42"/>
<path d="M518.898 677.417H502.972V697.467H518.898V677.417Z" class = "change"  fill="#091E42"/>
<path opacity="0.7" d="M540.663 677.417H524.737V697.467H540.663V677.417Z" class = "change"  fill="#091E42"/>
<path opacity="0.7" d="M562.433 677.417H546.506V697.467H562.433V677.417Z" class = "change"  fill="#091E42"/>
<path opacity="0.2" d="M584.198 677.417H568.271V697.467H584.198V677.417Z" class = "change"  fill="#091E42"/>
<path opacity="0.2" d="M605.967 677.417H590.041V697.467H605.967V677.417Z" class = "change"  fill="#091E42"/>
<path opacity="0.4" d="M627.738 677.417H611.812V697.467H627.738V677.417Z" class = "change"  fill="#091E42"/>
<path opacity="0.4" d="M649.504 677.417H633.575V697.467H649.504V677.417Z" class = "change"  fill="#091E42"/>
<path d="M671.266 677.417H655.342V697.467H671.266V677.417Z" class = "change"  fill="#091E42"/>
<path opacity="0.2" d="M693.041 677.417H677.104V697.467H693.041V677.417Z" class = "change"  fill="#091E42"/>
<path opacity="0.4" d="M714.803 677.417H698.879V697.467H714.803V677.417Z" class = "change"  fill="#091E42"/>
<path opacity="0.4" d="M736.578 677.417H720.654V697.467H736.578V677.417Z" class = "change"  fill="#091E42"/>
<path opacity="0.4" d="M758.34 677.417H742.416V697.467H758.34V677.417Z" class = "change"  fill="#091E42"/>
<path opacity="0.4" d="M780.115 677.417H764.178V697.467H780.115V677.417Z" class = "change"  fill="#091E42"/>
<path opacity="0.2" d="M801.877 677.417H785.953V697.467H801.877V677.417Z" class = "change"  fill="#091E42"/>
<path opacity="0.2" d="M823.639 677.417H807.715V697.467H823.639V677.417Z" class = "change"  fill="#091E42"/>
<path opacity="0.2" d="M845.414 677.417H829.49V697.467H845.414V677.417Z" class = "change"  fill="#091E42"/>
<path opacity="0.2" d="M867.176 677.417H851.252V697.467H867.176V677.417Z" class = "change"  fill="#091E42"/>
<path opacity="0.7" d="M888.951 677.417H873.027V697.467H888.951V677.417Z" class = "change"  fill="#091E42"/>
<path opacity="0.7" d="M910.725 677.417H894.789V697.467H910.725V677.417Z" class = "change"  fill="#091E42"/>
<path opacity="0.4" d="M932.488 677.417H916.551V697.467H932.488V677.417Z" class = "change"  fill="#091E42"/>
<path opacity="0.2" d="M954.25 677.417H938.325V697.467H954.25V677.417Z" class = "change"  fill="#091E42"/>
<path d="M976.012 677.417H960.088V697.467H976.012V677.417Z" class = "change"  fill="#091E42"/>
<path opacity="0.2" d="M431.825 702.82H415.898V722.869H431.825V702.82Z" class = "change"  fill="#091E42"/>
<path opacity="0.2" d="M453.594 702.82H437.668V722.869H453.594V702.82Z" class = "change"  fill="#091E42"/>
<path opacity="0.4" d="M475.359 702.82H459.432V722.869H475.359V702.82Z" class = "change"  fill="#091E42"/>
<path opacity="0.2" d="M497.129 702.82H481.202V722.869H497.129V702.82Z" class = "change"  fill="#091E42"/>
<path opacity="0.2" d="M518.898 702.82H502.972V722.869H518.898V702.82Z" class = "change"  fill="#091E42"/>
<path opacity="0.7" d="M540.663 702.82H524.737V722.869H540.663V702.82Z" class = "change"  fill="#091E42"/>
<path opacity="0.7" d="M562.433 702.82H546.506V722.869H562.433V702.82Z" class = "change"  fill="#091E42"/>
<path opacity="0.2" d="M584.198 702.82H568.271V722.869H584.198V702.82Z" class = "change"  fill="#091E42"/>
<path opacity="0.2" d="M605.967 702.82H590.041V722.869H605.967V702.82Z" class = "change"  fill="#091E42"/>
<path opacity="0.4" d="M627.738 702.82H611.812V722.869H627.738V702.82Z" class = "change"  fill="#091E42"/>
<path d="M649.504 702.82H633.575V722.869H649.504V702.82Z" class = "change"  fill="#091E42"/>
<path opacity="0.2" d="M671.266 702.82H655.342V722.869H671.266V702.82Z" class = "change"  fill="#091E42"/>
<path d="M693.041 702.82H677.104V722.869H693.041V702.82Z" class = "change"  fill="#091E42"/>
<path d="M714.803 702.82H698.879V722.869H714.803V702.82Z" class = "change"  fill="#091E42"/>
<path d="M736.578 702.82H720.654V722.869H736.578V702.82Z" class = "change"  fill="#091E42"/>
<path opacity="0.2" d="M758.34 702.82H742.416V722.869H758.34V702.82Z" class = "change"  fill="#091E42"/>
<path d="M780.115 702.82H764.178V722.869H780.115V702.82Z" class = "change"  fill="#091E42"/>
<path opacity="0.2" d="M801.877 702.82H785.953V722.869H801.877V702.82Z" class = "change"  fill="#091E42"/>
<path opacity="0.2" d="M823.639 702.82H807.715V722.869H823.639V702.82Z" class = "change"  fill="#091E42"/>
<path opacity="0.2" d="M845.414 702.82H829.49V722.869H845.414V702.82Z" class = "change"  fill="#091E42"/>
<path opacity="0.2" d="M867.176 702.82H851.252V722.869H867.176V702.82Z" class = "change"  fill="#091E42"/>
<path opacity="0.2" d="M888.951 702.82H873.027V722.869H888.951V702.82Z" class = "change"  fill="#091E42"/>
<path opacity="0.7" d="M910.725 702.82H894.789V722.869H910.725V702.82Z" class = "change"  fill="#091E42"/>
<path opacity="0.2" d="M932.488 702.82H916.551V722.869H932.488V702.82Z" class = "change"  fill="#091E42"/>
<path opacity="0.2" d="M954.25 702.82H938.325V722.869H954.25V702.82Z" class = "change"  fill="#091E42"/>
<path d="M976.012 702.82H960.088V722.869H976.012V702.82Z" class = "change"  fill="#091E42"/>
<path opacity="0.2" d="M431.825 728.214H415.898V748.265H431.825V728.214Z" class = "change"  fill="#091E42"/>
<path opacity="0.2" d="M453.594 728.214H437.668V748.265H453.594V728.214Z" class = "change"  fill="#091E42"/>
<path opacity="0.2" d="M475.359 728.214H459.432V748.265H475.359V728.214Z" class = "change"  fill="#091E42"/>
<path opacity="0.4" d="M497.129 728.214H481.202V748.265H497.129V728.214Z" class = "change"  fill="#091E42"/>
<path opacity="0.2" d="M518.898 728.214H502.972V748.265H518.898V728.214Z" class = "change"  fill="#091E42"/>
<path opacity="0.2" d="M540.663 728.214H524.737V748.265H540.663V728.214Z" class = "change"  fill="#091E42"/>
<path opacity="0.7" d="M562.433 728.214H546.506V748.265H562.433V728.214Z" class = "change"  fill="#091E42"/>
<path opacity="0.2" d="M584.198 728.214H568.271V748.265H584.198V728.214Z" class = "change"  fill="#091E42"/>
<path opacity="0.2" d="M605.967 728.214H590.041V748.265H605.967V728.214Z" class = "change"  fill="#091E42"/>
<path opacity="0.2" d="M627.738 728.214H611.812V748.265H627.738V728.214Z" class = "change"  fill="#091E42"/>
<path d="M649.504 728.214H633.575V748.265H649.504V728.214Z" class = "change"  fill="#091E42"/>
<path opacity="0.2" d="M671.266 728.214H655.342V748.265H671.266V728.214Z" class = "change"  fill="#091E42"/>
<path d="M693.041 728.214H677.104V748.265H693.041V728.214Z" class = "change"  fill="#091E42"/>
<path d="M714.803 728.214H698.879V748.265H714.803V728.214Z" class = "change"  fill="#091E42"/>
<path opacity="0.2" d="M736.578 728.214H720.654V748.265H736.578V728.214Z" class = "change"  fill="#091E42"/>
<path opacity="0.2" d="M758.34 728.214H742.416V748.265H758.34V728.214Z" class = "change"  fill="#091E42"/>
<path opacity="0.2" d="M780.115 728.214H764.178V748.265H780.115V728.214Z" class = "change"  fill="#091E42"/>
<path opacity="0.2" d="M801.877 728.214H785.953V748.265H801.877V728.214Z" class = "change"  fill="#091E42"/>
<path opacity="0.2" d="M823.639 728.214H807.715V748.265H823.639V728.214Z" class = "change"  fill="#091E42"/>
<path opacity="0.2" d="M845.414 728.214H829.49V748.265H845.414V728.214Z" class = "change"  fill="#091E42"/>
<path opacity="0.2" d="M867.176 728.214H851.252V748.265H867.176V728.214Z" class = "change"  fill="#091E42"/>
<path opacity="0.2" d="M888.951 728.214H873.027V748.265H888.951V728.214Z" class = "change"  fill="#091E42"/>
<path opacity="0.2" d="M910.725 728.214H894.789V748.265H910.725V728.214Z" class = "change"  fill="#091E42"/>
<path opacity="0.2" d="M932.488 728.214H916.551V748.265H932.488V728.214Z" class = "change"  fill="#091E42"/>
<path opacity="0.4" d="M954.25 728.214H938.325V748.265H954.25V728.214Z" class = "change"  fill="#091E42"/>
<path d="M976.012 728.214H960.088V748.265H976.012V728.214Z" class = "change"  fill="#091E42"/>
<path opacity="0.7" d="M431.825 753.616H415.898V773.667H431.825V753.616Z" class = "change"  fill="#091E42"/>
<path opacity="0.7" d="M453.594 753.616H437.668V773.667H453.594V753.616Z" class = "change"  fill="#091E42"/>
<path opacity="0.7" d="M475.359 753.616H459.432V773.667H475.359V753.616Z" class = "change"  fill="#091E42"/>
<path opacity="0.7" d="M497.129 753.616H481.202V773.667H497.129V753.616Z" class = "change"  fill="#091E42"/>
<path opacity="0.7" d="M518.898 753.616H502.972V773.667H518.898V753.616Z" class = "change"  fill="#091E42"/>
<path opacity="0.2" d="M540.663 753.616H524.737V773.667H540.663V753.616Z" class = "change"  fill="#091E42"/>
<path opacity="0.2" d="M562.433 753.616H546.506V773.667H562.433V753.616Z" class = "change"  fill="#091E42"/>
<path opacity="0.2" d="M584.198 753.616H568.271V773.667H584.198V753.616Z" class = "change"  fill="#091E42"/>
<path opacity="0.2" d="M605.967 753.616H590.041V773.667H605.967V753.616Z" class = "change"  fill="#091E42"/>
<path opacity="0.2" d="M627.738 753.616H611.812V773.667H627.738V753.616Z" class = "change"  fill="#091E42"/>
<path opacity="0.2" d="M649.504 753.616H633.575V773.667H649.504V753.616Z" class = "change"  fill="#091E42"/>
<path d="M671.266 753.616H655.342V773.667H671.266V753.616Z" class = "change"  fill="#091E42"/>
<path opacity="0.2" d="M693.041 753.616H677.104V773.667H693.041V753.616Z" class = "change"  fill="#091E42"/>
<path opacity="0.2" d="M714.803 753.616H698.879V773.667H714.803V753.616Z" class = "change"  fill="#091E42"/>
<path opacity="0.2" d="M736.578 753.616H720.654V773.667H736.578V753.616Z" class = "change"  fill="#091E42"/>
<path d="M758.34 753.616H742.416V773.667H758.34V753.616Z" class = "change"  fill="#091E42"/>
<path opacity="0.2" d="M780.115 753.616H764.178V773.667H780.115V753.616Z" class = "change"  fill="#091E42"/>
<path opacity="0.2" d="M801.877 753.616H785.953V773.667H801.877V753.616Z" class = "change"  fill="#091E42"/>
<path opacity="0.2" d="M823.639 753.616H807.715V773.667H823.639V753.616Z" class = "change"  fill="#091E42"/>
<path opacity="0.2" d="M845.414 753.616H829.49V773.667H845.414V753.616Z" class = "change"  fill="#091E42"/>
<path opacity="0.2" d="M867.176 753.616H851.252V773.667H867.176V753.616Z" class = "change"  fill="#091E42"/>
<path opacity="0.2" d="M888.951 753.616H873.027V773.667H888.951V753.616Z" class = "change"  fill="#091E42"/>
<path opacity="0.2" d="M910.725 753.616H894.789V773.667H910.725V753.616Z" class = "change"  fill="#091E42"/>
<path opacity="0.2" d="M932.488 753.616H916.551V773.667H932.488V753.616Z" class = "change"  fill="#091E42"/>
<path opacity="0.2" d="M954.25 753.616H938.325V773.667H954.25V753.616Z" class = "change"  fill="#091E42"/>
<path d="M976.012 753.616H960.088V773.667H976.012V753.616Z" class = "change"  fill="#091E42"/>
<path d="M808.584 827.38C820.608 827.38 830.347 815.109 830.347 799.973C830.347 784.837 820.608 772.566 808.584 772.566C796.56 772.566 786.81 784.837 786.81 799.973C786.81 815.109 796.56 827.38 808.584 827.38Z" fill="#767D9F"/>
<path d="M807.454 765.107C809.628 777.044 811.466 789.069 812.982 801.183C813.441 804.783 813.839 808.578 812.808 811.983C811.938 814.819 810.174 817.035 808.783 819.52C807.404 822.003 806.349 825.186 807.193 828.032C808.038 830.877 810.497 832.433 812.845 833.235C819.565 835.515 826.72 833.856 833.415 831.388C836.433 830.407 839.34 828.893 842.035 826.892C844.867 824.629 847.19 821.484 849.326 818.246C859.065 803.368 865.449 785.511 871.461 767.764C867.598 768.206 863.71 767.486 860.121 765.662C856.518 763.839 853.326 760.966 850.78 757.279C848.32 753.64 846.519 748.571 847.91 744.122C843.836 746.928 839.017 747.117 834.644 749.034C831.924 750.34 829.316 751.957 826.831 753.868C823.85 756.042 820.869 758.259 817.925 760.517C814.547 763.08 811.379 765.359 807.454 765.107Z" fill="#AE6E79"/>
<path d="M852.979 785.683C849.165 795.028 844.209 804.012 837.116 809.578C830.036 815.142 820.497 816.651 813.392 811.149C809.901 808.461 807.255 804.373 804.2 800.931C801.144 797.489 797.331 794.542 793.232 794.989C788.71 795.485 785.17 799.926 782.139 804.178C777.544 810.638 773.109 817.375 769.855 825.022C763.607 839.719 762.129 856.901 762.402 873.563C762.675 890.225 764.6 906.801 764.638 923.463C764.7 943.962 761.942 964.294 759.147 984.486C784.81 980.509 810.497 989.202 836.222 992.495C852.68 994.625 869.263 994.578 885.808 994.523C888.715 994.523 891.808 994.428 894.23 992.401C895.708 991.041 896.913 989.25 897.72 987.181C900.006 981.877 900.925 975.825 901.558 969.844C903.173 954.738 903.223 939.442 903.273 924.195C903.384 887.254 903.484 850.18 899.757 813.531C898.851 804.516 897.67 795.454 894.925 787.02C892.18 778.587 887.696 770.829 881.423 766.309C877.399 763.402 868.07 758.34 863.325 761.272C857.997 764.541 855.537 779.428 852.979 785.683Z" fill="#767D9F"/>
<path d="M854.879 889.997C853.91 867.205 849.972 842.878 858.357 822.648C860.419 817.681 853.028 811.479 855.314 806.669C858.096 800.805 860.208 794.473 861.586 787.861C862.071 785.589 862.443 783.184 861.996 780.906C861.164 776.747 857.897 774.272 855.127 771.74C852.072 768.943 850.494 760.415 849.513 755.801C848.519 751.188 857.363 756.745 860.916 755.102C865.847 752.831 872.107 754.26 877.026 756.564C879.784 757.837 882.765 757.948 885.696 758.041C891.373 758.231 897.087 758.411 902.726 757.53C905.26 757.13 907.806 756.525 910.353 756.705C916.849 757.169 922.501 762.766 926.351 769.382C930.19 776 932.637 783.711 935.792 790.879C938.425 796.853 941.555 802.495 943.791 808.713C945.779 814.214 947.033 820.125 948.275 826.004L951.48 841.086C952.039 843.244 952.312 845.505 952.262 847.775C952.101 850.188 951.256 852.436 950.399 854.582C947.132 862.534 943.232 870.039 938.736 876.974C932.003 887.373 923.83 896.749 919.818 909.199C918.265 914.048 917.396 919.204 916.601 924.344C913.408 944.902 911.135 965.673 909.794 986.553C902.503 982.304 894.851 979.085 887.001 976.956C883.075 975.901 879.113 975.114 875.138 974.599C871.648 974.143 867.139 975.007 863.822 973.813C858.258 971.824 857.649 959.995 856.804 953.802C855.463 943.938 855.19 933.902 855.14 923.936C855.078 912.601 855.363 901.292 854.879 889.997Z" fill="#4C4981"/>
<path d="M732.851 847.374C735.485 866.237 738.379 885.155 744.093 902.879C743.944 903.051 743.807 903.209 743.658 903.367C743.161 903.908 742.627 904.42 742.081 904.939C740.801 906.071 739.398 907.03 738.342 908.507C737.932 909.072 737.621 909.724 737.398 910.432C737.199 910.985 737.1 911.584 737.1 912.189C737.1 912.794 737.199 913.393 737.398 913.946C734.417 915.604 730.963 915.093 727.622 914.936C724.74 914.802 721.958 914.936 719.648 916.924C716.43 919.707 715.462 925.051 714.952 929.908C714.754 931.679 714.592 933.453 714.456 935.229C714.319 936.881 714.22 938.536 714.133 940.197C713.847 945.691 713.81 951.202 714.008 956.702C714.046 957.709 714.095 958.714 714.145 959.72C703.947 959.413 694.643 952.717 685.849 946.21C683.837 944.725 681.762 943.159 680.458 940.707C679.253 938.3 678.756 935.445 679.017 932.62C679.017 932.219 679.079 931.834 679.117 931.426C679.402 929.093 679.874 926.806 680.545 924.603C683.303 915.222 687.352 906.533 692.532 898.942C694.768 895.656 697.277 892.441 698.32 888.316C698.78 886.516 698.954 884.605 699.413 882.813C701.488 875.049 708.965 871.377 711.524 863.841C712.145 862.041 712.431 860.068 713.213 858.338C713.909 856.901 714.803 855.637 715.859 854.605C716.319 854.125 716.791 853.662 717.263 853.198C721.648 848.87 725.871 844.299 729.945 839.483C730.703 838.587 731.448 837.681 732.193 836.764C732.094 840.321 732.317 843.881 732.851 847.374Z" fill="#4C4981"/>
<path d="M795.766 791.586C794.871 792.781 793.89 793.905 792.946 795.02L792.685 795.311L791.679 796.49C789.84 798.486 788.251 800.814 786.959 803.399L786.847 803.62C783.667 810.796 784.847 819.63 785.742 827.78C786.835 837.937 787.331 848.183 787.22 858.433C787.058 872.58 785.729 886.633 785.704 900.765C785.704 903.971 785.766 907.17 785.878 910.378C786.052 915.588 786.363 920.791 786.735 925.994C787.145 931.7 787.629 937.398 788.089 943.097C788.449 947.507 788.797 951.907 789.083 956.309C789.219 958.589 789.369 960.86 789.48 963.14C789.605 965.811 789.716 968.491 789.778 971.164C789.816 972.862 789.841 974.551 789.841 976.249C789.841 977.216 789.841 978.174 789.841 979.134C789.841 980.973 789.803 982.807 789.729 984.636C789.642 986.989 789.518 989.345 789.344 991.709C789.145 994.279 788.81 997.085 787.369 998.893C787.282 999.002 787.195 999.105 787.095 999.207L785.071 998.893C771.134 996.791 757.048 996.475 743.062 997.95C743.36 995.293 743.645 992.644 743.919 989.98C744.043 988.722 744.167 987.457 744.291 986.192C744.428 984.745 744.552 983.299 744.676 981.854C744.825 980.281 744.95 978.709 745.074 977.137C745.409 973.087 745.695 969.034 745.931 964.979C746.291 959.063 746.577 953.136 746.763 947.2C746.85 944.365 746.925 941.528 746.974 938.688C747.036 935.167 747.074 931.643 747.074 928.117C747.074 924.689 747.049 921.258 746.999 917.82C746.999 916.689 746.962 915.557 746.887 914.433C746.838 913.421 746.726 912.415 746.565 911.422C746.093 909.135 745.471 906.904 744.689 904.757C744.552 904.349 744.416 903.972 744.291 903.539C744.217 903.327 744.142 903.108 744.08 902.895C747.67 898.863 750.229 893.464 752.688 888.15C756.675 879.591 760.762 870.654 761.433 860.767C762.104 850.88 758.191 839.774 750.688 836.756C748.651 835.97 746.49 835.749 744.391 835.286C742.403 834.845 738.267 833.848 735.969 832.056C734.714 833.67 733.472 835.255 732.218 836.811C732.292 834.436 732.752 832.106 733.572 829.965L734.454 830.02C734.392 829.768 734.354 829.502 734.354 829.234C734.354 828.393 734.826 827.442 735.808 826.388C738.751 823.245 743.372 822.546 745.235 818.294C746.005 816.525 746.13 814.419 746.763 812.564C748.552 807.274 753.694 805.326 756.787 801.097C759.893 796.869 760.663 790.879 763.172 786.163C765.035 782.72 767.631 779.998 770.662 778.303C770.91 778.155 771.159 778.005 771.42 777.872C776.599 775.081 782.76 774.444 788.126 774.46C790.213 774.46 795.616 774.539 798.262 775.867C798.697 776.06 799.082 776.363 799.417 776.755C802.237 780.622 797.852 788.789 795.766 791.586Z" fill="#4C4981"/>
<path d="M733.783 829.414C738.602 827.587 743.67 826.985 748.676 827.642C753.694 828.298 758.551 830.202 762.961 833.243C767.457 836.387 771.494 840.772 773.966 846.431C777.68 854.92 777.519 865.153 777.258 874.844C777.121 879.693 776.96 884.716 775.258 889.07C773.295 894.108 769.581 897.566 765.805 900.396C763.433 902.299 760.837 903.714 758.104 904.585C753.918 905.732 749.558 904.758 745.335 903.799C740.739 902.729 735.808 901.441 732.615 897.134C730.74 894.635 729.709 891.389 728.703 888.213C727.249 883.628 725.796 879.049 724.33 874.475C721.809 866.528 720.952 859.919 724.293 852.177C725.808 848.647 727.659 845.346 729.162 841.793C729.907 839.986 732.59 829.879 733.783 829.414Z" fill="#4C4981"/>
<path d="M996.172 965.285V988.786C983.365 995.483 969.627 998.903 955.765 998.846H787.394C787.307 998.955 787.207 999.058 787.12 999.16L785.096 998.846H485.584C460.456 998.846 437.169 990.311 418.071 975.769V939.891L562.115 918.96H562.227L646.113 927.905L667.813 930.263L679.092 931.465L702.432 933.956L714.443 935.237L731.92 937.108L734.379 937.367L746.975 938.712L764.066 940.48L788.114 943.042L828.173 947.325L856.37 950.336L902.652 955.28L911.458 956.215L912.402 956.317L913.234 956.403L924.848 957.645L937.618 959.013L939.096 959.169L996.172 965.285Z" fill="#504F60"/>
<path d="M826.98 964.421L646.473 925.633L639.468 970.189L722.219 982.662L747.695 986.68L817.789 969.301L826.98 964.421Z" fill="#9C9CA1"/>
<path d="M733.547 984.447L823.987 963.045C824.434 962.936 824.906 962.955 825.341 963.099C825.788 963.243 826.21 963.51 826.558 963.881C826.918 964.251 827.204 964.715 827.39 965.241C827.589 965.767 827.688 966.339 827.688 966.92C827.688 967.84 827.44 968.731 826.968 969.439C826.509 970.148 825.85 970.628 825.142 970.795L736.814 991.615L733.547 984.447Z" class='addeffects' fill="#9C9CA1"/>
<path d="M772.774 917.144C775.594 916.814 778.438 916.256 780.984 914.684C784.102 912.728 786.524 909.355 789.418 906.872C795.778 901.37 804.274 900.632 811.566 903.791C818.845 906.95 824.931 913.718 829.192 921.798C832.011 927.181 834.135 934.05 832.148 939.993C831.452 941.81 830.595 943.509 829.564 945.055L824.36 953.621C823.378 955.422 822.186 957.034 820.832 958.408C818.882 960.192 816.46 960.923 814.075 961.363C807.74 962.527 801.293 961.866 794.896 962.4C783.928 963.32 773.221 967.769 762.228 967.62C755.906 967.533 749.67 965.93 743.497 964.327L716.17 957.252C711.412 956.026 706.034 954.234 703.798 948.803C702.792 946.359 702.606 943.53 702.481 940.779C702.159 933.201 702.481 924.777 706.655 919.313C710.568 914.189 716.778 912.57 721.461 908.782C727.188 904.137 729.076 905.638 735.125 909.128C746.913 915.849 759.88 918.612 772.774 917.144Z" fill="#AE6E79"/>
<path opacity="0.05" d="M772.774 917.144C775.594 916.814 778.438 916.256 780.984 914.684C784.102 912.728 786.524 909.355 789.418 906.872C795.778 901.37 804.274 900.632 811.566 903.791C818.845 906.95 824.931 913.718 829.192 921.798C832.011 927.181 834.135 934.05 832.148 939.993C831.452 941.81 830.595 943.509 829.564 945.055L824.36 953.621C823.378 955.422 822.186 957.034 820.832 958.408C818.882 960.192 816.46 960.923 814.075 961.363C807.74 962.527 801.293 961.866 794.896 962.4C783.928 963.32 773.221 967.769 762.228 967.62C755.906 967.533 749.67 965.93 743.497 964.327L716.17 957.252C711.412 956.026 706.034 954.234 703.798 948.803C702.792 946.359 702.606 943.53 702.481 940.779C702.159 933.201 702.481 924.777 706.655 919.313C710.568 914.189 716.778 912.57 721.461 908.782C727.188 904.137 729.076 905.638 735.125 909.128C746.913 915.849 759.88 918.612 772.774 917.144Z" fill="black"/>
<path d="M882.517 906.368C874.84 910.102 867.139 913.851 859.102 916.076C845.65 919.809 831.564 919.219 818.211 923.487C811.156 925.751 804.138 929.398 796.896 928.658C793.654 928.328 790.524 927.087 787.369 926.144C769.656 920.642 749.521 922.427 735.137 936.574C730.218 941.408 726.194 947.436 722.542 953.865C721.759 955.254 721.238 956.843 720.989 958.517C720.753 960.193 720.815 961.914 721.175 963.557C721.523 965.201 722.157 966.725 723.039 968.022C723.908 969.319 725.001 970.358 726.231 971.062C731.821 974.3 737.82 976.313 743.944 977.012C752.142 977.924 760.377 976.462 768.538 975C780.637 972.838 792.735 970.669 804.809 968.241C809.144 967.368 813.479 966.464 817.839 965.772C849.19 960.782 881.126 966.849 912.564 962.683C915.744 962.259 918.973 961.709 921.868 960.003C929.184 955.681 932.798 944.284 931.295 934.271C929.78 924.258 923.954 915.934 916.936 910.825C911.049 906.526 904.714 904.789 898.155 902.965C892.081 901.181 888.367 903.539 882.517 906.368Z" fill="#AE6E79"/>
<path opacity="0.1" d="M949.766 846.51C953.231 852.216 953.964 859.871 953.591 867.016C953.219 874.16 951.865 881.226 951.666 888.402C951.393 898.241 953.281 908.051 952.958 917.859C952.734 924.721 951.442 931.45 949.915 938.035C948.113 945.808 945.505 954.164 939.804 957.897C932.239 962.857 916.365 960.066 908.403 963.948C909.123 958.266 916.067 950.037 916.799 944.354C917.296 940.424 917.793 936.385 917.259 932.447C916.576 927.425 914.228 922.968 911.458 919.259C907.036 913.357 901.273 908.916 894.925 907.469C888.59 906.023 873.076 907.21 868.008 912.248C867.387 907.045 879.001 902.03 883.075 900.906C885.113 900.332 887.448 900.656 889.075 899.028C892.205 895.947 889.932 889.809 890.081 884.88C890.205 880.95 892.031 877.351 892.391 873.421C893.025 867.133 889.758 860.728 891.037 854.558C891.509 852.278 892.565 850.275 893.298 848.105C895.522 841.463 894.553 833.887 893.36 826.829C892.627 822.396 891.907 817.398 893.87 813.617C895.683 810.088 900.838 822.656 904.142 822.074C915.048 820.149 924.923 809.97 933.73 818.302C938.226 822.546 938.81 826.947 940.599 833.006C942.338 838.775 946.859 841.731 949.766 846.51Z" fill="black"/>
<path d="M951.641 846.51C955.107 852.216 955.84 859.871 955.467 867.015C955.094 874.16 953.741 881.226 953.542 888.402C953.269 898.243 955.157 908.051 954.834 917.86C954.61 924.721 953.318 931.45 951.79 938.035C949.989 945.808 947.368 954.164 941.679 957.896C934.102 962.857 918.24 960.065 910.278 963.948C910.999 958.266 917.942 950.037 918.663 944.354C919.172 940.424 919.669 936.385 919.135 932.447C918.451 927.425 916.104 922.968 913.334 919.258C908.912 913.357 903.136 908.916 896.801 907.469C890.466 906.023 874.952 907.21 869.884 912.248C869.263 907.045 880.865 902.03 884.951 900.906C886.988 900.332 889.323 900.655 890.951 899.028C894.081 895.947 891.808 889.809 891.957 884.88C892.081 880.95 893.895 877.351 894.267 873.421C894.888 867.133 891.634 860.728 892.913 854.558C893.385 852.278 894.441 850.275 895.174 848.105C897.397 841.463 896.428 833.887 895.236 826.829C894.503 822.396 893.783 817.398 895.745 813.617C897.559 810.088 901.111 808.752 904.415 808.162C915.47 806.279 926.674 809.918 935.63 818.302C940.114 822.546 940.711 826.947 942.499 833.006C944.213 838.775 948.722 841.731 951.641 846.51Z" fill="#4C4981"/>
<path d="M649.02 923.514C650.051 923.085 651.181 922.955 652.274 923.136L705.872 931.99L821.304 942.557C824.521 942.85 826.98 945.672 826.98 949.054V953.729C826.98 956.678 825.092 959.259 822.385 960.026L737.261 984.085C735.572 984.563 734.951 986.747 736.131 988.11C737.547 989.752 736.329 992.367 734.23 992.214L637.555 985.13L554.529 976.725C548.197 976.083 546.768 967.049 552.564 964.293L564.269 958.727L649.02 923.514Z" class='open'  fill="#9C9CA1"/>
<path d="M538.486 809.186L572.42 967.055C572.836 968.99 573.711 970.719 574.927 972.011C576.144 973.304 577.644 974.099 579.229 974.291L731.965 992.761C733.209 992.913 734.465 992.686 735.626 992.101C736.787 991.516 737.82 990.589 738.637 989.398C739.455 988.207 740.034 986.786 740.327 985.256C740.619 983.725 740.615 982.128 740.316 980.6L703.156 790.174C702.714 787.91 701.648 785.917 700.148 784.549C698.649 783.182 696.814 782.526 694.968 782.702L545.432 796.781C544.285 796.893 543.17 797.322 542.169 798.039C541.168 798.756 540.305 799.742 539.642 800.927C538.978 802.112 538.531 803.467 538.331 804.894C538.131 806.322 538.184 807.787 538.486 809.186Z" class='addeffects' visibility='hidden' fill="#9C9CA1"/>
<path opacity="0.1" d="M850.817 755.203V758.442L847.153 757.995L840.247 748.972C840.247 748.972 850.929 751.982 850.817 755.203Z" fill="black" stroke="#4C4981" stroke-miterlimit="10"/>
<path opacity="0.1" d="M860.779 787.397L858.208 782.052V760.494C863.301 772.392 860.779 787.397 860.779 787.397Z" fill="black" stroke="#4C4981" stroke-miterlimit="10"/>
<path d="M841.414 840.089C850.693 840.089 858.208 830.5 858.208 818.671C858.208 806.842 850.693 797.253 841.414 797.253C832.135 797.253 824.621 806.842 824.621 818.671C824.621 830.5 832.135 840.089 841.414 840.089Z" class='hide' fill="white"/>
<path d="M855.202 779.6C855.202 779.6 858.742 792.851 848.296 798.425L846.967 801.363L853.5 809.49C853.5 809.49 861.574 790.965 860.705 784.387C860.705 784.387 859.45 777.706 855.202 779.6Z" class='hide' fill="white"/>
<path d="M843.34 840.089C852.283 840.089 859.537 830.96 859.537 819.7C859.537 808.44 852.283 799.313 843.34 799.313C834.396 799.313 827.142 808.44 827.142 819.7C827.142 830.96 834.396 840.089 843.34 840.089Z" class='hide' fill="#09090A"/>
<path d="M762.891 765.39C767.198 762.26 767.013 751.705 762.477 741.814C757.941 731.924 750.771 726.444 746.464 729.575C742.156 732.705 742.341 743.26 746.878 753.151C751.415 763.041 758.583 768.521 762.891 765.39Z" class='moveUp' visibility='hidden' fill="white"/>
<path d="M763.682 742.569C768.219 752.461 773.787 759.068 769.479 762.21C765.173 765.353 752.629 763.782 748.092 753.882C743.554 743.984 747.673 730.313 751.98 727.171C756.286 724.027 759.138 732.654 763.682 742.569Z" class='moveUp' visibility='hidden' fill="#09090A"/>
<path opacity="0.1" d="M850.817 755.203V758.442L847.153 757.995L840.247 748.972C840.247 748.972 850.929 751.982 850.817 755.203Z" fill="black" stroke="#4C4981" stroke-miterlimit="10"/>
<path d="M860.779 787.397L858.208 782.052L854.457 781.384C855.264 763.787 851.637 758.545 851.637 758.545L850.792 758.442L847.116 757.995L840.209 748.972V746.409C849.923 747.863 855.277 753.663 858.171 760.462C863.301 772.393 860.779 787.397 860.779 787.397Z" class='hide' fill="#09090A"/>
<path d="M805.74 797.701C830.856 797.701 851.227 772.066 851.227 740.444C851.227 708.82 830.856 683.186 805.74 683.186C780.624 683.186 760.253 708.82 760.253 740.444C760.253 772.066 780.624 797.701 805.74 797.701Z" fill="#AE6E79"/>
<path d="M813.416 828.081C817.727 824.95 817.54 814.389 813.007 804.495C808.46 794.602 801.293 789.119 796.983 792.252C792.672 795.383 792.859 805.943 797.393 815.837C801.939 825.731 809.106 831.213 813.416 828.081Z" class='hide' fill="white"/>
<path d="M807.628 808.438C812.174 818.333 817.739 824.943 813.429 828.087C809.119 831.23 796.573 829.658 792.039 819.755C787.493 809.853 791.617 796.176 795.927 793.033C800.237 789.888 803.082 798.519 807.628 808.438Z" class='hide' fill="#09090A"/>
<path opacity="0.1" d="M848.047 737.151C848.047 768.769 830.856 799.241 805.74 799.241C793.679 799.241 782.102 793.209 773.581 782.472C765.048 771.734 760.253 757.17 760.253 741.985C760.253 726.799 765.048 712.235 773.581 701.497C782.102 690.759 793.679 684.727 805.74 684.727C830.856 684.758 848.047 705.523 848.047 737.151Z" fill="black"/>
<path d="M805.74 797.701C830.856 797.701 851.227 772.066 851.227 740.444C851.227 708.82 830.856 683.186 805.74 683.186C780.624 683.186 760.253 708.82 760.253 740.444C760.253 772.066 780.624 797.701 805.74 797.701Z" fill="#AE6E79"/>
<path d="M837.407 769.308C846.681 769.308 854.197 759.724 854.197 747.899C854.197 736.075 846.681 726.491 837.407 726.491C828.135 726.491 820.619 736.075 820.619 747.899C820.619 759.724 828.135 769.308 837.407 769.308Z" class='moveUp'  visibility='hidden' fill="white"/>
<path d="M839.337 769.308C848.278 769.308 855.527 760.184 855.527 748.929C855.527 737.674 848.278 728.549 839.337 728.549C830.395 728.549 823.147 737.674 823.147 748.929C823.147 760.184 830.395 769.308 839.337 769.308Z" class='moveUp'  visibility='hidden' fill="#09090A"/>
<path d="M851.194 708.845C851.194 708.845 854.733 722.091 844.292 727.661L842.957 730.599L849.497 738.723C849.497 738.723 857.561 720.206 856.687 713.63C856.687 713.63 855.439 706.952 851.194 708.845Z" class='moveUp' visibility='hidden'  fill="white"/>
<path d="M801.741 715.072C807.156 717.58 810.361 724.622 815.218 728.544C822.087 734.045 831.03 732.624 838.868 729.904C843.24 728.403 847.811 726.572 852.109 728.237C852.743 728.591 853.438 728.715 854.121 728.599C855.065 728.261 855.525 726.957 855.823 725.793C861.152 705.83 858.755 683.217 850.73 664.748C848.656 659.984 846.172 655.379 842.743 652.07C840.048 649.468 836.881 647.762 833.688 646.309C827.838 643.668 821.801 641.79 815.652 640.704C814.572 640.457 813.454 640.411 812.361 640.571C810.858 640.878 809.516 641.899 808.162 642.811C802.424 646.691 796.039 648.871 789.53 649.185C780.786 649.602 770.799 647.008 764.054 654.065C755.943 662.53 757.968 679.044 752.701 690.534C749.223 698.135 742.503 703.653 741.398 712.306C741.112 714.951 741.236 717.641 741.795 720.221C744.366 733.535 754.602 743.847 765.52 744.091C767.184 744.251 768.874 743.818 770.364 742.841C771.333 742.001 772.203 740.97 772.911 739.783C780.065 729.126 788.239 708.817 801.741 715.072Z" fill="#444053"/>
<path opacity="0.1" d="M855.823 720.001C855.525 721.164 855.065 722.469 854.121 722.806C853.438 722.922 852.742 722.797 852.109 722.445C847.811 720.778 843.215 722.609 838.868 724.111C831.03 726.83 822.062 728.284 815.217 722.752C810.361 718.822 807.168 711.747 801.74 709.28C788.238 702.992 780.065 723.333 772.898 733.991C772.177 735.176 771.32 736.209 770.339 737.048C768.849 738.026 767.172 738.459 765.495 738.297C754.614 738.055 744.379 727.742 741.77 714.428C741.621 713.642 741.497 712.856 741.41 712.071C741.41 712.141 741.41 712.204 741.372 712.274C741.087 714.919 741.223 717.61 741.77 720.189C744.341 733.504 754.589 743.816 765.495 744.06C767.172 744.22 768.849 743.787 770.339 742.809C771.32 741.97 772.177 740.938 772.898 739.752C780.065 729.094 788.238 708.785 801.74 715.041C807.168 717.549 810.361 724.591 815.217 728.513C822.086 734.014 831.03 732.592 838.868 729.873C843.24 728.372 847.811 726.54 852.109 728.206C852.742 728.558 853.438 728.683 854.121 728.567C855.065 728.23 855.525 726.925 855.823 725.762C857.972 717.593 858.916 709.002 858.63 700.407C858.444 707.073 857.5 713.671 855.823 720.001Z" fill="black"/>
<defs>
<linearGradient id="paint0_linear" x1="1461" y1="-0.000975068" x2="94.4068" y2="1052.99" gradientUnits="userSpaceOnUse">
<stop stop-color="#1F1D21"/>
<stop offset="0.291945" stop-color="#7B16E1"/>
<stop offset="0.512063" stop-color="#9440FF"/>
<stop offset="0.834039" stop-color="#7E02FA" stop-opacity="0"/>
</linearGradient>
</defs>
</svg>
