<svg width="701" height="500" viewBox="0 0 701 500" fill="none" xmlns="http://www.w3.org/2000/svg">
<g clip-path="url(#clip0)">
<rect width="699.523" height="500" transform="translate(0.49585)" fill="#091E42"/>
<g filter="url(#filter0_d)">
<path d="M512.423 17H62.1774C56.259 17 51.4612 20.4204 51.4612 24.6398V486C51.4612 486 58.5339 500 64.4523 500H288.3H509.649C515.567 500 523.14 490.219 523.14 486V24.6398C523.14 20.4204 518.342 17 512.423 17Z" fill="white"/>
</g>
<path opacity="0.1" d="M359.634 199.931H310.901C305.042 199.931 300.292 203.012 300.292 206.813V243.46C300.292 247.26 305.042 250.341 310.901 250.341H359.634C365.494 250.341 370.244 247.26 370.244 243.46V206.813C370.244 203.012 365.494 199.931 359.634 199.931Z" fill="#091E42"/>
<path opacity="0.1" d="M359.634 340H310.901C305.042 340 300.292 343.081 300.292 346.882V383.528C300.292 387.329 305.042 390.41 310.901 390.41H359.634C365.494 390.41 370.244 387.329 370.244 383.528V346.882C370.244 343.081 365.494 340 359.634 340Z" fill="#091E42"/>
<path opacity="0.1" d="M359.634 410H310.901C305.042 410 300.292 413.081 300.292 416.882V453.528C300.292 457.329 305.042 460.41 310.901 460.41H359.634C365.494 460.41 370.244 457.329 370.244 453.528V416.882C370.244 413.081 365.494 410 359.634 410Z" fill="#091E42"/>
<path opacity="0.1" d="M259.702 199.931H210.969C205.11 199.931 200.36 203.012 200.36 206.813V243.46C200.36 247.26 205.11 250.341 210.969 250.341H259.702C265.562 250.341 270.312 247.26 270.312 243.46V206.813C270.312 203.012 265.562 199.931 259.702 199.931Z" fill="#091E42"/>
<path opacity="0.1" d="M257.703 340H208.971C203.111 340 198.361 343.081 198.361 346.882V383.528C198.361 387.329 203.111 390.41 208.971 390.41H257.703C263.563 390.41 268.313 387.329 268.313 383.528V346.882C268.313 343.081 263.563 340 257.703 340Z" fill="#091E42"/>
<path opacity="0.1" d="M457.203 86.0173H253.403C242.418 86.0173 233.514 94.3581 233.514 104.647V147.805C233.514 158.094 242.418 166.435 253.403 166.435H457.203C468.187 166.435 477.092 158.094 477.092 147.805V104.647C477.092 94.3581 468.187 86.0173 457.203 86.0173Z" fill="black"/>
<path d="M461.412 87H111.19C105.246 87 100.428 89.8834 100.428 93.4403V157.56C100.428 161.117 105.246 164 111.19 164H461.412C467.356 164 472.174 161.117 472.174 157.56V93.4403C472.174 89.8834 467.356 87 461.412 87Z" fill="#091E42"/>
<path opacity="0.1" d="M159.77 199.931H111.038C105.178 199.931 100.428 203.012 100.428 206.813V243.46C100.428 247.26 105.178 250.341 111.038 250.341H159.77C165.63 250.341 170.38 247.26 170.38 243.46V206.813C170.38 203.012 165.63 199.931 159.77 199.931Z" fill="#091E42"/>
<path opacity="0.1" d="M159.77 340H111.038C105.178 340 100.428 343.081 100.428 346.882V383.528C100.428 387.329 105.178 390.41 111.038 390.41H159.77C165.63 390.41 170.38 387.329 170.38 383.528V346.882C170.38 343.081 165.63 340 159.77 340Z" fill="#091E42"/>
<path opacity="0.1" d="M159.77 270H111.038C105.178 270 100.428 273.081 100.428 276.882V313.528C100.428 317.329 105.178 320.41 111.038 320.41H159.77C165.63 320.41 170.38 317.329 170.38 313.528V276.882C170.38 273.081 165.63 270 159.77 270Z" fill="#091E42"/>
<path opacity="0.1" d="M259.702 270H210.969C205.11 270 200.36 273.081 200.36 276.882V313.528C200.36 317.329 205.11 320.41 210.969 320.41H259.702C265.562 320.41 270.312 317.329 270.312 313.528V276.882C270.312 273.081 265.562 270 259.702 270Z" fill="#091E42"/>
<path opacity="0.1" d="M356.636 267H307.903C302.044 267 297.293 270.081 297.293 273.882V310.528C297.293 314.329 302.044 317.41 307.903 317.41H356.636C362.496 317.41 367.246 314.329 367.246 310.528V273.882C367.246 270.081 362.496 267 356.636 267Z" fill="#091E42"/>
<path d="M461.564 200H412.832C406.972 200 402.222 203.081 402.222 206.882V243.528C402.222 247.329 406.972 250.41 412.832 250.41H461.564C467.424 250.41 472.174 247.329 472.174 243.528V206.882C472.174 203.081 467.424 200 461.564 200Z" fill="#4A4A7D"/>
<path opacity="0.1" d="M259.523 410H111.217C105.258 410 100.428 412.844 100.428 416.351V453.649C100.428 457.156 105.258 460 111.217 460H259.523C265.481 460 270.312 457.156 270.312 453.649V416.351C270.312 412.844 265.481 410 259.523 410Z" fill="#091E42"/>
<path opacity="0.1" d="M458.306 340H412.093C406.641 340 402.222 343.579 402.222 347.994V452.006C402.222 456.421 406.641 460 412.093 460H458.306C463.758 460 468.177 456.421 468.177 452.006V347.994C468.177 343.579 463.758 340 458.306 340Z" fill="#091E42"/>
<path d="M464.196 151.779H442.992V153.928H464.196V151.779Z" fill="white"/>
<path d="M433.154 151.779H411.95V153.928H433.154V151.779Z" fill="white"/>
<path d="M402.105 151.779H380.901V153.928H402.105V151.779Z" fill="white"/>
<path opacity="0.1" d="M459.566 267H410.833C404.973 267 400.223 270.081 400.223 273.882V310.528C400.223 314.329 404.973 317.41 410.833 317.41H459.566C465.425 317.41 470.175 314.329 470.175 310.528V273.882C470.175 270.081 465.425 267 459.566 267Z" fill="#091E42"/>
</g>
<defs>
<filter id="filter0_d" x="45.4612" y="11" width="491.678" height="503" filterUnits="userSpaceOnUse" color-interpolation-filters="sRGB">
<feFlood flood-opacity="0" result="BackgroundImageFix"/>
<feColorMatrix in="SourceAlpha" type="matrix" values="0 0 0 0 0 0 0 0 0 0 0 0 0 0 0 0 0 0 127 0"/>
<feOffset dx="4" dy="4"/>
<feGaussianBlur stdDeviation="5"/>
<feColorMatrix type="matrix" values="0 0 0 0 0 0 0 0 0 0 0 0 0 0 0 0 0 0 0.5 0"/>
<feBlend mode="normal" in2="BackgroundImageFix" result="effect1_dropShadow"/>
<feBlend mode="normal" in="SourceGraphic" in2="effect1_dropShadow" result="shape"/>
</filter>
<clipPath id="clip0">
<rect width="699.523" height="500" fill="white" transform="translate(0.49585)"/>
</clipPath>
</defs>
</svg>
