<svg width="263" height="224" viewBox="0 0 263 224" fill="none" xmlns="http://www.w3.org/2000/svg">
<g filter="url(#filter0_d)">
<rect x="16.8687" y="16" width="221.849" height="184" rx="10" fill="white"/>
<g clip-path="url(#clip0)">
<path opacity="0.1" d="M220.683 156.584C219.934 158.555 219.012 160.446 217.93 162.232C217.422 163.084 216.865 163.901 216.263 164.679L216.244 164.703H29.7998L29.8334 164.678C30.0011 164.538 30.9859 163.687 32.5176 162.23C33.6164 161.183 34.9955 159.825 36.5439 158.191C49.2084 144.887 73.5358 113.395 53.275 84.5468C34.4402 57.7284 54.7194 52.86 68.0969 52.2938C73.2371 52.0807 78.3648 52.9759 83.1739 54.926C89.3526 57.4346 100.648 61.2816 115.364 63.043C115.848 63.1015 116.335 63.1577 116.827 63.2114C124.619 64.0581 132.462 64.2097 140.277 63.6648C140.507 63.6522 140.739 63.6343 140.972 63.6164C148.703 63.035 156.375 61.7668 163.909 59.8249C164.397 59.6976 164.878 59.5776 165.358 59.4665C190.461 53.2632 213.602 74.405 207.817 98.2991C205.677 107.135 206.22 116.556 213.354 124.175C225.022 136.617 223.601 148.866 220.683 156.584Z" fill="#4C4981"/>
<path d="M181.027 89.638C181.662 88.4244 181.474 87.0206 180.606 86.5024C179.738 85.9842 178.52 86.5479 177.885 87.7615C177.249 88.9751 177.438 90.3789 178.306 90.8971C179.173 91.4153 180.392 90.8516 181.027 89.638Z" fill="#3F3D56"/>
<path d="M182.432 86.9522C183.067 85.7386 182.879 84.3347 182.011 83.8165C181.143 83.2983 179.925 83.862 179.29 85.0756C178.654 86.2892 178.843 87.6931 179.711 88.2113C180.578 88.7295 181.797 88.1657 182.432 86.9522Z" fill="#3F3D56"/>
<path d="M183.839 84.2671C184.474 83.0535 184.286 81.6496 183.418 81.1314C182.55 80.6132 181.332 81.177 180.696 82.3906C180.061 83.6041 180.25 85.008 181.117 85.5262C181.985 86.0444 183.204 85.4807 183.839 84.2671Z" fill="#3F3D56"/>
<path d="M185.244 81.5794C185.879 80.3658 185.691 78.9619 184.823 78.4438C183.955 77.9256 182.737 78.4893 182.101 79.7029C181.466 80.9165 181.655 82.3203 182.522 82.8385C183.39 83.3567 184.609 82.793 185.244 81.5794Z" fill="#3F3D56"/>
<path d="M186.648 78.8951C187.283 77.6815 187.095 76.2776 186.227 75.7594C185.359 75.2412 184.141 75.805 183.506 77.0186C182.87 78.2321 183.059 79.636 183.927 80.1542C184.794 80.6724 186.013 80.1087 186.648 78.8951Z" fill="#3F3D56"/>
<path d="M188.055 76.2092C188.69 74.9957 188.502 73.5918 187.634 73.0736C186.766 72.5554 185.548 73.1191 184.913 74.3327C184.277 75.5463 184.466 76.9502 185.334 77.4684C186.201 77.9866 187.42 77.4228 188.055 76.2092Z" fill="#3F3D56"/>
<path d="M189.462 73.5242C190.097 72.3106 189.908 70.9067 189.041 70.3885C188.173 69.8703 186.955 70.4341 186.319 71.6477C185.684 72.8612 185.872 74.2651 186.74 74.7833C187.608 75.3015 188.826 74.7378 189.462 73.5242Z" fill="#3F3D56"/>
<path d="M203.385 57.7158C203.752 57.5519 204.109 57.3615 204.452 57.146L200.703 53.9548L205.147 56.6568C206.096 55.917 206.894 54.9782 207.492 53.8977C208.09 52.8172 208.475 51.6178 208.624 50.3729L200.895 50.1149L208.691 49.0774C208.682 47.8072 208.427 46.5527 207.942 45.3928C207.458 44.2328 206.753 43.1926 205.874 42.3373C204.995 41.482 203.959 40.8302 202.833 40.4228C201.706 40.0155 200.513 39.8613 199.328 39.9701C198.143 40.0789 196.992 40.4483 195.947 41.0551C194.902 41.6618 193.986 42.4928 193.257 43.4958C192.527 44.4989 191.999 45.6522 191.707 46.8835C191.415 48.1148 191.364 49.3974 191.558 50.6506C190.986 50.9054 190.441 51.2249 189.932 51.6039L193.739 57.7785L189.097 52.317C188.032 53.3441 187.223 54.6387 186.745 56.0836C186.267 57.5284 186.133 59.0779 186.357 60.5917C184.863 61.2564 183.575 62.3566 182.639 63.7664C181.703 65.1763 181.158 66.839 181.065 68.5644C180.972 70.2898 181.335 72.0083 182.114 73.5235C182.892 75.0386 184.054 76.2894 185.466 77.1326C186.879 77.9759 188.485 78.3776 190.101 78.292C191.717 78.2064 193.278 77.6368 194.605 76.6484C195.933 75.6599 196.973 74.2926 197.607 72.7025C198.241 71.1125 198.443 69.364 198.191 67.6569C199.976 66.8629 201.46 65.4509 202.403 63.648C203.346 61.845 203.694 59.7557 203.392 57.7158H203.385Z" fill="#4C4981"/>
<path opacity="0.1" d="M187.34 54.659C186.397 56.4623 186.051 58.5524 186.357 60.5918C184.863 61.2565 183.575 62.3566 182.639 63.7665C181.703 65.1763 181.158 66.839 181.065 68.5644C180.972 70.2898 181.335 72.0083 182.114 73.5235C182.892 75.0387 184.054 76.2894 185.466 77.1326C186.879 77.9759 188.485 78.3777 190.101 78.292C191.717 78.2064 193.278 77.6368 194.605 76.6484C195.933 75.66 196.973 74.2926 197.607 72.7026C198.241 71.1126 198.443 69.3641 198.191 67.6569C199.907 66.8918 187.813 53.7631 187.34 54.659Z" fill="black"/>
<path d="M198.535 153.203H200.567C201.679 153.203 202.746 153.675 203.532 154.515C204.319 155.355 204.761 156.494 204.761 157.682V164.332H194.341V157.682C194.341 156.494 194.783 155.355 195.569 154.515C196.356 153.675 197.423 153.203 198.535 153.203Z" fill="#3F3D56"/>
<path opacity="0.1" d="M198.535 153.203H200.567C201.679 153.203 202.746 153.675 203.532 154.515C204.319 155.355 204.761 156.494 204.761 157.682V164.332H194.341V157.682C194.341 156.494 194.783 155.355 195.569 154.515C196.356 153.675 197.423 153.203 198.535 153.203Z" fill="black"/>
<path d="M199.136 155.652C199.596 155.652 199.969 155.253 199.969 154.761C199.969 154.27 199.596 153.871 199.136 153.871C198.675 153.871 198.302 154.27 198.302 154.761C198.302 155.253 198.675 155.652 199.136 155.652Z" fill="#3F3D56"/>
<path d="M199.136 154.539C199.596 154.539 199.969 154.141 199.969 153.649C199.969 153.157 199.596 152.758 199.136 152.758C198.675 152.758 198.302 153.157 198.302 153.649C198.302 154.141 198.675 154.539 199.136 154.539Z" fill="#3F3D56"/>
<path d="M199.136 153.425C199.596 153.425 199.969 153.026 199.969 152.534C199.969 152.042 199.596 151.644 199.136 151.644C198.675 151.644 198.302 152.042 198.302 152.534C198.302 153.026 198.675 153.425 199.136 153.425Z" fill="#3F3D56"/>
<path d="M199.136 152.312C199.596 152.312 199.969 151.913 199.969 151.421C199.969 150.93 199.596 150.531 199.136 150.531C198.675 150.531 198.302 150.93 198.302 151.421C198.302 151.913 198.675 152.312 199.136 152.312Z" fill="#3F3D56"/>
<path d="M199.136 151.199C199.596 151.199 199.969 150.801 199.969 150.309C199.969 149.817 199.596 149.418 199.136 149.418C198.675 149.418 198.302 149.817 198.302 150.309C198.302 150.801 198.675 151.199 199.136 151.199Z" fill="#3F3D56"/>
<path d="M199.136 150.087C199.596 150.087 199.969 149.688 199.969 149.196C199.969 148.704 199.596 148.305 199.136 148.305C198.675 148.305 198.302 148.704 198.302 149.196C198.302 149.688 198.675 150.087 199.136 150.087Z" fill="#3F3D56"/>
<path d="M199.136 148.974C199.596 148.974 199.969 148.575 199.969 148.083C199.969 147.591 199.596 147.193 199.136 147.193C198.675 147.193 198.302 147.591 198.302 148.083C198.302 148.575 198.675 148.974 199.136 148.974Z" fill="#3F3D56"/>
<path d="M200.386 149.418C200.846 149.418 201.219 149.02 201.219 148.528C201.219 148.036 200.846 147.637 200.386 147.637C199.925 147.637 199.552 148.036 199.552 148.528C199.552 149.02 199.925 149.418 200.386 149.418Z" fill="#3F3D56"/>
<path d="M201.219 148.974C201.68 148.974 202.053 148.575 202.053 148.083C202.053 147.591 201.68 147.193 201.219 147.193C200.759 147.193 200.385 147.591 200.385 148.083C200.385 148.575 200.759 148.974 201.219 148.974Z" fill="#3F3D56"/>
<path d="M202.053 148.528C202.514 148.528 202.887 148.129 202.887 147.637C202.887 147.145 202.514 146.747 202.053 146.747C201.593 146.747 201.219 147.145 201.219 147.637C201.219 148.129 201.593 148.528 202.053 148.528Z" fill="#3F3D56"/>
<path d="M199.136 147.861C199.596 147.861 199.969 147.462 199.969 146.971C199.969 146.479 199.596 146.08 199.136 146.08C198.675 146.08 198.302 146.479 198.302 146.971C198.302 147.462 198.675 147.861 199.136 147.861Z" fill="#3F3D56"/>
<path d="M199.136 146.748C199.596 146.748 199.969 146.35 199.969 145.858C199.969 145.366 199.596 144.967 199.136 144.967C198.675 144.967 198.302 145.366 198.302 145.858C198.302 146.35 198.675 146.748 199.136 146.748Z" fill="#3F3D56"/>
<path d="M199.136 145.634C199.596 145.634 199.969 145.235 199.969 144.743C199.969 144.251 199.596 143.853 199.136 143.853C198.675 143.853 198.302 144.251 198.302 144.743C198.302 145.235 198.675 145.634 199.136 145.634Z" fill="#3F3D56"/>
<path d="M199.136 144.521C199.596 144.521 199.969 144.122 199.969 143.631C199.969 143.139 199.596 142.74 199.136 142.74C198.675 142.74 198.302 143.139 198.302 143.631C198.302 144.122 198.675 144.521 199.136 144.521Z" fill="#3F3D56"/>
<path d="M202.592 140.76C202.385 140.792 202.177 140.816 201.968 140.83C202.161 140.65 202.34 140.453 202.504 140.242C202.389 139.868 202.219 139.516 202.001 139.198C201.794 139.322 201.566 139.399 201.33 139.425C201.124 139.457 200.916 139.481 200.708 139.495C200.988 139.211 201.254 138.912 201.504 138.599C200.903 138.017 200.133 137.673 199.322 137.625C198.512 137.578 197.711 137.829 197.053 138.337C196.395 138.845 195.921 139.579 195.71 140.416C195.498 141.253 195.563 142.142 195.892 142.935C196.221 143.727 196.796 144.374 197.519 144.768C198.242 145.162 199.069 145.279 199.863 145.099C200.657 144.918 201.369 144.452 201.88 143.778C202.39 143.104 202.668 142.263 202.667 141.396C202.667 141.178 202.649 140.96 202.613 140.746L202.592 140.76Z" fill="#4C4981"/>
<path d="M205.377 145.184C205.164 145.324 204.924 145.409 204.675 145.435C204.469 145.467 204.261 145.491 204.053 145.505C204.274 145.293 204.48 145.064 204.67 144.82C204.496 144.772 204.317 144.746 204.137 144.745C203.641 144.744 203.16 144.932 202.782 145.275C202.404 145.618 202.152 146.094 202.073 146.617C201.993 147.14 202.091 147.676 202.348 148.129C202.605 148.583 203.005 148.923 203.476 149.09C203.947 149.257 204.458 149.239 204.918 149.039C205.378 148.84 205.756 148.472 205.985 148.002C206.214 147.532 206.278 146.99 206.166 146.473C206.055 145.957 205.775 145.5 205.377 145.184Z" fill="#4C4981"/>
<path d="M197.884 149.418C198.345 149.418 198.718 149.02 198.718 148.528C198.718 148.036 198.345 147.637 197.884 147.637C197.424 147.637 197.05 148.036 197.05 148.528C197.05 149.02 197.424 149.418 197.884 149.418Z" fill="#3F3D56"/>
<path d="M197.05 148.974C197.511 148.974 197.884 148.575 197.884 148.083C197.884 147.591 197.511 147.193 197.05 147.193C196.59 147.193 196.216 147.591 196.216 148.083C196.216 148.575 196.59 148.974 197.05 148.974Z" fill="#3F3D56"/>
<path d="M196.218 148.528C196.679 148.528 197.052 148.129 197.052 147.637C197.052 147.145 196.679 146.747 196.218 146.747C195.758 146.747 195.385 147.145 195.385 147.637C195.385 148.129 195.758 148.528 196.218 148.528Z" fill="#3F3D56"/>
<path d="M192.9 145.184C193.113 145.324 193.352 145.409 193.601 145.435C193.807 145.467 194.015 145.491 194.223 145.505C194.002 145.293 193.796 145.064 193.606 144.82C193.78 144.772 193.959 144.746 194.139 144.745C194.636 144.744 195.116 144.932 195.494 145.275C195.872 145.618 196.124 146.094 196.203 146.617C196.283 147.14 196.185 147.676 195.928 148.129C195.671 148.583 195.271 148.923 194.8 149.09C194.329 149.257 193.818 149.239 193.358 149.039C192.899 148.84 192.52 148.472 192.292 148.002C192.063 147.532 191.998 146.99 192.11 146.473C192.221 145.957 192.501 145.5 192.9 145.184Z" fill="#4C4981"/>
<path d="M198.535 153.871H200.567C201.679 153.871 202.746 154.343 203.532 155.183C204.319 156.023 204.761 157.162 204.761 158.35V164.24C204.761 164.442 204.686 164.635 204.552 164.777C204.419 164.92 204.238 165 204.049 165H195.052C194.863 165 194.683 164.92 194.549 164.777C194.416 164.635 194.341 164.442 194.341 164.24V158.35C194.341 157.162 194.783 156.023 195.569 155.183C196.356 154.343 197.423 153.871 198.535 153.871Z" fill="#3F3D56"/>
<g opacity="0.1">
<path opacity="0.1" d="M202.654 141.004C202.57 141.101 202.48 141.192 202.385 141.276C202.48 141.276 202.576 141.26 202.669 141.249C202.666 141.167 202.663 141.084 202.654 141.004Z" fill="black"/>
<path opacity="0.1" d="M201.135 139.939C201.343 139.925 201.551 139.902 201.758 139.87C201.944 139.845 202.127 139.792 202.3 139.712C202.214 139.533 202.117 139.361 202.008 139.198C201.903 139.265 201.79 139.317 201.672 139.35C201.508 139.561 201.328 139.758 201.135 139.939Z" fill="black"/>
<path opacity="0.1" d="M196.008 141.851C196.007 141.172 196.177 140.505 196.501 139.92C196.825 139.336 197.291 138.855 197.849 138.529C198.407 138.204 199.037 138.045 199.673 138.069C200.308 138.094 200.926 138.301 201.461 138.669L201.514 138.608C201.166 138.277 200.759 138.022 200.317 137.859C199.876 137.696 199.409 137.628 198.942 137.659C198.476 137.69 198.02 137.819 197.601 138.039C197.182 138.259 196.808 138.565 196.5 138.94C196.192 139.315 195.957 139.752 195.807 140.224C195.658 140.697 195.598 141.197 195.63 141.694C195.662 142.192 195.787 142.678 195.995 143.124C196.204 143.57 196.494 143.968 196.847 144.294C196.305 143.612 196.007 142.746 196.008 141.851Z" fill="black"/>
</g>
<g opacity="0.1">
<path opacity="0.1" d="M204.053 145.951C204.261 145.935 204.469 145.912 204.675 145.879C204.924 145.854 205.163 145.769 205.376 145.63C205.612 145.815 205.809 146.051 205.953 146.323C206.098 146.595 206.187 146.896 206.215 147.207C206.223 147.129 206.227 147.05 206.227 146.971C206.228 146.623 206.153 146.279 206.008 145.968C205.862 145.657 205.65 145.386 205.388 145.179C205.175 145.318 204.935 145.404 204.687 145.43L204.519 145.451C204.376 145.631 204.22 145.798 204.053 145.951Z" fill="black"/>
<path opacity="0.1" d="M204.14 145.189C204.211 145.189 204.279 145.189 204.348 145.206C204.457 145.082 204.565 144.949 204.674 144.82C204.499 144.772 204.32 144.746 204.14 144.745C203.587 144.745 203.057 144.98 202.667 145.397C202.276 145.814 202.056 146.38 202.056 146.971C202.056 147.046 202.056 147.121 202.066 147.193C202.118 146.644 202.359 146.135 202.742 145.765C203.125 145.395 203.623 145.19 204.14 145.189Z" fill="black"/>
</g>
<g opacity="0.1">
<path opacity="0.1" d="M194.217 145.951C194.009 145.935 193.801 145.912 193.594 145.879C193.346 145.854 193.106 145.769 192.893 145.63C192.657 145.815 192.461 146.051 192.316 146.323C192.171 146.595 192.082 146.896 192.054 147.207C192.046 147.129 192.042 147.05 192.043 146.971C192.041 146.623 192.116 146.279 192.262 145.968C192.408 145.657 192.62 145.386 192.881 145.179C193.094 145.318 193.334 145.404 193.583 145.43L193.75 145.451C193.893 145.63 194.049 145.797 194.217 145.951Z" fill="black"/>
<path opacity="0.1" d="M194.133 145.189C194.062 145.189 193.994 145.189 193.925 145.206C193.816 145.082 193.708 144.949 193.599 144.82C193.774 144.772 193.953 144.746 194.133 144.745C194.685 144.745 195.215 144.98 195.606 145.397C195.997 145.814 196.217 146.38 196.217 146.971C196.217 147.046 196.217 147.121 196.206 147.193C196.155 146.644 195.914 146.135 195.531 145.765C195.147 145.395 194.649 145.19 194.133 145.189Z" fill="black"/>
</g>
<path d="M38.4229 136.58H54.451C55.5634 136.58 56.6301 137.052 57.4167 137.892C58.2032 138.732 58.6451 139.871 58.6451 141.059V162.649H34.2288V141.059C34.2288 139.871 34.6706 138.732 35.4572 137.892C36.2437 137.052 37.3105 136.58 38.4229 136.58Z" fill="#3F3D56"/>
<path opacity="0.1" d="M38.4229 136.58H54.451C55.5634 136.58 56.6301 137.052 57.4167 137.892C58.2032 138.732 58.6451 139.871 58.6451 141.059V162.649H34.2288V141.059C34.2288 139.871 34.6706 138.732 35.4572 137.892C36.2437 137.052 37.3105 136.58 38.4229 136.58Z" fill="black"/>
<path d="M45.464 142.308C46.5425 142.308 47.4168 141.374 47.4168 140.223C47.4168 139.071 46.5425 138.137 45.464 138.137C44.3855 138.137 43.5112 139.071 43.5112 140.223C43.5112 141.374 44.3855 142.308 45.464 142.308Z" fill="#3F3D56"/>
<path d="M45.464 139.701C46.5425 139.701 47.4168 138.767 47.4168 137.615C47.4168 136.464 46.5425 135.53 45.464 135.53C44.3855 135.53 43.5112 136.464 43.5112 137.615C43.5112 138.767 44.3855 139.701 45.464 139.701Z" fill="#3F3D56"/>
<path d="M45.464 137.092C46.5425 137.092 47.4168 136.158 47.4168 135.007C47.4168 133.855 46.5425 132.921 45.464 132.921C44.3855 132.921 43.5112 133.855 43.5112 135.007C43.5112 136.158 44.3855 137.092 45.464 137.092Z" fill="#3F3D56"/>
<path d="M45.464 134.485C46.5425 134.485 47.4168 133.551 47.4168 132.399C47.4168 131.248 46.5425 130.314 45.464 130.314C44.3855 130.314 43.5112 131.248 43.5112 132.399C43.5112 133.551 44.3855 134.485 45.464 134.485Z" fill="#3F3D56"/>
<path d="M45.464 131.876C46.5425 131.876 47.4168 130.942 47.4168 129.791C47.4168 128.639 46.5425 127.705 45.464 127.705C44.3855 127.705 43.5112 128.639 43.5112 129.791C43.5112 130.942 44.3855 131.876 45.464 131.876Z" fill="#3F3D56"/>
<path d="M45.464 129.269C46.5425 129.269 47.4168 128.335 47.4168 127.183C47.4168 126.032 46.5425 125.098 45.464 125.098C44.3855 125.098 43.5112 126.032 43.5112 127.183C43.5112 128.335 44.3855 129.269 45.464 129.269Z" fill="#3F3D56"/>
<path d="M45.464 126.662C46.5425 126.662 47.4168 125.728 47.4168 124.576C47.4168 123.424 46.5425 122.491 45.464 122.491C44.3855 122.491 43.5112 123.424 43.5112 124.576C43.5112 125.728 44.3855 126.662 45.464 126.662Z" fill="#3F3D56"/>
<path d="M48.393 127.705C49.4714 127.705 50.3457 126.771 50.3457 125.619C50.3457 124.467 49.4714 123.533 48.393 123.533C47.3145 123.533 46.4402 124.467 46.4402 125.619C46.4402 126.771 47.3145 127.705 48.393 127.705Z" fill="#3F3D56"/>
<path d="M50.3458 126.662C51.4243 126.662 52.2986 125.728 52.2986 124.576C52.2986 123.424 51.4243 122.491 50.3458 122.491C49.2674 122.491 48.3931 123.424 48.3931 124.576C48.3931 125.728 49.2674 126.662 50.3458 126.662Z" fill="#3F3D56"/>
<path d="M52.3004 125.617C53.3789 125.617 54.2532 124.684 54.2532 123.532C54.2532 122.38 53.3789 121.446 52.3004 121.446C51.2219 121.446 50.3477 122.38 50.3477 123.532C50.3477 124.684 51.2219 125.617 52.3004 125.617Z" fill="#3F3D56"/>
<path d="M45.464 124.053C46.5425 124.053 47.4168 123.119 47.4168 121.967C47.4168 120.815 46.5425 119.882 45.464 119.882C44.3855 119.882 43.5112 120.815 43.5112 121.967C43.5112 123.119 44.3855 124.053 45.464 124.053Z" fill="#3F3D56"/>
<path d="M45.464 121.446C46.5425 121.446 47.4168 120.512 47.4168 119.36C47.4168 118.208 46.5425 117.275 45.464 117.275C44.3855 117.275 43.5112 118.208 43.5112 119.36C43.5112 120.512 44.3855 121.446 45.464 121.446Z" fill="#3F3D56"/>
<path d="M45.464 118.837C46.5425 118.837 47.4168 117.903 47.4168 116.751C47.4168 115.599 46.5425 114.666 45.464 114.666C44.3855 114.666 43.5112 115.599 43.5112 116.751C43.5112 117.903 44.3855 118.837 45.464 118.837Z" fill="#3F3D56"/>
<path d="M45.464 116.23C46.5425 116.23 47.4168 115.296 47.4168 114.144C47.4168 112.992 46.5425 112.059 45.464 112.059C44.3855 112.059 43.5112 112.992 43.5112 114.144C43.5112 115.296 44.3855 116.23 45.464 116.23Z" fill="#3F3D56"/>
<path d="M53.562 107.416C53.0777 107.491 52.5912 107.546 52.1025 107.581C52.5548 107.158 52.9749 106.697 53.359 106.203C53.0926 105.327 52.6998 104.501 52.1947 103.755C51.7142 104.048 51.1817 104.232 50.6312 104.293C50.148 104.368 49.6598 104.424 49.1716 104.459C49.8142 103.904 50.4097 103.064 51.0388 102.381C49.5803 100.966 47.6991 100.15 45.73 100.078C43.761 100.006 41.8319 100.683 40.2863 101.988C38.7407 103.293 37.6789 105.142 37.29 107.204C36.901 109.267 37.2101 111.411 38.1623 113.253C39.1145 115.095 40.6479 116.517 42.4895 117.265C44.3312 118.012 46.3615 118.038 48.219 117.336C50.0765 116.635 51.6406 115.252 52.6329 113.434C53.6252 111.616 53.9812 109.481 53.6375 107.409L53.562 107.416Z" fill="#4C4981"/>
<path d="M60.0878 117.783C59.6282 118.129 59.0175 118.278 58.4454 118.368C57.9606 118.445 57.4741 118.498 56.9859 118.534C57.4892 118.102 57.9522 117.5 58.432 116.932C57.2565 116.599 56.0069 116.746 54.9274 117.344C53.8479 117.943 53.0161 118.95 52.5945 120.168C52.1729 121.387 52.1919 122.729 52.6477 123.933C53.1035 125.138 53.9633 126.117 55.0592 126.681C56.1551 127.244 57.4083 127.351 58.5739 126.98C59.7395 126.609 60.7337 125.787 61.3622 124.675C61.9908 123.563 62.2085 122.24 61.9728 120.966C61.7371 119.692 61.065 118.557 60.0878 117.783Z" fill="#4C4981"/>
<path d="M42.5331 127.705C43.6116 127.705 44.4859 126.771 44.4859 125.619C44.4859 124.467 43.6116 123.533 42.5331 123.533C41.4546 123.533 40.5803 124.467 40.5803 125.619C40.5803 126.771 41.4546 127.705 42.5331 127.705Z" fill="#3F3D56"/>
<path d="M40.5805 126.662C41.6589 126.662 42.5332 125.728 42.5332 124.576C42.5332 123.424 41.6589 122.491 40.5805 122.491C39.502 122.491 38.6277 123.424 38.6277 124.576C38.6277 125.728 39.502 126.662 40.5805 126.662Z" fill="#3F3D56"/>
<path d="M38.6276 125.617C39.7061 125.617 40.5803 124.684 40.5803 123.532C40.5803 122.38 39.7061 121.446 38.6276 121.446C37.5491 121.446 36.6748 122.38 36.6748 123.532C36.6748 124.684 37.5491 125.617 38.6276 125.617Z" fill="#3F3D56"/>
<path d="M30.8399 117.783C31.2996 118.129 31.9103 118.278 32.484 118.368C32.9672 118.445 33.4537 118.498 33.9419 118.534C33.4386 118.102 32.9756 117.5 32.4957 116.932C33.6713 116.599 34.9209 116.746 36.0004 117.344C37.0799 117.943 37.9117 118.95 38.3333 120.168C38.7548 121.387 38.7359 122.729 38.2801 123.933C37.8243 125.138 36.9644 126.117 35.8685 126.681C34.7726 127.244 33.5194 127.351 32.3538 126.98C31.1883 126.609 30.1941 125.787 29.5655 124.675C28.937 123.563 28.7193 122.24 28.9549 120.966C29.1906 119.692 29.8627 118.557 30.8399 117.783Z" fill="#4C4981"/>
<path d="M38.4229 138.137H54.451C55.5634 138.137 56.6301 138.609 57.4167 139.449C58.2032 140.289 58.6451 141.428 58.6451 142.616V163.457C58.6451 163.659 58.5702 163.852 58.4368 163.994C58.3034 164.137 58.1224 164.217 57.9338 164.217H34.9434C34.8497 164.217 34.7569 164.198 34.6702 164.16C34.5835 164.122 34.5047 164.066 34.4383 163.996C34.3719 163.925 34.3192 163.841 34.2832 163.749C34.2473 163.656 34.2288 163.557 34.2288 163.457V142.616C34.2288 141.428 34.6706 140.289 35.4572 139.449C36.2437 138.609 37.3105 138.137 38.4229 138.137Z" fill="#3F3D56"/>
<g opacity="0.1">
<path opacity="0.1" d="M53.7079 107.986C53.5121 108.214 53.302 108.427 53.0789 108.624C53.3014 108.607 53.5255 108.586 53.748 108.563C53.7397 108.369 53.728 108.176 53.7079 107.986Z" fill="black"/>
<path opacity="0.1" d="M50.1497 105.495C50.6379 105.459 51.1244 105.405 51.6075 105.328C52.0452 105.274 52.4733 105.153 52.8792 104.97C52.6808 104.549 52.4519 104.145 52.1947 103.762C51.9521 103.922 51.6887 104.043 51.4129 104.121C51.0258 104.613 50.6035 105.073 50.1497 105.495Z" fill="black"/>
<path opacity="0.1" d="M38.1377 109.973C38.1348 108.381 38.5338 106.818 39.2928 105.448C40.0518 104.078 41.1427 102.952 42.4505 102.189C43.7583 101.426 45.2346 101.054 46.7239 101.111C48.2132 101.169 49.6604 101.655 50.913 102.517C50.9549 102.47 50.9968 102.418 51.0388 102.374C50.2228 101.586 49.2683 100.98 48.2309 100.59C47.1936 100.201 46.094 100.035 44.9961 100.103C43.8983 100.172 42.8242 100.472 41.8362 100.988C40.8482 101.504 39.9661 102.225 39.2412 103.108C38.5164 103.991 37.9632 105.019 37.6139 106.133C37.2646 107.247 37.1261 108.424 37.2065 109.595C37.287 110.767 37.5847 111.909 38.0824 112.956C38.5801 114.004 39.2678 114.935 40.1056 115.696C38.8334 114.099 38.1357 112.07 38.1377 109.973Z" fill="black"/>
</g>
<g opacity="0.1">
<path opacity="0.1" d="M56.9858 119.577C57.4735 119.544 57.96 119.488 58.4454 119.41C59.0175 119.323 59.6197 119.174 60.0878 118.826C60.6383 119.261 61.097 119.814 61.434 120.45C61.771 121.087 61.9789 121.792 62.0439 122.519C62.0607 122.34 62.0708 122.161 62.0708 121.969C62.0713 121.155 61.8925 120.352 61.5489 119.624C61.2054 118.897 60.7066 118.267 60.0928 117.783C59.6332 118.129 59.0225 118.278 58.4504 118.368C58.3212 118.387 58.1937 118.403 58.0662 118.42C57.7353 118.835 57.374 119.222 56.9858 119.577Z" fill="black"/>
<path opacity="0.1" d="M57.1788 117.796C57.3426 117.799 57.5061 117.811 57.6687 117.832C57.9237 117.542 58.172 117.233 58.4287 116.936C57.706 116.728 56.9482 116.701 56.214 116.856C55.4799 117.012 54.7893 117.347 54.196 117.834C53.6028 118.321 53.1227 118.948 52.7933 119.666C52.464 120.384 52.2941 121.173 52.2969 121.973C52.2969 122.152 52.3053 122.331 52.3204 122.494C52.4406 121.207 53.0044 120.014 53.9022 119.145C54.7999 118.277 55.9677 117.796 57.1788 117.796Z" fill="black"/>
</g>
<g opacity="0.1">
<path opacity="0.1" d="M33.9402 119.577C33.4526 119.544 32.9667 119.488 32.4824 119.41C31.9086 119.323 31.298 119.174 30.8383 118.826C30.2887 119.261 29.831 119.815 29.4948 120.451C29.1587 121.087 28.9517 121.792 28.8872 122.519C28.8704 122.34 28.8604 122.161 28.8604 121.969C28.8601 121.155 29.0391 120.351 29.3829 119.624C29.7268 118.897 30.2259 118.267 30.84 117.783C31.2996 118.129 31.9103 118.278 32.4841 118.368C32.6116 118.387 32.7391 118.403 32.8666 118.42C33.1958 118.835 33.5548 119.222 33.9402 119.577Z" fill="black"/>
<path opacity="0.1" d="M33.744 117.796C33.5802 117.799 33.4167 117.811 33.2541 117.832C32.9991 117.542 32.7508 117.233 32.4941 116.936C33.2168 116.728 33.9747 116.701 34.7088 116.856C35.4429 117.012 36.1335 117.347 36.7268 117.834C37.3201 118.321 37.8001 118.948 38.1295 119.666C38.4589 120.384 38.6287 121.173 38.6259 121.973C38.6259 122.152 38.6259 122.331 38.6024 122.494C38.4822 121.207 37.9185 120.014 37.0207 119.145C36.1229 118.277 34.9551 117.796 33.744 117.796Z" fill="black"/>
</g>
<path d="M142.936 164.737L110.222 164.289L110.318 163.393L111.9 148.61H140.63L142.743 163.393L142.904 164.513L142.936 164.737Z" fill="#D0D2D5"/>
<path opacity="0.1" d="M142.905 164.513H126.579L110.222 164.289L110.318 163.393H142.743L142.905 164.513Z" fill="black"/>
<path d="M148.179 163.617H104.77V164.737H148.179V163.617Z" fill="#D0D2D5"/>
<path d="M189.595 59.8213C189.598 59.0479 189.314 58.3047 188.805 57.755C188.296 57.2053 187.603 56.8941 186.879 56.8898H65.6509C65.2922 56.8917 64.9374 56.969 64.6067 57.1174C64.2761 57.2657 63.976 57.4821 63.7236 57.7544C63.4712 58.0266 63.2715 58.3492 63.1359 58.7038C63.0003 59.0585 62.9314 59.4382 62.9331 59.8213V138.303H189.595V59.8213Z" fill="#444053"/>
<path d="M62.9331 137.522V146.716C62.932 147.098 63.0015 147.476 63.1376 147.829C63.2737 148.183 63.4738 148.504 63.7263 148.774C63.9788 149.044 64.2788 149.259 64.609 149.405C64.9393 149.551 65.2934 149.626 65.6509 149.626H186.879C187.599 149.626 188.29 149.32 188.799 148.776C189.309 148.232 189.595 147.495 189.595 146.725V137.522H62.9331Z" fill="#D0D2D5"/>
<path opacity="0.1" d="M184.981 61.8173H68.1758V132.371H184.981V61.8173Z" fill="#4C4981"/>
<path d="M126.893 146.13C127.322 146.13 127.745 146.027 128.131 145.827C128.517 145.627 128.856 145.336 129.121 144.976C129.201 144.866 129.274 144.751 129.341 144.63L127.787 144.358L129.465 144.371C129.627 143.996 129.715 143.591 129.724 143.179C129.733 142.767 129.663 142.357 129.519 141.975L127.266 143.229L129.344 141.599C129.153 141.233 128.893 140.914 128.581 140.661C128.269 140.408 127.911 140.227 127.529 140.13C127.148 140.033 126.752 140.021 126.367 140.096C125.981 140.171 125.614 140.33 125.289 140.564C124.964 140.798 124.688 141.102 124.479 141.456C124.27 141.81 124.132 142.206 124.073 142.62C124.015 143.034 124.038 143.456 124.14 143.86C124.243 144.265 124.423 144.641 124.669 144.967C124.933 145.329 125.27 145.621 125.655 145.822C126.041 146.024 126.464 146.129 126.893 146.13Z" fill="#4C4981"/>
<path opacity="0.1" d="M129.725 149.617L142.775 163.617L140.774 149.617H129.725Z" fill="black"/>
<path d="M161.6 71.4252H71.427V122.566H161.6V71.4252Z" fill="white"/>
<path opacity="0.1" d="M101.608 84.7564H76.4565V86.1487H101.608V84.7564Z" fill="#4C4981"/>
<path opacity="0.1" d="M81.1154 77.3937H78.6929V84.7564H81.1154V77.3937Z" fill="#4C4981"/>
<path opacity="0.1" d="M84.6552 77.3937H82.2327V84.7564H84.6552V77.3937Z" fill="#4C4981"/>
<path opacity="0.1" d="M88.195 77.3937H85.7725V84.7564H88.195V77.3937Z" fill="#4C4981"/>
<path opacity="0.1" d="M91.735 77.3937H89.3125V84.7564H91.735V77.3937Z" fill="#4C4981"/>
<path opacity="0.1" d="M95.2748 77.3937H92.8523V84.7564H95.2748V77.3937Z" fill="#4C4981"/>
<path opacity="0.1" d="M98.8146 77.3937H96.3921V84.7564H98.8146V77.3937Z" fill="#4C4981"/>
<path opacity="0.1" d="M81.1154 78.7878H78.6929V79.5833H81.1154V78.7878Z" fill="#4C4981"/>
<path opacity="0.1" d="M84.6552 78.7878H82.2327V79.5833H84.6552V78.7878Z" fill="#4C4981"/>
<path opacity="0.1" d="M88.195 78.7878H85.7725V79.5833H88.195V78.7878Z" fill="#4C4981"/>
<path opacity="0.1" d="M91.735 78.7878H89.3125V79.5833H91.735V78.7878Z" fill="#4C4981"/>
<path opacity="0.1" d="M95.2748 78.7878H92.8523V79.5833H95.2748V78.7878Z" fill="#4C4981"/>
<path opacity="0.1" d="M98.8146 78.7878H96.3921V79.5833H98.8146V78.7878Z" fill="#4C4981"/>
<path opacity="0.1" d="M81.1154 82.3697H78.6929V83.1653H81.1154V82.3697Z" fill="#4C4981"/>
<path opacity="0.1" d="M84.6552 82.3697H82.2327V83.1653H84.6552V82.3697Z" fill="#4C4981"/>
<path opacity="0.1" d="M88.195 82.3697H85.7725V83.1653H88.195V82.3697Z" fill="#4C4981"/>
<path opacity="0.1" d="M91.735 82.3697H89.3125V83.1653H91.735V82.3697Z" fill="#4C4981"/>
<path opacity="0.1" d="M95.2748 82.3697H92.8523V83.1653H95.2748V82.3697Z" fill="#4C4981"/>
<path opacity="0.1" d="M98.8146 82.3697H96.3921V83.1653H98.8146V82.3697Z" fill="#4C4981"/>
<path opacity="0.1" d="M156.755 88.3383H131.604V89.7305H156.755V88.3383Z" fill="#4C4981"/>
<path opacity="0.1" d="M136.263 80.9756H133.84V88.3382H136.263V80.9756Z" fill="#4C4981"/>
<path opacity="0.1" d="M139.803 80.9756H137.38V88.3382H139.803V80.9756Z" fill="#4C4981"/>
<path opacity="0.1" d="M143.342 80.9756H140.92V88.3382H143.342V80.9756Z" fill="#4C4981"/>
<path opacity="0.1" d="M146.882 80.9756H144.46V88.3382H146.882V80.9756Z" fill="#4C4981"/>
<path opacity="0.1" d="M150.422 80.9756H148V88.3382H150.422V80.9756Z" fill="#4C4981"/>
<path opacity="0.1" d="M153.962 80.9756H151.539V88.3382H153.962V80.9756Z" fill="#4C4981"/>
<path opacity="0.1" d="M136.263 82.3697H133.84V83.1653H136.263V82.3697Z" fill="#4C4981"/>
<path opacity="0.1" d="M139.803 82.3697H137.38V83.1653H139.803V82.3697Z" fill="#4C4981"/>
<path opacity="0.1" d="M143.342 82.3697H140.92V83.1653H143.342V82.3697Z" fill="#4C4981"/>
<path opacity="0.1" d="M146.882 82.3697H144.46V83.1653H146.882V82.3697Z" fill="#4C4981"/>
<path opacity="0.1" d="M150.422 82.3697H148V83.1653H150.422V82.3697Z" fill="#4C4981"/>
<path opacity="0.1" d="M153.962 82.3697H151.539V83.1653H153.962V82.3697Z" fill="#4C4981"/>
<path opacity="0.1" d="M136.263 85.9515H133.84V86.7471H136.263V85.9515Z" fill="#4C4981"/>
<path opacity="0.1" d="M139.803 85.9515H137.38V86.7471H139.803V85.9515Z" fill="#4C4981"/>
<path opacity="0.1" d="M143.342 85.9515H140.92V86.7471H143.342V85.9515Z" fill="#4C4981"/>
<path opacity="0.1" d="M146.882 85.9515H144.46V86.7471H146.882V85.9515Z" fill="#4C4981"/>
<path opacity="0.1" d="M150.422 85.9515H148V86.7471H150.422V85.9515Z" fill="#4C4981"/>
<path opacity="0.1" d="M153.962 85.9515H151.539V86.7471H153.962V85.9515Z" fill="#4C4981"/>
<path opacity="0.1" d="M156.755 98.4872H131.604V99.8794H156.755V98.4872Z" fill="#4C4981"/>
<path opacity="0.1" d="M136.263 91.1246H133.84V98.4872H136.263V91.1246Z" fill="#4C4981"/>
<path opacity="0.1" d="M139.803 91.1246H137.38V98.4872H139.803V91.1246Z" fill="#4C4981"/>
<path opacity="0.1" d="M143.342 91.1246H140.92V98.4872H143.342V91.1246Z" fill="#4C4981"/>
<path opacity="0.1" d="M146.882 91.1246H144.46V98.4872H146.882V91.1246Z" fill="#4C4981"/>
<path opacity="0.1" d="M150.422 91.1246H148V98.4872H150.422V91.1246Z" fill="#4C4981"/>
<path opacity="0.1" d="M153.962 91.1246H151.539V98.4872H153.962V91.1246Z" fill="#4C4981"/>
<path opacity="0.1" d="M136.263 92.5168H133.84V93.3124H136.263V92.5168Z" fill="#4C4981"/>
<path opacity="0.1" d="M139.803 92.5168H137.38V93.3124H139.803V92.5168Z" fill="#4C4981"/>
<path opacity="0.1" d="M143.342 92.5168H140.92V93.3124H143.342V92.5168Z" fill="#4C4981"/>
<path opacity="0.1" d="M146.882 92.5168H144.46V93.3124H146.882V92.5168Z" fill="#4C4981"/>
<path opacity="0.1" d="M150.422 92.5168H148V93.3124H150.422V92.5168Z" fill="#4C4981"/>
<path opacity="0.1" d="M153.962 92.5168H151.539V93.3124H153.962V92.5168Z" fill="#4C4981"/>
<path opacity="0.1" d="M136.263 96.0987H133.84V96.8943H136.263V96.0987Z" fill="#4C4981"/>
<path opacity="0.1" d="M139.803 96.0987H137.38V96.8943H139.803V96.0987Z" fill="#4C4981"/>
<path opacity="0.1" d="M143.342 96.0987H140.92V96.8943H143.342V96.0987Z" fill="#4C4981"/>
<path opacity="0.1" d="M146.882 96.0987H144.46V96.8943H146.882V96.0987Z" fill="#4C4981"/>
<path opacity="0.1" d="M150.422 96.0987H148V96.8943H150.422V96.0987Z" fill="#4C4981"/>
<path opacity="0.1" d="M153.962 96.0987H151.539V96.8943H153.962V96.0987Z" fill="#4C4981"/>
<path opacity="0.1" d="M91.8825 100.503C91.6942 100.247 91.5227 99.9777 91.3691 99.6967L94.9911 99.0624L91.0671 99.0964C90.6916 98.2232 90.4867 97.2774 90.465 96.3168C90.4434 95.3562 90.6055 94.4009 90.9413 93.5095L96.1957 96.4212L91.3507 92.6171C91.8033 91.7773 92.4133 91.0461 93.1424 90.4693C93.8714 89.8924 94.704 89.4823 95.5881 89.2645C96.4723 89.0467 97.3889 89.0259 98.2809 89.2034C99.1729 89.3809 100.021 89.7528 100.772 90.2961C101.524 90.8393 102.162 91.5422 102.648 92.3607C103.134 93.1793 103.456 94.096 103.595 95.0536C103.734 96.0112 103.687 96.9892 103.457 97.9265C103.226 98.8638 102.817 99.7403 102.255 100.501C102.55 100.899 102.804 101.329 103.012 101.784L98.3145 104.391L103.326 102.599C103.678 103.71 103.765 104.897 103.579 106.053C103.394 107.209 102.941 108.297 102.262 109.218C103.028 110.258 103.505 111.508 103.637 112.823C103.77 114.139 103.553 115.468 103.012 116.658C102.471 117.849 101.627 118.852 100.577 119.555C99.5268 120.257 98.3129 120.629 97.0739 120.629C95.835 120.629 94.621 120.257 93.5709 119.555C92.5207 118.852 91.6768 117.849 91.1356 116.658C90.5944 115.468 90.3777 114.139 90.5104 112.823C90.6431 111.508 91.1197 110.258 91.8858 109.218C90.9708 107.976 90.4734 106.441 90.4734 104.86C90.4734 103.279 90.9708 101.744 91.8858 100.501L91.8825 100.503Z" fill="#4C4981"/>
<path opacity="0.1" d="M103.671 104.863C103.673 106.444 103.175 107.979 102.259 109.22C103.025 110.26 103.501 111.51 103.634 112.825C103.767 114.141 103.55 115.47 103.009 116.66C102.468 117.851 101.624 118.854 100.574 119.557C99.5234 120.259 98.3095 120.631 97.0705 120.631C95.8315 120.631 94.6176 120.259 93.5674 119.557C92.5173 118.854 91.6734 117.851 91.1322 116.66C90.5909 115.47 90.3743 114.141 90.507 112.825C90.6396 111.51 91.1163 110.26 91.8824 109.22C90.9983 108.022 103.671 104.071 103.671 104.863Z" fill="#4C4981"/>
<path opacity="0.2" d="M98.13 122.507C98.1418 122.526 98.1502 122.546 98.1619 122.566H95.9206C95.9323 122.546 95.9407 122.526 95.9525 122.507C95.76 122.148 95.6604 121.741 95.6639 121.328C95.6636 121.045 95.7096 120.764 95.7998 120.498C95.9239 120.52 96.0783 120.543 96.2561 120.563C96.776 120.618 97.2998 120.618 97.8197 120.563C97.9673 120.546 98.1233 120.523 98.281 120.498C98.2812 120.502 98.2812 120.506 98.281 120.511C98.3694 120.773 98.4143 121.049 98.4136 121.328C98.4186 121.741 98.3207 122.147 98.13 122.507Z" fill="#3F3D56"/>
<path opacity="0.1" d="M90.0757 122.569H77.6109C77.5824 122.492 77.5572 122.412 77.5354 122.333C77.0959 120.823 77.1473 119.199 77.6814 117.724C76.4632 116.826 75.5633 115.516 75.1264 114.005C74.6895 112.494 74.7408 110.87 75.2723 109.394C75.0216 109.208 74.7828 109.005 74.5576 108.785L77.8424 107.036L74.1097 108.301C73.5089 107.585 73.0515 106.746 72.7653 105.834C72.4791 104.923 72.3703 103.959 72.4454 103.001L78.2702 104.124L72.5897 102.017C72.7905 101.072 73.1716 100.181 73.7091 99.4006C74.2467 98.6198 74.9291 97.9658 75.7139 97.4793C76.4987 96.9929 77.3689 96.6844 78.2702 96.5733C79.1716 96.4621 80.0848 96.5506 80.9527 96.8332C81.8206 97.1158 82.6246 97.5865 83.3146 98.2159C84.0046 98.8452 84.5657 99.6197 84.9629 100.491C85.3601 101.362 85.5849 102.312 85.6232 103.28C85.6614 104.248 85.5124 105.215 85.1854 106.119C85.5756 106.407 85.9361 106.74 86.2608 107.11L82.4895 111.084L86.7825 107.787C87.426 108.738 87.8372 109.845 87.9789 111.008C88.1207 112.171 87.9886 113.354 87.5945 114.449C88.7828 115.326 89.669 116.596 90.1171 118.062C90.5653 119.529 90.5508 121.112 90.0757 122.569Z" fill="#4C4981"/>
<path opacity="0.1" d="M90.0757 122.569H77.6108C77.5823 122.492 77.5572 122.412 77.5353 122.333C77.0958 120.823 77.1473 119.199 77.6813 117.724C76.5069 116.855 87.5223 109.086 87.7471 109.84C88.1849 111.351 88.1335 112.975 87.6012 114.451C88.7879 115.329 89.6725 116.598 90.1194 118.065C90.5663 119.531 90.551 121.113 90.0757 122.569Z" fill="#4C4981"/>
<path opacity="0.1" d="M146.52 113.017C145.763 114.376 144.598 115.421 143.215 115.984C143.274 116.488 143.283 116.997 143.243 117.502L137.955 117.163L143.119 118.369C142.778 120.055 141.872 121.548 140.571 122.569H133.374V122.768H126.048C126.063 122.7 126.078 122.634 126.095 122.569C126.364 121.489 126.869 120.491 127.569 119.659C128.269 118.827 129.143 118.185 130.121 117.783C129.934 116.215 130.245 114.624 131.006 113.267C131.767 111.91 132.932 110.866 134.315 110.301C134.276 109.978 134.257 109.653 134.26 109.328L137.674 110.761L134.298 108.643C134.395 107.689 134.672 106.765 135.114 105.929C135.555 105.093 136.152 104.362 136.867 103.78L139.977 109.156L137.647 103.243C138.916 102.489 140.383 102.203 141.82 102.43C143.257 102.657 144.584 103.384 145.595 104.498C146.606 105.612 147.244 107.052 147.411 108.593C147.578 110.134 147.264 111.691 146.518 113.023L146.52 113.017Z" fill="#4C4981"/>
<path opacity="0.1" d="M142.331 120.5C141.881 121.31 141.283 122.014 140.571 122.569H133.374V122.768H126.048C126.063 122.7 126.078 122.634 126.095 122.569C126.364 121.489 126.869 120.491 127.569 119.659C128.269 118.827 129.143 118.185 130.121 117.783C130.059 117.269 131.481 117.339 133.375 117.68C137.078 118.342 142.582 120.05 142.331 120.5Z" fill="#4C4981"/>
<path d="M111.14 101.687C111.14 101.687 112.038 106.914 110.025 108.618C108.011 110.322 111.726 120.548 117.896 119.357C124.066 118.165 126.566 109.584 126.566 109.584C126.566 109.584 120.396 108.222 122.682 101.291L111.14 101.687Z" fill="#EFB7B9"/>
<path opacity="0.1" d="M111.14 101.687C111.14 101.687 112.038 106.914 110.025 108.618C108.011 110.322 111.726 120.548 117.896 119.357C124.066 118.165 126.566 109.584 126.566 109.584C126.566 109.584 120.396 108.222 122.682 101.291L111.14 101.687Z" fill="black"/>
<path d="M116.592 105.522C122.232 105.522 126.804 100.639 126.804 94.615C126.804 88.5913 122.232 83.7081 116.592 83.7081C110.953 83.7081 106.381 88.5913 106.381 94.615C106.381 100.639 110.953 105.522 116.592 105.522Z" fill="#EFB7B9"/>
<path d="M133.374 115.35V122.765H99.6533V115.689C99.6536 114.791 99.9013 113.914 100.366 113.165C100.83 112.417 101.49 111.832 102.264 111.482L103.232 111.043C105.678 109.93 108.649 108.548 109.62 107.973C109.727 107.917 109.827 107.847 109.919 107.767C110.451 107.199 110.345 107.937 110.345 107.937C110.345 107.937 110.33 108.077 110.32 108.321C110.263 109.989 110.488 116.551 117.685 116.004C124.707 115.467 125.016 110.406 124.952 108.917C124.948 108.78 124.937 108.642 124.919 108.505C124.919 108.466 125.522 108.685 126.341 109C127.812 109.579 129.975 110.51 130.557 110.949C130.738 111.084 130.958 111.227 131.196 111.369C131.859 111.764 132.411 112.342 132.795 113.042C133.178 113.742 133.379 114.539 133.377 115.35H133.374Z" fill="#4C4981"/>
<path opacity="0.1" d="M126.339 109C125.745 111.942 123.88 117.454 117.151 117.601C109.986 117.751 109.573 110.139 109.617 107.98C109.724 107.924 109.825 107.854 109.917 107.772C110.449 107.204 110.343 107.943 110.343 107.943C110.343 107.943 109.439 116.635 117.683 116.006C125.927 115.377 124.917 108.507 124.917 108.507C124.917 108.466 125.521 108.677 126.339 109Z" fill="black"/>
<path d="M104.505 95.1544C105.176 94.9214 105.976 95.3156 106.35 95.8711C106.725 96.4266 106.777 97.0985 106.822 97.7418C107.266 97.8421 107.516 97.3046 107.557 96.9014C107.724 95.2511 107.733 93.5704 108.251 91.9792C108.77 90.3881 109.902 88.8471 111.643 88.2343C112.236 88.0149 112.868 87.9503 113.489 88.0462C113.856 88.1125 114.203 88.2486 114.571 88.3131C115.841 88.5371 117.225 87.8939 118.418 88.3418C119.164 88.6231 119.646 89.2736 119.988 89.9258C120.14 90.276 120.347 90.5964 120.599 90.8737C121.102 91.3575 121.9 91.4847 122.625 91.637C123.35 91.7893 124.145 92.0509 124.455 92.6494C124.736 93.1869 124.529 93.8141 124.435 94.4018C124.292 95.3278 124.438 96.2785 124.85 97.1075C124.984 97.3798 125.256 97.688 125.576 97.6002C125.722 97.5477 125.845 97.4408 125.923 97.2992C126.762 96.0449 126.735 94.4179 127.781 93.298C128.131 92.9235 128.582 92.6297 128.923 92.248C129.181 91.97 129.37 91.628 129.473 91.2527C129.577 90.8774 129.591 90.4806 129.515 90.0978C129.327 89.2359 128.676 88.5174 128.161 87.7684C127.484 86.8087 126.991 85.7157 126.71 84.5521C126.661 84.4173 126.661 84.2676 126.71 84.1328C126.809 83.9957 126.936 83.8847 127.081 83.8085C127.366 83.6068 127.572 83.3012 127.66 82.9488C127.749 82.5965 127.714 82.2217 127.562 81.8948C127.271 81.2444 126.615 80.7624 125.895 80.4721C125.175 80.1818 124.385 80.0582 123.603 79.9345C123.09 80.0152 122.488 79.7016 122.328 79.2626C122.258 79.0673 122.258 78.8559 122.186 78.6606C122.046 78.2861 121.645 78.0209 121.214 77.9295C120.776 77.8527 120.327 77.8865 119.902 78.028C119.419 78.1732 118.859 78.3864 118.438 78.1391C118.216 78.0047 118.092 77.7611 117.854 77.6518C117.371 77.4314 116.861 77.8757 116.512 78.2431C116.173 78.6257 115.759 78.9227 115.299 79.1121C114.814 79.2913 114.217 79.2913 113.799 79.0064C113.464 78.7788 113.296 78.4133 113.029 78.123C112.591 77.6446 111.898 77.3848 111.207 77.3256C110.514 77.2867 109.819 77.3678 109.15 77.5657C107.873 77.8962 106.653 78.4405 105.535 79.1784C104.976 79.5529 104.441 79.9901 104.149 80.5545C103.942 80.9946 103.835 81.4809 103.837 81.9736C103.785 83.5164 104.265 85.1434 105.515 86.2239C104.753 86.5643 104.495 87.3975 104.317 88.1375C104.032 89.3166 103.745 90.5171 103.852 91.7212C103.906 92.343 104.065 92.9647 103.98 93.5829C103.94 93.8822 103.842 94.176 103.866 94.4788C103.897 94.6468 103.974 94.8009 104.088 94.9213C104.202 95.0417 104.347 95.1229 104.505 95.1544Z" fill="#454B69"/>
<g opacity="0.1">
<path opacity="0.1" d="M129.368 89.632C129.257 89.8873 129.108 90.1216 128.926 90.3254C128.591 90.7071 128.135 91.0009 127.784 91.3772C126.739 92.4953 126.761 94.1277 125.927 95.3784C125.849 95.5195 125.725 95.6258 125.58 95.6776C125.259 95.7654 124.987 95.4572 124.853 95.1848C124.69 94.8536 124.568 94.5013 124.489 94.1366C124.471 94.2274 124.454 94.3188 124.439 94.4108C124.295 95.3368 124.441 96.2875 124.853 97.1164C124.987 97.3888 125.259 97.697 125.58 97.6092C125.725 97.5566 125.849 97.4498 125.927 97.3082C126.766 96.0539 126.739 94.4269 127.784 93.307C128.135 92.9325 128.586 92.6386 128.926 92.257C129.184 91.979 129.373 91.637 129.477 91.2617C129.58 90.8864 129.594 90.4895 129.519 90.1068C129.483 89.9437 129.432 89.7846 129.368 89.632Z" fill="black"/>
<path opacity="0.1" d="M127.088 81.8948C126.942 81.9698 126.815 82.0803 126.717 82.2174C126.667 82.3521 126.667 82.5019 126.717 82.6366C126.814 83.0428 126.938 83.441 127.088 83.8282C127.376 83.6249 127.583 83.3152 127.671 82.9585C127.759 82.6017 127.72 82.223 127.562 81.8948C127.515 81.7881 127.459 81.6861 127.395 81.5902C127.307 81.7076 127.204 81.8103 127.088 81.8948Z" fill="black"/>
<path opacity="0.1" d="M105.513 84.3102C104.648 83.5462 104.078 82.4678 103.911 81.282C103.868 81.5183 103.843 81.7581 103.837 81.9988C103.783 83.1374 104.065 84.2653 104.643 85.2241C104.818 84.8158 105.128 84.4906 105.513 84.3102Z" fill="black"/>
<path opacity="0.1" d="M124.438 92.4792C124.532 91.8915 124.739 91.2661 124.458 90.7268C124.148 90.1283 123.355 89.8649 122.628 89.7144C121.902 89.5639 121.108 89.4349 120.602 88.9511C120.35 88.6738 120.143 88.3534 119.991 88.0032C119.655 87.351 119.167 86.7006 118.421 86.4192C117.228 85.9713 115.844 86.6145 114.574 86.3906C114.206 86.3261 113.859 86.1899 113.492 86.1236C112.872 86.0249 112.239 86.0863 111.646 86.3028C109.905 86.9156 108.773 88.453 108.254 90.0477C107.736 91.6424 107.724 93.3196 107.56 94.9699C107.519 95.373 107.269 95.9106 106.825 95.8102C106.78 95.167 106.724 94.495 106.353 93.9396C105.983 93.3841 105.191 92.9881 104.508 93.2228C104.301 93.173 104.118 93.0459 103.991 92.8645C104.015 93.1029 104.011 93.3436 103.981 93.5812C103.941 93.8804 103.844 94.1743 103.867 94.4771C103.898 94.6451 103.975 94.7994 104.089 94.9202C104.202 95.0409 104.347 95.1225 104.505 95.1544C105.176 94.9215 105.976 95.3157 106.35 95.8712C106.724 96.4266 106.776 97.0986 106.821 97.7418C107.266 97.8422 107.516 97.3046 107.556 96.9015C107.724 95.2512 107.732 93.5704 108.251 91.9793C108.769 90.3881 109.902 88.8472 111.643 88.2344C112.235 88.0149 112.868 87.9504 113.488 88.0462C113.856 88.1125 114.203 88.2487 114.57 88.3132C115.84 88.5372 117.224 87.8939 118.417 88.3419C119.164 88.6232 119.645 89.2736 119.988 89.9259C120.14 90.276 120.347 90.5964 120.598 90.8737C121.101 91.3575 121.9 91.4847 122.625 91.6371C123.35 91.7894 124.086 92.033 124.418 92.5885C124.427 92.5581 124.432 92.5186 124.438 92.4792Z" fill="black"/>
<path opacity="0.1" d="M103.983 91.6657C104.022 91.1791 103.995 90.689 103.904 90.2108C103.833 90.7153 103.817 91.2271 103.857 91.7356C103.867 91.8664 103.884 91.9954 103.9 92.1262C103.92 91.9721 103.957 91.8198 103.983 91.6657Z" fill="black"/>
</g>
<path d="M181.312 111.439H166.214V122.629H181.312V111.439Z" fill="white"/>
<path opacity="0.1" d="M179.967 119.882C179.751 120.269 179.42 120.566 179.026 120.726C179.043 120.869 179.046 121.014 179.034 121.157L177.524 121.061L178.994 121.405C178.896 121.883 178.638 122.307 178.269 122.598H176.226V122.655H174.142C174.142 122.636 174.142 122.618 174.156 122.598C174.2 122.416 174.269 122.242 174.36 122.08C174.575 121.694 174.906 121.397 175.3 121.236C175.246 120.79 175.334 120.337 175.551 119.951C175.767 119.565 176.099 119.268 176.492 119.108C176.481 119.016 176.476 118.924 176.477 118.832L177.449 119.24L176.487 118.638C176.515 118.366 176.594 118.103 176.72 117.865C176.846 117.626 177.016 117.418 177.221 117.253L178.105 118.783L177.442 117.099C177.803 116.889 178.219 116.811 178.625 116.878C179.031 116.944 179.406 117.152 179.692 117.467C179.977 117.783 180.158 118.19 180.206 118.627C180.254 119.063 180.167 119.504 179.958 119.882H179.967Z" fill="#4C4981"/>
<path opacity="0.1" d="M178.774 122.016C178.645 122.246 178.474 122.446 178.271 122.604H176.226V122.661H174.142C174.142 122.641 174.142 122.623 174.156 122.604C174.2 122.421 174.269 122.247 174.36 122.086C174.575 121.699 174.906 121.402 175.3 121.242C175.283 121.097 175.687 121.116 176.226 121.213C177.279 121.403 178.846 121.889 178.774 122.016Z" fill="#4C4981"/>
<path opacity="0.1" d="M166.787 119.882C167.003 120.269 167.335 120.566 167.729 120.726C167.712 120.869 167.709 121.014 167.72 121.157L169.23 121.061L167.76 121.405C167.859 121.883 168.116 122.307 168.485 122.598H170.534V122.655H172.619C172.619 122.636 172.609 122.618 172.606 122.598C172.559 122.416 172.49 122.242 172.401 122.08C172.185 121.694 171.853 121.397 171.46 121.236C171.513 120.79 171.425 120.337 171.209 119.951C170.992 119.565 170.661 119.268 170.267 119.108C170.278 119.016 170.284 118.924 170.284 118.832L169.312 119.24L170.272 118.638C170.245 118.366 170.166 118.103 170.04 117.865C169.914 117.626 169.743 117.418 169.539 117.253L168.655 118.783L169.317 117.099C168.956 116.889 168.541 116.811 168.134 116.878C167.728 116.944 167.353 117.152 167.068 117.467C166.782 117.783 166.601 118.19 166.553 118.627C166.505 119.063 166.592 119.504 166.801 119.882H166.787Z" fill="#4C4981"/>
<path opacity="0.1" d="M167.98 122.016C168.109 122.246 168.28 122.446 168.484 122.604H170.532V122.661H172.617C172.617 122.641 172.607 122.623 172.604 122.604C172.558 122.422 172.489 122.248 172.399 122.086C172.183 121.7 171.851 121.402 171.458 121.242C171.475 121.097 171.07 121.116 170.532 121.213C169.475 121.403 167.903 121.889 167.98 122.016Z" fill="#4C4981"/>
<path d="M175.254 113.904H171.881V117.918H175.254V113.904Z" fill="#464353"/>
<path opacity="0.1" d="M175.254 113.904H171.881V117.918H175.254V113.904Z" fill="black"/>
<path d="M170.443 121.591L170.374 122.634H171.337L171.398 121.256L170.443 121.591Z" fill="#A1616A"/>
<path d="M175.516 121.591L175.37 122.634H176.253L176.308 121.256L175.516 121.591Z" fill="#A1616A"/>
<path d="M172.723 115.913C172.723 115.913 172.689 116.434 172.572 116.57C172.454 116.707 173.62 117.912 174.538 116.721C174.538 116.721 174.144 116.363 174.236 115.961C174.328 115.56 172.723 115.913 172.723 115.913Z" fill="#A1616A"/>
<path opacity="0.1" d="M172.723 115.913C172.723 115.913 172.689 116.434 172.572 116.57C172.454 116.707 173.62 117.912 174.538 116.721C174.538 116.721 174.144 116.363 174.236 115.961C174.328 115.56 172.723 115.913 172.723 115.913Z" fill="black"/>
<path d="M173.567 116.379C174.499 116.379 175.254 115.572 175.254 114.576C175.254 113.58 174.499 112.773 173.567 112.773C172.635 112.773 171.879 113.58 171.879 114.576C171.879 115.572 172.635 116.379 173.567 116.379Z" fill="#A1616A"/>
<path d="M173.479 117.031C173.479 117.031 172.771 117.018 172.666 116.328C172.526 116.458 172.378 116.578 172.223 116.687C172.154 116.712 171.478 117.12 171.351 117.146C171.226 117.173 171.11 117.234 171.015 117.325C170.848 117.465 170.712 117.642 170.615 117.843C170.519 118.045 170.465 118.267 170.456 118.493C170.433 119.301 170.341 120.88 170.341 120.88L170.376 121.451V121.824C170.376 121.824 171.003 122.003 171.382 121.645C171.382 121.645 171.382 121.509 171.453 121.466C171.523 121.423 171.533 121.242 171.522 121.166C171.516 121.055 171.516 120.943 171.522 120.831C171.534 120.892 171.567 120.945 171.616 120.98C171.643 121.081 171.651 121.187 171.639 121.292C171.604 121.365 171.569 121.539 171.604 121.577C171.622 121.61 171.629 121.649 171.625 121.687C171.62 121.725 171.605 121.76 171.58 121.788C171.516 121.884 171.466 121.989 171.429 122.1C171.429 122.1 171.394 122.322 171.359 122.347C171.319 122.438 171.292 122.535 171.278 122.634H175.472C175.398 122.407 175.342 122.174 175.305 121.937C175.316 121.826 175.201 121.365 175.281 121.242C175.4 121.078 175.465 120.877 175.467 120.67L175.514 121.154L175.387 122.229C175.387 122.229 176.165 122.491 176.248 122.328C176.335 122.044 176.401 121.753 176.445 121.459C176.445 121.459 176.632 120.563 176.679 120.439C176.726 120.315 176.83 117.83 176.201 117.47C175.571 117.11 174.385 116.49 174.355 116.52C174.288 116.701 174.164 116.851 174.004 116.945C173.844 117.038 173.658 117.068 173.479 117.031Z" fill="#4C4981"/>
<path opacity="0.1" d="M171.456 119.461C171.338 119.644 171.287 119.868 171.314 120.09C171.342 120.309 171.408 120.521 171.509 120.713" stroke="black" stroke-miterlimit="10"/>
<path opacity="0.1" d="M175.533 119.631C175.563 119.722 175.586 119.815 175.603 119.91C175.633 120.029 175.638 120.153 175.619 120.274C175.6 120.396 175.557 120.511 175.493 120.613" stroke="black" stroke-miterlimit="10"/>
<path d="M172.812 113.343C172.944 113.306 173.084 113.321 173.206 113.386C173.326 113.452 173.452 113.506 173.582 113.546C173.669 113.565 173.75 113.565 173.847 113.58C174.009 113.611 174.159 113.694 174.276 113.817C174.394 113.94 174.475 114.097 174.508 114.27C174.583 114.71 174.34 115.144 174.34 115.594C174.341 115.851 174.426 116.1 174.58 116.298C174.709 116.424 174.822 116.568 174.916 116.726C174.964 116.841 174.974 116.972 175.021 117.085C175.124 117.288 175.294 117.442 175.498 117.518C175.7 117.591 175.895 117.684 176.08 117.798C176.415 118.036 176.613 118.493 177.003 118.592C177.022 118.6 177.043 118.605 177.064 118.605C177.085 118.605 177.106 118.6 177.125 118.592C177.143 118.577 177.157 118.557 177.167 118.536C177.177 118.514 177.182 118.49 177.182 118.466C177.192 118.378 177.183 118.29 177.156 118.206C177.129 118.123 177.084 118.047 177.026 117.984C176.93 117.882 176.791 117.805 176.761 117.667C176.731 117.529 176.811 117.411 176.855 117.285C176.994 116.879 176.763 116.436 176.499 116.106C176.236 115.777 175.921 115.45 175.857 115.031C175.842 114.89 175.837 114.747 175.842 114.605C175.837 114.311 175.789 114.021 175.701 113.743C175.658 113.593 175.59 113.452 175.499 113.329C175.416 113.221 175.308 113.139 175.221 113.035C175.105 112.864 175.001 112.684 174.909 112.498C174.776 112.276 174.593 112.093 174.379 111.964C174.164 111.835 173.922 111.764 173.676 111.758C173.204 111.758 172.758 111.98 172.359 112.247C172.212 112.332 172.085 112.452 171.986 112.596C171.819 112.881 171.869 113.257 171.772 113.58C171.674 113.902 171.445 114.141 171.364 114.456C171.339 114.549 171.335 114.646 171.352 114.741C171.382 114.841 171.422 114.937 171.471 115.028C171.561 115.258 171.611 115.504 171.621 115.753C171.646 116.054 171.658 116.379 171.51 116.635C171.395 116.79 171.253 116.919 171.091 117.015C171.255 117.157 171.465 117.226 171.676 117.206C171.995 117.221 172.364 117.206 172.562 116.938C172.68 116.745 172.728 116.512 172.696 116.284C172.68 116.034 172.633 115.788 172.555 115.553C172.446 115.221 172.278 114.908 172.23 114.56C172.211 114.435 172.216 114.306 172.245 114.183C172.273 114.06 172.325 113.944 172.397 113.843C172.458 113.763 172.565 113.721 172.616 113.635C172.679 113.521 172.661 113.401 172.812 113.343Z" fill="#464353"/>
<g opacity="0.1">
<path opacity="0.1" d="M171.47 115.004C171.559 115.235 171.61 115.481 171.619 115.73C171.619 115.809 171.631 115.889 171.633 115.97C171.65 115.795 171.65 115.618 171.633 115.443C171.623 115.197 171.572 114.954 171.484 114.727C171.436 114.636 171.396 114.541 171.365 114.442C171.34 114.534 171.336 114.631 171.353 114.725C171.383 114.822 171.422 114.916 171.47 115.004Z" fill="black"/>
<path opacity="0.1" d="M172.577 116.656C172.379 116.923 172.01 116.939 171.691 116.927C171.556 116.927 171.422 116.906 171.293 116.862C171.23 116.918 171.161 116.97 171.094 117.02C171.258 117.163 171.468 117.231 171.679 117.212C171.998 117.226 172.367 117.212 172.565 116.943C172.678 116.764 172.727 116.547 172.703 116.332C172.688 116.45 172.644 116.562 172.577 116.656Z" fill="black"/>
<path opacity="0.1" d="M176.773 117.373C176.777 117.394 176.784 117.413 176.792 117.432C176.812 117.382 176.836 117.33 176.854 117.278C176.893 117.16 176.905 117.033 176.887 116.909C176.881 116.938 176.874 116.966 176.865 116.993C176.822 117.119 176.744 117.244 176.773 117.373Z" fill="black"/>
<path opacity="0.1" d="M174.518 114.356C174.537 114.233 174.537 114.108 174.518 113.985C174.485 113.812 174.404 113.654 174.287 113.531C174.169 113.408 174.019 113.326 173.857 113.295C173.768 113.279 173.679 113.279 173.592 113.261C173.462 113.22 173.336 113.167 173.216 113.101C173.094 113.035 172.954 113.019 172.822 113.057C172.671 113.114 172.689 113.236 172.622 113.354C172.574 113.44 172.465 113.483 172.404 113.562C172.271 113.751 172.211 113.988 172.236 114.223C172.257 114.086 172.311 113.957 172.392 113.849C172.453 113.768 172.56 113.727 172.61 113.641C172.678 113.521 172.659 113.401 172.81 113.343C172.942 113.306 173.082 113.321 173.204 113.386C173.324 113.452 173.45 113.506 173.58 113.546C173.667 113.565 173.748 113.565 173.845 113.58C174.007 113.611 174.157 113.694 174.275 113.817C174.392 113.94 174.473 114.097 174.506 114.27C174.512 114.298 174.516 114.327 174.518 114.356Z" fill="black"/>
<path opacity="0.1" d="M177.13 118.299C177.09 118.316 177.047 118.316 177.007 118.299C176.618 118.201 176.417 117.744 176.085 117.506C175.899 117.394 175.704 117.3 175.502 117.226C175.299 117.151 175.129 116.997 175.026 116.794C174.979 116.678 174.969 116.549 174.92 116.436C174.827 116.278 174.714 116.134 174.585 116.008C174.445 115.83 174.361 115.61 174.343 115.379C174.333 115.448 174.328 115.518 174.328 115.588C174.331 115.849 174.42 116.101 174.58 116.298C174.709 116.424 174.822 116.568 174.915 116.726C174.964 116.841 174.974 116.972 175.021 117.085C175.124 117.288 175.294 117.442 175.497 117.518C175.7 117.591 175.895 117.684 176.08 117.798C176.415 118.036 176.613 118.493 177.002 118.592C177.022 118.6 177.042 118.605 177.064 118.605C177.085 118.605 177.105 118.6 177.125 118.592C177.142 118.576 177.157 118.557 177.166 118.536C177.176 118.514 177.182 118.49 177.182 118.466C177.189 118.398 177.186 118.33 177.172 118.264C177.161 118.279 177.147 118.292 177.13 118.299Z" fill="black"/>
</g>
<path opacity="0.1" d="M169.911 112.261H167.754V115.553H169.911V112.261Z" fill="#4C4981"/>
<path opacity="0.1" d="M169.603 112.732H168.062V115.083H169.603V112.732Z" fill="#4C4981"/>
<path opacity="0.1" d="M180.541 112.756H176.998V114.73H180.541V112.756Z" fill="#4C4981"/>
<path opacity="0.1" d="M180.079 113.014H177.46V114.474H180.079V113.014Z" fill="#4C4981"/>
</g>
</g>
<defs>
<filter id="filter0_d" x="0.868652" y="0" width="261.849" height="224" filterUnits="userSpaceOnUse" color-interpolation-filters="sRGB">
<feFlood flood-opacity="0" result="BackgroundImageFix"/>
<feColorMatrix in="SourceAlpha" type="matrix" values="0 0 0 0 0 0 0 0 0 0 0 0 0 0 0 0 0 0 127 0"/>
<feOffset dx="4" dy="4"/>
<feGaussianBlur stdDeviation="10"/>
<feColorMatrix type="matrix" values="0 0 0 0 0 0 0 0 0 0 0 0 0 0 0 0 0 0 0.25 0"/>
<feBlend mode="normal" in2="BackgroundImageFix" result="effect1_dropShadow"/>
<feBlend mode="normal" in="SourceGraphic" in2="effect1_dropShadow" result="shape"/>
</filter>
<clipPath id="clip0">
<rect width="193.868" height="125" fill="white" transform="translate(28.8604 40)"/>
</clipPath>
</defs>
</svg>
