<svg width="263" height="224" viewBox="0 0 263 224" fill="none" xmlns="http://www.w3.org/2000/svg">
<g filter="url(#filter0_d)">
<rect x="16.793" y="16" width="221.849" height="184" rx="10" fill="white"/>
<g clip-path="url(#clip0)">
<path opacity="0.1" d="M55.6703 65.416C54.5632 65.8464 53.427 66.3987 52.8186 67.3669C52.1742 68.3896 52.2513 69.6597 52.3713 70.843C53.4167 81.1061 56.1707 92.0211 51.415 101.318C49.1066 105.828 45.2454 109.442 42.1744 113.538C39.1033 117.634 36.7846 122.748 38.2104 127.566C39.9516 133.454 46.4502 136.718 50.8306 141.249C53.6977 144.212 55.708 147.811 58.3832 150.928C61.0584 154.044 64.7241 156.79 68.9948 156.973C75.137 157.238 80.1343 152.269 86.1565 151.117C92.326 149.939 98.5384 152.938 103.541 156.528C108.543 160.118 113.093 164.468 118.922 166.709C125.359 169.187 132.615 168.808 139.391 170.296C145.561 171.653 151.24 174.538 157.365 176.077C163.49 177.615 170.669 177.522 175.415 173.593C181.6 168.455 181.113 159.303 185.063 152.506C188.732 146.191 195.915 142.421 200.749 136.839C209.448 126.791 209.164 111.433 201.777 100.505C194.391 89.5773 181.012 82.9606 167.331 81.2378C161.161 80.4623 154.808 80.5682 148.877 78.8037C133.001 74.0832 123.553 57.1696 107.344 53.6501C97.0406 51.4167 87.0202 55.2846 78.244 60.0453C70.6263 64.1781 63.5982 62.3349 55.6703 65.416Z" fill="#4C4981"/>
<path d="M71.1425 98.5721C71.1425 98.5721 65.2934 103.744 59.0159 103.898C56.3798 103.947 53.8318 104.796 51.7546 106.318C50.7728 107.045 49.8641 107.855 49.04 108.737" stroke="#535461" stroke-width="2" stroke-miterlimit="10"/>
<path d="M45.0812 108.864C45.9243 108.463 49.1428 108.729 49.1428 108.729C49.1428 108.729 47.4736 111.322 46.6304 111.724C46.4285 111.836 46.2041 111.908 45.9712 111.936C45.7383 111.963 45.5018 111.946 45.2765 111.884C45.0511 111.822 44.8417 111.718 44.6611 111.577C44.4806 111.437 44.3328 111.263 44.2269 111.067C44.1211 110.87 44.0593 110.656 44.0456 110.436C44.0319 110.217 44.0665 109.997 44.1473 109.79C44.228 109.584 44.3532 109.395 44.515 109.236C44.6768 109.076 44.8719 108.95 45.088 108.864H45.0812Z" fill="#4C4981"/>
<path d="M48.4692 104.28C49.4101 104.373 51.9568 106.236 51.9568 106.236C51.9568 106.236 49.0434 107.562 48.1111 107.471C47.6749 107.409 47.2809 107.192 47.0112 106.865C46.7414 106.538 46.6166 106.126 46.6627 105.715C46.7089 105.304 46.9224 104.925 47.2589 104.658C47.5954 104.391 48.0289 104.256 48.4692 104.28Z" fill="#4C4981"/>
<path d="M56.5035 100.586C57.2644 101.111 58.4606 103.924 58.4606 103.924C58.4606 103.924 55.237 103.694 54.4761 103.171C54.1331 102.911 53.9102 102.538 53.8536 102.128C53.7969 101.718 53.911 101.304 54.1721 100.971C54.4332 100.638 54.8211 100.412 55.2553 100.341C55.6896 100.269 56.1366 100.357 56.5035 100.586Z" fill="#4C4981"/>
<path d="M63.2539 99.0747C64.0988 99.4713 65.7852 102.055 65.7852 102.055C65.7852 102.055 62.5667 102.339 61.7218 101.942C61.5086 101.855 61.3166 101.728 61.1575 101.569C60.9984 101.41 60.8755 101.223 60.7963 101.018C60.7171 100.813 60.6832 100.595 60.6968 100.377C60.7103 100.16 60.771 99.9471 60.8751 99.7522C60.9792 99.5573 61.1246 99.3843 61.3024 99.2438C61.4802 99.1033 61.6866 98.9981 61.9092 98.9347C62.1317 98.8713 62.3657 98.851 62.5969 98.8751C62.8281 98.8992 63.0516 98.9671 63.2539 99.0747Z" fill="#4C4981"/>
<path d="M53.7476 109.16C54.0287 108.313 53.2061 105.385 53.2061 105.385C53.2061 105.385 50.7588 107.363 50.4778 108.209C50.3986 108.413 50.3644 108.63 50.3775 108.847C50.3905 109.064 50.4503 109.277 50.5534 109.471C50.6566 109.666 50.8008 109.839 50.9773 109.98C51.1539 110.121 51.3592 110.226 51.5807 110.291C51.8022 110.355 52.0353 110.377 52.266 110.354C52.4967 110.332 52.7201 110.266 52.9227 110.16C53.1253 110.054 53.3029 109.911 53.4447 109.739C53.5865 109.567 53.6895 109.37 53.7476 109.16Z" fill="#4C4981"/>
<path d="M61.6189 107.292C61.6189 106.406 59.8966 103.843 59.8966 103.843C59.8966 103.843 58.1931 106.412 58.1948 107.302C58.1962 107.728 58.3781 108.136 58.7004 108.436C59.0228 108.736 59.4592 108.904 59.9137 108.903C60.3682 108.901 60.8036 108.731 61.124 108.429C61.4445 108.127 61.6237 107.718 61.6224 107.292H61.6189Z" fill="#4C4981"/>
<path d="M69.0037 104.505C69.1613 103.631 67.9274 100.833 67.9274 100.833C67.9274 100.833 65.7835 103.1 65.6275 103.973C65.5749 104.383 65.6927 104.796 65.9565 105.127C66.2203 105.457 66.6098 105.68 67.0442 105.749C67.4786 105.817 67.9246 105.727 68.2894 105.495C68.6543 105.264 68.9101 104.91 69.0037 104.507V104.505Z" fill="#4C4981"/>
<path d="M78.7431 84.8763C78.7431 84.8763 71.6978 81.2508 69.6036 75.697C68.7432 73.3616 67.0973 71.3507 64.913 69.9665C63.8707 69.3167 62.767 68.7578 61.6157 68.2967" stroke="#535461" stroke-width="2" stroke-miterlimit="10"/>
<path d="M60.2788 64.8045C60.9455 65.4323 61.6635 68.385 61.6635 68.385C61.6635 68.385 58.5171 67.6946 57.8504 67.0652C57.556 66.7589 57.3986 66.3582 57.4108 65.9462C57.423 65.5342 57.6039 65.1423 57.916 64.8518C58.2281 64.5613 58.6474 64.3943 59.0873 64.3855C59.5271 64.3767 59.9538 64.5267 60.2788 64.8045Z" fill="#4C4981"/>
<path d="M65.9773 66.4149C66.1726 67.282 65.0638 70.1255 65.0638 70.1255C65.0638 70.1255 62.8239 67.9435 62.6286 67.0748C62.5706 66.8648 62.5586 66.6459 62.5935 66.4313C62.6283 66.2168 62.7092 66.0112 62.8312 65.8267C62.9533 65.6423 63.1139 65.483 63.3035 65.3584C63.4931 65.2338 63.7077 65.1465 63.9343 65.1017C64.161 65.057 64.3949 65.0557 64.6221 65.098C64.8492 65.1404 65.0649 65.2254 65.256 65.348C65.4471 65.4706 65.6097 65.6282 65.7339 65.8113C65.8582 65.9944 65.9416 66.1992 65.979 66.4133L65.9773 66.4149Z" fill="#4C4981"/>
<path d="M72.1982 72.4504C71.9 73.2902 69.4099 75.2217 69.4099 75.2217C69.4099 75.2217 68.6524 72.2786 68.9506 71.4373C69.094 71.0327 69.4031 70.6981 69.8098 70.5071C70.2165 70.316 70.6876 70.2842 71.1194 70.4185C71.5512 70.5529 71.9083 70.8424 72.1123 71.2235C72.3162 71.6045 72.3502 72.0459 72.2068 72.4504H72.1982Z" fill="#4C4981"/>
<path d="M75.8108 77.9978C75.6685 78.8729 73.5623 81.1705 73.5623 81.1705C73.5623 81.1705 72.2838 78.3896 72.4261 77.5145C72.4498 77.2982 72.5201 77.0887 72.6328 76.8987C72.7455 76.7087 72.8982 76.542 73.0817 76.409C73.2652 76.2759 73.4756 76.1791 73.7002 76.1244C73.9248 76.0698 74.1588 76.0584 74.3883 76.0911C74.6177 76.1237 74.8376 76.1997 75.0348 76.3143C75.2319 76.429 75.4021 76.58 75.5351 76.7581C75.6682 76.9362 75.7612 77.1378 75.8085 77.3507C75.8559 77.5635 75.8567 77.7831 75.8108 77.9962V77.9978Z" fill="#4C4981"/>
<path d="M62.642 72.6222C63.588 72.6126 66.3095 70.978 66.3095 70.978C66.3095 70.978 63.5486 69.4045 62.6026 69.4142C62.1481 69.4191 61.7143 69.5929 61.3966 69.8975C61.0789 70.2021 60.9033 70.6124 60.9086 71.0382C60.9138 71.4641 61.0994 71.8705 61.4244 72.1682C61.7495 72.4658 62.1875 72.6303 62.642 72.6254V72.6222Z" fill="#4C4981"/>
<path d="M66.9539 79.0672C67.8519 78.7926 69.9273 76.4709 69.9273 76.4709C69.9273 76.4709 66.7894 75.7435 65.8914 76.0181C65.6698 76.0774 65.4632 76.1779 65.284 76.3136C65.1049 76.4494 64.9567 76.6177 64.8485 76.8083C64.7404 76.9989 64.6743 77.208 64.6544 77.4231C64.6344 77.6382 64.661 77.8549 64.7325 78.0602C64.804 78.2654 64.9189 78.4551 65.0704 78.6177C65.222 78.7804 65.407 78.9128 65.6143 79.007C65.8217 79.1011 66.0472 79.1551 66.2774 79.1657C66.5076 79.1764 66.7377 79.1434 66.9539 79.0688V79.0672Z" fill="#4C4981"/>
<path d="M72.0609 84.7928C72.9966 84.6643 75.461 82.7054 75.461 82.7054C75.461 82.7054 72.4997 81.4916 71.5656 81.6201C71.3356 81.6423 71.1128 81.7079 70.9105 81.8129C70.7083 81.9179 70.5308 82.0602 70.3888 82.2312C70.2468 82.4022 70.1432 82.5984 70.0842 82.8079C70.0253 83.0174 70.0122 83.2359 70.0457 83.4502C70.0793 83.6646 70.1588 83.8704 70.2795 84.0552C70.4002 84.24 70.5596 84.4 70.748 84.5256C70.9364 84.6512 71.1501 84.7397 71.376 84.7859C71.6019 84.8321 71.8355 84.835 72.0626 84.7944L72.0609 84.7928Z" fill="#4C4981"/>
<path d="M127.227 172.845C161.49 172.845 189.266 146.822 189.266 114.721C189.266 82.6209 161.49 56.5982 127.227 56.5982C92.9645 56.5982 65.189 82.6209 65.189 114.721C65.189 146.822 92.9645 172.845 127.227 172.845Z" fill="url(#paint0_linear)"/>
<path d="M127.227 171.881C160.922 171.881 188.237 146.29 188.237 114.721C188.237 83.1529 160.922 57.5615 127.227 57.5615C93.5322 57.5615 66.217 83.1529 66.217 114.721C66.217 146.29 93.5322 171.881 127.227 171.881Z" fill="#4C4981"/>
<path d="M127.227 160.16C154.013 160.16 175.727 139.817 175.727 114.721C175.727 89.6262 154.013 69.2825 127.227 69.2825C100.442 69.2825 78.7275 89.6262 78.7275 114.721C78.7275 139.817 100.442 160.16 127.227 160.16Z" fill="white"/>
<path opacity="0.3" d="M128.598 77.3106H125.856V117.451H128.598V77.3106Z" fill="#535461"/>
<g opacity="0.1">
<path opacity="0.1" d="M168.872 113.758H130.141V116.969H168.872V113.758Z" fill="black"/>
<path opacity="0.1" d="M102.792 101.742L101.206 104.589L125.562 116.572L127.149 113.725L102.792 101.742Z" fill="black"/>
<path opacity="0.1" d="M127.227 120.181C130.066 120.181 132.368 118.024 132.368 115.364C132.368 112.703 130.066 110.547 127.227 110.547C124.388 110.547 122.086 112.703 122.086 115.364C122.086 118.024 124.388 120.181 127.227 120.181Z" fill="black"/>
</g>
<path d="M168.872 113.116H130.141V116.327H168.872V113.116Z" fill="#535461"/>
<path d="M127.177 113.062L102.807 101.105L101.217 103.95L125.587 115.907L127.177 113.062Z" fill="#535461"/>
<path d="M127.227 119.538C130.067 119.538 132.369 117.382 132.369 114.721C132.369 112.061 130.067 109.905 127.227 109.905C124.388 109.905 122.086 112.061 122.086 114.721C122.086 117.382 124.388 119.538 127.227 119.538Z" fill="#535461"/>
<g opacity="0.1">
<path opacity="0.1" d="M82.4945 120.18C82.4945 95.0847 104.208 74.7416 130.994 74.7416C138.512 74.7354 145.929 76.3693 152.656 79.514C159.383 82.6587 165.237 87.2278 169.753 92.8594C161.499 78.807 145.561 69.2825 127.224 69.2825C100.438 69.2825 78.7242 89.6257 78.7242 114.721C78.7084 124.58 82.1307 134.174 88.4704 142.043C84.5388 135.345 82.4829 127.824 82.4945 120.18Z" fill="black"/>
</g>
<path d="M172.039 81.2958C171.463 80.7772 166.616 84.1859 166.616 84.1859C166.616 84.1859 164.891 84.4813 165.302 85.5908C165.713 86.7003 163.494 92.914 163.494 92.914L162.591 91.7306C162.678 90.3418 162.27 89.3575 161.873 88.7442C161.84 88.6944 161.808 88.6463 161.775 88.6013L161.933 88.5499C161.873 87.7921 160.579 86.6376 159.892 86.0725C159.892 85.9906 159.892 85.9119 159.892 85.8284C159.934 84.9228 160.322 83.9675 159.892 83.147C159.405 82.211 157.981 81.7405 157.861 80.7129C157.789 80.0996 158.231 79.5456 158.426 78.9548C158.892 77.5418 157.924 76.1 156.999 74.8829C156.685 74.4266 156.304 74.0146 155.866 73.6595C155.449 73.3738 154.991 73.1446 154.505 72.9787C153.15 72.4649 151.763 72.2064 150.365 71.8548C149.023 71.5208 147.785 71.3618 146.423 71.7809C146.1 71.8626 145.804 72.0213 145.566 72.2417C145.242 72.5821 145.199 73.067 144.987 73.4732C144.644 74.1267 143.906 74.5169 143.253 74.9359C142.6 75.355 141.945 75.9298 141.942 76.6523C141.942 77.6783 143.193 78.3238 143.611 79.2791C144.001 80.1686 143.611 81.1593 143.393 82.097C143.302 82.4 143.293 82.7195 143.367 83.0266C143.454 83.2555 143.584 83.4677 143.751 83.6528C144.01 83.9739 144.288 84.2726 144.564 84.5776L144.437 84.6242C142.137 84.4026 140.658 87.1386 140.658 87.1386C140.764 87.1595 140.865 87.1835 140.965 87.2108L140.867 87.3297C140.172 88.1752 139.604 89.1061 139.179 90.0961L137.294 92.4628C137.294 92.4628 136.882 86.5445 137.87 85.2135C138.857 83.8824 136.966 83.0684 136.966 83.0684C136.966 83.0684 132.853 78.7782 132.283 79.1475C131.712 79.5167 133.679 84.1778 135.405 84.918C135.405 84.918 135.577 86.3968 135.234 87.3586C135.026 87.9671 133.919 94.3863 133.919 94.3863C133.919 94.3863 132.934 99.786 137.453 97.1159C140.389 95.385 142.286 92.405 143.253 90.5329C143.32 90.4012 143.383 90.2754 143.443 90.1555C143.487 90.3541 143.518 90.5553 143.534 90.7576L143.705 96.9441C143.748 98.4742 143.392 99.9912 142.666 101.363L140.653 105.189L140.877 105.253L140.742 105.436C139.415 107.265 137.16 111.377 141.803 113.472L147.972 114.212L147.643 115.691C147.643 115.691 145.097 120.203 144.356 123.31C143.896 125.212 143.178 127.052 142.219 128.783L142.409 128.878C142.37 128.92 142.329 128.963 142.289 129.008C141.915 129.402 141.668 129.888 141.576 130.408L140.74 131.519C140.74 131.519 140.411 136.105 141.069 137.216C141.429 137.823 142.624 138.208 143.64 138.433C145.148 138.769 146.365 137.309 145.564 136.107L145.554 136.091H145.539C145.367 135.344 144.843 133.027 145.014 132.147C145.062 131.897 145.107 131.648 145.129 131.394C145.17 131.061 145.279 130.738 145.448 130.442C145.475 130.392 145.504 130.344 145.534 130.296L145.623 130.331C145.899 130.442 146.171 130.546 146.43 130.638C146.029 130.98 145.744 131.688 146.087 133.144C146.087 133.144 146.12 136.787 146.416 137.361C146.713 137.934 150.031 138.692 150.606 138.101C151.182 137.51 150.236 135.474 150.236 135.474L150.207 135.493C150.017 134.313 149.782 132.2 150.36 131.368C150.593 131.033 150.819 130.686 151.021 130.362L151.146 130.161C152.219 130.662 153.354 131.039 153.974 130.778C153.974 130.778 156.685 124.859 156.521 124.121C156.356 123.382 160.711 115.022 160.711 115.022C160.711 115.022 164.407 111.168 159.89 108.513C158.455 107.666 157.41 107.098 156.651 106.714L156.015 103.599C155.688 101.966 155.747 100.286 156.186 98.6765L156.872 96.2264L156.928 96.0176C156.928 96.0176 158.654 92.6892 158.572 91.135C158.566 91.0142 158.58 90.8933 158.615 90.7769C158.634 90.8508 158.654 90.9278 158.676 91.0081C159.13 92.6235 159.727 94.2004 160.462 95.7222C161.773 98.4935 163.718 98.2735 164.784 97.8801C165.013 97.7974 165.215 97.6628 165.374 97.4885C165.533 97.3142 165.643 97.1056 165.694 96.8815C166.078 95.157 167.132 90.3257 167.199 88.9915C167.259 87.9481 167.396 86.91 167.61 85.8846C170.315 84.4026 172.615 81.8144 172.039 81.2958Z" fill="url(#paint1_linear)"/>
<path d="M151.921 128.697C151.921 128.697 151.559 129.376 151.064 130.192C150.87 130.513 150.654 130.858 150.433 131.19C149.65 132.364 150.433 136.103 150.433 136.103L148.72 136.323L147.006 135.521L146.692 132.807V130.823L148.646 128.775L149.503 127.889L151.921 128.697Z" fill="#F8BDC5"/>
<g opacity="0.1">
<path opacity="0.1" d="M151.921 128.697C151.921 128.697 151.559 129.376 151.064 130.192C150.308 129.813 149.576 129.391 148.874 128.93L148.723 128.83L148.643 128.775L149.499 127.889L151.921 128.697Z" fill="black"/>
</g>
<path d="M160.299 114.982C160.299 114.982 156.15 123.268 156.308 124.002C156.466 124.736 153.881 130.603 153.881 130.603C153.292 130.863 152.209 130.489 151.187 129.992C150.417 129.608 149.673 129.179 148.959 128.708L148.809 128.608L148.718 128.547L155.528 110.873L149.503 106.732L149.057 106.425L146.363 104.563L154.589 105.956C154.589 105.956 154.875 105.923 156.389 106.716C157.115 107.096 158.125 107.666 159.52 108.524C163.819 111.168 160.299 114.982 160.299 114.982Z" fill="#5E52AD"/>
<g opacity="0.03">
<path opacity="0.03" d="M160.299 114.982C160.299 114.982 156.15 123.268 156.308 124.002C156.466 124.736 153.881 130.603 153.881 130.603C153.292 130.863 152.209 130.489 151.187 129.992C150.417 129.608 149.673 129.179 148.959 128.708L148.809 128.608L148.718 128.547L155.528 110.873L149.503 106.732L149.057 106.425L146.363 104.563L154.589 105.956C154.589 105.956 154.875 105.923 156.389 106.716C157.115 107.096 158.125 107.666 159.52 108.524C163.819 111.168 160.299 114.982 160.299 114.982Z" fill="black"/>
</g>
<path d="M147.695 130.163C147.695 130.163 145.659 129.869 146.365 132.95C146.365 132.95 146.396 136.563 146.678 137.125C146.961 137.686 150.123 138.444 150.67 137.858C151.217 137.272 150.317 135.256 150.317 135.256C150.317 135.256 148.008 136.832 147.381 135.145C146.754 133.457 147.695 130.163 147.695 130.163Z" fill="#5D3E53"/>
<path d="M146.284 129.577C146.062 129.775 145.881 130.01 145.751 130.27C145.59 130.565 145.487 130.885 145.448 131.214C145.427 131.465 145.385 131.714 145.34 131.961C145.145 133.006 145.894 136.103 145.894 136.103L142.919 136.543L141.823 135.444L141.589 133.024C141.881 132.194 142.039 131.328 142.058 130.455C142.058 129.824 142.401 129.26 142.744 128.849C142.976 128.575 143.242 128.328 143.537 128.112C143.537 128.112 146.912 129.063 146.284 129.577Z" fill="#F8BDC5"/>
<g opacity="0.1">
<path opacity="0.1" d="M146.284 129.577C146.062 129.775 145.881 130.01 145.751 130.27C144.533 129.755 143.253 129.105 142.786 128.864L142.75 128.846C142.983 128.572 143.249 128.324 143.544 128.109C143.544 128.109 146.912 129.063 146.284 129.577Z" fill="black"/>
</g>
<path d="M155.914 112.782C155.914 112.782 153.959 116.229 152.704 119.089C151.881 120.967 150.181 125.441 149.105 128.289L148.947 128.71C148.474 129.97 148.159 130.823 148.159 130.823C147.951 130.824 147.743 130.795 147.544 130.737C147.359 130.691 147.151 130.628 146.93 130.551L146.682 130.463C146.435 130.373 146.168 130.269 145.912 130.159C144.668 129.639 143.342 128.962 142.86 128.714L142.679 128.62C143.597 126.895 144.283 125.071 144.72 123.188C145.424 120.108 147.851 115.641 147.851 115.641L148.164 114.174L142.293 113.44C137.87 111.369 140.019 107.286 141.282 105.473C141.497 105.158 141.73 104.855 141.979 104.563L146.677 105.526C146.677 105.526 147.417 105.748 149.062 106.43L149.818 106.751C150.74 107.148 151.875 107.658 153.246 108.313C157.869 110.503 155.914 112.782 155.914 112.782Z" fill="#5E52AD"/>
<path d="M145.864 135.883C146.032 136.148 146.112 136.453 146.095 136.76C146.078 137.067 145.964 137.362 145.768 137.609C145.572 137.856 145.302 138.042 144.993 138.145C144.684 138.249 144.349 138.264 144.031 138.189C143.069 137.966 141.929 137.584 141.587 136.982C140.961 135.882 141.273 131.335 141.273 131.335L142.096 130.198C142.096 130.198 141.666 135.222 142.684 135.657C143.701 136.092 145.854 135.861 145.854 135.861L145.864 135.883Z" fill="#5D3E53"/>
<path d="M146.697 72.1068C146.385 72.1883 146.101 72.3462 145.875 72.5644C145.566 72.9016 145.532 73.3833 145.323 73.7863C144.997 74.4285 144.295 74.8219 143.671 75.2313C143.047 75.6408 142.425 76.2172 142.421 76.9333C142.421 77.9512 143.621 78.5903 144.012 79.536C144.384 80.4191 144.012 81.4001 143.804 82.3298C143.718 82.6308 143.71 82.9468 143.78 83.2514C143.862 83.4773 143.986 83.6878 144.147 83.8728C144.903 84.8361 145.842 85.6903 146.348 86.7869C146.732 87.6203 146.838 88.5403 146.939 89.4442C147.085 90.7448 147.23 92.0694 146.966 93.3539C146.941 93.4307 146.941 93.5131 146.966 93.5899C147.011 93.6636 147.082 93.7204 147.167 93.7505C147.666 93.9775 148.208 94.1077 148.762 94.1332C149.316 94.1588 149.869 94.0792 150.389 93.8992C150.909 93.7193 151.385 93.4426 151.788 93.086C152.191 92.7293 152.513 92.3 152.735 91.8238C153.078 91.0964 153.21 90.2181 153.888 89.7461C153.967 89.6847 154.063 89.6442 154.164 89.6289C154.324 89.633 154.479 89.6816 154.61 89.7686C155.491 90.2149 156.558 90.2278 157.54 90.0447C158.133 89.9339 158.74 89.7365 159.132 89.3029C159.905 88.4423 159.475 87.1562 159.526 86.0339C159.568 85.1364 159.936 84.1891 159.526 83.3766C159.064 82.4486 157.705 81.9829 157.592 80.9682C157.523 80.3613 157.945 79.8105 158.131 79.2261C158.575 77.8244 157.653 76.3954 156.772 75.1896C156.476 74.7398 156.113 74.3316 155.695 73.9773C155.299 73.6955 154.863 73.4684 154.399 73.303C153.108 72.794 151.792 72.5371 150.457 72.1903C149.179 71.8483 148.001 71.6893 146.697 72.1068Z" fill="#85555C"/>
<path d="M153.252 93.0536H148.711V86.1591C148.846 85.497 148.925 84.8259 148.947 84.1521C148.947 83.9257 148.947 83.6945 148.947 83.4617C148.904 82.6396 148.723 81.8191 148.246 81.3182C146.994 79.9984 152.317 80.2183 152.317 80.2183C152.48 80.8244 152.692 81.418 152.951 81.9941C153.336 82.8931 153.849 83.7394 154.476 84.5101C155.027 85.196 155.734 85.7591 156.544 86.1591C159.67 87.6266 153.252 93.0536 153.252 93.0536Z" fill="#F8BDC5"/>
<g opacity="0.1">
<path opacity="0.1" d="M152.946 81.9941C152.485 82.5574 151.868 82.9919 151.162 83.2506C150.457 83.5092 149.689 83.5822 148.942 83.4617C148.9 82.6396 148.718 81.8191 148.241 81.3182C146.989 79.9984 152.312 80.2183 152.312 80.2183C152.475 80.8244 152.687 81.418 152.946 81.9941Z" fill="black"/>
</g>
<path d="M149.65 83.3012C151.941 83.3012 153.799 81.5608 153.799 79.414C153.799 77.2671 151.941 75.5268 149.65 75.5268C147.359 75.5268 145.501 77.2671 145.501 79.414C145.501 81.5608 147.359 83.3012 149.65 83.3012Z" fill="#F8BDC5"/>
<path d="M166.872 86.0869C166.668 87.104 166.537 88.1329 166.481 89.1664C166.417 90.4879 165.413 95.279 165.046 96.989C165 97.2083 164.897 97.4134 164.746 97.5863C164.594 97.7591 164.4 97.8942 164.179 97.9797C163.161 98.3698 161.31 98.5882 160.066 95.841C159.365 94.3293 158.796 92.7667 158.364 91.1686C158.212 90.6315 158.097 90.0854 158.022 89.5341L160.764 88.1405C161.022 88.3667 161.24 88.6295 161.412 88.9192C161.79 89.5277 162.179 90.5039 162.097 91.8799L162.954 93.0536C162.954 93.0536 165.067 86.8929 164.668 85.793C164.268 84.6932 165.92 84.3994 165.92 84.3994C165.92 84.3994 170.539 81.0276 171.087 81.5398C171.636 82.052 169.454 84.6193 166.872 86.0869Z" fill="#F8BDC5"/>
<path d="M144.406 89.0203C144.192 89.594 143.946 90.1568 143.669 90.7062C142.747 92.5639 140.941 95.5231 138.144 97.2347C133.839 99.8743 134.778 94.5212 134.778 94.5212C134.778 94.5212 135.832 88.1565 136.031 87.5544C136.344 86.6007 136.187 85.1348 136.187 85.1348C134.543 84.401 132.665 79.7816 133.212 79.4139C133.758 79.0463 137.667 83.3011 137.667 83.3011C137.667 83.3011 139.469 84.1039 138.524 85.4286C137.58 86.7532 137.976 92.6153 137.976 92.6153L139.787 90.2727C140.19 89.2952 140.732 88.3729 141.397 87.5303C141.739 87.092 141.979 86.8271 141.979 86.8271L144.406 89.0203Z" fill="#F8BDC5"/>
<g opacity="0.1">
<path opacity="0.1" d="M161.413 88.9192C160.837 89.1183 158.608 89.9613 158.361 91.1671C158.209 90.6299 158.094 90.0839 158.018 89.5326L160.76 88.1389C161.02 88.3653 161.241 88.6286 161.413 88.9192Z" fill="black"/>
</g>
<g opacity="0.1">
<path opacity="0.1" d="M144.406 89.0203C144.192 89.594 143.946 90.1568 143.669 90.7062C143.563 89.9805 143.126 88.1244 141.396 87.5255C141.739 87.0872 141.979 86.8223 141.979 86.8223L144.406 89.0203Z" fill="black"/>
</g>
<g opacity="0.1">
<path opacity="0.1" d="M153.252 93.0536H148.711V86.1591C148.846 85.497 148.925 84.8259 148.947 84.1521C149.881 84.9967 149.65 86.3052 149.65 86.3052L152.077 91.4432L153.252 86.9009L152.862 86.3149L154.473 84.5198C155.024 85.2056 155.73 85.7687 156.541 86.1687C159.67 87.6266 153.252 93.0536 153.252 93.0536Z" fill="black"/>
</g>
<g opacity="0.1">
<path opacity="0.1" d="M156.461 107.132C156.461 107.132 152.903 106.867 149.816 106.742L149.506 106.729C149.067 106.713 148.649 106.7 148.24 106.69C145.244 106.623 141.856 105.642 141.28 105.47C141.496 105.156 141.729 104.853 141.979 104.563L146.677 105.526C146.677 105.526 147.417 105.748 149.062 106.43L146.363 104.563L154.589 105.956C154.589 105.956 154.875 105.923 156.389 106.716L156.461 107.132Z" fill="black"/>
</g>
<path d="M153.252 87.1867L152.862 86.6007L154.599 84.6531C154.599 84.6531 158.183 86.2988 159.122 85.9376C159.122 85.9376 161.393 87.7037 161.47 88.7249C161.47 88.7249 158.183 89.7509 158.26 91.2939C158.337 92.8369 156.7 96.1332 156.7 96.1332L156.015 98.7696C155.593 100.367 155.535 102.03 155.844 103.651L156.469 106.915C156.469 106.915 151.537 106.549 148.243 106.475C144.949 106.401 141.198 105.229 141.198 105.229L143.119 101.441C143.812 100.074 144.151 98.5739 144.109 97.0613L143.938 90.9294C143.938 90.9294 143.782 87.8499 141.196 87.3361C141.196 87.3361 142.605 84.6226 144.795 84.8425C144.795 84.8425 147.986 83.595 148.934 84.4379C149.881 85.2809 149.648 86.6023 149.648 86.6023L152.075 91.7403L153.252 87.1867Z" fill="#D9C6F4"/>
<g opacity="0.1">
<path opacity="0.1" d="M146.656 78.6128C147.285 78.6128 147.779 77.9882 148.408 78.0203C148.733 78.0363 149.012 78.2306 149.282 78.4056C150.298 79.0652 151.43 79.5542 152.625 79.8507C153.09 79.9663 153.581 80.053 154.048 79.947C154.514 79.8411 154.951 79.4975 155.004 79.0495C155.017 78.852 154.989 78.6541 154.922 78.4666C154.394 76.7442 153.2 75.2678 151.573 74.3258C150.922 73.9517 150.126 73.6659 149.405 73.9003C148.754 74.1106 148.334 74.6822 147.863 75.1527C147.507 75.5049 147.104 75.8116 146.663 76.0646C146.32 76.2589 145.806 76.3858 145.609 76.7422C145.237 77.4069 145.821 78.6063 146.656 78.6128Z" fill="black"/>
</g>
<path d="M146.656 78.4666C147.285 78.4666 147.779 77.842 148.408 77.8742C148.733 77.8902 149.012 78.0845 149.282 78.2595C150.298 78.9191 151.43 79.4081 152.625 79.7046C153.09 79.8202 153.581 79.9069 154.048 79.8009C154.514 79.6949 154.951 79.3513 155.004 78.9034C155.017 78.7059 154.989 78.508 154.922 78.3205C154.394 76.5981 153.2 75.1217 151.573 74.1796C150.922 73.8055 150.126 73.5197 149.405 73.7542C148.754 73.9645 148.334 74.5361 147.863 75.0065C147.507 75.3588 147.104 75.6655 146.663 75.9185C146.32 76.1128 145.806 76.2396 145.609 76.5961C145.237 77.2672 145.821 78.4586 146.656 78.4666Z" fill="#85555C"/>
<path opacity="0.05" d="M144.759 95.2164C144.759 95.2164 148.594 96.5362 151.1 95.5103L152.353 95.5841C152.353 95.5841 154.435 96.9521 156.637 96.3404" fill="black"/>
<path opacity="0.05" d="M162.919 93.0167C162.919 93.0167 162.295 94.4104 162.606 94.8503L162.919 93.0167Z" fill="black"/>
<path opacity="0.05" d="M137.948 92.5768C137.948 92.5768 138.26 93.9705 137.948 94.4104V92.5768Z" fill="black"/>
<path d="M202.869 124.334C202.869 124.334 195.699 131.052 199.747 141.02C203.795 150.987 192.81 167.564 192.81 167.564C192.81 167.564 192.928 167.548 193.152 167.512C207.879 165.077 215.195 149.298 207.006 137.576C203.954 133.216 201.456 128.104 202.869 124.334Z" fill="#4C4981"/>
<path opacity="0.1" d="M202.869 124.447C202.869 124.447 195.699 131.165 199.747 141.132C203.795 151.1 192.81 167.675 192.81 167.675C192.81 167.675 192.928 167.659 193.152 167.623C207.879 165.188 215.195 149.409 207.006 137.687C203.954 133.329 201.456 128.217 202.869 124.447Z" fill="black"/>
<path d="M202.869 124.334C202.869 124.334 198.821 132.568 202.869 139.286C206.917 146.004 203.555 164.855 192.808 167.564" stroke="#535461" stroke-miterlimit="10"/>
<path d="M215.64 151.504C215.64 151.504 207.459 150.284 206.713 157.153C205.968 164.022 190.976 164.974 190.976 164.974L191.257 165.149C203.63 172.76 215.46 169.996 213.676 159.891C213.018 156.135 213.073 152.362 215.64 151.504Z" fill="#4C4981"/>
<path d="M215.64 151.504C215.64 151.504 209.289 152.81 209.813 158.221C210.338 163.632 200.388 170.117 190.983 164.976" stroke="#535461" stroke-miterlimit="10"/>
<path d="M208.443 165.224C208.443 165.224 201.999 164.017 200.28 162.407C198.561 160.796 190.828 157.98 189.97 159.998C189.111 162.016 178.371 168.853 185.673 170.061C192.976 171.268 202.857 171.666 205.005 170.863C207.152 170.061 208.443 165.224 208.443 165.224Z" fill="#A8A8A8"/>
<path opacity="0.2" d="M185.674 169.308C192.978 170.515 202.857 170.913 205.005 170.11C206.641 169.497 207.778 166.552 208.227 165.181L208.441 165.223C208.441 165.223 207.152 170.053 205.005 170.857C202.857 171.661 192.976 171.26 185.674 170.054C183.566 169.706 182.962 168.887 183.19 167.851C183.369 168.527 184.104 169.047 185.674 169.308Z" fill="black"/>
</g>
</g>
<defs>
<filter id="filter0_d" x="0.792969" y="0" width="261.849" height="224" filterUnits="userSpaceOnUse" color-interpolation-filters="sRGB">
<feFlood flood-opacity="0" result="BackgroundImageFix"/>
<feColorMatrix in="SourceAlpha" type="matrix" values="0 0 0 0 0 0 0 0 0 0 0 0 0 0 0 0 0 0 127 0"/>
<feOffset dx="4" dy="4"/>
<feGaussianBlur stdDeviation="10"/>
<feColorMatrix type="matrix" values="0 0 0 0 0 0 0 0 0 0 0 0 0 0 0 0 0 0 0.25 0"/>
<feBlend mode="normal" in2="BackgroundImageFix" result="effect1_dropShadow"/>
<feBlend mode="normal" in="SourceGraphic" in2="effect1_dropShadow" result="shape"/>
</filter>
<linearGradient id="paint0_linear" x1="127.227" y1="172.845" x2="127.227" y2="56.5982" gradientUnits="userSpaceOnUse">
<stop stop-color="#808080" stop-opacity="0.25"/>
<stop offset="0.54" stop-color="#808080" stop-opacity="0.12"/>
<stop offset="1" stop-color="#808080" stop-opacity="0.1"/>
</linearGradient>
<linearGradient id="paint1_linear" x1="30029.2" y1="39994.3" x2="30029.2" y2="12073.5" gradientUnits="userSpaceOnUse">
<stop stop-color="#808080" stop-opacity="0.25"/>
<stop offset="0.54" stop-color="#808080" stop-opacity="0.12"/>
<stop offset="1" stop-color="#808080" stop-opacity="0.1"/>
</linearGradient>
<clipPath id="clip0">
<rect width="177.879" height="124" fill="white" transform="translate(37.7788 53)"/>
</clipPath>
</defs>
</svg>
