<svg width="1586" height="1000" viewBox="0 0 1586 1000" fill="none" xmlns="http://www.w3.org/2000/svg">
<path d="M0 785.357C229.186 816.71 357.588 849.952 586.549 919L1440 595V816.241C1440 816.241 1401.86 935.58 1075.85 875.91C749.841 816.241 437.783 832.821 403.221 875.91C368.659 919 0 849.932 0 849.932V785.357Z" fill="#531DAB"/>
<path d="M0 0H1440C1440 0 1440 631.409 1440 661.634C1440 691.859 1344.5 826.836 1136.5 859.959C928.5 893.082 571.5 879.419 358.5 859.959C145.5 840.499 0 840.499 0 840.499V0Z" fill="#531DAB"/>
<path d="M0 0H1440C1440 0 1440 631.409 1440 661.634C1440 691.859 1344.5 826.836 1136.5 859.959C928.5 893.082 571.5 879.419 358.5 859.959C145.5 840.499 0 840.499 0 840.499V0Z" fill="url(#paint0_linear)"/>
<g clip-path="url(#clip0)">
<path opacity="0.1" d="M1064 825.3C1064.01 838.475 1062.57 851.589 1059.72 864.268C1056.97 876.492 1052.93 888.193 1047.7 899.056C1047.7 938.418 1026.59 972.437 995.951 988.621C983.149 995.317 969.416 998.735 955.552 998.678H485.541C460.42 998.678 437.14 990.146 418.048 975.611C412.584 971.47 407.401 966.77 402.551 961.556C381.331 938.599 368.175 906.874 368.175 871.834C356.265 848.749 349.95 821.8 350 794.274C350 736.638 377.081 687.08 415.877 665.199C421.028 662.295 426.351 659.899 431.798 658.033C433.724 657.374 435.672 656.782 437.64 656.258C442.886 654.852 448.208 653.933 453.561 653.508C455.496 653.357 457.441 653.271 459.397 653.248H460.47C462.63 653.248 464.771 653.344 466.899 653.5L467.598 652.007C468.455 650.205 469.333 648.422 470.232 646.658C471.854 643.441 473.556 640.273 475.337 637.151C477.201 633.857 479.146 630.614 481.172 627.425L481.69 626.639C482.839 624.837 484.012 623.056 485.211 621.296C488.956 615.802 492.908 610.473 497.069 605.308C542.075 549.778 612.582 514.031 691.846 514.031C753.522 514.031 809.899 535.676 853.083 571.439C869.442 559.785 887.923 553.67 906.72 553.691C967.722 553.691 1017.19 616.834 1017.19 694.724C1017.18 699.652 1016.97 704.576 1016.57 709.478C1031.27 722.581 1043.26 739.945 1051.51 760.102C1059.77 780.26 1064.05 802.621 1064 825.3Z" fill="#09090A"/>
<path opacity="0.2" d="M497.082 605.277V621.265H485.223C488.938 615.776 492.892 610.447 497.082 605.277Z" fill="#09090A"/>
<path opacity="0.2" d="M518.844 601.223H502.924V621.265H518.844V601.223Z" fill="#09090A"/>
<path opacity="0.2" d="M540.602 601.223H524.68V621.265H540.602V601.223Z" fill="#09090A"/>
<path opacity="0.2" d="M562.365 601.223H546.443V621.265H562.365V601.223Z" fill="#09090A"/>
<path opacity="0.2" d="M584.123 601.223H568.201V621.265H584.123V601.223Z" fill="#09090A"/>
<path opacity="0.2" d="M605.885 601.223H589.964V621.265H605.885V601.223Z" fill="#09090A"/>
<path d="M627.649 601.223H611.728V621.265H627.649V601.223Z" fill="#09090A"/>
<path opacity="0.2" d="M649.406 601.223H633.484V621.265H649.406V601.223Z" fill="#09090A"/>
<path opacity="0.2" d="M671.168 601.223H655.248V621.265H671.168V601.223Z" fill="#09090A"/>
<path opacity="0.2" d="M692.926 601.223H677.005V621.265H692.926V601.223Z" fill="#09090A"/>
<path d="M714.689 601.223H698.767V621.265H714.689V601.223Z" fill="#09090A"/>
<path opacity="0.2" d="M736.453 601.223H720.531V621.265H736.453V601.223Z" fill="#09090A"/>
<path opacity="0.2" d="M758.209 601.223H742.288V621.265H758.209V601.223Z" fill="#09090A"/>
<path opacity="0.2" d="M779.973 601.223H764.052V621.265H779.973V601.223Z" fill="#09090A"/>
<path opacity="0.2" d="M801.736 601.223H785.814V621.265H801.736V601.223Z" fill="#09090A"/>
<path opacity="0.2" d="M823.493 601.223H807.571V621.265H823.493V601.223Z" fill="#09090A"/>
<path opacity="0.2" d="M845.257 601.223H829.335V621.265H845.257V601.223Z" fill="#09090A"/>
<path d="M867.013 601.223H851.091V621.265H867.013V601.223Z" fill="#09090A"/>
<path d="M888.777 601.223H872.855V621.265H888.777V601.223Z" fill="#09090A"/>
<path opacity="0.2" d="M910.54 601.223H894.619V621.265H910.54V601.223Z" fill="#09090A"/>
<path opacity="0.2" d="M932.297 601.223H916.376V621.265H932.297V601.223Z" fill="#09090A"/>
<path d="M954.06 601.223H938.139V621.265H954.06V601.223Z" fill="#09090A"/>
<path d="M975.817 601.223H959.896V621.265H975.817V601.223Z" fill="#09090A"/>
<path d="M475.325 637.143V646.65H470.219C471.842 643.413 473.544 640.244 475.325 637.143Z" fill="#09090A"/>
<path opacity="0.2" d="M497.081 626.608H481.16V646.65H497.081V626.608Z" fill="#09090A"/>
<path d="M518.844 626.608H502.924V646.65H518.844V626.608Z" fill="#09090A"/>
<path opacity="0.2" d="M540.602 626.608H524.68V646.65H540.602V626.608Z" fill="#09090A"/>
<path opacity="0.7" d="M562.365 626.608H546.443V646.65H562.365V626.608Z" fill="#09090A"/>
<path opacity="0.2" d="M584.123 626.608H568.201V646.65H584.123V626.608Z" fill="#09090A"/>
<path opacity="0.4" d="M605.885 626.608H589.964V646.65H605.885V626.608Z" fill="#09090A"/>
<path d="M627.649 626.608H611.728V646.65H627.649V626.608Z" fill="#09090A"/>
<path opacity="0.4" d="M649.406 626.608H633.484V646.65H649.406V626.608Z" fill="#09090A"/>
<path opacity="0.2" d="M671.168 626.608H655.248V646.65H671.168V626.608Z" fill="#09090A"/>
<path opacity="0.4" d="M692.926 626.608H677.005V646.65H692.926V626.608Z" fill="#09090A"/>
<path d="M714.689 626.608H698.767V646.65H714.689V626.608Z" fill="#09090A"/>
<path opacity="0.4" d="M736.453 626.608H720.531V646.65H736.453V626.608Z" fill="#09090A"/>
<path opacity="0.4" d="M758.209 626.608H742.288V646.65H758.209V626.608Z" fill="#09090A"/>
<path opacity="0.2" d="M779.973 626.608H764.052V646.65H779.973V626.608Z" fill="#09090A"/>
<path opacity="0.4" d="M801.736 626.608H785.814V646.65H801.736V626.608Z" fill="#09090A"/>
<path opacity="0.4" d="M823.493 626.608H807.571V646.65H823.493V626.608Z" fill="#09090A"/>
<path opacity="0.2" d="M845.257 626.608H829.335V646.65H845.257V626.608Z" fill="#09090A"/>
<path opacity="0.2" d="M867.013 626.608H851.091V646.65H867.013V626.608Z" fill="#09090A"/>
<path opacity="0.4" d="M888.777 626.608H872.855V646.65H888.777V626.608Z" fill="#09090A"/>
<path opacity="0.2" d="M910.54 626.608H894.619V646.65H910.54V626.608Z" fill="#09090A"/>
<path d="M932.297 626.608H916.376V646.65H932.297V626.608Z" fill="#09090A"/>
<path d="M954.06 626.608H938.139V646.65H954.06V626.608Z" fill="#09090A"/>
<path d="M975.817 626.608H959.896V646.65H975.817V626.608Z" fill="#09090A"/>
<path opacity="0.2" d="M431.798 658.035V672.042H415.876V665.199C421.028 662.295 426.351 659.899 431.798 658.035Z" fill="#09090A"/>
<path opacity="0.2" d="M453.561 653.509V672.042H437.64V656.259L453.561 653.509Z" fill="#09090A"/>
<path d="M475.319 652.001H459.397V672.042H475.319V652.001Z" fill="#09090A"/>
<path opacity="0.7" d="M497.081 652.001H481.16V672.042H497.081V652.001Z" fill="#09090A"/>
<path d="M518.844 652.001H502.924V672.042H518.844V652.001Z" fill="#09090A"/>
<path opacity="0.7" d="M540.602 652.001H524.68V672.042H540.602V652.001Z" fill="#09090A"/>
<path opacity="0.7" d="M562.365 652.001H546.443V672.042H562.365V652.001Z" fill="#09090A"/>
<path opacity="0.2" d="M584.123 652.001H568.201V672.042H584.123V652.001Z" fill="#09090A"/>
<path opacity="0.4" d="M605.885 652.001H589.964V672.042H605.885V652.001Z" fill="#09090A"/>
<path opacity="0.4" d="M627.649 652.001H611.728V672.042H627.649V652.001Z" fill="#09090A"/>
<path d="M649.406 652.001H633.484V672.042H649.406V652.001Z" fill="#09090A"/>
<path opacity="0.2" d="M671.168 652.001H655.248V672.042H671.168V652.001Z" fill="#09090A"/>
<path opacity="0.4" d="M692.926 652.001H677.005V672.042H692.926V652.001Z" fill="#09090A"/>
<path d="M714.689 652.001H698.767V672.042H714.689V652.001Z" fill="#09090A"/>
<path opacity="0.2" d="M736.453 652.001H720.531V672.042H736.453V652.001Z" fill="#09090A"/>
<path opacity="0.4" d="M758.209 652.001H742.288V672.042H758.209V652.001Z" fill="#09090A"/>
<path opacity="0.2" d="M779.973 652.001H764.052V672.042H779.973V652.001Z" fill="#09090A"/>
<path d="M801.736 652.001H785.814V672.042H801.736V652.001Z" fill="#09090A"/>
<path opacity="0.2" d="M823.493 652.001H807.571V672.042H823.493V652.001Z" fill="#09090A"/>
<path opacity="0.7" d="M845.257 652.001H829.335V672.042H845.257V652.001Z" fill="#09090A"/>
<path opacity="0.7" d="M867.013 652.001H851.091V672.042H867.013V652.001Z" fill="#09090A"/>
<path opacity="0.4" d="M888.777 652.001H872.855V672.042H888.777V652.001Z" fill="#09090A"/>
<path opacity="0.2" d="M910.54 652.001H894.619V672.042H910.54V652.001Z" fill="#09090A"/>
<path d="M932.297 652.001H916.376V672.042H932.297V652.001Z" fill="#09090A"/>
<path d="M954.06 652.001H938.139V672.042H954.06V652.001Z" fill="#09090A"/>
<path d="M975.817 652.001H959.896V672.042H975.817V652.001Z" fill="#09090A"/>
<path opacity="0.2" d="M431.798 677.385H415.876V697.426H431.798V677.385Z" fill="#09090A"/>
<path opacity="0.2" d="M453.561 677.385H437.64V697.426H453.561V677.385Z" fill="#09090A"/>
<path opacity="0.2" d="M475.319 677.385H459.397V697.426H475.319V677.385Z" fill="#09090A"/>
<path opacity="0.2" d="M497.081 677.385H481.16V697.426H497.081V677.385Z" fill="#09090A"/>
<path d="M518.844 677.385H502.924V697.426H518.844V677.385Z" fill="#09090A"/>
<path opacity="0.7" d="M540.602 677.385H524.68V697.426H540.602V677.385Z" fill="#09090A"/>
<path opacity="0.7" d="M562.365 677.385H546.443V697.426H562.365V677.385Z" fill="#09090A"/>
<path opacity="0.2" d="M584.123 677.385H568.201V697.426H584.123V677.385Z" fill="#09090A"/>
<path opacity="0.2" d="M605.885 677.385H589.964V697.426H605.885V677.385Z" fill="#09090A"/>
<path opacity="0.4" d="M627.649 677.385H611.728V697.426H627.649V677.385Z" fill="#09090A"/>
<path opacity="0.4" d="M649.406 677.385H633.484V697.426H649.406V677.385Z" fill="#09090A"/>
<path d="M671.168 677.385H655.248V697.426H671.168V677.385Z" fill="#09090A"/>
<path opacity="0.2" d="M692.926 677.385H677.005V697.426H692.926V677.385Z" fill="#09090A"/>
<path opacity="0.4" d="M714.689 677.385H698.767V697.426H714.689V677.385Z" fill="#09090A"/>
<path opacity="0.4" d="M736.453 677.385H720.531V697.426H736.453V677.385Z" fill="#09090A"/>
<path opacity="0.4" d="M758.209 677.385H742.288V697.426H758.209V677.385Z" fill="#09090A"/>
<path opacity="0.4" d="M779.973 677.385H764.052V697.426H779.973V677.385Z" fill="#09090A"/>
<path opacity="0.2" d="M801.736 677.385H785.814V697.426H801.736V677.385Z" fill="#09090A"/>
<path opacity="0.2" d="M823.493 677.385H807.571V697.426H823.493V677.385Z" fill="#09090A"/>
<path opacity="0.2" d="M845.257 677.385H829.335V697.426H845.257V677.385Z" fill="#09090A"/>
<path opacity="0.2" d="M867.013 677.385H851.091V697.426H867.013V677.385Z" fill="#09090A"/>
<path opacity="0.7" d="M888.777 677.385H872.855V697.426H888.777V677.385Z" fill="#09090A"/>
<path opacity="0.7" d="M910.54 677.385H894.619V697.426H910.54V677.385Z" fill="#09090A"/>
<path opacity="0.4" d="M932.297 677.385H916.376V697.426H932.297V677.385Z" fill="#09090A"/>
<path opacity="0.2" d="M954.06 677.385H938.139V697.426H954.06V677.385Z" fill="#09090A"/>
<path d="M975.817 677.385H959.896V697.426H975.817V677.385Z" fill="#09090A"/>
<path opacity="0.2" d="M431.798 702.777H415.876V722.819H431.798V702.777Z" fill="#09090A"/>
<path opacity="0.2" d="M453.561 702.777H437.64V722.819H453.561V702.777Z" fill="#09090A"/>
<path opacity="0.4" d="M475.319 702.777H459.397V722.819H475.319V702.777Z" fill="#09090A"/>
<path opacity="0.2" d="M497.081 702.777H481.16V722.819H497.081V702.777Z" fill="#09090A"/>
<path opacity="0.2" d="M518.844 702.777H502.924V722.819H518.844V702.777Z" fill="#09090A"/>
<path opacity="0.7" d="M540.602 702.777H524.68V722.819H540.602V702.777Z" fill="#09090A"/>
<path opacity="0.7" d="M562.365 702.777H546.443V722.819H562.365V702.777Z" fill="#09090A"/>
<path opacity="0.2" d="M584.123 702.777H568.201V722.819H584.123V702.777Z" fill="#09090A"/>
<path opacity="0.2" d="M605.885 702.777H589.964V722.819H605.885V702.777Z" fill="#09090A"/>
<path opacity="0.4" d="M627.649 702.777H611.728V722.819H627.649V702.777Z" fill="#09090A"/>
<path d="M649.406 702.777H633.484V722.819H649.406V702.777Z" fill="#09090A"/>
<path opacity="0.2" d="M671.168 702.777H655.248V722.819H671.168V702.777Z" fill="#09090A"/>
<path d="M692.926 702.777H677.005V722.819H692.926V702.777Z" fill="#09090A"/>
<path d="M714.689 702.777H698.767V722.819H714.689V702.777Z" fill="#09090A"/>
<path d="M736.453 702.777H720.531V722.819H736.453V702.777Z" fill="#09090A"/>
<path opacity="0.2" d="M758.209 702.777H742.288V722.819H758.209V702.777Z" fill="#09090A"/>
<path d="M779.973 702.777H764.052V722.819H779.973V702.777Z" fill="#09090A"/>
<path opacity="0.2" d="M801.736 702.777H785.814V722.819H801.736V702.777Z" fill="#09090A"/>
<path opacity="0.2" d="M823.493 702.777H807.571V722.819H823.493V702.777Z" fill="#09090A"/>
<path opacity="0.2" d="M845.257 702.777H829.335V722.819H845.257V702.777Z" fill="#09090A"/>
<path opacity="0.2" d="M867.013 702.777H851.091V722.819H867.013V702.777Z" fill="#09090A"/>
<path opacity="0.2" d="M888.777 702.777H872.855V722.819H888.777V702.777Z" fill="#09090A"/>
<path opacity="0.7" d="M910.54 702.777H894.619V722.819H910.54V702.777Z" fill="#09090A"/>
<path opacity="0.2" d="M932.297 702.777H916.376V722.819H932.297V702.777Z" fill="#09090A"/>
<path opacity="0.2" d="M954.06 702.777H938.139V722.819H954.06V702.777Z" fill="#09090A"/>
<path d="M975.817 702.777H959.896V722.819H975.817V702.777Z" fill="#09090A"/>
<path opacity="0.2" d="M431.798 728.161H415.876V748.204H431.798V728.161Z" fill="#09090A"/>
<path opacity="0.2" d="M453.561 728.161H437.64V748.204H453.561V728.161Z" fill="#09090A"/>
<path opacity="0.2" d="M475.319 728.161H459.397V748.204H475.319V728.161Z" fill="#09090A"/>
<path opacity="0.4" d="M497.081 728.161H481.16V748.204H497.081V728.161Z" fill="#09090A"/>
<path opacity="0.2" d="M518.844 728.161H502.924V748.204H518.844V728.161Z" fill="#09090A"/>
<path opacity="0.2" d="M540.602 728.161H524.68V748.204H540.602V728.161Z" fill="#09090A"/>
<path opacity="0.7" d="M562.365 728.161H546.443V748.204H562.365V728.161Z" fill="#09090A"/>
<path opacity="0.2" d="M584.123 728.161H568.201V748.204H584.123V728.161Z" fill="#09090A"/>
<path opacity="0.2" d="M605.885 728.161H589.964V748.204H605.885V728.161Z" fill="#09090A"/>
<path opacity="0.2" d="M627.649 728.161H611.728V748.204H627.649V728.161Z" fill="#09090A"/>
<path d="M649.406 728.161H633.484V748.204H649.406V728.161Z" fill="#09090A"/>
<path opacity="0.2" d="M671.168 728.161H655.248V748.204H671.168V728.161Z" fill="#09090A"/>
<path d="M692.926 728.161H677.005V748.204H692.926V728.161Z" fill="#09090A"/>
<path d="M714.689 728.161H698.767V748.204H714.689V728.161Z" fill="#09090A"/>
<path opacity="0.2" d="M736.453 728.161H720.531V748.204H736.453V728.161Z" fill="#09090A"/>
<path opacity="0.2" d="M758.209 728.161H742.288V748.204H758.209V728.161Z" fill="#09090A"/>
<path opacity="0.2" d="M779.973 728.161H764.052V748.204H779.973V728.161Z" fill="#09090A"/>
<path opacity="0.2" d="M801.736 728.161H785.814V748.204H801.736V728.161Z" fill="#09090A"/>
<path opacity="0.2" d="M823.493 728.161H807.571V748.204H823.493V728.161Z" fill="#09090A"/>
<path opacity="0.2" d="M845.257 728.161H829.335V748.204H845.257V728.161Z" fill="#09090A"/>
<path opacity="0.2" d="M867.013 728.161H851.091V748.204H867.013V728.161Z" fill="#09090A"/>
<path opacity="0.2" d="M888.777 728.161H872.855V748.204H888.777V728.161Z" fill="#09090A"/>
<path opacity="0.2" d="M910.54 728.161H894.619V748.204H910.54V728.161Z" fill="#09090A"/>
<path opacity="0.2" d="M932.297 728.161H916.376V748.204H932.297V728.161Z" fill="#09090A"/>
<path opacity="0.4" d="M954.06 728.161H938.139V748.204H954.06V728.161Z" fill="#09090A"/>
<path d="M975.817 728.161H959.896V748.204H975.817V728.161Z" fill="#09090A"/>
<path opacity="0.7" d="M431.798 753.553H415.876V773.596H431.798V753.553Z" fill="#09090A"/>
<path opacity="0.7" d="M453.561 753.553H437.64V773.596H453.561V753.553Z" fill="#09090A"/>
<path opacity="0.7" d="M475.319 753.553H459.397V773.596H475.319V753.553Z" fill="#09090A"/>
<path opacity="0.7" d="M497.081 753.553H481.16V773.596H497.081V753.553Z" fill="#09090A"/>
<path opacity="0.7" d="M518.844 753.553H502.924V773.596H518.844V753.553Z" fill="#09090A"/>
<path opacity="0.2" d="M540.602 753.553H524.68V773.596H540.602V753.553Z" fill="#09090A"/>
<path opacity="0.2" d="M562.365 753.553H546.443V773.596H562.365V753.553Z" fill="#09090A"/>
<path opacity="0.2" d="M584.123 753.553H568.201V773.596H584.123V753.553Z" fill="#09090A"/>
<path opacity="0.2" d="M605.885 753.553H589.964V773.596H605.885V753.553Z" fill="#09090A"/>
<path opacity="0.2" d="M627.649 753.553H611.728V773.596H627.649V753.553Z" fill="#09090A"/>
<path opacity="0.2" d="M649.406 753.553H633.484V773.596H649.406V753.553Z" fill="#09090A"/>
<path d="M671.168 753.553H655.248V773.596H671.168V753.553Z" fill="#09090A"/>
<path opacity="0.2" d="M692.926 753.553H677.005V773.596H692.926V753.553Z" fill="#09090A"/>
<path opacity="0.2" d="M714.689 753.553H698.767V773.596H714.689V753.553Z" fill="#09090A"/>
<path opacity="0.2" d="M736.453 753.553H720.531V773.596H736.453V753.553Z" fill="#09090A"/>
<path d="M758.209 753.553H742.288V773.596H758.209V753.553Z" fill="#09090A"/>
<path opacity="0.2" d="M779.973 753.553H764.052V773.596H779.973V753.553Z" fill="#09090A"/>
<path opacity="0.2" d="M801.736 753.553H785.814V773.596H801.736V753.553Z" fill="#09090A"/>
<path opacity="0.2" d="M823.493 753.553H807.571V773.596H823.493V753.553Z" fill="#09090A"/>
<path opacity="0.2" d="M845.257 753.553H829.335V773.596H845.257V753.553Z" fill="#09090A"/>
<path opacity="0.2" d="M867.013 753.553H851.091V773.596H867.013V753.553Z" fill="#09090A"/>
<path opacity="0.2" d="M888.777 753.553H872.855V773.596H888.777V753.553Z" fill="#09090A"/>
<path opacity="0.2" d="M910.54 753.553H894.619V773.596H910.54V753.553Z" fill="#09090A"/>
<path opacity="0.2" d="M932.297 753.553H916.376V773.596H932.297V753.553Z" fill="#09090A"/>
<path opacity="0.2" d="M954.06 753.553H938.139V773.596H954.06V753.553Z" fill="#09090A"/>
<path d="M975.817 753.553H959.896V773.596H975.817V753.553Z" fill="#09090A"/>
<path d="M808.433 827.288C820.453 827.288 830.197 815.022 830.197 799.892C830.197 784.762 820.453 772.496 808.433 772.496C796.414 772.496 786.67 784.762 786.67 799.892C786.67 815.022 796.414 827.288 808.433 827.288Z" fill="#767D9F"/>
<path d="M807.303 765.04C809.476 776.972 811.319 788.992 812.833 801.102C813.289 804.7 813.694 808.494 812.658 811.897C811.79 814.733 810.025 816.948 808.639 819.431C807.253 821.914 806.205 825.095 807.047 827.94C807.89 830.783 810.349 832.339 812.696 833.14C819.411 835.419 826.57 833.761 833.254 831.294C836.281 830.314 839.182 828.8 841.874 826.8C844.708 824.538 847.029 821.395 849.163 818.158C858.906 803.286 865.285 785.436 871.288 767.695C867.43 768.137 863.545 767.418 859.951 765.595C856.358 763.772 853.161 760.9 850.623 757.214C848.165 753.577 846.362 748.511 847.746 744.063C843.683 746.868 838.859 747.057 834.484 748.973C831.771 750.278 829.159 751.895 826.683 753.805C823.695 755.978 820.723 758.195 817.769 760.452C814.393 763.014 811.229 765.291 807.303 765.04Z" fill="#AE6E79"/>
<path d="M852.821 785.608C849.008 794.949 844.046 803.93 836.962 809.493C829.878 815.055 820.341 816.563 813.244 811.064C809.75 808.377 807.104 804.291 804.052 800.85C801 797.409 797.186 794.463 793.086 794.91C788.567 795.406 785.028 799.845 782.001 804.095C777.408 810.553 772.97 817.287 769.719 824.931C763.477 839.623 761.998 856.797 762.272 873.453C762.547 890.108 764.463 906.678 764.507 923.334C764.57 943.823 761.81 964.148 759.021 984.331C784.672 980.356 810.355 989.046 836.063 992.338C852.514 994.467 869.092 994.42 885.632 994.365C888.54 994.365 891.635 994.27 894.057 992.244C895.537 990.884 896.734 989.094 897.546 987.026C899.83 981.724 900.747 975.674 901.384 969.695C903.001 954.595 903.051 939.306 903.094 924.065C903.206 887.138 903.313 850.079 899.586 813.444C898.669 804.433 897.495 795.374 894.75 786.944C892.003 778.514 887.523 770.759 881.256 766.242C877.23 763.336 867.9 758.276 863.156 761.207C857.833 764.474 855.373 779.355 852.821 785.608Z" fill="#767D9F"/>
<path d="M854.718 889.88C853.751 867.097 849.812 842.78 858.194 822.558C860.254 817.593 852.865 811.394 855.148 806.585C857.936 800.724 860.051 794.394 861.428 787.785C861.902 785.514 862.282 783.11 861.834 780.832C861.003 776.676 857.738 774.201 854.968 771.671C851.91 768.874 850.336 760.35 849.35 755.737C848.365 751.126 857.196 756.681 860.747 755.038C865.678 752.769 871.944 754.198 876.862 756.5C879.608 757.772 882.592 757.883 885.519 757.977C891.205 758.166 896.909 758.346 902.552 757.466C905.085 757.066 907.625 756.461 910.172 756.641C916.669 757.105 922.318 762.699 926.162 769.313C930.006 775.929 932.453 783.637 935.604 790.802C938.233 796.773 941.366 802.413 943.606 808.628C945.59 814.128 946.846 820.036 948.087 825.912L951.288 840.989C951.849 843.146 952.115 845.406 952.076 847.675C951.913 850.087 951.064 852.334 950.203 854.479C946.946 862.428 943.041 869.93 938.551 876.862C931.817 887.257 923.64 896.63 919.639 909.074C918.079 913.922 917.211 919.075 916.419 924.214C913.223 944.763 910.952 965.526 909.616 986.398C902.323 982.15 894.679 978.933 886.824 976.805C882.907 975.75 878.949 974.964 874.965 974.449C871.476 973.993 866.976 974.857 863.655 973.663C858.101 971.674 857.489 959.851 856.647 953.66C855.298 943.8 855.03 933.768 854.981 923.805C854.917 912.476 855.199 901.171 854.718 889.88Z" fill="#4C4981"/>
<path d="M732.733 847.275C735.36 866.13 738.256 885.041 743.967 902.758C743.824 902.93 743.68 903.087 743.536 903.245C743.03 903.786 742.506 904.297 741.957 904.816C740.677 905.948 739.274 906.906 738.212 908.383C737.811 908.948 737.493 909.6 737.276 910.308C737.08 910.86 736.979 911.459 736.979 912.064C736.979 912.669 737.08 913.267 737.276 913.82C734.3 915.477 730.841 914.966 727.502 914.809C724.625 914.675 721.835 914.81 719.527 916.796C716.318 919.579 715.351 924.92 714.833 929.775C714.642 931.546 714.477 933.319 714.34 935.095C714.207 936.745 714.098 938.4 714.015 940.061C713.733 945.552 713.693 951.061 713.897 956.559C713.93 957.565 713.974 958.57 714.028 959.576C703.83 959.269 694.537 952.576 685.743 946.071C683.732 944.586 681.661 943.022 680.356 940.571C679.154 938.164 678.645 935.31 678.914 932.486C678.914 932.086 678.97 931.701 679.014 931.293C679.294 928.961 679.772 926.675 680.443 924.473C683.195 915.095 687.25 906.409 692.421 898.821C694.655 895.537 697.17 892.324 698.212 888.2C698.668 886.401 698.837 884.49 699.299 882.699C701.37 874.938 708.848 871.268 711.407 863.735C712.03 861.935 712.317 859.963 713.092 858.234C713.789 856.797 714.688 855.534 715.744 854.503C716.2 854.023 716.674 853.56 717.143 853.096C721.527 848.77 725.753 844.2 729.818 839.387C730.576 838.491 731.324 837.585 732.065 836.668C731.966 840.224 732.19 843.783 732.733 847.275Z" fill="#4C4981"/>
<path d="M795.625 791.509C794.728 792.703 793.753 793.827 792.798 794.941L792.542 795.232L791.531 796.411C789.696 798.406 788.108 800.733 786.819 803.317L786.713 803.537C783.53 810.711 784.709 819.541 785.596 827.688C786.695 837.841 787.19 848.083 787.075 858.329C786.913 872.47 785.59 886.518 785.565 900.644C785.565 903.849 785.621 907.047 785.734 910.253C785.915 915.461 786.227 920.662 786.6 925.863C787.006 931.567 787.493 937.263 787.949 942.959C788.312 947.367 788.654 951.766 788.941 956.166C789.085 958.445 789.222 960.715 789.335 962.994C789.465 965.664 789.572 968.343 789.634 971.015C789.677 972.712 789.702 974.401 789.702 976.098C789.702 977.064 789.702 978.022 789.702 978.982C789.702 980.82 789.664 982.653 789.584 984.481C789.501 986.833 789.374 989.189 789.203 991.552C789.011 994.121 788.667 996.926 787.231 998.733C787.144 998.842 787.05 998.945 786.957 999.047L784.934 998.733C770.994 996.632 756.922 996.316 742.931 997.79C743.236 995.134 743.517 992.486 743.793 989.824C743.917 988.566 744.042 987.301 744.16 986.037C744.298 984.591 744.428 983.145 744.554 981.7C744.697 980.128 744.828 978.557 744.952 976.986C745.278 972.938 745.562 968.886 745.808 964.832C746.171 958.918 746.445 952.994 746.633 947.061C746.723 944.226 746.794 941.391 746.844 938.552C746.914 935.032 746.948 931.509 746.944 927.985C746.944 924.559 746.921 921.129 746.876 917.692C746.876 916.562 746.837 915.43 746.763 914.306C746.71 913.295 746.599 912.289 746.433 911.297C745.968 909.01 745.342 906.781 744.56 904.635C744.422 904.227 744.292 903.85 744.16 903.417C744.086 903.205 744.017 902.986 743.948 902.773C747.543 898.743 750.102 893.346 752.561 888.034C756.549 879.479 760.631 870.545 761.299 860.662C761.967 850.779 758.066 839.678 750.564 836.661C748.522 835.874 746.363 835.654 744.261 835.191C742.275 834.751 738.138 833.753 735.841 831.962C734.593 833.576 733.345 835.16 732.095 836.715C732.171 834.341 732.633 832.013 733.45 829.872L734.337 829.927C734.265 829.675 734.23 829.409 734.236 829.142C734.236 828.301 734.698 827.35 735.685 826.297C738.625 823.155 743.249 822.456 745.103 818.206C745.876 816.438 746.008 814.332 746.633 812.478C748.423 807.19 753.566 805.243 756.662 801.016C759.758 796.789 760.531 790.802 763.033 786.088C764.904 782.646 767.496 779.925 770.524 778.231C770.773 778.083 771.029 777.933 771.285 777.8C776.465 775.01 782.619 774.373 787.986 774.389C790.071 774.389 795.476 774.468 798.123 775.796C798.551 775.989 798.945 776.291 799.277 776.684C802.097 780.549 797.71 788.712 795.625 791.509Z" fill="#4C4981"/>
<path d="M733.663 829.322C738.484 827.495 743.546 826.893 748.554 827.55C753.562 828.206 758.415 830.109 762.835 833.148C767.329 836.292 771.359 840.675 773.832 846.332C777.544 854.817 777.383 865.046 777.121 874.733C776.989 879.58 776.821 884.601 775.123 888.953C773.157 893.99 769.45 897.446 765.668 900.275C763.298 902.177 760.703 903.592 757.978 904.463C753.785 905.609 749.428 904.635 745.203 903.677C740.609 902.608 735.679 901.319 732.489 897.014C730.617 894.516 729.593 891.271 728.583 888.097C727.13 883.514 725.675 878.936 724.213 874.364C721.686 866.42 720.831 859.814 724.17 852.075C725.687 848.547 727.54 845.247 729.038 841.696C729.787 839.889 732.471 829.786 733.663 829.322Z" fill="#4C4981"/>
<path d="M995.97 965.139V988.63C983.168 995.325 969.434 998.743 955.57 998.686H787.25C787.163 998.795 787.069 998.898 786.976 999L784.953 998.686H485.541C460.42 998.686 437.14 990.154 418.048 975.618V939.754L562.047 918.832H562.159L646.017 927.773L667.718 930.13L678.989 931.332L702.319 933.822L714.321 935.103L731.796 936.972L734.255 937.232L746.85 938.576L763.939 940.344L787.968 942.904L828.024 947.186L856.204 950.195L902.476 955.137L911.276 956.072L912.225 956.174L913.049 956.26L924.67 957.501L937.427 958.869L938.906 959.025L995.97 965.139Z" fill="#504F60"/>
<path d="M826.833 964.274L646.372 925.502L639.376 970.041L722.098 982.509L747.569 986.524L817.633 969.153L826.833 964.274Z" fill="#9C9CA1"/>
<path d="M733.419 984.292L823.83 962.899C824.282 962.791 824.748 962.809 825.195 962.954C825.641 963.097 826.056 963.364 826.409 963.734C826.765 964.105 827.049 964.569 827.244 965.094C827.439 965.62 827.539 966.192 827.537 966.772C827.539 967.693 827.285 968.583 826.819 969.291C826.352 969.999 825.703 970.479 824.985 970.646L736.69 991.458L733.419 984.292Z" fill="#9C9CA1"/>
<path d="M772.64 917.017C775.455 916.687 778.307 916.129 780.84 914.558C783.962 912.602 786.389 909.231 789.279 906.748C795.633 901.249 804.133 900.511 811.417 903.669C818.699 906.827 824.779 913.592 829.036 921.669C831.863 927.049 833.985 933.916 831.987 939.856C831.303 941.672 830.439 943.371 829.417 944.916L824.212 953.479C823.222 955.28 822.032 956.891 820.679 958.264C818.732 960.048 816.309 960.778 813.925 961.218C807.591 962.381 801.144 961.72 794.759 962.255C783.793 963.174 773.083 967.621 762.092 967.472C755.776 967.385 749.541 965.783 743.368 964.18L716.05 957.109C711.294 955.883 705.921 954.092 703.68 948.663C702.675 946.22 702.488 943.392 702.37 940.642C702.044 933.067 702.37 924.646 706.538 919.185C710.458 914.062 716.656 912.444 721.336 908.658C727.065 904.014 728.956 905.515 734.999 909.004C746.785 915.722 759.753 918.484 772.64 917.017Z" fill="#AE6E79"/>
<path opacity="0.05" d="M772.64 917.017C775.455 916.687 778.307 916.129 780.84 914.558C783.962 912.602 786.389 909.231 789.279 906.748C795.633 901.249 804.133 900.511 811.417 903.669C818.699 906.827 824.779 913.592 829.036 921.669C831.863 927.049 833.985 933.916 831.987 939.856C831.303 941.672 830.439 943.371 829.417 944.916L824.212 953.479C823.222 955.28 822.032 956.891 820.679 958.264C818.732 960.048 816.309 960.778 813.925 961.218C807.591 962.381 801.144 961.72 794.759 962.255C783.793 963.174 773.083 967.621 762.092 967.472C755.776 967.385 749.541 965.783 743.368 964.18L716.05 957.109C711.294 955.883 705.921 954.092 703.68 948.663C702.675 946.22 702.488 943.392 702.37 940.642C702.044 933.067 702.37 924.646 706.538 919.185C710.458 914.062 716.656 912.444 721.336 908.658C727.065 904.014 728.956 905.515 734.999 909.004C746.785 915.722 759.753 918.484 772.64 917.017Z" fill="black"/>
<path d="M882.342 906.245C874.678 909.978 866.97 913.725 858.944 915.949C845.487 919.68 831.407 919.091 818.057 923.357C811.004 925.62 803.996 929.266 796.749 928.526C793.511 928.197 790.383 926.955 787.231 926.013C769.525 920.513 749.397 922.297 735.017 936.439C730.099 941.271 726.073 947.297 722.422 953.723C721.641 955.111 721.112 956.699 720.876 958.373C720.639 960.049 720.699 961.768 721.052 963.411C721.403 965.054 722.04 966.578 722.914 967.874C723.79 969.171 724.881 970.209 726.11 970.913C731.703 974.15 737.693 976.162 743.824 976.861C752.018 977.772 760.251 976.311 768.401 974.849C780.497 972.689 792.599 970.521 804.663 968.093C808.995 967.221 813.326 966.317 817.682 965.625C849.033 960.637 880.95 966.702 912.381 962.538C915.558 962.114 918.791 961.564 921.681 959.858C928.996 955.538 932.615 944.145 931.105 934.136C929.594 924.127 923.765 915.807 916.75 910.7C910.871 906.403 904.53 904.666 897.983 902.844C891.904 901.06 888.196 903.417 882.342 906.245Z" fill="#AE6E79"/>
<path opacity="0.1" d="M949.579 846.41C953.037 852.114 953.773 859.766 953.398 866.908C953.025 874.05 951.676 881.112 951.476 888.286C951.202 898.121 953.087 907.927 952.768 917.731C952.544 924.59 951.251 931.316 949.723 937.899C947.919 945.67 945.31 954.022 939.611 957.753C932.047 962.711 916.182 959.921 908.224 963.802C908.948 958.122 915.889 949.896 916.613 944.216C917.112 940.288 917.618 936.25 917.081 932.314C916.395 927.293 914.054 922.838 911.276 919.13C906.858 913.231 901.09 908.791 894.756 907.345C888.421 905.9 872.911 907.086 867.844 912.122C867.219 906.922 878.828 901.909 882.91 900.785C884.945 900.211 887.278 900.535 888.907 898.907C892.028 895.828 889.763 889.693 889.912 884.766C890.031 880.837 891.854 877.239 892.222 873.311C892.846 867.025 889.588 860.622 890.867 854.456C891.341 852.177 892.397 850.174 893.127 848.005C895.348 841.366 894.375 833.792 893.189 826.738C892.453 822.306 891.735 817.31 893.694 813.531C895.511 810.003 900.667 822.566 903.967 821.984C914.871 820.06 924.739 809.885 933.545 818.214C938.033 822.456 938.619 826.855 940.411 832.912C942.152 838.679 946.664 841.633 949.579 846.41Z" fill="black"/>
<path d="M951.451 846.41C954.909 852.114 955.646 859.766 955.271 866.908C954.897 874.05 953.549 881.112 953.349 888.286C953.074 898.123 954.959 907.927 954.641 917.732C954.417 924.59 953.124 931.316 951.595 937.899C949.791 945.67 947.182 954.021 941.484 957.753C933.92 962.711 918.055 959.921 910.096 963.802C910.82 958.122 917.762 949.896 918.486 944.216C918.985 940.288 919.49 936.25 918.954 932.314C918.267 927.293 915.926 922.838 913.148 919.13C908.73 913.231 902.963 908.791 896.628 907.345C890.293 905.9 874.784 907.086 869.716 912.122C869.092 906.922 880.701 901.909 884.782 900.785C886.817 900.211 889.151 900.535 890.78 898.907C893.9 895.828 891.635 889.692 891.786 884.766C891.904 880.837 893.726 877.239 894.094 873.311C894.719 867.025 891.46 860.622 892.74 854.456C893.215 852.177 894.269 850.174 894.999 848.005C897.221 841.366 896.247 833.792 895.061 826.738C894.325 822.306 893.607 817.31 895.567 813.53C897.383 810.003 900.935 808.667 904.237 808.078C915.29 806.196 926.491 809.833 935.443 818.214C939.93 822.456 940.516 826.855 942.308 832.912C944.024 838.679 948.537 841.633 951.451 846.41Z" fill="#4C4981"/>
<path d="M538.486 809.186L572.42 967.055C572.836 968.99 573.711 970.719 574.927 972.011C576.144 973.304 577.644 974.099 579.229 974.291L731.965 992.761C733.209 992.913 734.465 992.686 735.626 992.101C736.787 991.516 737.82 990.589 738.637 989.398C739.455 988.207 740.034 986.786 740.327 985.256C740.619 983.725 740.615 982.128 740.316 980.6L703.156 790.174C702.714 787.91 701.648 785.917 700.148 784.549C698.649 783.182 696.814 782.526 694.968 782.702L545.432 796.781C544.285 796.893 543.17 797.322 542.169 798.039C541.168 798.756 540.305 799.742 539.642 800.927C538.978 802.112 538.531 803.467 538.331 804.894C538.131 806.322 538.184 807.787 538.486 809.186Z" fill="#9C9CA1"/>
<path opacity="0.1" d="M860.616 787.321L858.045 781.978V760.428C863.131 772.322 860.616 787.321 860.616 787.321Z" fill="black" stroke="#4C4981" stroke-miterlimit="10"/>
<path opacity="0.1" d="M847.884 737.095C847.884 768.701 830.702 799.16 805.593 799.16C793.534 799.16 781.969 793.131 773.443 782.398C764.916 771.664 760.125 757.106 760.125 741.927C760.125 726.747 764.916 712.189 773.443 701.455C781.969 690.721 793.534 684.691 805.593 684.691C830.702 684.723 847.884 705.48 847.884 737.095Z" fill="black"/>
<path d="M762.891 765.39C767.198 762.26 767.013 751.705 762.477 741.814C757.941 731.924 750.771 726.444 746.464 729.575C742.156 732.705 742.341 743.26 746.878 753.151C751.415 763.041 758.583 768.521 762.891 765.39Z" fill="white"/>
<path d="M763.682 742.569C768.219 752.461 773.787 759.068 769.479 762.21C765.173 765.353 752.629 763.782 748.092 753.882C743.554 743.984 747.673 730.313 751.98 727.171C756.286 724.027 759.138 732.654 763.682 742.569Z" fill="#09090A"/>
<path d="M805.593 797.621C830.704 797.621 851.06 771.997 851.06 740.387C851.06 708.776 830.704 683.152 805.593 683.152C780.482 683.152 760.125 708.776 760.125 740.387C760.125 771.997 780.482 797.621 805.593 797.621Z" fill="#AE6E79"/>
<path opacity="0.1" d="M850.661 755.14V758.377L846.991 757.93L840.088 748.911C840.088 748.911 850.767 751.92 850.661 755.14Z" fill="black" stroke="#4C4981" stroke-miterlimit="10"/>
<path d="M837.407 769.308C846.681 769.308 854.197 759.724 854.197 747.899C854.197 736.075 846.681 726.491 837.407 726.491C828.135 726.491 820.619 736.075 820.619 747.899C820.619 759.724 828.135 769.308 837.407 769.308Z" fill="white"/>
<path d="M839.337 769.308C848.278 769.308 855.527 760.184 855.527 748.929C855.527 737.674 848.278 728.549 839.337 728.549C830.395 728.549 823.147 737.674 823.147 748.929C823.147 760.184 830.395 769.308 839.337 769.308Z" fill="#09090A"/>
<path d="M851.194 708.845C851.194 708.845 854.733 722.091 844.292 727.661L842.957 730.599L849.497 738.723C849.497 738.723 857.561 720.206 856.687 713.63C856.687 713.63 855.439 706.952 851.194 708.845Z" fill="white"/>
<path d="M856.769 716.639L854.197 711.296L850.452 710.628C851.252 693.038 847.625 687.797 847.625 687.797L846.783 687.695L843.112 687.247L836.209 678.227V675.667C845.908 677.12 851.27 682.918 854.166 689.715C859.283 701.64 856.769 716.639 856.769 716.639Z" fill="#09090A"/>
<path d="M801.599 715.025C807.01 717.532 810.212 724.571 815.067 728.491C821.933 733.991 830.871 732.569 838.71 729.851C843.079 728.35 847.647 726.52 851.947 728.185C852.58 728.538 853.278 728.662 853.964 728.546C854.9 728.208 855.362 726.905 855.667 725.742C860.984 705.786 858.594 683.183 850.567 664.72C848.496 659.959 846.012 655.355 842.592 652.048C839.896 649.447 836.725 647.741 833.53 646.289C827.69 643.648 821.65 641.771 815.504 640.687C814.419 640.439 813.312 640.394 812.215 640.553C810.711 640.86 809.363 641.881 808.022 642.792C802.274 646.671 795.901 648.85 789.384 649.164C780.648 649.581 770.662 646.988 763.926 654.042C755.813 662.504 757.836 679.011 752.574 690.497C749.091 698.094 742.376 703.61 741.271 712.259C740.983 714.903 741.117 717.593 741.664 720.172C744.236 733.481 754.472 743.788 765.38 744.032C767.057 744.192 768.734 743.76 770.224 742.783C771.2 741.943 772.062 740.912 772.777 739.726C779.924 729.073 788.099 708.772 801.599 715.025Z" fill="#444053"/>
<path opacity="0.1" d="M855.666 719.952C855.361 721.115 854.899 722.418 853.962 722.756C853.277 722.872 852.579 722.747 851.947 722.395C847.647 720.729 843.052 722.559 838.715 724.06C830.87 726.778 821.914 728.232 815.074 722.701C810.211 718.773 807.016 711.701 801.598 709.235C788.099 702.949 779.922 723.283 772.758 733.936C772.044 735.121 771.182 736.153 770.205 736.992C768.714 737.97 767.037 738.402 765.362 738.241C754.489 737.998 744.247 727.689 741.645 714.381C741.502 713.596 741.376 712.81 741.283 712.025C741.283 712.095 741.283 712.158 741.252 712.228C740.964 714.872 741.098 717.562 741.645 720.139C744.216 733.449 754.458 743.757 765.362 744.001C767.037 744.161 768.714 743.728 770.205 742.75C771.182 741.912 772.044 740.881 772.758 739.694C779.922 729.041 788.099 708.741 801.598 714.993C807.016 717.501 810.211 724.54 815.074 728.46C821.939 733.959 830.87 732.538 838.715 729.82C843.085 728.319 847.647 726.489 851.947 728.154C852.579 728.506 853.277 728.631 853.962 728.515C854.899 728.177 855.361 726.873 855.666 725.71C857.812 717.545 858.759 708.957 858.462 700.365C858.279 707.029 857.337 713.624 855.666 719.952Z" fill="black"/>
</g>
<defs>
<linearGradient id="paint0_linear" x1="1461" y1="-0.000975068" x2="94.4068" y2="1052.99" gradientUnits="userSpaceOnUse">
<stop stop-color="#1F1D21"/>
<stop offset="0.291945" stop-color="#7B16E1"/>
<stop offset="0.512063" stop-color="#9440FF"/>
<stop offset="0.834039" stop-color="#7E02FA" stop-opacity="0"/>
</linearGradient>
<clipPath id="clip0">
<rect x="350" y="514" width="714" height="485" fill="white"/>
</clipPath>
</defs>
</svg>
