<svg width="374" height="546" viewBox="0 0 374 546" fill="none" xmlns="http://www.w3.org/2000/svg">
<g filter="url(#filter0_d)">
<rect x="127.793" y="338" width="221.849" height="184" rx="10" fill="white"/>
<g clip-path="url(#clip0)">
<path opacity="0.1" d="M166.67 387.416C165.563 387.846 164.427 388.399 163.819 389.367C163.174 390.39 163.251 391.66 163.371 392.843C164.417 403.106 167.171 414.021 162.415 423.318C160.107 427.828 156.245 431.442 153.174 435.538C150.103 439.634 147.785 444.748 149.21 449.566C150.952 455.454 157.45 458.718 161.831 463.249C164.698 466.212 166.708 469.811 169.383 472.928C172.058 476.044 175.724 478.79 179.995 478.973C186.137 479.238 191.134 474.269 197.156 473.117C203.326 471.939 209.538 474.938 214.541 478.528C219.543 482.118 224.093 486.468 229.922 488.709C236.359 491.187 243.615 490.808 250.391 492.296C256.561 493.653 262.24 496.538 268.365 498.077C274.49 499.615 281.669 499.522 286.415 495.593C292.6 490.455 292.113 481.303 296.063 474.506C299.732 468.191 306.915 464.421 311.749 458.839C320.448 448.791 320.164 433.433 312.777 422.505C305.391 411.577 292.012 404.961 278.331 403.238C272.161 402.462 265.808 402.568 259.877 400.804C244.001 396.083 234.553 379.17 218.344 375.65C208.041 373.417 198.02 377.285 189.244 382.045C181.626 386.178 174.598 384.335 166.67 387.416Z" fill="#4C4981"/>
<path d="M182.142 420.572C182.142 420.572 176.293 425.744 170.016 425.898C167.38 425.947 164.832 426.796 162.755 428.318C161.773 429.045 160.864 429.855 160.04 430.737" stroke="#535461" stroke-width="2" stroke-miterlimit="10"/>
<path d="M156.081 430.864C156.924 430.463 160.143 430.729 160.143 430.729C160.143 430.729 158.474 433.322 157.63 433.724C157.428 433.836 157.204 433.908 156.971 433.936C156.738 433.963 156.502 433.946 156.276 433.884C156.051 433.822 155.842 433.718 155.661 433.577C155.481 433.437 155.333 433.263 155.227 433.067C155.121 432.87 155.059 432.656 155.046 432.436C155.032 432.217 155.067 431.997 155.147 431.79C155.228 431.584 155.353 431.395 155.515 431.236C155.677 431.076 155.872 430.95 156.088 430.864H156.081Z" fill="#4C4981"/>
<path d="M159.469 426.28C160.41 426.373 162.957 428.236 162.957 428.236C162.957 428.236 160.043 429.562 159.111 429.471C158.675 429.409 158.281 429.192 158.011 428.865C157.741 428.538 157.617 428.126 157.663 427.715C157.709 427.304 157.922 426.925 158.259 426.658C158.595 426.391 159.029 426.256 159.469 426.28Z" fill="#4C4981"/>
<path d="M167.503 422.586C168.264 423.111 169.461 425.924 169.461 425.924C169.461 425.924 166.237 425.694 165.476 425.171C165.133 424.911 164.91 424.538 164.854 424.128C164.797 423.718 164.911 423.304 165.172 422.971C165.433 422.638 165.821 422.412 166.255 422.341C166.69 422.269 167.137 422.357 167.503 422.586Z" fill="#4C4981"/>
<path d="M174.254 421.075C175.099 421.471 176.785 424.055 176.785 424.055C176.785 424.055 173.567 424.339 172.722 423.942C172.509 423.855 172.317 423.728 172.158 423.569C171.998 423.41 171.875 423.223 171.796 423.018C171.717 422.813 171.683 422.595 171.697 422.377C171.71 422.16 171.771 421.947 171.875 421.752C171.979 421.557 172.125 421.384 172.302 421.244C172.48 421.103 172.687 420.998 172.909 420.935C173.132 420.871 173.366 420.851 173.597 420.875C173.828 420.899 174.052 420.967 174.254 421.075Z" fill="#4C4981"/>
<path d="M164.748 431.16C165.029 430.313 164.206 427.385 164.206 427.385C164.206 427.385 161.759 429.363 161.478 430.209C161.399 430.413 161.364 430.63 161.377 430.847C161.39 431.064 161.45 431.277 161.553 431.471C161.657 431.666 161.801 431.839 161.977 431.98C162.154 432.121 162.359 432.226 162.581 432.291C162.802 432.355 163.035 432.377 163.266 432.354C163.497 432.332 163.72 432.266 163.923 432.16C164.125 432.054 164.303 431.911 164.445 431.739C164.586 431.567 164.69 431.37 164.748 431.16Z" fill="#4C4981"/>
<path d="M172.619 429.292C172.619 428.406 170.897 425.843 170.897 425.843C170.897 425.843 169.193 428.412 169.195 429.302C169.196 429.728 169.378 430.136 169.7 430.436C170.023 430.736 170.459 430.904 170.914 430.903C171.368 430.901 171.804 430.731 172.124 430.429C172.444 430.127 172.624 429.718 172.622 429.292H172.619Z" fill="#4C4981"/>
<path d="M180.004 426.505C180.161 425.631 178.927 422.833 178.927 422.833C178.927 422.833 176.783 425.1 176.628 425.973C176.575 426.383 176.693 426.796 176.956 427.127C177.22 427.457 177.61 427.68 178.044 427.749C178.479 427.817 178.925 427.727 179.289 427.495C179.654 427.264 179.91 426.91 180.004 426.507V426.505Z" fill="#4C4981"/>
<path d="M189.743 406.876C189.743 406.876 182.698 403.251 180.604 397.697C179.743 395.362 178.097 393.351 175.913 391.967C174.871 391.317 173.767 390.758 172.616 390.297" stroke="#535461" stroke-width="2" stroke-miterlimit="10"/>
<path d="M171.279 386.804C171.945 387.432 172.664 390.385 172.664 390.385C172.664 390.385 169.517 389.695 168.85 389.065C168.556 388.759 168.399 388.358 168.411 387.946C168.423 387.534 168.604 387.142 168.916 386.852C169.228 386.561 169.647 386.394 170.087 386.385C170.527 386.377 170.954 386.527 171.279 386.804Z" fill="#4C4981"/>
<path d="M176.977 388.415C177.173 389.282 176.064 392.126 176.064 392.126C176.064 392.126 173.824 389.943 173.629 389.075C173.571 388.865 173.559 388.646 173.593 388.431C173.628 388.217 173.709 388.011 173.831 387.827C173.953 387.642 174.114 387.483 174.304 387.358C174.493 387.234 174.708 387.146 174.934 387.102C175.161 387.057 175.395 387.056 175.622 387.098C175.849 387.14 176.065 387.225 176.256 387.348C176.447 387.471 176.61 387.628 176.734 387.811C176.858 387.994 176.942 388.199 176.979 388.413L176.977 388.415Z" fill="#4C4981"/>
<path d="M183.198 394.45C182.9 395.29 180.41 397.222 180.41 397.222C180.41 397.222 179.652 394.279 179.951 393.437C180.094 393.033 180.403 392.698 180.81 392.507C181.217 392.316 181.688 392.284 182.119 392.419C182.551 392.553 182.908 392.842 183.112 393.223C183.316 393.605 183.35 394.046 183.207 394.45H183.198Z" fill="#4C4981"/>
<path d="M186.811 399.998C186.669 400.873 184.562 403.17 184.562 403.17C184.562 403.17 183.284 400.39 183.426 399.514C183.45 399.298 183.52 399.089 183.633 398.899C183.746 398.709 183.898 398.542 184.082 398.409C184.265 398.276 184.476 398.179 184.7 398.124C184.925 398.07 185.159 398.058 185.388 398.091C185.618 398.124 185.838 398.2 186.035 398.314C186.232 398.429 186.402 398.58 186.535 398.758C186.668 398.936 186.761 399.138 186.809 399.351C186.856 399.563 186.857 399.783 186.811 399.996V399.998Z" fill="#4C4981"/>
<path d="M173.642 394.622C174.588 394.613 177.31 392.978 177.31 392.978C177.31 392.978 174.549 391.405 173.603 391.414C173.148 391.419 172.714 391.593 172.397 391.897C172.079 392.202 171.903 392.612 171.909 393.038C171.914 393.464 172.099 393.871 172.424 394.168C172.75 394.466 173.188 394.63 173.642 394.625V394.622Z" fill="#4C4981"/>
<path d="M177.954 401.067C178.852 400.793 180.927 398.471 180.927 398.471C180.927 398.471 177.789 397.744 176.891 398.018C176.67 398.077 176.463 398.178 176.284 398.314C176.105 398.449 175.957 398.618 175.849 398.808C175.74 398.999 175.674 399.208 175.654 399.423C175.634 399.638 175.661 399.855 175.732 400.06C175.804 400.265 175.919 400.455 176.07 400.618C176.222 400.78 176.407 400.913 176.614 401.007C176.822 401.101 177.047 401.155 177.277 401.166C177.508 401.176 177.738 401.143 177.954 401.069V401.067Z" fill="#4C4981"/>
<path d="M183.061 406.793C183.997 406.664 186.461 404.705 186.461 404.705C186.461 404.705 183.5 403.492 182.566 403.62C182.336 403.642 182.113 403.708 181.911 403.813C181.708 403.918 181.531 404.06 181.389 404.231C181.247 404.402 181.143 404.598 181.084 404.808C181.025 405.017 181.012 405.236 181.046 405.45C181.079 405.665 181.159 405.87 181.28 406.055C181.4 406.24 181.56 406.4 181.748 406.526C181.936 406.651 182.15 406.74 182.376 406.786C182.602 406.832 182.835 406.835 183.063 406.794L183.061 406.793Z" fill="#4C4981"/>
<path d="M238.227 494.845C272.49 494.845 300.266 468.822 300.266 436.721C300.266 404.621 272.49 378.598 238.227 378.598C203.964 378.598 176.189 404.621 176.189 436.721C176.189 468.822 203.964 494.845 238.227 494.845Z" fill="url(#paint0_linear)"/>
<path d="M238.227 493.881C271.922 493.881 299.237 468.29 299.237 436.721C299.237 405.153 271.922 379.562 238.227 379.562C204.532 379.562 177.217 405.153 177.217 436.721C177.217 468.29 204.532 493.881 238.227 493.881Z" fill="#4C4981"/>
<path d="M238.227 482.16C265.013 482.16 286.727 461.817 286.727 436.721C286.727 411.626 265.013 391.283 238.227 391.283C211.442 391.283 189.728 411.626 189.728 436.721C189.728 461.817 211.442 482.16 238.227 482.16Z" fill="white"/>
<path opacity="0.3" d="M239.598 399.311H236.856V439.451H239.598V399.311Z" fill="#535461"/>
<g opacity="0.1">
<path opacity="0.1" d="M279.872 435.758H241.141V438.969H279.872V435.758Z" fill="black"/>
<path opacity="0.1" d="M213.792 423.742L212.206 426.589L236.562 438.572L238.149 435.725L213.792 423.742Z" fill="black"/>
<path opacity="0.1" d="M238.227 442.181C241.066 442.181 243.368 440.024 243.368 437.364C243.368 434.703 241.066 432.547 238.227 432.547C235.388 432.547 233.086 434.703 233.086 437.364C233.086 440.024 235.388 442.181 238.227 442.181Z" fill="black"/>
</g>
<path d="M279.872 435.116H241.141V438.327H279.872V435.116Z" fill="#535461"/>
<path d="M238.177 435.062L213.807 423.105L212.217 425.95L236.587 437.907L238.177 435.062Z" fill="#535461"/>
<path d="M238.227 441.538C241.067 441.538 243.369 439.382 243.369 436.721C243.369 434.061 241.067 431.905 238.227 431.905C235.388 431.905 233.086 434.061 233.086 436.721C233.086 439.382 235.388 441.538 238.227 441.538Z" fill="#535461"/>
<g opacity="0.1">
<path opacity="0.1" d="M193.494 442.18C193.494 417.085 215.208 396.742 241.994 396.742C249.512 396.735 256.929 398.369 263.656 401.514C270.383 404.659 276.237 409.228 280.753 414.859C272.499 400.807 256.561 391.283 238.224 391.283C211.438 391.283 189.724 411.626 189.724 436.721C189.708 446.58 193.131 456.174 199.47 464.043C195.539 457.345 193.483 449.824 193.494 442.18Z" fill="black"/>
</g>
<path d="M283.039 403.296C282.463 402.777 277.616 406.186 277.616 406.186C277.616 406.186 275.891 406.481 276.302 407.591C276.713 408.7 274.494 414.914 274.494 414.914L273.591 413.731C273.678 412.342 273.27 411.358 272.873 410.744C272.84 410.694 272.808 410.646 272.775 410.601L272.933 410.55C272.873 409.792 271.579 408.638 270.892 408.072C270.892 407.991 270.892 407.912 270.892 407.828C270.934 406.923 271.322 405.968 270.892 405.147C270.405 404.211 268.981 403.741 268.861 402.713C268.789 402.1 269.231 401.546 269.426 400.955C269.892 399.542 268.924 398.1 267.999 396.883C267.685 396.427 267.304 396.015 266.866 395.659C266.449 395.374 265.991 395.145 265.505 394.979C264.15 394.465 262.763 394.206 261.365 393.855C260.023 393.521 258.785 393.362 257.423 393.781C257.1 393.863 256.804 394.021 256.566 394.242C256.242 394.582 256.199 395.067 255.987 395.473C255.644 396.127 254.906 396.517 254.253 396.936C253.6 397.355 252.945 397.93 252.942 398.652C252.942 399.678 254.193 400.324 254.611 401.279C255.001 402.169 254.611 403.159 254.393 404.097C254.302 404.4 254.293 404.72 254.367 405.027C254.454 405.255 254.584 405.468 254.751 405.653C255.01 405.974 255.288 406.273 255.564 406.578L255.437 406.624C253.137 406.403 251.658 409.139 251.658 409.139C251.764 409.159 251.865 409.184 251.965 409.211L251.867 409.33C251.172 410.175 250.604 411.106 250.179 412.096L248.294 414.463C248.294 414.463 247.882 408.545 248.87 407.213C249.857 405.882 247.966 405.068 247.966 405.068C247.966 405.068 243.853 400.778 243.283 401.147C242.712 401.517 244.679 406.178 246.405 406.918C246.405 406.918 246.577 408.397 246.234 409.359C246.026 409.967 244.919 416.386 244.919 416.386C244.919 416.386 243.934 421.786 248.453 419.116C251.389 417.385 253.286 414.405 254.253 412.533C254.32 412.401 254.383 412.275 254.443 412.156C254.487 412.354 254.518 412.555 254.534 412.758L254.705 418.944C254.748 420.474 254.392 421.991 253.666 423.363L251.653 427.189L251.877 427.253L251.742 427.436C250.415 429.265 248.16 433.377 252.803 435.472L258.972 436.212L258.643 437.691C258.643 437.691 256.097 442.203 255.356 445.31C254.896 447.212 254.178 449.052 253.219 450.783L253.409 450.878C253.37 450.92 253.329 450.963 253.289 451.008C252.915 451.402 252.668 451.888 252.576 452.408L251.74 453.519C251.74 453.519 251.411 458.105 252.069 459.216C252.429 459.823 253.624 460.208 254.64 460.433C256.148 460.769 257.365 459.309 256.564 458.107L256.554 458.091H256.539C256.367 457.344 255.843 455.027 256.014 454.147C256.062 453.897 256.107 453.648 256.129 453.394C256.17 453.061 256.279 452.738 256.448 452.442C256.475 452.392 256.504 452.344 256.534 452.296L256.623 452.331C256.899 452.442 257.171 452.546 257.43 452.638C257.029 452.98 256.744 453.688 257.087 455.144C257.087 455.144 257.12 458.787 257.416 459.361C257.713 459.934 261.031 460.692 261.606 460.101C262.182 459.51 261.236 457.474 261.236 457.474L261.207 457.493C261.017 456.313 260.782 454.2 261.36 453.368C261.593 453.033 261.819 452.686 262.021 452.362L262.146 452.161C263.219 452.662 264.354 453.039 264.974 452.778C264.974 452.778 267.685 446.859 267.521 446.121C267.356 445.382 271.711 437.022 271.711 437.022C271.711 437.022 275.407 433.168 270.89 430.513C269.455 429.666 268.41 429.098 267.651 428.714L267.015 425.599C266.688 423.966 266.747 422.286 267.186 420.677L267.872 418.226L267.928 418.018C267.928 418.018 269.654 414.689 269.572 413.135C269.566 413.014 269.58 412.893 269.615 412.777C269.634 412.851 269.654 412.928 269.676 413.008C270.13 414.624 270.727 416.2 271.462 417.722C272.773 420.493 274.718 420.274 275.784 419.88C276.013 419.797 276.215 419.663 276.374 419.488C276.533 419.314 276.643 419.106 276.694 418.881C277.078 417.157 278.132 412.326 278.199 410.991C278.259 409.948 278.396 408.91 278.61 407.885C281.315 406.403 283.615 403.814 283.039 403.296Z" fill="url(#paint1_linear)"/>
<path d="M262.921 450.697C262.921 450.697 262.559 451.376 262.064 452.192C261.87 452.513 261.654 452.858 261.433 453.19C260.65 454.364 261.433 458.103 261.433 458.103L259.72 458.323L258.006 457.521L257.692 454.807V452.823L259.646 450.775L260.503 449.889L262.921 450.697Z" fill="#F8BDC5"/>
<g opacity="0.1">
<path opacity="0.1" d="M262.921 450.697C262.921 450.697 262.559 451.376 262.064 452.192C261.308 451.813 260.576 451.391 259.874 450.93L259.723 450.83L259.643 450.775L260.499 449.889L262.921 450.697Z" fill="black"/>
</g>
<path d="M271.299 436.982C271.299 436.982 267.15 445.268 267.308 446.002C267.466 446.736 264.881 452.603 264.881 452.603C264.292 452.863 263.209 452.489 262.187 451.992C261.417 451.608 260.673 451.179 259.959 450.708L259.809 450.608L259.718 450.547L266.528 432.873L260.503 428.732L260.057 428.425L257.363 426.563L265.589 427.956C265.589 427.956 265.875 427.923 267.389 428.716C268.115 429.096 269.125 429.666 270.52 430.524C274.819 433.168 271.299 436.982 271.299 436.982Z" fill="#5E52AD"/>
<g opacity="0.03">
<path opacity="0.03" d="M271.299 436.982C271.299 436.982 267.15 445.268 267.308 446.002C267.466 446.736 264.881 452.603 264.881 452.603C264.292 452.863 263.209 452.489 262.187 451.992C261.417 451.608 260.673 451.179 259.959 450.708L259.809 450.608L259.718 450.547L266.528 432.873L260.503 428.732L260.057 428.425L257.363 426.563L265.589 427.956C265.589 427.956 265.875 427.923 267.389 428.716C268.115 429.096 269.125 429.666 270.52 430.524C274.819 433.168 271.299 436.982 271.299 436.982Z" fill="black"/>
</g>
<path d="M258.695 452.163C258.695 452.163 256.659 451.869 257.365 454.95C257.365 454.95 257.396 458.563 257.678 459.125C257.961 459.686 261.123 460.444 261.67 459.858C262.217 459.272 261.317 457.256 261.317 457.256C261.317 457.256 259.008 458.832 258.381 457.145C257.754 455.457 258.695 452.163 258.695 452.163Z" fill="#5D3E53"/>
<path d="M257.284 451.577C257.062 451.775 256.881 452.01 256.751 452.27C256.59 452.565 256.487 452.885 256.448 453.214C256.427 453.465 256.385 453.714 256.34 453.961C256.145 455.006 256.894 458.103 256.894 458.103L253.919 458.543L252.823 457.444L252.589 455.024C252.881 454.194 253.039 453.328 253.058 452.455C253.058 451.824 253.401 451.26 253.744 450.849C253.976 450.575 254.242 450.328 254.537 450.112C254.537 450.112 257.912 451.063 257.284 451.577Z" fill="#F8BDC5"/>
<g opacity="0.1">
<path opacity="0.1" d="M257.284 451.577C257.062 451.775 256.881 452.01 256.751 452.27C255.533 451.755 254.253 451.105 253.786 450.864L253.75 450.846C253.983 450.572 254.249 450.324 254.544 450.109C254.544 450.109 257.912 451.063 257.284 451.577Z" fill="black"/>
</g>
<path d="M266.914 434.782C266.914 434.782 264.959 438.229 263.704 441.089C262.881 442.967 261.181 447.441 260.105 450.289L259.947 450.71C259.474 451.97 259.159 452.823 259.159 452.823C258.951 452.824 258.743 452.795 258.544 452.737C258.359 452.691 258.151 452.628 257.93 452.551L257.682 452.463C257.435 452.373 257.168 452.269 256.912 452.159C255.668 451.639 254.342 450.962 253.86 450.714L253.679 450.62C254.597 448.895 255.283 447.071 255.72 445.188C256.424 442.108 258.851 437.641 258.851 437.641L259.164 436.174L253.293 435.44C248.87 433.369 251.019 429.286 252.282 427.473C252.497 427.158 252.73 426.855 252.979 426.563L257.677 427.526C257.677 427.526 258.417 427.748 260.062 428.43L260.818 428.751C261.74 429.148 262.875 429.658 264.246 430.313C268.869 432.503 266.914 434.782 266.914 434.782Z" fill="#5E52AD"/>
<path d="M256.864 457.883C257.032 458.148 257.112 458.453 257.095 458.76C257.078 459.067 256.964 459.362 256.768 459.609C256.572 459.856 256.302 460.042 255.993 460.145C255.684 460.249 255.349 460.264 255.031 460.189C254.069 459.966 252.929 459.584 252.587 458.982C251.961 457.882 252.273 453.335 252.273 453.335L253.096 452.198C253.096 452.198 252.666 457.222 253.684 457.657C254.701 458.092 256.854 457.861 256.854 457.861L256.864 457.883Z" fill="#5D3E53"/>
<path d="M257.697 394.107C257.385 394.188 257.101 394.346 256.875 394.564C256.566 394.902 256.532 395.383 256.323 395.786C255.997 396.429 255.295 396.822 254.671 397.231C254.047 397.641 253.425 398.217 253.421 398.933C253.421 399.951 254.621 400.59 255.012 401.536C255.384 402.419 255.012 403.4 254.804 404.33C254.718 404.631 254.71 404.947 254.78 405.251C254.862 405.477 254.986 405.688 255.147 405.873C255.903 406.836 256.842 407.69 257.348 408.787C257.732 409.62 257.838 410.54 257.939 411.444C258.085 412.745 258.23 414.069 257.966 415.354C257.941 415.431 257.941 415.513 257.966 415.59C258.011 415.664 258.082 415.72 258.167 415.75C258.666 415.977 259.208 416.108 259.762 416.133C260.316 416.159 260.869 416.079 261.389 415.899C261.909 415.719 262.385 415.443 262.788 415.086C263.191 414.729 263.513 414.3 263.735 413.824C264.078 413.096 264.21 412.218 264.888 411.746C264.967 411.685 265.063 411.644 265.164 411.629C265.324 411.633 265.479 411.682 265.61 411.769C266.491 412.215 267.558 412.228 268.54 412.045C269.133 411.934 269.74 411.736 270.132 411.303C270.905 410.442 270.475 409.156 270.526 408.034C270.568 407.136 270.936 406.189 270.526 405.377C270.064 404.449 268.705 403.983 268.592 402.968C268.523 402.361 268.945 401.811 269.131 401.226C269.575 399.824 268.653 398.395 267.772 397.19C267.476 396.74 267.113 396.332 266.695 395.977C266.299 395.695 265.863 395.468 265.399 395.303C264.108 394.794 262.792 394.537 261.457 394.19C260.179 393.848 259.001 393.689 257.697 394.107Z" fill="#85555C"/>
<path d="M264.252 415.054H259.711V408.159C259.846 407.497 259.925 406.826 259.947 406.152C259.947 405.926 259.947 405.694 259.947 405.462C259.904 404.64 259.723 403.819 259.246 403.318C257.994 401.998 263.317 402.218 263.317 402.218C263.48 402.824 263.692 403.418 263.951 403.994C264.336 404.893 264.849 405.739 265.476 406.51C266.027 407.196 266.734 407.759 267.544 408.159C270.67 409.627 264.252 415.054 264.252 415.054Z" fill="#F8BDC5"/>
<g opacity="0.1">
<path opacity="0.1" d="M263.946 403.994C263.485 404.557 262.868 404.992 262.162 405.251C261.457 405.509 260.689 405.582 259.942 405.462C259.9 404.64 259.718 403.819 259.241 403.318C257.989 401.998 263.312 402.218 263.312 402.218C263.475 402.824 263.687 403.418 263.946 403.994Z" fill="black"/>
</g>
<path d="M260.65 405.301C262.941 405.301 264.799 403.561 264.799 401.414C264.799 399.267 262.941 397.527 260.65 397.527C258.359 397.527 256.501 399.267 256.501 401.414C256.501 403.561 258.359 405.301 260.65 405.301Z" fill="#F8BDC5"/>
<path d="M277.872 408.087C277.668 409.104 277.537 410.133 277.481 411.166C277.417 412.488 276.413 417.279 276.046 418.989C276 419.208 275.897 419.413 275.746 419.586C275.594 419.759 275.4 419.894 275.179 419.98C274.161 420.37 272.31 420.588 271.066 417.841C270.365 416.329 269.796 414.767 269.364 413.169C269.212 412.631 269.097 412.085 269.022 411.534L271.764 410.14C272.022 410.367 272.24 410.629 272.412 410.919C272.79 411.528 273.179 412.504 273.097 413.88L273.954 415.054C273.954 415.054 276.067 408.893 275.668 407.793C275.268 406.693 276.92 406.399 276.92 406.399C276.92 406.399 281.539 403.028 282.087 403.54C282.636 404.052 280.454 406.619 277.872 408.087Z" fill="#F8BDC5"/>
<path d="M255.406 411.02C255.192 411.594 254.946 412.157 254.669 412.706C253.747 414.564 251.941 417.523 249.144 419.235C244.839 421.874 245.778 416.521 245.778 416.521C245.778 416.521 246.832 410.157 247.031 409.554C247.344 408.601 247.187 407.135 247.187 407.135C245.543 406.401 243.665 401.782 244.212 401.414C244.758 401.046 248.667 405.301 248.667 405.301C248.667 405.301 250.469 406.104 249.524 407.429C248.58 408.753 248.976 414.615 248.976 414.615L250.787 412.273C251.19 411.295 251.732 410.373 252.397 409.53C252.739 409.092 252.979 408.827 252.979 408.827L255.406 411.02Z" fill="#F8BDC5"/>
<g opacity="0.1">
<path opacity="0.1" d="M272.413 410.919C271.837 411.118 269.608 411.961 269.361 413.167C269.209 412.63 269.094 412.084 269.018 411.533L271.76 410.139C272.02 410.365 272.241 410.629 272.413 410.919Z" fill="black"/>
</g>
<g opacity="0.1">
<path opacity="0.1" d="M255.406 411.02C255.192 411.594 254.946 412.157 254.669 412.706C254.563 411.98 254.126 410.124 252.396 409.526C252.739 409.087 252.979 408.822 252.979 408.822L255.406 411.02Z" fill="black"/>
</g>
<g opacity="0.1">
<path opacity="0.1" d="M264.252 415.054H259.711V408.159C259.846 407.497 259.925 406.826 259.947 406.152C260.881 406.997 260.65 408.305 260.65 408.305L263.077 413.443L264.252 408.901L263.862 408.315L265.473 406.52C266.024 407.206 266.73 407.769 267.541 408.169C270.67 409.627 264.252 415.054 264.252 415.054Z" fill="black"/>
</g>
<g opacity="0.1">
<path opacity="0.1" d="M267.461 429.132C267.461 429.132 263.903 428.867 260.816 428.742L260.506 428.729C260.067 428.713 259.649 428.7 259.24 428.69C256.244 428.623 252.856 427.642 252.28 427.47C252.496 427.156 252.729 426.853 252.979 426.563L257.677 427.526C257.677 427.526 258.417 427.748 260.062 428.43L257.363 426.563L265.589 427.956C265.589 427.956 265.875 427.923 267.389 428.716L267.461 429.132Z" fill="black"/>
</g>
<path d="M264.252 409.187L263.862 408.601L265.599 406.653C265.599 406.653 269.183 408.299 270.122 407.938C270.122 407.938 272.393 409.704 272.47 410.725C272.47 410.725 269.183 411.751 269.26 413.294C269.337 414.837 267.7 418.133 267.7 418.133L267.015 420.77C266.593 422.367 266.535 424.03 266.844 425.651L267.469 428.915C267.469 428.915 262.537 428.549 259.243 428.475C255.949 428.401 252.198 427.229 252.198 427.229L254.119 423.441C254.812 422.074 255.151 420.574 255.109 419.061L254.938 412.929C254.938 412.929 254.782 409.85 252.196 409.336C252.196 409.336 253.605 406.623 255.795 406.843C255.795 406.843 258.986 405.595 259.934 406.438C260.881 407.281 260.648 408.602 260.648 408.602L263.075 413.74L264.252 409.187Z" fill="#D9C6F4"/>
<g opacity="0.1">
<path opacity="0.1" d="M257.656 400.613C258.285 400.613 258.779 399.988 259.408 400.02C259.733 400.036 260.012 400.231 260.282 400.406C261.298 401.065 262.43 401.554 263.625 401.851C264.09 401.966 264.581 402.053 265.048 401.947C265.514 401.841 265.951 401.497 266.004 401.049C266.017 400.852 265.989 400.654 265.922 400.467C265.394 398.744 264.2 397.268 262.573 396.326C261.922 395.952 261.126 395.666 260.405 395.9C259.754 396.111 259.334 396.682 258.863 397.153C258.507 397.505 258.104 397.812 257.663 398.065C257.32 398.259 256.806 398.386 256.609 398.742C256.237 399.407 256.821 400.606 257.656 400.613Z" fill="black"/>
</g>
<path d="M257.656 400.467C258.285 400.467 258.779 399.842 259.408 399.874C259.733 399.89 260.012 400.084 260.282 400.26C261.298 400.919 262.43 401.408 263.625 401.705C264.09 401.82 264.581 401.907 265.048 401.801C265.514 401.695 265.951 401.351 266.004 400.903C266.017 400.706 265.989 400.508 265.922 400.321C265.394 398.598 264.2 397.122 262.573 396.18C261.922 395.806 261.126 395.52 260.405 395.754C259.754 395.964 259.334 396.536 258.863 397.007C258.507 397.359 258.104 397.665 257.663 397.919C257.32 398.113 256.806 398.24 256.609 398.596C256.237 399.267 256.821 400.459 257.656 400.467Z" fill="#85555C"/>
<path opacity="0.05" d="M255.759 417.216C255.759 417.216 259.594 418.536 262.1 417.51L263.353 417.584C263.353 417.584 265.435 418.952 267.637 418.34" fill="black"/>
<path opacity="0.05" d="M273.919 415.017C273.919 415.017 273.295 416.41 273.606 416.85L273.919 415.017Z" fill="black"/>
<path opacity="0.05" d="M248.948 414.577C248.948 414.577 249.26 415.97 248.948 416.41V414.577Z" fill="black"/>
<path d="M313.869 446.334C313.869 446.334 306.699 453.052 310.747 463.02C314.795 472.987 303.81 489.564 303.81 489.564C303.81 489.564 303.928 489.548 304.152 489.512C318.879 487.077 326.195 471.298 318.006 459.576C314.954 455.216 312.456 450.104 313.869 446.334Z" fill="#4C4981"/>
<path opacity="0.1" d="M313.869 446.447C313.869 446.447 306.699 453.165 310.747 463.132C314.795 473.1 303.81 489.675 303.81 489.675C303.81 489.675 303.928 489.659 304.152 489.623C318.879 487.188 326.195 471.409 318.006 459.687C314.954 455.329 312.456 450.217 313.869 446.447Z" fill="black"/>
<path d="M313.869 446.334C313.869 446.334 309.821 454.568 313.869 461.286C317.917 468.004 314.555 486.855 303.808 489.564" stroke="#535461" stroke-miterlimit="10"/>
<path d="M326.64 473.504C326.64 473.504 318.459 472.284 317.713 479.153C316.968 486.022 301.976 486.974 301.976 486.974L302.257 487.149C314.63 494.76 326.46 491.996 324.676 481.891C324.018 478.135 324.073 474.362 326.64 473.504Z" fill="#4C4981"/>
<path d="M326.64 473.504C326.64 473.504 320.289 474.81 320.813 480.221C321.338 485.632 311.388 492.117 301.983 486.976" stroke="#535461" stroke-miterlimit="10"/>
<path d="M319.443 487.224C319.443 487.224 312.999 486.017 311.28 484.407C309.561 482.796 301.828 479.98 300.97 481.998C300.111 484.016 289.371 490.853 296.673 492.061C303.976 493.268 313.857 493.666 316.005 492.863C318.152 492.061 319.443 487.224 319.443 487.224Z" fill="#A8A8A8"/>
<path opacity="0.2" d="M296.674 491.308C303.978 492.515 313.857 492.913 316.005 492.11C317.641 491.497 318.778 488.552 319.227 487.181L319.441 487.223C319.441 487.223 318.152 492.053 316.005 492.857C313.857 493.661 303.976 493.26 296.674 492.054C294.566 491.706 293.962 490.887 294.19 489.851C294.369 490.527 295.104 491.047 296.674 491.308Z" fill="black"/>
</g>
</g>
<g filter="url(#filter1_d)">
<rect x="16.8687" y="180" width="221.849" height="184" rx="10" fill="white"/>
<g clip-path="url(#clip1)">
<path opacity="0.1" d="M220.683 320.584C219.934 322.555 219.012 324.446 217.93 326.232C217.422 327.084 216.865 327.901 216.263 328.679L216.244 328.703H29.7998L29.8334 328.678C30.0011 328.538 30.9859 327.687 32.5176 326.23C33.6164 325.183 34.9955 323.825 36.5439 322.191C49.2084 308.887 73.5358 277.395 53.275 248.547C34.4402 221.728 54.7194 216.86 68.0969 216.294C73.2371 216.081 78.3648 216.976 83.1739 218.926C89.3526 221.435 100.648 225.282 115.364 227.043C115.848 227.102 116.335 227.158 116.827 227.211C124.619 228.058 132.462 228.21 140.277 227.665C140.507 227.652 140.739 227.634 140.972 227.616C148.703 227.035 156.375 225.767 163.909 223.825C164.397 223.698 164.878 223.578 165.358 223.466C190.461 217.263 213.602 238.405 207.817 262.299C205.677 271.135 206.22 280.556 213.354 288.175C225.022 300.617 223.601 312.866 220.683 320.584Z" fill="#4C4981"/>
<path d="M181.027 253.638C181.662 252.424 181.474 251.021 180.606 250.502C179.738 249.984 178.52 250.548 177.885 251.761C177.249 252.975 177.438 254.379 178.306 254.897C179.173 255.415 180.392 254.852 181.027 253.638Z" fill="#3F3D56"/>
<path d="M182.432 250.952C183.067 249.739 182.879 248.335 182.011 247.816C181.143 247.298 179.925 247.862 179.29 249.076C178.654 250.289 178.843 251.693 179.711 252.211C180.578 252.729 181.797 252.166 182.432 250.952Z" fill="#3F3D56"/>
<path d="M183.839 248.267C184.474 247.054 184.286 245.65 183.418 245.131C182.55 244.613 181.332 245.177 180.696 246.391C180.061 247.604 180.25 249.008 181.117 249.526C181.985 250.044 183.204 249.481 183.839 248.267Z" fill="#3F3D56"/>
<path d="M185.244 245.579C185.879 244.366 185.691 242.962 184.823 242.444C183.955 241.926 182.737 242.489 182.101 243.703C181.466 244.916 181.655 246.32 182.522 246.839C183.39 247.357 184.609 246.793 185.244 245.579Z" fill="#3F3D56"/>
<path d="M186.648 242.895C187.283 241.682 187.095 240.278 186.227 239.759C185.359 239.241 184.141 239.805 183.506 241.019C182.87 242.232 183.059 243.636 183.927 244.154C184.794 244.672 186.013 244.109 186.648 242.895Z" fill="#3F3D56"/>
<path d="M188.055 240.209C188.69 238.996 188.502 237.592 187.634 237.074C186.766 236.555 185.548 237.119 184.913 238.333C184.277 239.546 184.466 240.95 185.334 241.468C186.201 241.987 187.42 241.423 188.055 240.209Z" fill="#3F3D56"/>
<path d="M189.462 237.524C190.097 236.311 189.908 234.907 189.041 234.389C188.173 233.87 186.955 234.434 186.319 235.648C185.684 236.861 185.872 238.265 186.74 238.783C187.608 239.301 188.826 238.738 189.462 237.524Z" fill="#3F3D56"/>
<path d="M203.385 221.716C203.752 221.552 204.109 221.362 204.452 221.146L200.703 217.955L205.147 220.657C206.096 219.917 206.894 218.978 207.492 217.898C208.09 216.817 208.475 215.618 208.624 214.373L200.895 214.115L208.691 213.077C208.682 211.807 208.427 210.553 207.942 209.393C207.458 208.233 206.753 207.193 205.874 206.337C204.995 205.482 203.959 204.83 202.833 204.423C201.706 204.015 200.513 203.861 199.328 203.97C198.143 204.079 196.992 204.448 195.947 205.055C194.902 205.662 193.986 206.493 193.257 207.496C192.527 208.499 191.999 209.652 191.707 210.884C191.415 212.115 191.364 213.397 191.558 214.651C190.986 214.905 190.441 215.225 189.932 215.604L193.739 221.779L189.097 216.317C188.032 217.344 187.223 218.639 186.745 220.084C186.267 221.528 186.133 223.078 186.357 224.592C184.863 225.256 183.575 226.357 182.639 227.766C181.703 229.176 181.158 230.839 181.065 232.564C180.972 234.29 181.335 236.008 182.114 237.523C182.892 239.039 184.054 240.289 185.466 241.133C186.879 241.976 188.485 242.378 190.101 242.292C191.717 242.206 193.278 241.637 194.605 240.648C195.933 239.66 196.973 238.293 197.607 236.703C198.241 235.113 198.443 233.364 198.191 231.657C199.976 230.863 201.46 229.451 202.403 227.648C203.346 225.845 203.694 223.756 203.392 221.716H203.385Z" fill="#4C4981"/>
<path opacity="0.1" d="M187.34 218.659C186.397 220.462 186.051 222.552 186.357 224.592C184.863 225.256 183.575 226.357 182.639 227.766C181.703 229.176 181.158 230.839 181.065 232.564C180.972 234.29 181.335 236.008 182.114 237.524C182.892 239.039 184.054 240.289 185.466 241.133C186.879 241.976 188.485 242.378 190.101 242.292C191.717 242.206 193.278 241.637 194.605 240.648C195.933 239.66 196.973 238.293 197.607 236.703C198.241 235.113 198.443 233.364 198.191 231.657C199.907 230.892 187.813 217.763 187.34 218.659Z" fill="black"/>
<path d="M198.535 317.203H200.567C201.679 317.203 202.746 317.675 203.532 318.515C204.319 319.355 204.761 320.494 204.761 321.682V328.332H194.341V321.682C194.341 320.494 194.783 319.355 195.569 318.515C196.356 317.675 197.423 317.203 198.535 317.203Z" fill="#3F3D56"/>
<path opacity="0.1" d="M198.535 317.203H200.567C201.679 317.203 202.746 317.675 203.532 318.515C204.319 319.355 204.761 320.494 204.761 321.682V328.332H194.341V321.682C194.341 320.494 194.783 319.355 195.569 318.515C196.356 317.675 197.423 317.203 198.535 317.203Z" fill="black"/>
<path d="M199.136 319.652C199.596 319.652 199.969 319.253 199.969 318.761C199.969 318.27 199.596 317.871 199.136 317.871C198.675 317.871 198.302 318.27 198.302 318.761C198.302 319.253 198.675 319.652 199.136 319.652Z" fill="#3F3D56"/>
<path d="M199.136 318.539C199.596 318.539 199.969 318.141 199.969 317.649C199.969 317.157 199.596 316.758 199.136 316.758C198.675 316.758 198.302 317.157 198.302 317.649C198.302 318.141 198.675 318.539 199.136 318.539Z" fill="#3F3D56"/>
<path d="M199.136 317.425C199.596 317.425 199.969 317.026 199.969 316.534C199.969 316.042 199.596 315.644 199.136 315.644C198.675 315.644 198.302 316.042 198.302 316.534C198.302 317.026 198.675 317.425 199.136 317.425Z" fill="#3F3D56"/>
<path d="M199.136 316.312C199.596 316.312 199.969 315.913 199.969 315.421C199.969 314.93 199.596 314.531 199.136 314.531C198.675 314.531 198.302 314.93 198.302 315.421C198.302 315.913 198.675 316.312 199.136 316.312Z" fill="#3F3D56"/>
<path d="M199.136 315.199C199.596 315.199 199.969 314.801 199.969 314.309C199.969 313.817 199.596 313.418 199.136 313.418C198.675 313.418 198.302 313.817 198.302 314.309C198.302 314.801 198.675 315.199 199.136 315.199Z" fill="#3F3D56"/>
<path d="M199.136 314.087C199.596 314.087 199.969 313.688 199.969 313.196C199.969 312.704 199.596 312.305 199.136 312.305C198.675 312.305 198.302 312.704 198.302 313.196C198.302 313.688 198.675 314.087 199.136 314.087Z" fill="#3F3D56"/>
<path d="M199.136 312.974C199.596 312.974 199.969 312.575 199.969 312.083C199.969 311.591 199.596 311.193 199.136 311.193C198.675 311.193 198.302 311.591 198.302 312.083C198.302 312.575 198.675 312.974 199.136 312.974Z" fill="#3F3D56"/>
<path d="M200.386 313.418C200.846 313.418 201.219 313.02 201.219 312.528C201.219 312.036 200.846 311.637 200.386 311.637C199.925 311.637 199.552 312.036 199.552 312.528C199.552 313.02 199.925 313.418 200.386 313.418Z" fill="#3F3D56"/>
<path d="M201.219 312.974C201.68 312.974 202.053 312.575 202.053 312.083C202.053 311.591 201.68 311.193 201.219 311.193C200.759 311.193 200.385 311.591 200.385 312.083C200.385 312.575 200.759 312.974 201.219 312.974Z" fill="#3F3D56"/>
<path d="M202.053 312.528C202.514 312.528 202.887 312.129 202.887 311.637C202.887 311.145 202.514 310.747 202.053 310.747C201.593 310.747 201.219 311.145 201.219 311.637C201.219 312.129 201.593 312.528 202.053 312.528Z" fill="#3F3D56"/>
<path d="M199.136 311.861C199.596 311.861 199.969 311.462 199.969 310.971C199.969 310.479 199.596 310.08 199.136 310.08C198.675 310.08 198.302 310.479 198.302 310.971C198.302 311.462 198.675 311.861 199.136 311.861Z" fill="#3F3D56"/>
<path d="M199.136 310.748C199.596 310.748 199.969 310.35 199.969 309.858C199.969 309.366 199.596 308.967 199.136 308.967C198.675 308.967 198.302 309.366 198.302 309.858C198.302 310.35 198.675 310.748 199.136 310.748Z" fill="#3F3D56"/>
<path d="M199.136 309.634C199.596 309.634 199.969 309.235 199.969 308.743C199.969 308.251 199.596 307.853 199.136 307.853C198.675 307.853 198.302 308.251 198.302 308.743C198.302 309.235 198.675 309.634 199.136 309.634Z" fill="#3F3D56"/>
<path d="M199.136 308.521C199.596 308.521 199.969 308.122 199.969 307.631C199.969 307.139 199.596 306.74 199.136 306.74C198.675 306.74 198.302 307.139 198.302 307.631C198.302 308.122 198.675 308.521 199.136 308.521Z" fill="#3F3D56"/>
<path d="M202.592 304.76C202.385 304.792 202.177 304.816 201.968 304.83C202.161 304.65 202.34 304.453 202.504 304.242C202.389 303.868 202.219 303.516 202.001 303.198C201.794 303.322 201.566 303.399 201.33 303.425C201.124 303.457 200.916 303.481 200.708 303.495C200.988 303.211 201.254 302.912 201.504 302.599C200.903 302.017 200.133 301.673 199.322 301.625C198.512 301.578 197.711 301.829 197.053 302.337C196.395 302.845 195.921 303.579 195.71 304.416C195.498 305.253 195.563 306.142 195.892 306.935C196.221 307.727 196.796 308.374 197.519 308.768C198.242 309.162 199.069 309.279 199.863 309.099C200.657 308.918 201.369 308.452 201.88 307.778C202.39 307.104 202.668 306.263 202.667 305.396C202.667 305.178 202.649 304.96 202.613 304.746L202.592 304.76Z" fill="#4C4981"/>
<path d="M205.377 309.184C205.164 309.324 204.924 309.409 204.675 309.435C204.469 309.467 204.261 309.491 204.053 309.505C204.274 309.293 204.48 309.064 204.67 308.82C204.496 308.772 204.317 308.746 204.137 308.745C203.641 308.744 203.16 308.932 202.782 309.275C202.404 309.618 202.152 310.094 202.073 310.617C201.993 311.14 202.091 311.676 202.348 312.129C202.605 312.583 203.005 312.923 203.476 313.09C203.947 313.257 204.458 313.239 204.918 313.039C205.378 312.84 205.756 312.472 205.985 312.002C206.214 311.532 206.278 310.99 206.166 310.473C206.055 309.957 205.775 309.5 205.377 309.184Z" fill="#4C4981"/>
<path d="M197.884 313.418C198.345 313.418 198.718 313.02 198.718 312.528C198.718 312.036 198.345 311.637 197.884 311.637C197.424 311.637 197.05 312.036 197.05 312.528C197.05 313.02 197.424 313.418 197.884 313.418Z" fill="#3F3D56"/>
<path d="M197.05 312.974C197.511 312.974 197.884 312.575 197.884 312.083C197.884 311.591 197.511 311.193 197.05 311.193C196.59 311.193 196.216 311.591 196.216 312.083C196.216 312.575 196.59 312.974 197.05 312.974Z" fill="#3F3D56"/>
<path d="M196.218 312.528C196.679 312.528 197.052 312.129 197.052 311.637C197.052 311.145 196.679 310.747 196.218 310.747C195.758 310.747 195.385 311.145 195.385 311.637C195.385 312.129 195.758 312.528 196.218 312.528Z" fill="#3F3D56"/>
<path d="M192.9 309.184C193.113 309.324 193.352 309.409 193.601 309.435C193.807 309.467 194.015 309.491 194.223 309.505C194.002 309.293 193.796 309.064 193.606 308.82C193.78 308.772 193.959 308.746 194.139 308.745C194.636 308.744 195.116 308.932 195.494 309.275C195.872 309.618 196.124 310.094 196.203 310.617C196.283 311.14 196.185 311.676 195.928 312.129C195.671 312.583 195.271 312.923 194.8 313.09C194.329 313.257 193.818 313.239 193.358 313.039C192.899 312.84 192.52 312.472 192.292 312.002C192.063 311.532 191.998 310.99 192.11 310.473C192.221 309.957 192.501 309.5 192.9 309.184Z" fill="#4C4981"/>
<path d="M198.535 317.871H200.567C201.679 317.871 202.746 318.343 203.532 319.183C204.319 320.023 204.761 321.162 204.761 322.35V328.24C204.761 328.442 204.686 328.635 204.552 328.777C204.419 328.92 204.238 329 204.049 329H195.052C194.863 329 194.683 328.92 194.549 328.777C194.416 328.635 194.341 328.442 194.341 328.24V322.35C194.341 321.162 194.783 320.023 195.569 319.183C196.356 318.343 197.423 317.871 198.535 317.871Z" fill="#3F3D56"/>
<g opacity="0.1">
<path opacity="0.1" d="M202.654 305.004C202.57 305.101 202.48 305.192 202.385 305.276C202.48 305.276 202.576 305.26 202.669 305.249C202.666 305.167 202.663 305.084 202.654 305.004Z" fill="black"/>
<path opacity="0.1" d="M201.135 303.939C201.343 303.925 201.551 303.902 201.758 303.87C201.944 303.845 202.127 303.792 202.3 303.712C202.214 303.533 202.117 303.361 202.008 303.198C201.903 303.265 201.79 303.317 201.672 303.35C201.508 303.561 201.328 303.758 201.135 303.939Z" fill="black"/>
<path opacity="0.1" d="M196.008 305.851C196.007 305.172 196.177 304.505 196.501 303.92C196.825 303.336 197.291 302.855 197.849 302.529C198.407 302.204 199.037 302.045 199.673 302.069C200.308 302.094 200.926 302.301 201.461 302.669L201.514 302.608C201.166 302.277 200.759 302.022 200.317 301.859C199.876 301.696 199.409 301.628 198.942 301.659C198.476 301.69 198.02 301.819 197.601 302.039C197.182 302.259 196.808 302.565 196.5 302.94C196.192 303.315 195.957 303.752 195.807 304.224C195.658 304.697 195.598 305.197 195.63 305.694C195.662 306.192 195.787 306.678 195.995 307.124C196.204 307.57 196.494 307.968 196.847 308.294C196.305 307.612 196.007 306.746 196.008 305.851Z" fill="black"/>
</g>
<g opacity="0.1">
<path opacity="0.1" d="M204.053 309.951C204.261 309.935 204.469 309.912 204.675 309.879C204.924 309.854 205.163 309.769 205.376 309.63C205.612 309.815 205.809 310.051 205.953 310.323C206.098 310.595 206.187 310.896 206.215 311.207C206.223 311.129 206.227 311.05 206.227 310.971C206.228 310.623 206.153 310.279 206.008 309.968C205.862 309.657 205.65 309.386 205.388 309.179C205.175 309.318 204.935 309.404 204.687 309.43L204.519 309.451C204.376 309.631 204.22 309.798 204.053 309.951Z" fill="black"/>
<path opacity="0.1" d="M204.14 309.189C204.211 309.189 204.279 309.189 204.348 309.206C204.457 309.082 204.565 308.949 204.674 308.82C204.499 308.772 204.32 308.746 204.14 308.745C203.587 308.745 203.057 308.98 202.667 309.397C202.276 309.814 202.056 310.38 202.056 310.971C202.056 311.046 202.056 311.121 202.066 311.193C202.118 310.644 202.359 310.135 202.742 309.765C203.125 309.395 203.623 309.19 204.14 309.189Z" fill="black"/>
</g>
<g opacity="0.1">
<path opacity="0.1" d="M194.217 309.951C194.009 309.935 193.801 309.912 193.594 309.879C193.346 309.854 193.106 309.769 192.893 309.63C192.657 309.815 192.461 310.051 192.316 310.323C192.171 310.595 192.082 310.896 192.054 311.207C192.046 311.129 192.042 311.05 192.043 310.971C192.041 310.623 192.116 310.279 192.262 309.968C192.408 309.657 192.62 309.386 192.881 309.179C193.094 309.318 193.334 309.404 193.583 309.43L193.75 309.451C193.893 309.63 194.049 309.797 194.217 309.951Z" fill="black"/>
<path opacity="0.1" d="M194.133 309.189C194.062 309.189 193.994 309.189 193.925 309.206C193.816 309.082 193.708 308.949 193.599 308.82C193.774 308.772 193.953 308.746 194.133 308.745C194.685 308.745 195.215 308.98 195.606 309.397C195.997 309.814 196.217 310.38 196.217 310.971C196.217 311.046 196.217 311.121 196.206 311.193C196.155 310.644 195.914 310.135 195.531 309.765C195.147 309.395 194.649 309.19 194.133 309.189Z" fill="black"/>
</g>
<path d="M38.4229 300.58H54.451C55.5634 300.58 56.6301 301.052 57.4167 301.892C58.2032 302.732 58.6451 303.871 58.6451 305.059V326.649H34.2288V305.059C34.2288 303.871 34.6706 302.732 35.4572 301.892C36.2437 301.052 37.3105 300.58 38.4229 300.58Z" fill="#3F3D56"/>
<path opacity="0.1" d="M38.4229 300.58H54.451C55.5634 300.58 56.6301 301.052 57.4167 301.892C58.2032 302.732 58.6451 303.871 58.6451 305.059V326.649H34.2288V305.059C34.2288 303.871 34.6706 302.732 35.4572 301.892C36.2437 301.052 37.3105 300.58 38.4229 300.58Z" fill="black"/>
<path d="M45.464 306.308C46.5425 306.308 47.4168 305.374 47.4168 304.223C47.4168 303.071 46.5425 302.137 45.464 302.137C44.3855 302.137 43.5112 303.071 43.5112 304.223C43.5112 305.374 44.3855 306.308 45.464 306.308Z" fill="#3F3D56"/>
<path d="M45.464 303.701C46.5425 303.701 47.4168 302.767 47.4168 301.615C47.4168 300.464 46.5425 299.53 45.464 299.53C44.3855 299.53 43.5112 300.464 43.5112 301.615C43.5112 302.767 44.3855 303.701 45.464 303.701Z" fill="#3F3D56"/>
<path d="M45.464 301.092C46.5425 301.092 47.4168 300.158 47.4168 299.007C47.4168 297.855 46.5425 296.921 45.464 296.921C44.3855 296.921 43.5112 297.855 43.5112 299.007C43.5112 300.158 44.3855 301.092 45.464 301.092Z" fill="#3F3D56"/>
<path d="M45.464 298.485C46.5425 298.485 47.4168 297.551 47.4168 296.399C47.4168 295.248 46.5425 294.314 45.464 294.314C44.3855 294.314 43.5112 295.248 43.5112 296.399C43.5112 297.551 44.3855 298.485 45.464 298.485Z" fill="#3F3D56"/>
<path d="M45.464 295.876C46.5425 295.876 47.4168 294.942 47.4168 293.791C47.4168 292.639 46.5425 291.705 45.464 291.705C44.3855 291.705 43.5112 292.639 43.5112 293.791C43.5112 294.942 44.3855 295.876 45.464 295.876Z" fill="#3F3D56"/>
<path d="M45.464 293.269C46.5425 293.269 47.4168 292.335 47.4168 291.183C47.4168 290.032 46.5425 289.098 45.464 289.098C44.3855 289.098 43.5112 290.032 43.5112 291.183C43.5112 292.335 44.3855 293.269 45.464 293.269Z" fill="#3F3D56"/>
<path d="M45.464 290.662C46.5425 290.662 47.4168 289.728 47.4168 288.576C47.4168 287.424 46.5425 286.491 45.464 286.491C44.3855 286.491 43.5112 287.424 43.5112 288.576C43.5112 289.728 44.3855 290.662 45.464 290.662Z" fill="#3F3D56"/>
<path d="M48.393 291.705C49.4714 291.705 50.3457 290.771 50.3457 289.619C50.3457 288.467 49.4714 287.533 48.393 287.533C47.3145 287.533 46.4402 288.467 46.4402 289.619C46.4402 290.771 47.3145 291.705 48.393 291.705Z" fill="#3F3D56"/>
<path d="M50.3458 290.662C51.4243 290.662 52.2986 289.728 52.2986 288.576C52.2986 287.424 51.4243 286.491 50.3458 286.491C49.2674 286.491 48.3931 287.424 48.3931 288.576C48.3931 289.728 49.2674 290.662 50.3458 290.662Z" fill="#3F3D56"/>
<path d="M52.3004 289.617C53.3789 289.617 54.2532 288.684 54.2532 287.532C54.2532 286.38 53.3789 285.446 52.3004 285.446C51.2219 285.446 50.3477 286.38 50.3477 287.532C50.3477 288.684 51.2219 289.617 52.3004 289.617Z" fill="#3F3D56"/>
<path d="M45.464 288.053C46.5425 288.053 47.4168 287.119 47.4168 285.967C47.4168 284.815 46.5425 283.882 45.464 283.882C44.3855 283.882 43.5112 284.815 43.5112 285.967C43.5112 287.119 44.3855 288.053 45.464 288.053Z" fill="#3F3D56"/>
<path d="M45.464 285.446C46.5425 285.446 47.4168 284.512 47.4168 283.36C47.4168 282.208 46.5425 281.275 45.464 281.275C44.3855 281.275 43.5112 282.208 43.5112 283.36C43.5112 284.512 44.3855 285.446 45.464 285.446Z" fill="#3F3D56"/>
<path d="M45.464 282.837C46.5425 282.837 47.4168 281.903 47.4168 280.751C47.4168 279.599 46.5425 278.666 45.464 278.666C44.3855 278.666 43.5112 279.599 43.5112 280.751C43.5112 281.903 44.3855 282.837 45.464 282.837Z" fill="#3F3D56"/>
<path d="M45.464 280.23C46.5425 280.23 47.4168 279.296 47.4168 278.144C47.4168 276.992 46.5425 276.059 45.464 276.059C44.3855 276.059 43.5112 276.992 43.5112 278.144C43.5112 279.296 44.3855 280.23 45.464 280.23Z" fill="#3F3D56"/>
<path d="M53.562 271.416C53.0777 271.491 52.5912 271.546 52.1025 271.581C52.5548 271.158 52.9749 270.697 53.359 270.203C53.0926 269.327 52.6998 268.501 52.1947 267.755C51.7142 268.048 51.1817 268.232 50.6312 268.293C50.148 268.368 49.6598 268.424 49.1716 268.459C49.8142 267.904 50.4097 267.064 51.0388 266.381C49.5803 264.966 47.6991 264.15 45.73 264.078C43.761 264.006 41.8319 264.683 40.2863 265.988C38.7407 267.293 37.6789 269.142 37.29 271.204C36.901 273.267 37.2101 275.411 38.1623 277.253C39.1145 279.095 40.6479 280.517 42.4895 281.265C44.3312 282.012 46.3615 282.038 48.219 281.336C50.0765 280.635 51.6406 279.252 52.6329 277.434C53.6252 275.616 53.9812 273.481 53.6375 271.409L53.562 271.416Z" fill="#4C4981"/>
<path d="M60.0878 281.783C59.6282 282.129 59.0175 282.278 58.4454 282.368C57.9606 282.445 57.4741 282.498 56.9859 282.534C57.4892 282.102 57.9522 281.5 58.432 280.932C57.2565 280.599 56.0069 280.746 54.9274 281.344C53.8479 281.943 53.0161 282.95 52.5945 284.168C52.1729 285.387 52.1919 286.729 52.6477 287.933C53.1035 289.138 53.9633 290.117 55.0592 290.681C56.1551 291.244 57.4083 291.351 58.5739 290.98C59.7395 290.609 60.7337 289.787 61.3622 288.675C61.9908 287.563 62.2085 286.24 61.9728 284.966C61.7371 283.692 61.065 282.557 60.0878 281.783Z" fill="#4C4981"/>
<path d="M42.5331 291.705C43.6116 291.705 44.4859 290.771 44.4859 289.619C44.4859 288.467 43.6116 287.533 42.5331 287.533C41.4546 287.533 40.5803 288.467 40.5803 289.619C40.5803 290.771 41.4546 291.705 42.5331 291.705Z" fill="#3F3D56"/>
<path d="M40.5805 290.662C41.6589 290.662 42.5332 289.728 42.5332 288.576C42.5332 287.424 41.6589 286.491 40.5805 286.491C39.502 286.491 38.6277 287.424 38.6277 288.576C38.6277 289.728 39.502 290.662 40.5805 290.662Z" fill="#3F3D56"/>
<path d="M38.6276 289.617C39.7061 289.617 40.5803 288.684 40.5803 287.532C40.5803 286.38 39.7061 285.446 38.6276 285.446C37.5491 285.446 36.6748 286.38 36.6748 287.532C36.6748 288.684 37.5491 289.617 38.6276 289.617Z" fill="#3F3D56"/>
<path d="M30.8399 281.783C31.2996 282.129 31.9103 282.278 32.484 282.368C32.9672 282.445 33.4537 282.498 33.9419 282.534C33.4386 282.102 32.9756 281.5 32.4957 280.932C33.6713 280.599 34.9209 280.746 36.0004 281.344C37.0799 281.943 37.9117 282.95 38.3333 284.168C38.7548 285.387 38.7359 286.729 38.2801 287.933C37.8243 289.138 36.9644 290.117 35.8685 290.681C34.7726 291.244 33.5194 291.351 32.3538 290.98C31.1883 290.609 30.1941 289.787 29.5655 288.675C28.937 287.563 28.7193 286.24 28.9549 284.966C29.1906 283.692 29.8627 282.557 30.8399 281.783Z" fill="#4C4981"/>
<path d="M38.4229 302.137H54.451C55.5634 302.137 56.6301 302.609 57.4167 303.449C58.2032 304.289 58.6451 305.428 58.6451 306.616V327.457C58.6451 327.659 58.5702 327.852 58.4368 327.994C58.3034 328.137 58.1224 328.217 57.9338 328.217H34.9434C34.8497 328.217 34.7569 328.198 34.6702 328.16C34.5835 328.122 34.5047 328.066 34.4383 327.996C34.3719 327.925 34.3192 327.841 34.2832 327.749C34.2473 327.656 34.2288 327.557 34.2288 327.457V306.616C34.2288 305.428 34.6706 304.289 35.4572 303.449C36.2437 302.609 37.3105 302.137 38.4229 302.137Z" fill="#3F3D56"/>
<g opacity="0.1">
<path opacity="0.1" d="M53.7079 271.986C53.5121 272.214 53.302 272.427 53.0789 272.624C53.3014 272.607 53.5255 272.586 53.748 272.563C53.7397 272.369 53.728 272.176 53.7079 271.986Z" fill="black"/>
<path opacity="0.1" d="M50.1497 269.495C50.6379 269.459 51.1244 269.405 51.6075 269.328C52.0452 269.274 52.4733 269.153 52.8792 268.97C52.6808 268.549 52.4519 268.145 52.1947 267.762C51.9521 267.922 51.6887 268.043 51.4129 268.121C51.0258 268.613 50.6035 269.073 50.1497 269.495Z" fill="black"/>
<path opacity="0.1" d="M38.1377 273.973C38.1348 272.381 38.5338 270.818 39.2928 269.448C40.0518 268.078 41.1427 266.952 42.4505 266.189C43.7583 265.426 45.2346 265.054 46.7239 265.111C48.2132 265.169 49.6604 265.655 50.913 266.517C50.9549 266.47 50.9968 266.418 51.0388 266.374C50.2228 265.586 49.2683 264.98 48.2309 264.59C47.1936 264.201 46.094 264.035 44.9961 264.103C43.8983 264.172 42.8242 264.472 41.8362 264.988C40.8482 265.504 39.9661 266.225 39.2412 267.108C38.5164 267.991 37.9632 269.019 37.6139 270.133C37.2646 271.247 37.1261 272.424 37.2065 273.595C37.287 274.767 37.5847 275.909 38.0824 276.956C38.5801 278.004 39.2678 278.935 40.1056 279.696C38.8334 278.099 38.1357 276.07 38.1377 273.973Z" fill="black"/>
</g>
<g opacity="0.1">
<path opacity="0.1" d="M56.9858 283.577C57.4735 283.544 57.96 283.488 58.4454 283.41C59.0175 283.323 59.6197 283.174 60.0878 282.826C60.6383 283.261 61.097 283.814 61.434 284.45C61.771 285.087 61.9789 285.792 62.0439 286.519C62.0607 286.34 62.0708 286.161 62.0708 285.969C62.0713 285.155 61.8925 284.352 61.5489 283.624C61.2054 282.897 60.7066 282.267 60.0928 281.783C59.6332 282.129 59.0225 282.278 58.4504 282.368C58.3212 282.387 58.1937 282.403 58.0662 282.42C57.7353 282.835 57.374 283.222 56.9858 283.577Z" fill="black"/>
<path opacity="0.1" d="M57.1788 281.796C57.3426 281.799 57.5061 281.811 57.6687 281.832C57.9237 281.542 58.172 281.233 58.4287 280.936C57.706 280.728 56.9482 280.701 56.214 280.856C55.4799 281.012 54.7893 281.347 54.196 281.834C53.6028 282.321 53.1227 282.948 52.7933 283.666C52.464 284.384 52.2941 285.173 52.2969 285.973C52.2969 286.152 52.3053 286.331 52.3204 286.494C52.4406 285.207 53.0044 284.014 53.9022 283.145C54.7999 282.277 55.9677 281.796 57.1788 281.796Z" fill="black"/>
</g>
<g opacity="0.1">
<path opacity="0.1" d="M33.9402 283.577C33.4526 283.544 32.9667 283.488 32.4824 283.41C31.9086 283.323 31.298 283.174 30.8383 282.826C30.2887 283.261 29.831 283.815 29.4948 284.451C29.1587 285.087 28.9517 285.792 28.8872 286.519C28.8704 286.34 28.8604 286.161 28.8604 285.969C28.8601 285.155 29.0391 284.351 29.3829 283.624C29.7268 282.897 30.2259 282.267 30.84 281.783C31.2996 282.129 31.9103 282.278 32.4841 282.368C32.6116 282.387 32.7391 282.403 32.8666 282.42C33.1958 282.835 33.5548 283.222 33.9402 283.577Z" fill="black"/>
<path opacity="0.1" d="M33.744 281.796C33.5802 281.799 33.4167 281.811 33.2541 281.832C32.9991 281.542 32.7508 281.233 32.4941 280.936C33.2168 280.728 33.9747 280.701 34.7088 280.856C35.4429 281.012 36.1335 281.347 36.7268 281.834C37.3201 282.321 37.8001 282.948 38.1295 283.666C38.4589 284.384 38.6287 285.173 38.6259 285.973C38.6259 286.152 38.6259 286.331 38.6024 286.494C38.4822 285.207 37.9185 284.014 37.0207 283.145C36.1229 282.277 34.9551 281.796 33.744 281.796Z" fill="black"/>
</g>
<path d="M142.936 328.737L110.222 328.289L110.318 327.393L111.9 312.61H140.63L142.743 327.393L142.904 328.513L142.936 328.737Z" fill="#D0D2D5"/>
<path opacity="0.1" d="M142.905 328.513H126.579L110.222 328.289L110.318 327.393H142.743L142.905 328.513Z" fill="black"/>
<path d="M148.179 327.617H104.77V328.737H148.179V327.617Z" fill="#D0D2D5"/>
<path d="M189.595 223.821C189.598 223.048 189.314 222.305 188.805 221.755C188.296 221.205 187.603 220.894 186.879 220.89H65.6509C65.2922 220.892 64.9374 220.969 64.6067 221.117C64.2761 221.266 63.976 221.482 63.7236 221.754C63.4712 222.027 63.2715 222.349 63.1359 222.704C63.0003 223.058 62.9314 223.438 62.9331 223.821V302.303H189.595V223.821Z" fill="#444053"/>
<path d="M62.9331 301.522V310.716C62.932 311.098 63.0015 311.476 63.1376 311.829C63.2737 312.183 63.4738 312.504 63.7263 312.774C63.9788 313.044 64.2788 313.259 64.609 313.405C64.9393 313.551 65.2934 313.626 65.6509 313.626H186.879C187.599 313.626 188.29 313.32 188.799 312.776C189.309 312.232 189.595 311.495 189.595 310.725V301.522H62.9331Z" fill="#D0D2D5"/>
<path opacity="0.1" d="M184.981 225.817H68.1758V296.371H184.981V225.817Z" fill="#4C4981"/>
<path d="M126.893 310.13C127.322 310.13 127.745 310.027 128.131 309.827C128.517 309.627 128.856 309.336 129.121 308.976C129.201 308.866 129.274 308.751 129.341 308.63L127.787 308.358L129.465 308.371C129.627 307.996 129.715 307.591 129.724 307.179C129.733 306.767 129.663 306.357 129.519 305.975L127.266 307.229L129.344 305.599C129.153 305.233 128.893 304.914 128.581 304.661C128.269 304.408 127.911 304.227 127.529 304.13C127.148 304.033 126.752 304.021 126.367 304.096C125.981 304.171 125.614 304.33 125.289 304.564C124.964 304.798 124.688 305.102 124.479 305.456C124.27 305.81 124.132 306.206 124.073 306.62C124.015 307.034 124.038 307.456 124.14 307.86C124.243 308.265 124.423 308.641 124.669 308.967C124.933 309.329 125.27 309.621 125.655 309.822C126.041 310.024 126.464 310.129 126.893 310.13Z" fill="#4C4981"/>
<path opacity="0.1" d="M129.725 313.617L142.775 327.617L140.774 313.617H129.725Z" fill="black"/>
<path d="M161.6 235.425H71.427V286.566H161.6V235.425Z" fill="white"/>
<path opacity="0.1" d="M101.608 248.756H76.4565V250.149H101.608V248.756Z" fill="#4C4981"/>
<path opacity="0.1" d="M81.1154 241.394H78.6929V248.756H81.1154V241.394Z" fill="#4C4981"/>
<path opacity="0.1" d="M84.6552 241.394H82.2327V248.756H84.6552V241.394Z" fill="#4C4981"/>
<path opacity="0.1" d="M88.195 241.394H85.7725V248.756H88.195V241.394Z" fill="#4C4981"/>
<path opacity="0.1" d="M91.735 241.394H89.3125V248.756H91.735V241.394Z" fill="#4C4981"/>
<path opacity="0.1" d="M95.2748 241.394H92.8523V248.756H95.2748V241.394Z" fill="#4C4981"/>
<path opacity="0.1" d="M98.8146 241.394H96.3921V248.756H98.8146V241.394Z" fill="#4C4981"/>
<path opacity="0.1" d="M81.1154 242.788H78.6929V243.583H81.1154V242.788Z" fill="#4C4981"/>
<path opacity="0.1" d="M84.6552 242.788H82.2327V243.583H84.6552V242.788Z" fill="#4C4981"/>
<path opacity="0.1" d="M88.195 242.788H85.7725V243.583H88.195V242.788Z" fill="#4C4981"/>
<path opacity="0.1" d="M91.735 242.788H89.3125V243.583H91.735V242.788Z" fill="#4C4981"/>
<path opacity="0.1" d="M95.2748 242.788H92.8523V243.583H95.2748V242.788Z" fill="#4C4981"/>
<path opacity="0.1" d="M98.8146 242.788H96.3921V243.583H98.8146V242.788Z" fill="#4C4981"/>
<path opacity="0.1" d="M81.1154 246.37H78.6929V247.165H81.1154V246.37Z" fill="#4C4981"/>
<path opacity="0.1" d="M84.6552 246.37H82.2327V247.165H84.6552V246.37Z" fill="#4C4981"/>
<path opacity="0.1" d="M88.195 246.37H85.7725V247.165H88.195V246.37Z" fill="#4C4981"/>
<path opacity="0.1" d="M91.735 246.37H89.3125V247.165H91.735V246.37Z" fill="#4C4981"/>
<path opacity="0.1" d="M95.2748 246.37H92.8523V247.165H95.2748V246.37Z" fill="#4C4981"/>
<path opacity="0.1" d="M98.8146 246.37H96.3921V247.165H98.8146V246.37Z" fill="#4C4981"/>
<path opacity="0.1" d="M156.755 252.338H131.604V253.731H156.755V252.338Z" fill="#4C4981"/>
<path opacity="0.1" d="M136.263 244.976H133.84V252.338H136.263V244.976Z" fill="#4C4981"/>
<path opacity="0.1" d="M139.803 244.976H137.38V252.338H139.803V244.976Z" fill="#4C4981"/>
<path opacity="0.1" d="M143.342 244.976H140.92V252.338H143.342V244.976Z" fill="#4C4981"/>
<path opacity="0.1" d="M146.882 244.976H144.46V252.338H146.882V244.976Z" fill="#4C4981"/>
<path opacity="0.1" d="M150.422 244.976H148V252.338H150.422V244.976Z" fill="#4C4981"/>
<path opacity="0.1" d="M153.962 244.976H151.539V252.338H153.962V244.976Z" fill="#4C4981"/>
<path opacity="0.1" d="M136.263 246.37H133.84V247.165H136.263V246.37Z" fill="#4C4981"/>
<path opacity="0.1" d="M139.803 246.37H137.38V247.165H139.803V246.37Z" fill="#4C4981"/>
<path opacity="0.1" d="M143.342 246.37H140.92V247.165H143.342V246.37Z" fill="#4C4981"/>
<path opacity="0.1" d="M146.882 246.37H144.46V247.165H146.882V246.37Z" fill="#4C4981"/>
<path opacity="0.1" d="M150.422 246.37H148V247.165H150.422V246.37Z" fill="#4C4981"/>
<path opacity="0.1" d="M153.962 246.37H151.539V247.165H153.962V246.37Z" fill="#4C4981"/>
<path opacity="0.1" d="M136.263 249.952H133.84V250.747H136.263V249.952Z" fill="#4C4981"/>
<path opacity="0.1" d="M139.803 249.952H137.38V250.747H139.803V249.952Z" fill="#4C4981"/>
<path opacity="0.1" d="M143.342 249.952H140.92V250.747H143.342V249.952Z" fill="#4C4981"/>
<path opacity="0.1" d="M146.882 249.952H144.46V250.747H146.882V249.952Z" fill="#4C4981"/>
<path opacity="0.1" d="M150.422 249.952H148V250.747H150.422V249.952Z" fill="#4C4981"/>
<path opacity="0.1" d="M153.962 249.952H151.539V250.747H153.962V249.952Z" fill="#4C4981"/>
<path opacity="0.1" d="M156.755 262.487H131.604V263.879H156.755V262.487Z" fill="#4C4981"/>
<path opacity="0.1" d="M136.263 255.125H133.84V262.487H136.263V255.125Z" fill="#4C4981"/>
<path opacity="0.1" d="M139.803 255.125H137.38V262.487H139.803V255.125Z" fill="#4C4981"/>
<path opacity="0.1" d="M143.342 255.125H140.92V262.487H143.342V255.125Z" fill="#4C4981"/>
<path opacity="0.1" d="M146.882 255.125H144.46V262.487H146.882V255.125Z" fill="#4C4981"/>
<path opacity="0.1" d="M150.422 255.125H148V262.487H150.422V255.125Z" fill="#4C4981"/>
<path opacity="0.1" d="M153.962 255.125H151.539V262.487H153.962V255.125Z" fill="#4C4981"/>
<path opacity="0.1" d="M136.263 256.517H133.84V257.312H136.263V256.517Z" fill="#4C4981"/>
<path opacity="0.1" d="M139.803 256.517H137.38V257.312H139.803V256.517Z" fill="#4C4981"/>
<path opacity="0.1" d="M143.342 256.517H140.92V257.312H143.342V256.517Z" fill="#4C4981"/>
<path opacity="0.1" d="M146.882 256.517H144.46V257.312H146.882V256.517Z" fill="#4C4981"/>
<path opacity="0.1" d="M150.422 256.517H148V257.312H150.422V256.517Z" fill="#4C4981"/>
<path opacity="0.1" d="M153.962 256.517H151.539V257.312H153.962V256.517Z" fill="#4C4981"/>
<path opacity="0.1" d="M136.263 260.099H133.84V260.894H136.263V260.099Z" fill="#4C4981"/>
<path opacity="0.1" d="M139.803 260.099H137.38V260.894H139.803V260.099Z" fill="#4C4981"/>
<path opacity="0.1" d="M143.342 260.099H140.92V260.894H143.342V260.099Z" fill="#4C4981"/>
<path opacity="0.1" d="M146.882 260.099H144.46V260.894H146.882V260.099Z" fill="#4C4981"/>
<path opacity="0.1" d="M150.422 260.099H148V260.894H150.422V260.099Z" fill="#4C4981"/>
<path opacity="0.1" d="M153.962 260.099H151.539V260.894H153.962V260.099Z" fill="#4C4981"/>
<path opacity="0.1" d="M91.8825 264.503C91.6942 264.247 91.5227 263.978 91.3691 263.697L94.9911 263.062L91.0671 263.096C90.6916 262.223 90.4867 261.277 90.465 260.317C90.4434 259.356 90.6055 258.401 90.9413 257.509L96.1957 260.421L91.3507 256.617C91.8033 255.777 92.4133 255.046 93.1424 254.469C93.8714 253.892 94.704 253.482 95.5881 253.264C96.4723 253.047 97.3889 253.026 98.2809 253.203C99.1729 253.381 100.021 253.753 100.772 254.296C101.524 254.839 102.162 255.542 102.648 256.361C103.134 257.179 103.456 258.096 103.595 259.054C103.734 260.011 103.687 260.989 103.457 261.927C103.226 262.864 102.817 263.74 102.255 264.501C102.55 264.899 102.804 265.329 103.012 265.784L98.3145 268.391L103.326 266.599C103.678 267.71 103.765 268.897 103.579 270.053C103.394 271.209 102.941 272.297 102.262 273.218C103.028 274.258 103.505 275.508 103.637 276.823C103.77 278.139 103.553 279.468 103.012 280.658C102.471 281.849 101.627 282.852 100.577 283.555C99.5268 284.257 98.3129 284.629 97.0739 284.629C95.835 284.629 94.621 284.257 93.5709 283.555C92.5207 282.852 91.6768 281.849 91.1356 280.658C90.5944 279.468 90.3777 278.139 90.5104 276.823C90.6431 275.508 91.1197 274.258 91.8858 273.218C90.9708 271.976 90.4734 270.441 90.4734 268.86C90.4734 267.279 90.9708 265.744 91.8858 264.501L91.8825 264.503Z" fill="#4C4981"/>
<path opacity="0.1" d="M103.671 268.863C103.673 270.444 103.175 271.979 102.259 273.22C103.025 274.26 103.501 275.51 103.634 276.825C103.767 278.141 103.55 279.47 103.009 280.66C102.468 281.851 101.624 282.854 100.574 283.557C99.5234 284.259 98.3095 284.631 97.0705 284.631C95.8315 284.631 94.6176 284.259 93.5674 283.557C92.5173 282.854 91.6734 281.851 91.1322 280.66C90.5909 279.47 90.3743 278.141 90.507 276.825C90.6396 275.51 91.1163 274.26 91.8824 273.22C90.9983 272.022 103.671 268.071 103.671 268.863Z" fill="#4C4981"/>
<path opacity="0.2" d="M98.13 286.507C98.1418 286.526 98.1502 286.546 98.1619 286.566H95.9206C95.9323 286.546 95.9407 286.526 95.9525 286.507C95.76 286.148 95.6604 285.741 95.6639 285.328C95.6636 285.045 95.7096 284.764 95.7998 284.498C95.9239 284.52 96.0783 284.543 96.2561 284.563C96.776 284.618 97.2998 284.618 97.8197 284.563C97.9673 284.546 98.1233 284.523 98.281 284.498C98.2812 284.502 98.2812 284.506 98.281 284.511C98.3694 284.773 98.4143 285.049 98.4136 285.328C98.4186 285.741 98.3207 286.147 98.13 286.507Z" fill="#3F3D56"/>
<path opacity="0.1" d="M90.0757 286.569H77.6109C77.5824 286.492 77.5572 286.412 77.5354 286.333C77.0959 284.823 77.1473 283.199 77.6814 281.724C76.4632 280.826 75.5633 279.516 75.1264 278.005C74.6895 276.494 74.7408 274.87 75.2723 273.394C75.0216 273.208 74.7828 273.005 74.5576 272.785L77.8424 271.036L74.1097 272.301C73.5089 271.585 73.0515 270.746 72.7653 269.834C72.4791 268.923 72.3703 267.959 72.4454 267.001L78.2702 268.124L72.5897 266.017C72.7905 265.072 73.1716 264.181 73.7091 263.401C74.2467 262.62 74.9291 261.966 75.7139 261.479C76.4987 260.993 77.3689 260.684 78.2702 260.573C79.1716 260.462 80.0848 260.551 80.9527 260.833C81.8206 261.116 82.6246 261.587 83.3146 262.216C84.0046 262.845 84.5657 263.62 84.9629 264.491C85.3601 265.362 85.5849 266.312 85.6232 267.28C85.6614 268.248 85.5124 269.215 85.1854 270.119C85.5756 270.407 85.9361 270.74 86.2608 271.11L82.4895 275.084L86.7825 271.787C87.426 272.738 87.8372 273.845 87.9789 275.008C88.1207 276.171 87.9886 277.354 87.5945 278.449C88.7828 279.326 89.669 280.596 90.1171 282.062C90.5653 283.529 90.5508 285.112 90.0757 286.569Z" fill="#4C4981"/>
<path opacity="0.1" d="M90.0757 286.569H77.6108C77.5823 286.492 77.5572 286.412 77.5353 286.333C77.0958 284.823 77.1473 283.199 77.6813 281.724C76.5069 280.855 87.5223 273.086 87.7471 273.84C88.1849 275.351 88.1335 276.975 87.6012 278.451C88.7879 279.329 89.6725 280.598 90.1194 282.065C90.5663 283.531 90.551 285.113 90.0757 286.569Z" fill="#4C4981"/>
<path opacity="0.1" d="M146.52 277.017C145.763 278.376 144.598 279.421 143.215 279.984C143.274 280.488 143.283 280.997 143.243 281.502L137.955 281.163L143.119 282.369C142.778 284.055 141.872 285.548 140.571 286.569H133.374V286.768H126.048C126.063 286.7 126.078 286.634 126.095 286.569C126.364 285.489 126.869 284.491 127.569 283.659C128.269 282.827 129.143 282.185 130.121 281.783C129.934 280.215 130.245 278.624 131.006 277.267C131.767 275.91 132.932 274.866 134.315 274.301C134.276 273.978 134.257 273.653 134.26 273.328L137.674 274.761L134.298 272.643C134.395 271.689 134.672 270.765 135.114 269.929C135.555 269.093 136.152 268.362 136.867 267.78L139.977 273.156L137.647 267.243C138.916 266.489 140.383 266.203 141.82 266.43C143.257 266.657 144.584 267.384 145.595 268.498C146.606 269.612 147.244 271.052 147.411 272.593C147.578 274.134 147.264 275.691 146.518 277.023L146.52 277.017Z" fill="#4C4981"/>
<path opacity="0.1" d="M142.331 284.5C141.881 285.31 141.283 286.014 140.571 286.569H133.374V286.768H126.048C126.063 286.7 126.078 286.634 126.095 286.569C126.364 285.489 126.869 284.491 127.569 283.659C128.269 282.827 129.143 282.185 130.121 281.783C130.059 281.269 131.481 281.339 133.375 281.68C137.078 282.342 142.582 284.05 142.331 284.5Z" fill="#4C4981"/>
<path d="M111.14 265.687C111.14 265.687 112.038 270.914 110.025 272.618C108.011 274.322 111.726 284.548 117.896 283.357C124.066 282.165 126.566 273.584 126.566 273.584C126.566 273.584 120.396 272.222 122.682 265.291L111.14 265.687Z" fill="#EFB7B9"/>
<path opacity="0.1" d="M111.14 265.687C111.14 265.687 112.038 270.914 110.025 272.618C108.011 274.322 111.726 284.548 117.896 283.357C124.066 282.165 126.566 273.584 126.566 273.584C126.566 273.584 120.396 272.222 122.682 265.291L111.14 265.687Z" fill="black"/>
<path d="M116.592 269.522C122.232 269.522 126.804 264.639 126.804 258.615C126.804 252.591 122.232 247.708 116.592 247.708C110.953 247.708 106.381 252.591 106.381 258.615C106.381 264.639 110.953 269.522 116.592 269.522Z" fill="#EFB7B9"/>
<path d="M133.374 279.35V286.765H99.6533V279.689C99.6536 278.791 99.9013 277.914 100.366 277.165C100.83 276.417 101.49 275.832 102.264 275.482L103.232 275.043C105.678 273.93 108.649 272.548 109.62 271.973C109.727 271.917 109.827 271.847 109.919 271.767C110.451 271.199 110.345 271.937 110.345 271.937C110.345 271.937 110.33 272.077 110.32 272.321C110.263 273.989 110.488 280.551 117.685 280.004C124.707 279.467 125.016 274.406 124.952 272.917C124.948 272.78 124.937 272.642 124.919 272.505C124.919 272.466 125.522 272.685 126.341 273C127.812 273.579 129.975 274.51 130.557 274.949C130.738 275.084 130.958 275.227 131.196 275.369C131.859 275.764 132.411 276.342 132.795 277.042C133.178 277.742 133.379 278.539 133.377 279.35H133.374Z" fill="#4C4981"/>
<path opacity="0.1" d="M126.339 273C125.745 275.942 123.88 281.454 117.151 281.601C109.986 281.751 109.573 274.139 109.617 271.98C109.724 271.924 109.825 271.854 109.917 271.772C110.449 271.204 110.343 271.943 110.343 271.943C110.343 271.943 109.439 280.635 117.683 280.006C125.927 279.377 124.917 272.507 124.917 272.507C124.917 272.466 125.521 272.677 126.339 273Z" fill="black"/>
<path d="M104.505 259.154C105.176 258.921 105.976 259.316 106.35 259.871C106.725 260.427 106.777 261.098 106.822 261.742C107.266 261.842 107.516 261.305 107.557 260.901C107.724 259.251 107.733 257.57 108.251 255.979C108.77 254.388 109.902 252.847 111.643 252.234C112.236 252.015 112.868 251.95 113.489 252.046C113.856 252.112 114.203 252.249 114.571 252.313C115.841 252.537 117.225 251.894 118.418 252.342C119.164 252.623 119.646 253.274 119.988 253.926C120.14 254.276 120.347 254.596 120.599 254.874C121.102 255.357 121.9 255.485 122.625 255.637C123.35 255.789 124.145 256.051 124.455 256.649C124.736 257.187 124.529 257.814 124.435 258.402C124.292 259.328 124.438 260.279 124.85 261.107C124.984 261.38 125.256 261.688 125.576 261.6C125.722 261.548 125.845 261.441 125.923 261.299C126.762 260.045 126.735 258.418 127.781 257.298C128.131 256.924 128.582 256.63 128.923 256.248C129.181 255.97 129.37 255.628 129.473 255.253C129.577 254.877 129.591 254.481 129.515 254.098C129.327 253.236 128.676 252.517 128.161 251.768C127.484 250.809 126.991 249.716 126.71 248.552C126.661 248.417 126.661 248.268 126.71 248.133C126.809 247.996 126.936 247.885 127.081 247.808C127.366 247.607 127.572 247.301 127.66 246.949C127.749 246.596 127.714 246.222 127.562 245.895C127.271 245.244 126.615 244.762 125.895 244.472C125.175 244.182 124.385 244.058 123.603 243.935C123.09 244.015 122.488 243.702 122.328 243.263C122.258 243.067 122.258 242.856 122.186 242.661C122.046 242.286 121.645 242.021 121.214 241.929C120.776 241.853 120.327 241.886 119.902 242.028C119.419 242.173 118.859 242.386 118.438 242.139C118.216 242.005 118.092 241.761 117.854 241.652C117.371 241.431 116.861 241.876 116.512 242.243C116.173 242.626 115.759 242.923 115.299 243.112C114.814 243.291 114.217 243.291 113.799 243.006C113.464 242.779 113.296 242.413 113.029 242.123C112.591 241.645 111.898 241.385 111.207 241.326C110.514 241.287 109.819 241.368 109.15 241.566C107.873 241.896 106.653 242.44 105.535 243.178C104.976 243.553 104.441 243.99 104.149 244.555C103.942 244.995 103.835 245.481 103.837 245.974C103.785 247.516 104.265 249.143 105.515 250.224C104.753 250.564 104.495 251.398 104.317 252.138C104.032 253.317 103.745 254.517 103.852 255.721C103.906 256.343 104.065 256.965 103.98 257.583C103.94 257.882 103.842 258.176 103.866 258.479C103.897 258.647 103.974 258.801 104.088 258.921C104.202 259.042 104.347 259.123 104.505 259.154Z" fill="#454B69"/>
<g opacity="0.1">
<path opacity="0.1" d="M129.368 253.632C129.257 253.887 129.108 254.122 128.926 254.325C128.591 254.707 128.135 255.001 127.784 255.377C126.739 256.495 126.761 258.128 125.927 259.378C125.849 259.52 125.725 259.626 125.58 259.678C125.259 259.765 124.987 259.457 124.853 259.185C124.69 258.854 124.568 258.501 124.489 258.137C124.471 258.227 124.454 258.319 124.439 258.411C124.295 259.337 124.441 260.288 124.853 261.116C124.987 261.389 125.259 261.697 125.58 261.609C125.725 261.557 125.849 261.45 125.927 261.308C126.766 260.054 126.739 258.427 127.784 257.307C128.135 256.933 128.586 256.639 128.926 256.257C129.184 255.979 129.373 255.637 129.477 255.262C129.58 254.886 129.594 254.49 129.519 254.107C129.483 253.944 129.432 253.785 129.368 253.632Z" fill="black"/>
<path opacity="0.1" d="M127.088 245.895C126.942 245.97 126.815 246.08 126.717 246.217C126.667 246.352 126.667 246.502 126.717 246.637C126.814 247.043 126.938 247.441 127.088 247.828C127.376 247.625 127.583 247.315 127.671 246.958C127.759 246.602 127.72 246.223 127.562 245.895C127.515 245.788 127.459 245.686 127.395 245.59C127.307 245.708 127.204 245.81 127.088 245.895Z" fill="black"/>
<path opacity="0.1" d="M105.513 248.31C104.648 247.546 104.078 246.468 103.911 245.282C103.868 245.518 103.843 245.758 103.837 245.999C103.783 247.137 104.065 248.265 104.643 249.224C104.818 248.816 105.128 248.491 105.513 248.31Z" fill="black"/>
<path opacity="0.1" d="M124.438 256.479C124.532 255.891 124.739 255.266 124.458 254.727C124.148 254.128 123.355 253.865 122.628 253.714C121.902 253.564 121.108 253.435 120.602 252.951C120.35 252.674 120.143 252.353 119.991 252.003C119.655 251.351 119.167 250.701 118.421 250.419C117.228 249.971 115.844 250.615 114.574 250.391C114.206 250.326 113.859 250.19 113.492 250.124C112.872 250.025 112.239 250.086 111.646 250.303C109.905 250.916 108.773 252.453 108.254 254.048C107.736 255.642 107.724 257.32 107.56 258.97C107.519 259.373 107.269 259.911 106.825 259.81C106.78 259.167 106.724 258.495 106.353 257.94C105.983 257.384 105.191 256.988 104.508 257.223C104.301 257.173 104.118 257.046 103.991 256.864C104.015 257.103 104.011 257.344 103.981 257.581C103.941 257.88 103.844 258.174 103.867 258.477C103.898 258.645 103.975 258.799 104.089 258.92C104.202 259.041 104.347 259.122 104.505 259.154C105.176 258.921 105.976 259.316 106.35 259.871C106.724 260.427 106.776 261.099 106.821 261.742C107.266 261.842 107.516 261.305 107.556 260.901C107.724 259.251 107.732 257.57 108.251 255.979C108.769 254.388 109.902 252.847 111.643 252.234C112.235 252.015 112.868 251.95 113.488 252.046C113.856 252.113 114.203 252.249 114.57 252.313C115.84 252.537 117.224 251.894 118.417 252.342C119.164 252.623 119.645 253.274 119.988 253.926C120.14 254.276 120.347 254.596 120.598 254.874C121.101 255.358 121.9 255.485 122.625 255.637C123.35 255.789 124.086 256.033 124.418 256.589C124.427 256.558 124.432 256.519 124.438 256.479Z" fill="black"/>
<path opacity="0.1" d="M103.983 255.666C104.022 255.179 103.995 254.689 103.904 254.211C103.833 254.715 103.817 255.227 103.857 255.736C103.867 255.866 103.884 255.995 103.9 256.126C103.92 255.972 103.957 255.82 103.983 255.666Z" fill="black"/>
</g>
<path d="M181.312 275.439H166.214V286.629H181.312V275.439Z" fill="white"/>
<path opacity="0.1" d="M179.967 283.882C179.751 284.269 179.42 284.566 179.026 284.726C179.043 284.869 179.046 285.014 179.034 285.157L177.524 285.061L178.994 285.405C178.896 285.883 178.638 286.307 178.269 286.598H176.226V286.655H174.142C174.142 286.636 174.142 286.618 174.156 286.598C174.2 286.416 174.269 286.242 174.36 286.08C174.575 285.694 174.906 285.397 175.3 285.236C175.246 284.79 175.334 284.337 175.551 283.951C175.767 283.565 176.099 283.268 176.492 283.108C176.481 283.016 176.476 282.924 176.477 282.832L177.449 283.24L176.487 282.638C176.515 282.366 176.594 282.103 176.72 281.865C176.846 281.626 177.016 281.418 177.221 281.253L178.105 282.783L177.442 281.099C177.803 280.889 178.219 280.811 178.625 280.878C179.031 280.944 179.406 281.152 179.692 281.467C179.977 281.783 180.158 282.19 180.206 282.627C180.254 283.063 180.167 283.504 179.958 283.882H179.967Z" fill="#4C4981"/>
<path opacity="0.1" d="M178.774 286.016C178.645 286.246 178.474 286.446 178.271 286.604H176.226V286.661H174.142C174.142 286.641 174.142 286.623 174.156 286.604C174.2 286.421 174.269 286.247 174.36 286.086C174.575 285.699 174.906 285.402 175.3 285.242C175.283 285.097 175.687 285.116 176.226 285.213C177.279 285.403 178.846 285.889 178.774 286.016Z" fill="#4C4981"/>
<path opacity="0.1" d="M166.787 283.882C167.003 284.269 167.335 284.566 167.729 284.726C167.712 284.869 167.709 285.014 167.72 285.157L169.23 285.061L167.76 285.405C167.859 285.883 168.116 286.307 168.485 286.598H170.534V286.655H172.619C172.619 286.636 172.609 286.618 172.606 286.598C172.559 286.416 172.49 286.242 172.401 286.08C172.185 285.694 171.853 285.397 171.46 285.236C171.513 284.79 171.425 284.337 171.209 283.951C170.992 283.565 170.661 283.268 170.267 283.108C170.278 283.016 170.284 282.924 170.284 282.832L169.312 283.24L170.272 282.638C170.245 282.366 170.166 282.103 170.04 281.865C169.914 281.626 169.743 281.418 169.539 281.253L168.655 282.783L169.317 281.099C168.956 280.889 168.541 280.811 168.134 280.878C167.728 280.944 167.353 281.152 167.068 281.467C166.782 281.783 166.601 282.19 166.553 282.627C166.505 283.063 166.592 283.504 166.801 283.882H166.787Z" fill="#4C4981"/>
<path opacity="0.1" d="M167.98 286.016C168.109 286.246 168.28 286.446 168.484 286.604H170.532V286.661H172.617C172.617 286.641 172.607 286.623 172.604 286.604C172.558 286.422 172.489 286.248 172.399 286.086C172.183 285.7 171.851 285.402 171.458 285.242C171.475 285.097 171.07 285.116 170.532 285.213C169.475 285.403 167.903 285.889 167.98 286.016Z" fill="#4C4981"/>
<path d="M175.254 277.904H171.881V281.918H175.254V277.904Z" fill="#464353"/>
<path opacity="0.1" d="M175.254 277.904H171.881V281.918H175.254V277.904Z" fill="black"/>
<path d="M170.443 285.591L170.374 286.634H171.337L171.398 285.256L170.443 285.591Z" fill="#A1616A"/>
<path d="M175.516 285.591L175.37 286.634H176.253L176.308 285.256L175.516 285.591Z" fill="#A1616A"/>
<path d="M172.723 279.913C172.723 279.913 172.689 280.434 172.572 280.57C172.454 280.707 173.62 281.912 174.538 280.721C174.538 280.721 174.144 280.363 174.236 279.961C174.328 279.56 172.723 279.913 172.723 279.913Z" fill="#A1616A"/>
<path opacity="0.1" d="M172.723 279.913C172.723 279.913 172.689 280.434 172.572 280.57C172.454 280.707 173.62 281.912 174.538 280.721C174.538 280.721 174.144 280.363 174.236 279.961C174.328 279.56 172.723 279.913 172.723 279.913Z" fill="black"/>
<path d="M173.567 280.379C174.499 280.379 175.254 279.572 175.254 278.576C175.254 277.58 174.499 276.773 173.567 276.773C172.635 276.773 171.879 277.58 171.879 278.576C171.879 279.572 172.635 280.379 173.567 280.379Z" fill="#A1616A"/>
<path d="M173.479 281.031C173.479 281.031 172.771 281.018 172.666 280.328C172.526 280.458 172.378 280.578 172.223 280.687C172.154 280.712 171.478 281.12 171.351 281.146C171.226 281.173 171.11 281.234 171.015 281.325C170.848 281.465 170.712 281.642 170.615 281.843C170.519 282.045 170.465 282.267 170.456 282.493C170.433 283.301 170.341 284.88 170.341 284.88L170.376 285.451V285.824C170.376 285.824 171.003 286.003 171.382 285.645C171.382 285.645 171.382 285.509 171.453 285.466C171.523 285.423 171.533 285.242 171.522 285.166C171.516 285.055 171.516 284.943 171.522 284.831C171.534 284.892 171.567 284.945 171.616 284.98C171.643 285.081 171.651 285.187 171.639 285.292C171.604 285.365 171.569 285.539 171.604 285.577C171.622 285.61 171.629 285.649 171.625 285.687C171.62 285.725 171.605 285.76 171.58 285.788C171.516 285.884 171.466 285.989 171.429 286.1C171.429 286.1 171.394 286.322 171.359 286.347C171.319 286.438 171.292 286.535 171.278 286.634H175.472C175.398 286.407 175.342 286.174 175.305 285.937C175.316 285.826 175.201 285.365 175.281 285.242C175.4 285.078 175.465 284.877 175.467 284.67L175.514 285.154L175.387 286.229C175.387 286.229 176.165 286.491 176.248 286.328C176.335 286.044 176.401 285.753 176.445 285.459C176.445 285.459 176.632 284.563 176.679 284.439C176.726 284.315 176.83 281.83 176.201 281.47C175.571 281.11 174.385 280.49 174.355 280.52C174.288 280.701 174.164 280.851 174.004 280.945C173.844 281.038 173.658 281.068 173.479 281.031Z" fill="#4C4981"/>
<path opacity="0.1" d="M171.456 283.461C171.338 283.644 171.287 283.868 171.314 284.09C171.342 284.309 171.408 284.521 171.509 284.713" stroke="black" stroke-miterlimit="10"/>
<path opacity="0.1" d="M175.533 283.631C175.563 283.722 175.586 283.815 175.603 283.91C175.633 284.029 175.638 284.153 175.619 284.274C175.6 284.396 175.557 284.511 175.493 284.613" stroke="black" stroke-miterlimit="10"/>
<path d="M172.812 277.343C172.944 277.306 173.084 277.321 173.206 277.386C173.326 277.452 173.452 277.506 173.582 277.546C173.669 277.565 173.75 277.565 173.847 277.58C174.009 277.611 174.159 277.694 174.276 277.817C174.394 277.94 174.475 278.097 174.508 278.27C174.583 278.71 174.34 279.144 174.34 279.594C174.341 279.851 174.426 280.1 174.58 280.298C174.709 280.424 174.822 280.568 174.916 280.726C174.964 280.841 174.974 280.972 175.021 281.085C175.124 281.288 175.294 281.442 175.498 281.518C175.7 281.591 175.895 281.684 176.08 281.798C176.415 282.036 176.613 282.493 177.003 282.592C177.022 282.6 177.043 282.605 177.064 282.605C177.085 282.605 177.106 282.6 177.125 282.592C177.143 282.577 177.157 282.557 177.167 282.536C177.177 282.514 177.182 282.49 177.182 282.466C177.192 282.378 177.183 282.29 177.156 282.206C177.129 282.123 177.084 282.047 177.026 281.984C176.93 281.882 176.791 281.805 176.761 281.667C176.731 281.529 176.811 281.411 176.855 281.285C176.994 280.879 176.763 280.436 176.499 280.106C176.236 279.777 175.921 279.45 175.857 279.031C175.842 278.89 175.837 278.747 175.842 278.605C175.837 278.311 175.789 278.021 175.701 277.743C175.658 277.593 175.59 277.452 175.499 277.329C175.416 277.221 175.308 277.139 175.221 277.035C175.105 276.864 175.001 276.684 174.909 276.498C174.776 276.276 174.593 276.093 174.379 275.964C174.164 275.835 173.922 275.764 173.676 275.758C173.204 275.758 172.758 275.98 172.359 276.247C172.212 276.332 172.085 276.452 171.986 276.596C171.819 276.881 171.869 277.257 171.772 277.58C171.674 277.902 171.445 278.141 171.364 278.456C171.339 278.549 171.335 278.646 171.352 278.741C171.382 278.841 171.422 278.937 171.471 279.028C171.561 279.258 171.611 279.504 171.621 279.753C171.646 280.054 171.658 280.379 171.51 280.635C171.395 280.79 171.253 280.919 171.091 281.015C171.255 281.157 171.465 281.226 171.676 281.206C171.995 281.221 172.364 281.206 172.562 280.938C172.68 280.745 172.728 280.512 172.696 280.284C172.68 280.034 172.633 279.788 172.555 279.553C172.446 279.221 172.278 278.908 172.23 278.56C172.211 278.435 172.216 278.306 172.245 278.183C172.273 278.06 172.325 277.944 172.397 277.843C172.458 277.763 172.565 277.721 172.616 277.635C172.679 277.521 172.661 277.401 172.812 277.343Z" fill="#464353"/>
<g opacity="0.1">
<path opacity="0.1" d="M171.47 279.004C171.559 279.235 171.61 279.481 171.619 279.73C171.619 279.809 171.631 279.889 171.633 279.97C171.65 279.795 171.65 279.618 171.633 279.443C171.623 279.197 171.572 278.954 171.484 278.727C171.436 278.636 171.396 278.541 171.365 278.442C171.34 278.534 171.336 278.631 171.353 278.725C171.383 278.822 171.422 278.916 171.47 279.004Z" fill="black"/>
<path opacity="0.1" d="M172.577 280.656C172.379 280.923 172.01 280.939 171.691 280.927C171.556 280.927 171.422 280.906 171.293 280.862C171.23 280.918 171.161 280.97 171.094 281.02C171.258 281.163 171.468 281.231 171.679 281.212C171.998 281.226 172.367 281.212 172.565 280.943C172.678 280.764 172.727 280.547 172.703 280.332C172.688 280.45 172.644 280.562 172.577 280.656Z" fill="black"/>
<path opacity="0.1" d="M176.773 281.373C176.777 281.394 176.784 281.413 176.792 281.432C176.812 281.382 176.836 281.33 176.854 281.278C176.893 281.16 176.905 281.033 176.887 280.909C176.881 280.938 176.874 280.966 176.865 280.993C176.822 281.119 176.744 281.244 176.773 281.373Z" fill="black"/>
<path opacity="0.1" d="M174.518 278.356C174.537 278.233 174.537 278.108 174.518 277.985C174.485 277.812 174.404 277.654 174.287 277.531C174.169 277.408 174.019 277.326 173.857 277.295C173.768 277.279 173.679 277.279 173.592 277.261C173.462 277.22 173.336 277.167 173.216 277.101C173.094 277.035 172.954 277.019 172.822 277.057C172.671 277.114 172.689 277.236 172.622 277.354C172.574 277.44 172.465 277.483 172.404 277.562C172.271 277.751 172.211 277.988 172.236 278.223C172.257 278.086 172.311 277.957 172.392 277.849C172.453 277.768 172.56 277.727 172.61 277.641C172.678 277.521 172.659 277.401 172.81 277.343C172.942 277.306 173.082 277.321 173.204 277.386C173.324 277.452 173.45 277.506 173.58 277.546C173.667 277.565 173.748 277.565 173.845 277.58C174.007 277.611 174.157 277.694 174.275 277.817C174.392 277.94 174.473 278.097 174.506 278.27C174.512 278.298 174.516 278.327 174.518 278.356Z" fill="black"/>
<path opacity="0.1" d="M177.13 282.299C177.09 282.316 177.047 282.316 177.007 282.299C176.618 282.201 176.417 281.744 176.085 281.506C175.899 281.394 175.704 281.3 175.502 281.226C175.299 281.151 175.129 280.997 175.026 280.794C174.979 280.678 174.969 280.549 174.92 280.436C174.827 280.278 174.714 280.134 174.585 280.008C174.445 279.83 174.361 279.61 174.343 279.379C174.333 279.448 174.328 279.518 174.328 279.588C174.331 279.849 174.42 280.101 174.58 280.298C174.709 280.424 174.822 280.568 174.915 280.726C174.964 280.841 174.974 280.972 175.021 281.085C175.124 281.288 175.294 281.442 175.497 281.518C175.7 281.591 175.895 281.684 176.08 281.798C176.415 282.036 176.613 282.493 177.002 282.592C177.022 282.6 177.042 282.605 177.064 282.605C177.085 282.605 177.105 282.6 177.125 282.592C177.142 282.576 177.157 282.557 177.166 282.536C177.176 282.514 177.182 282.49 177.182 282.466C177.189 282.398 177.186 282.33 177.172 282.264C177.161 282.279 177.147 282.292 177.13 282.299Z" fill="black"/>
</g>
<path opacity="0.1" d="M169.911 276.261H167.754V279.553H169.911V276.261Z" fill="#4C4981"/>
<path opacity="0.1" d="M169.603 276.732H168.062V279.083H169.603V276.732Z" fill="#4C4981"/>
<path opacity="0.1" d="M180.541 276.756H176.998V278.73H180.541V276.756Z" fill="#4C4981"/>
<path opacity="0.1" d="M180.079 277.014H177.46V278.474H180.079V277.014Z" fill="#4C4981"/>
</g>
</g>
<g filter="url(#filter2_d)">
<rect x="127.793" y="16" width="221.849" height="184" rx="10" fill="white"/>
<g clip-path="url(#clip2)" filter="url(#filter3_d)">
<path d="M269.838 74.8605C271.987 75.7737 274.088 76.7082 276.141 77.664" stroke="#2F2E41" stroke-miterlimit="10"/>
<path d="M229.838 69.2018C239.214 70.8336 249.449 73.6506 259.761 77.6261C267.229 80.4865 274.376 83.8626 281.12 87.7165" stroke="#2F2E41" stroke-miterlimit="10"/>
<path d="M198.632 179.318H294.763" stroke="#3F3D56" stroke-miterlimit="10"/>
<path d="M221.066 67.9941C223.883 68.2729 226.816 68.6758 229.838 69.2018" stroke="#2F2E41" stroke-miterlimit="10"/>
<path d="M193.495 91.655C188.29 85.5238 186.502 79.7309 189.176 75.237C192.134 70.2664 200.051 67.7238 210.784 67.5366" stroke="#2F2E41" stroke-miterlimit="10"/>
<path d="M303.104 105.35C307.442 110.971 308.788 116.241 306.314 120.4C304.136 124.059 299.271 126.402 292.573 127.459" stroke="#2F2E41" stroke-miterlimit="10"/>
<path d="M281.12 87.7166C285.468 90.1986 289.578 92.9403 293.414 95.9186" stroke="#2F2E41" stroke-miterlimit="10"/>
<path d="M190.613 60.3511C199.252 58.8571 210.433 59.1226 222.937 61.1066" stroke="#2F2E41" stroke-miterlimit="10"/>
<path d="M316.361 105.349C320.229 109.897 322.608 114.298 323.23 118.306" stroke="#2F2E41" stroke-miterlimit="10"/>
<path d="M276.141 77.664C280.021 79.4696 283.712 81.3371 287.215 83.2664" stroke="#2F2E41" stroke-miterlimit="10"/>
<path d="M281.701 144.65C280.708 144.695 279.751 144.961 278.937 145.42C278.123 145.878 277.483 146.51 277.09 147.245C275.937 149.488 277.421 152.123 279.65 153.759C281.878 155.395 284.741 156.33 287.342 157.559C290.836 159.21 293.975 161.502 295.723 164.443C297.471 167.385 297.657 171.029 295.603 173.839C293.695 176.448 290.227 178.009 286.92 179.449" stroke="#3F3D56" stroke-miterlimit="10"/>
<path d="M284.638 146.437C286.887 146.437 288.711 145.724 288.711 144.845C288.711 143.965 286.887 143.252 284.638 143.252C282.388 143.252 280.564 143.965 280.564 144.845C280.564 145.724 282.388 146.437 284.638 146.437Z" fill="#57B894"/>
<path d="M287.897 156.929C290.146 156.929 291.97 156.216 291.97 155.337C291.97 154.457 290.146 153.744 287.897 153.744C285.647 153.744 283.823 154.457 283.823 155.337C283.823 156.216 285.647 156.929 287.897 156.929Z" fill="#57B894"/>
<path d="M280.448 158.616C282.698 158.616 284.521 157.903 284.521 157.023C284.521 156.144 282.698 155.431 280.448 155.431C278.198 155.431 276.375 156.144 276.375 157.023C276.375 157.903 278.198 158.616 280.448 158.616Z" fill="#57B894"/>
<path d="M292.086 167.421C294.336 167.421 296.16 166.708 296.16 165.829C296.16 164.949 294.336 164.236 292.086 164.236C289.837 164.236 288.013 164.949 288.013 165.829C288.013 166.708 289.837 167.421 292.086 167.421Z" fill="#57B894"/>
<path d="M300.233 167.421C302.483 167.421 304.306 166.708 304.306 165.829C304.306 164.949 302.483 164.236 300.233 164.236C297.983 164.236 296.16 164.949 296.16 165.829C296.16 166.708 297.983 167.421 300.233 167.421Z" fill="#57B894"/>
<path d="M259.872 82.8087H262.167C262.167 82.8087 264.27 95.8922 262.741 97.1236C261.211 98.355 257.004 99.1246 256.43 97.1236C255.856 95.1226 256.43 87.7343 256.43 87.7343L259.872 82.8087Z" fill="#4C4981"/>
<path d="M244.861 84.5789C252.57 84.5789 258.82 78.6868 258.82 71.4185C258.82 64.1502 252.57 58.2581 244.861 58.2581C237.151 58.2581 230.901 64.1502 230.901 71.4185C230.901 78.6868 237.151 84.5789 244.861 84.5789Z" fill="#2F2E41"/>
<path d="M241.705 73.8812C241.705 73.8812 242.47 78.9607 240.176 80.0381C237.881 81.1156 242.853 87.2725 242.853 87.2725L248.781 88.5039L252.797 84.0401L252.032 79.4224C252.032 79.4224 247.442 75.7283 249.546 72.342L241.705 73.8812Z" fill="#FFC1C7"/>
<path opacity="0.1" d="M241.705 73.8812C241.705 73.8812 242.47 78.9607 240.176 80.0381C237.881 81.1156 242.853 87.2725 242.853 87.2725L248.781 88.5039L252.797 84.0401L252.032 79.4224C252.032 79.4224 247.442 75.7283 249.546 72.342L241.705 73.8812Z" fill="black"/>
<path d="M233.1 129.02C233.1 129.02 230.805 145.797 233.1 149.799C235.395 153.801 241.514 165.037 241.514 165.037L239.602 168.27L244.765 167.346L246.869 164.114C246.869 164.114 244.383 156.264 244 153.493C243.618 150.723 240.749 145.643 240.749 145.643L246.104 127.326L233.1 129.02Z" fill="#FFC1C7"/>
<path d="M251.267 126.215C251.267 126.215 251.458 143.147 252.797 145.773L252.032 168.707L256.239 169.159C256.239 169.159 262.358 149.919 261.402 145.301C260.446 140.684 261.593 124.06 261.593 124.06L251.267 126.215Z" fill="#FFC1C7"/>
<path d="M244.861 75.9592C248.874 75.9592 252.127 73.3405 252.127 70.1101C252.127 66.8798 248.874 64.261 244.861 64.261C240.847 64.261 237.594 66.8798 237.594 70.1101C237.594 73.3405 240.847 75.9592 244.861 75.9592Z" fill="#FFC1C7"/>
<path d="M269.625 128.37C269.625 128.37 264.462 131.141 262.358 129.14C260.255 127.139 234.439 130.371 231.188 129.755C227.937 129.14 232.909 119.288 232.909 114.209C232.909 110.409 234.622 104.627 235.485 101.955C235.776 101.056 235.969 100.51 235.969 100.51C235.969 100.51 237.931 96.0169 237.564 94.1498C237.539 94.0083 237.49 93.87 237.42 93.7388C237.389 93.6839 237.352 93.6318 237.307 93.5833C236.391 92.5998 233.766 85.427 232.746 82.347C232.58 81.8912 232.443 81.4288 232.335 80.9617C232.335 80.4999 239.411 79.1146 241.18 79.0484C242.95 78.9822 243.427 80.9617 243.427 80.9617C244 81.2695 246.677 86.6568 246.677 86.6568L249.163 81.5774C249.163 81.5774 248.972 80.4999 248.781 80.4999C248.59 80.4999 251.609 79.0469 251.609 79.0469C251.609 79.0469 254.709 80.8077 256.43 80.4999C258.151 80.1921 262.167 82.9627 262.167 82.9627C262.167 82.9627 255.091 97.2775 257.96 100.356C260.828 103.434 269.625 128.37 269.625 128.37Z" fill="#4C4981"/>
<path d="M246.295 163.498C246.295 163.498 243.044 166.115 243.044 166.423L240.367 165.499C240.367 165.499 239.22 168.886 239.028 169.347C238.837 169.809 235.586 173.965 232.335 175.812C229.084 177.659 232.335 179.968 235.204 179.506C238.072 179.044 245.339 173.811 245.339 173.811C245.339 173.811 250.311 173.811 252.032 170.733C252.032 170.733 247.442 163.19 246.295 163.498Z" fill="#2F2E41"/>
<path d="M255.856 167.938C255.856 167.938 250.944 165.065 250.627 167.733C250.311 170.401 250.311 176.25 250.311 176.25C250.311 176.25 248.781 180.098 253.561 179.636C258.342 179.174 258.725 178.097 258.725 178.097L256.43 170.708V167.476L255.856 167.938Z" fill="#2F2E41"/>
<path opacity="0.1" d="M237.307 93.5834C236.391 92.5998 233.766 85.427 232.746 82.347H233.674C233.674 82.347 236.003 89.6845 237.42 93.7388C237.389 93.6839 237.352 93.6318 237.307 93.5834Z" fill="black"/>
<path opacity="0.1" d="M249.928 103.742C249.928 103.742 247.251 103.896 237.498 102.357C236.819 102.252 236.147 102.118 235.485 101.955C235.776 101.056 235.969 100.51 235.969 100.51C235.969 100.51 237.931 96.0169 237.564 94.1498C238.021 95.4427 238.361 96.3155 238.455 96.354C238.837 96.5079 251.076 98.201 252.797 98.8167C254.518 99.4324 249.928 103.742 249.928 103.742Z" fill="black"/>
<path opacity="0.1" d="M253.37 83.597C253.37 83.597 258.645 83.0732 258.972 83.7615C259.298 84.4499 260.637 91.1027 261.211 91.9556C261.784 92.8085 261.976 98.0966 259.681 98.2672C257.386 98.4377 254.327 96.5613 254.9 95.0261C255.474 93.4908 253.37 83.597 253.37 83.597Z" fill="black"/>
<path d="M250.693 97.7393C250.693 97.7393 258.725 98.5089 260.063 97.7393C261.402 96.9696 266.948 96.9697 265.8 99.1246C264.653 101.279 254.709 101.433 254.709 101.433H248.972L250.693 97.7393Z" fill="#FFC1C7"/>
<path d="M233.674 81.2695H232.335C232.335 81.2695 229.658 81.7313 230.041 88.5039C230.423 95.2765 227.746 99.7403 237.498 101.279C247.251 102.819 249.928 102.665 249.928 102.665C249.928 102.665 254.518 98.355 252.797 97.7393C251.076 97.1236 238.837 95.4304 238.455 95.2765C238.072 95.1226 233.674 81.2695 233.674 81.2695Z" fill="#4C4981"/>
<path d="M258.825 84.3076C258.825 84.3076 255.474 74.1891 252.797 74.1891C250.119 74.1891 247.06 74.6508 249.354 76.6518C251.649 78.6528 254.518 80.8077 254.709 81.8852C254.9 82.9627 255.665 84.5019 255.665 84.5019L258.825 84.3076Z" fill="#FFC1C7"/>
<path d="M254.135 83.597C254.135 83.597 259.41 83.0732 259.737 83.7615C260.063 84.4499 261.402 91.1027 261.976 91.9556C262.549 92.8085 262.741 98.0966 260.446 98.2672C258.151 98.4377 255.091 96.5613 255.665 95.0261C256.239 93.4908 254.135 83.597 254.135 83.597Z" fill="#4C4981"/>
<path d="M242.948 70.1101C246.75 70.1101 249.833 67.6292 249.833 64.5689C249.833 61.5086 246.75 59.0277 242.948 59.0277C239.146 59.0277 236.064 61.5086 236.064 64.5689C236.064 67.6292 239.146 70.1101 242.948 70.1101Z" fill="#2F2E41"/>
<path d="M270.689 127.209C260.006 125.792 247.92 122.711 235.729 118.011C221.848 112.659 210.085 106.077 201.703 99.4246" stroke="#2F2E41" stroke-miterlimit="10"/>
<path d="M227.374 120.906C217.817 116.92 209.164 112.489 201.703 107.876" stroke="#2F2E41" stroke-miterlimit="10"/>
<path d="M159.813 58.6147C166.141 58.6147 171.271 54.4855 171.271 49.3918C171.271 44.2982 166.141 40.1689 159.813 40.1689C153.484 40.1689 148.354 44.2982 148.354 49.3918C148.354 54.4855 153.484 58.6147 159.813 58.6147Z" fill="#4C4981"/>
<path d="M162.5 54.8573C168.829 54.8573 173.959 50.728 173.959 45.6344C173.959 40.5407 168.829 36.4114 162.5 36.4114C156.172 36.4114 151.042 40.5407 151.042 45.6344C151.042 50.728 156.172 54.8573 162.5 54.8573Z" stroke="#2F2E41" stroke-miterlimit="10"/>
<path d="M319.12 88.0712C322.802 88.0712 325.786 85.6687 325.786 82.7051C325.786 79.7415 322.802 77.339 319.12 77.339C315.438 77.339 312.453 79.7415 312.453 82.7051C312.453 85.6687 315.438 88.0712 319.12 88.0712Z" fill="#F2F2F2"/>
<path d="M320.684 85.885C324.366 85.885 327.35 83.4825 327.35 80.5189C327.35 77.5553 324.366 75.1529 320.684 75.1529C317.002 75.1529 314.017 77.5553 314.017 80.5189C314.017 83.4825 317.002 85.885 320.684 85.885Z" stroke="#2F2E41" stroke-miterlimit="10"/>
<path d="M197.508 146.355C202.8 146.355 207.091 142.901 207.091 138.641C207.091 134.381 202.8 130.927 197.508 130.927C192.215 130.927 187.924 134.381 187.924 138.641C187.924 142.901 192.215 146.355 197.508 146.355Z" fill="#F2F2F2"/>
<path d="M199.756 143.212C205.048 143.212 209.339 139.758 209.339 135.498C209.339 131.238 205.048 127.785 199.756 127.785C194.463 127.785 190.172 131.238 190.172 135.498C190.172 139.758 194.463 143.212 199.756 143.212Z" stroke="#2F2E41" stroke-miterlimit="10"/>
</g>
</g>
<defs>
<filter id="filter0_d" x="111.793" y="322" width="261.849" height="224" filterUnits="userSpaceOnUse" color-interpolation-filters="sRGB">
<feFlood flood-opacity="0" result="BackgroundImageFix"/>
<feColorMatrix in="SourceAlpha" type="matrix" values="0 0 0 0 0 0 0 0 0 0 0 0 0 0 0 0 0 0 127 0"/>
<feOffset dx="4" dy="4"/>
<feGaussianBlur stdDeviation="10"/>
<feColorMatrix type="matrix" values="0 0 0 0 0 0 0 0 0 0 0 0 0 0 0 0 0 0 0.25 0"/>
<feBlend mode="normal" in2="BackgroundImageFix" result="effect1_dropShadow"/>
<feBlend mode="normal" in="SourceGraphic" in2="effect1_dropShadow" result="shape"/>
</filter>
<filter id="filter1_d" x="0.868652" y="164" width="261.849" height="224" filterUnits="userSpaceOnUse" color-interpolation-filters="sRGB">
<feFlood flood-opacity="0" result="BackgroundImageFix"/>
<feColorMatrix in="SourceAlpha" type="matrix" values="0 0 0 0 0 0 0 0 0 0 0 0 0 0 0 0 0 0 127 0"/>
<feOffset dx="4" dy="4"/>
<feGaussianBlur stdDeviation="10"/>
<feColorMatrix type="matrix" values="0 0 0 0 0 0 0 0 0 0 0 0 0 0 0 0 0 0 0.25 0"/>
<feBlend mode="normal" in2="BackgroundImageFix" result="effect1_dropShadow"/>
<feBlend mode="normal" in="SourceGraphic" in2="effect1_dropShadow" result="shape"/>
</filter>
<filter id="filter2_d" x="111.793" y="0" width="261.849" height="224" filterUnits="userSpaceOnUse" color-interpolation-filters="sRGB">
<feFlood flood-opacity="0" result="BackgroundImageFix"/>
<feColorMatrix in="SourceAlpha" type="matrix" values="0 0 0 0 0 0 0 0 0 0 0 0 0 0 0 0 0 0 127 0"/>
<feOffset dx="4" dy="4"/>
<feGaussianBlur stdDeviation="10"/>
<feColorMatrix type="matrix" values="0 0 0 0 0 0 0 0 0 0 0 0 0 0 0 0 0 0 0.25 0"/>
<feBlend mode="normal" in2="BackgroundImageFix" result="effect1_dropShadow"/>
<feBlend mode="normal" in="SourceGraphic" in2="effect1_dropShadow" result="shape"/>
</filter>
<filter id="filter3_d" x="144.354" y="36.3256" width="187.102" height="151.349" filterUnits="userSpaceOnUse" color-interpolation-filters="sRGB">
<feFlood flood-opacity="0" result="BackgroundImageFix"/>
<feColorMatrix in="SourceAlpha" type="matrix" values="0 0 0 0 0 0 0 0 0 0 0 0 0 0 0 0 0 0 127 0"/>
<feOffset dy="4"/>
<feGaussianBlur stdDeviation="2"/>
<feColorMatrix type="matrix" values="0 0 0 0 0 0 0 0 0 0 0 0 0 0 0 0 0 0 0.25 0"/>
<feBlend mode="normal" in2="BackgroundImageFix" result="effect1_dropShadow"/>
<feBlend mode="normal" in="SourceGraphic" in2="effect1_dropShadow" result="shape"/>
</filter>
<linearGradient id="paint0_linear" x1="238.227" y1="494.845" x2="238.227" y2="378.598" gradientUnits="userSpaceOnUse">
<stop stop-color="#808080" stop-opacity="0.25"/>
<stop offset="0.54" stop-color="#808080" stop-opacity="0.12"/>
<stop offset="1" stop-color="#808080" stop-opacity="0.1"/>
</linearGradient>
<linearGradient id="paint1_linear" x1="30140.2" y1="40316.3" x2="30140.2" y2="12395.5" gradientUnits="userSpaceOnUse">
<stop stop-color="#808080" stop-opacity="0.25"/>
<stop offset="0.54" stop-color="#808080" stop-opacity="0.12"/>
<stop offset="1" stop-color="#808080" stop-opacity="0.1"/>
</linearGradient>
<clipPath id="clip0">
<rect width="177.879" height="124" fill="white" transform="translate(148.779 375)"/>
</clipPath>
<clipPath id="clip1">
<rect width="193.868" height="125" fill="white" transform="translate(28.8604 204)"/>
</clipPath>
<clipPath id="clip2">
<rect width="179.102" height="143.349" fill="white" transform="translate(148.354 36.3256)"/>
</clipPath>
</defs>
</svg>
