<svg width="701" height="500" viewBox="0 0 701 500" fill="none" xmlns="http://www.w3.org/2000/svg">
<rect width="699.523" height="500" transform="translate(0.526611)" fill="#091E42"/>
<path d="M408.685 408.005V431.951H415.35L414.059 406.245L408.685 408.005Z" fill="#AAABB0"/>
<path d="M308.565 403.173V427.119H315.236L313.946 401.413L308.565 403.173Z" fill="#AAABB0"/>
<path d="M425.028 368.021C425.028 365.593 423.103 363.625 420.728 363.625C418.353 363.625 416.427 365.593 416.427 368.021V401.855C416.427 404.283 418.353 406.251 420.728 406.251C423.103 406.251 425.028 404.283 425.028 401.855V368.021Z" fill="#AAABB0"/>
<path d="M314.694 358.569C314.694 356.141 312.769 354.173 310.394 354.173C308.019 354.173 306.093 356.141 306.093 358.569V401.848C306.093 404.276 308.019 406.245 310.394 406.245C312.769 406.245 314.694 404.276 314.694 401.848V358.569Z" fill="#AAABB0"/>
<path d="M436.003 108.54C436.003 108.54 444.604 104.803 445.895 108.54C447.185 112.277 447.83 144.575 447.83 144.575H439.655L436.003 108.54Z" fill="#AAABB0"/>
<path d="M341.8 108.54C341.8 108.54 333.193 104.803 331.902 108.54C330.612 112.277 329.967 144.575 329.967 144.575H338.142L341.8 108.54Z" fill="#AAABB0"/>
<path d="M343.084 76.4597L341.794 103.267H347.601V75.8005L343.084 76.4597Z" fill="#AAABB0"/>
<path d="M338.142 144.575L339.865 105.903C339.865 105.903 339.219 97.3345 359.647 99.971C380.075 102.608 439.875 107.881 439.875 107.881V144.575H338.142Z" fill="#33323D"/>
<path d="M419.873 348.247L416.647 407.345C416.647 407.345 369.326 434.152 311.9 408.664L317.062 346.487L419.873 348.247Z" fill="#33323D"/>
<path d="M374.92 115.566L375.991 153.796H442.668L438.797 103.267L374.92 115.566Z" fill="#444053"/>
<path d="M381.695 322.976H318.888V404.267H381.695V322.976Z" fill="#4C4981"/>
<path d="M358.576 356.157C358.576 356.157 367.609 348.906 369.113 351.101C370.616 353.296 363.745 362.748 360.944 361.648C358.144 360.547 358.576 356.157 358.576 356.157Z" fill="#FFB9B9"/>
<g filter="url(#filter0_d)">
<path d="M612.11 142H54.4897V353H612.11V142Z" fill="white"/>
</g>
<path d="M338.355 74.9238C338.355 74.9238 335.129 44.162 338.355 40.4313C341.581 36.7006 395.78 1.31822 445.895 42.8437C445.895 42.8437 450.624 43.0678 449.766 54.049C449.26 60.9991 449.295 67.9793 449.869 74.9238C449.869 74.9238 342.013 82.8334 338.355 74.9238Z" fill="#33323D"/>
<path opacity="0.1" d="M338.355 74.9238C338.355 74.9238 335.129 44.162 338.355 40.4313C341.581 36.7006 395.78 1.31822 445.895 42.8437C445.895 42.8437 450.624 43.0678 449.766 54.049C449.26 60.9991 449.295 67.9793 449.869 74.9238C449.869 74.9238 342.013 82.8334 338.355 74.9238Z" fill="black"/>
<g filter="url(#filter1_d)">
<path d="M343.562 142.026L288.33 161.964L314.855 235.542L370.087 215.604L343.562 142.026Z" fill="white"/>
<path opacity="0.1" d="M343.562 142.026L288.33 161.964L314.855 235.542L370.087 215.604L343.562 142.026Z" fill="black"/>
<path opacity="0.1" d="M366.221 138.724L315.237 167.939L353.588 236.044L404.572 206.83L366.221 138.724Z" fill="black"/>
<path d="M358.228 205.745L346.249 212.609L355.259 228.609L367.238 221.746L358.228 205.745Z" fill="#091E42"/>
<path d="M374.802 196.244L362.823 203.108L371.834 219.108L383.812 212.244L374.802 196.244Z" fill="#091E42"/>
<path d="M378.31 166.77L336.297 190.827L345.343 206.902L387.356 182.845L378.31 166.77Z" fill="#091E42"/>
</g>
<g filter="url(#filter2_d)">
<path d="M338.355 78.8787C338.355 78.8787 335.129 48.1168 338.355 44.3861C341.581 40.6554 395.78 5.27305 445.895 46.7986C445.895 46.7986 450.624 47.0227 449.766 58.0039C449.26 64.954 449.295 71.9341 449.869 78.8787C449.869 78.8787 342.013 86.7883 338.355 78.8787Z" fill="#33323D"/>
</g>
<path d="M451.702 64.8193C451.702 64.8193 455.141 78.002 454.07 80.197C452.999 82.3919 453.192 88.5482 453.192 88.5482C453.192 88.5482 453.425 92.503 451.702 92.938C449.979 93.3731 448.476 93.5972 449.869 94.9154C451.263 96.2337 449.869 98.2111 449.869 98.2111C449.869 98.2111 449.114 101.289 449.869 103.267C450.624 105.244 445.456 106.068 445.895 108.54C446.333 111.012 447.779 117.985 445.895 118.209C444.011 118.433 446.54 126.996 444.843 126.996C443.146 126.996 441.939 142.373 441.939 142.373C441.939 142.373 430.003 132.051 422.047 134.905C422.047 134.905 422.692 126.336 425.273 123.258C427.854 120.18 427.073 112.277 427.073 112.277L439.875 72.9465L451.702 64.8193Z" fill="#4A4A7D"/>
<path d="M387.824 246.596C385.03 249.753 382.017 232.892 382.017 232.892C382.017 232.892 374.062 244.097 368.9 236.629C365.325 231.455 368.145 216.796 370.19 208.287C371.107 204.503 371.881 201.933 371.881 201.933L383.495 199.955C383.495 199.955 383.534 202.539 383.792 205.676C384.14 209.915 384.895 215.175 386.502 216.434C389.334 218.615 390.625 243.412 387.824 246.596Z" fill="#AE6E79"/>
<path opacity="0.1" d="M381.804 49.2177C381.804 49.2177 361.583 49.0001 356.64 59.9813C351.698 70.9625 351.479 74.7064 349.543 76.4597C347.607 78.213 370.616 87.4475 370.616 87.4475L371.693 125.236C371.693 125.236 376.21 120.562 383.521 122.678C390.831 124.794 400.083 122.678 400.083 122.678C400.083 122.678 399.651 121.881 405.678 122.678C411.704 123.476 430.841 113.154 430.841 113.154C430.841 113.154 431.158 96.6227 430.732 93.1029C430.306 89.5831 444.385 63.7186 444.385 63.7186C444.385 63.7186 455.354 52.955 443.959 49.2177C443.959 49.2177 439.926 43.0086 429.551 43.0679C419.176 43.1272 381.804 49.2177 381.804 49.2177Z" fill="black"/>
<path d="M381.804 48.5585C381.804 48.5585 361.583 48.341 356.64 59.3222C351.698 70.3033 351.479 74.0472 349.543 75.8005C347.607 77.5538 370.616 86.7883 370.616 86.7883L371.693 124.577C371.693 124.577 376.21 119.903 383.521 122.019C390.831 124.135 400.083 122.019 400.083 122.019C400.083 122.019 399.651 121.222 405.678 122.019C411.704 122.817 430.842 112.495 430.842 112.495C430.842 112.495 438.365 99.971 437.939 96.4578C437.513 92.9446 452.992 66.3551 452.992 66.3551C452.992 66.3551 455.36 52.2958 443.959 48.5585C443.959 48.5585 439.926 42.3494 429.551 42.4087C419.176 42.4681 381.804 48.5585 381.804 48.5585Z" fill="#4A4A7D"/>
<path opacity="0.1" d="M383.843 205.657C379.411 204.246 372.455 207.357 370.242 208.293C371.158 204.51 371.932 201.939 371.932 201.939L383.547 199.962C383.547 199.962 383.566 202.545 383.843 205.657Z" fill="black"/>
<path d="M355.776 75.8005H349.543C349.543 75.8005 348.253 89.2073 349.543 93.1621C350.833 97.117 351.479 96.5435 351.046 99.4701C350.614 102.397 354.06 106.879 354.06 106.879C354.06 106.879 354.485 117.926 356.641 122.039C358.796 126.152 354.273 144.594 354.273 144.594C355.506 147.778 357.331 150.688 359.647 153.163C363.306 156.894 365.241 170.736 364.164 176.009C363.086 181.282 367.177 183.259 367.177 183.259C367.177 183.259 368.9 207.871 369.545 207.871C370.19 207.871 382.663 201.28 386.534 206.988L383.521 184.36L383.74 140.64C383.74 140.64 379.649 135.142 381.804 130.311C383.959 125.48 380.082 114.05 380.082 114.05L374.487 88.568L355.776 75.8005Z" fill="#4A4A7D"/>
<path d="M317.062 423.165C317.062 423.165 308.029 421.187 307.816 423.165C307.603 425.142 297.06 445.358 310.184 451.29C323.308 457.222 358.357 469.963 415.356 453.485C415.356 453.485 419.008 454.803 418.15 446.676C417.292 438.549 417.292 429.538 417.292 429.538C417.292 429.538 408.685 427.119 402.232 428.003C395.78 428.886 339.645 440.526 317.062 423.165Z" fill="#33323D"/>
<path opacity="0.1" d="M317.062 423.165C317.062 423.165 308.029 421.187 307.816 423.165C307.603 425.142 297.06 445.358 310.184 451.29C323.308 457.222 358.357 469.963 415.356 453.485C415.356 453.485 419.008 454.803 418.15 446.676C417.292 438.549 417.292 429.538 417.292 429.538C417.292 429.538 408.685 427.119 402.232 428.003C395.78 428.886 339.645 440.526 317.062 423.165Z" fill="black"/>
<g filter="url(#filter3_d)">
<path d="M317.062 420.528C317.062 420.528 308.029 418.551 307.816 420.528C307.603 422.505 297.06 442.721 310.184 448.653C323.308 454.586 358.357 467.327 415.356 450.848C415.356 450.848 419.008 452.166 418.15 444.039C417.292 435.912 417.292 426.902 417.292 426.902C417.292 426.902 408.685 424.483 402.232 425.366C395.78 426.249 339.645 437.89 317.062 420.528Z" fill="#33323D"/>
</g>
<path d="M369.739 83.6969C369.184 86.9201 367.926 90.018 367.732 93.2808C367.538 96.5435 368.771 100.254 371.72 101.533C372.542 101.784 373.34 102.115 374.1 102.522C375.236 103.306 375.701 104.783 375.939 106.167C376.256 107.954 376.332 109.777 376.165 111.585C376.004 113.404 375.623 115.362 376.501 116.95C378.043 119.765 382.062 119.35 385.121 118.559L384.069 126.883C383.985 127.543 383.934 128.287 384.405 128.736C384.627 128.896 384.879 129.009 385.145 129.067C385.411 129.126 385.686 129.13 385.953 129.078C388.612 128.907 391.347 128.531 393.625 127.101C395.903 125.671 397.6 123.008 397.167 120.325C396.664 117.214 393.515 114.742 393.941 111.618C394.27 109.199 396.587 107.663 398.109 105.804C400.864 102.403 401.013 97.2356 398.851 93.3862C396.69 89.5369 392.515 87.1508 388.218 86.7158C385.837 86.4719 383.359 86.7685 381.12 85.9248C380.341 85.6329 379.639 85.1609 379.068 84.5458C378.497 83.9306 378.074 83.1889 377.83 82.3787" fill="#444053"/>
<path d="M294.699 376.808L296.951 371.798C296.951 371.798 309.107 360.23 311.9 359.42C314.694 358.609 326.095 355.076 327.818 355.076C329.541 355.076 360.944 353.316 360.944 353.316L364.596 362.109L325.186 370.948L311.9 380.835L294.699 376.808Z" fill="#767D9F"/>
<path d="M389.386 241.903L387.328 258.084L386.534 264.313L377.288 265.631C377.288 265.631 376.288 263.443 374.875 260.082C370.584 249.878 362.506 228.839 367.19 225.207C373.417 220.369 374.933 236.412 374.933 236.412L382.03 232.892L389.386 241.903Z" fill="#FFB9B9"/>
<g filter="url(#filter4_d)">
<path d="M328.03 266.075H281.335V338.138H328.03V266.075Z" fill="white"/>
<path opacity="0.1" d="M328.03 266.075H281.335V338.138H328.03V266.075Z" fill="black"/>
<path opacity="0.1" d="M349.017 269.977L302.824 263L292.507 334.288L338.7 341.265L349.017 269.977Z" fill="black"/>
<path d="M330.949 273.39L307.173 269.799L301.863 306.49L325.639 310.081L330.949 273.39Z" fill="#091E42"/>
<path d="M328.12 321.282L299.313 316.931L298.16 324.899L326.966 329.25L328.12 321.282Z" fill="#091E42"/>
</g>
<path opacity="0.1" d="M400.084 90.1895C414.99 90.1895 427.073 77.8453 427.073 62.6179C427.073 47.3905 414.99 35.0463 400.084 35.0463C385.178 35.0463 373.094 47.3905 373.094 62.6179C373.094 77.8453 385.178 90.1895 400.084 90.1895Z" fill="black"/>
<path d="M400.084 89.5303C414.99 89.5303 427.073 77.1861 427.073 61.9587C427.073 46.7313 414.99 34.3871 400.084 34.3871C385.178 34.3871 373.094 46.7313 373.094 61.9587C373.094 77.1861 385.178 89.5303 400.084 89.5303Z" fill="#AE6E79"/>
<path d="M377.83 82.3919C377.646 81.6817 377.712 80.9283 378.017 80.2629C379.043 78.0812 381.966 77.89 384.334 78.0021C389.902 78.2657 396.012 78.2987 400.367 74.7064C402.174 73.2299 404.194 69.519 406.82 70.2243C409.155 70.8505 410.13 74.0868 412.562 74.8053C414.324 75.326 416.15 74.4955 417.943 74.1461C420.524 73.6254 423.17 74.0605 425.789 74.0802C428.409 74.1 431.254 73.5925 433.042 71.6348C435.455 68.9983 435.061 64.8787 434.848 61.2666C434.584 56.6008 434.894 51.9195 435.771 47.3325C436.649 42.7713 437.997 37.6696 435.532 33.7609C433.184 30.0368 428.319 29.0152 424.996 26.1611C421.886 23.5246 420.24 19.2995 416.956 16.8541C412.82 13.776 407.2 14.2176 402.116 14.7515L391.083 15.9511C388.237 16.2609 385.276 16.6102 382.933 18.3438C378.707 21.4681 378.126 27.9606 374.126 31.3815C372.345 32.8975 370.068 33.6489 368.035 34.7826C366.003 35.9163 364.041 37.7092 363.809 40.0557C363.615 42.0331 364.661 43.8589 365.17 45.7638C366.377 50.3118 364.493 54.9917 363.286 59.5727C362.08 64.1536 361.847 69.7167 365.351 72.7554C366.061 73.3749 366.887 73.8495 367.577 74.4955C369.945 76.7036 370.268 80.4277 369.719 83.6443" fill="#444053"/>
<path d="M402.284 96.3985C402.64 96.3985 402.929 95.6607 402.929 94.7506C402.929 93.8405 402.64 93.1028 402.284 93.1028C401.928 93.1028 401.639 93.8405 401.639 94.7506C401.639 95.6607 401.928 96.3985 402.284 96.3985Z" fill="#444053"/>
<path d="M402.284 103.267C402.64 103.267 402.929 102.529 402.929 101.619C402.929 100.709 402.64 99.9711 402.284 99.9711C401.928 99.9711 401.639 100.709 401.639 101.619C401.639 102.529 401.928 103.267 402.284 103.267Z" fill="#444053"/>
<path d="M387.973 246.549C388.663 245.739 389.121 243.656 389.386 240.907L381.695 231.112C381.695 231.112 384.953 250.102 387.973 246.549Z" fill="#AE6E79"/>
<path opacity="0.1" d="M396.645 408.446C396.645 408.446 384.024 428.378 344.594 426.243C307.448 424.265 289.317 405.592 290.182 399.001C291.047 392.409 287.814 376.366 295.77 371.752C300.383 369.083 306.455 370.665 310.739 372.471C312.219 373.085 313.839 373.258 315.412 372.97C316.984 372.681 318.445 371.944 319.624 370.842C323.54 367.237 330.844 363.177 342.375 366.374C343.858 366.778 345.423 366.748 346.891 366.288C351.692 364.792 363.119 362.195 371.41 367.962C372.72 368.885 374.261 369.408 375.851 369.469C377.441 369.531 379.016 369.13 380.391 368.311L380.507 368.239C384.379 365.82 402.445 388.672 402.445 388.672C402.445 388.672 403.31 406.251 396.645 408.446Z" fill="black"/>
<path d="M396.645 409.105C396.645 409.105 384.024 429.038 344.594 426.902C307.448 424.925 289.317 406.251 290.182 399.66C291.047 393.069 287.814 377.025 295.77 372.411C300.383 369.742 306.455 371.324 310.739 373.13C312.219 373.744 313.839 373.917 315.412 373.629C316.984 373.341 318.445 372.603 319.624 371.502C323.54 367.896 330.844 363.836 342.375 367.033C343.858 367.437 345.423 367.407 346.891 366.947C351.692 365.451 363.119 362.854 371.41 368.621C372.72 369.544 374.261 370.067 375.851 370.129C377.441 370.19 379.016 369.789 380.391 368.971L380.507 368.898C384.379 366.479 402.445 389.331 402.445 389.331C402.445 389.331 403.31 406.91 396.645 409.105Z" fill="#767D9F"/>
<path opacity="0.1" d="M344.594 416.909C358.791 416.909 370.3 405.153 370.3 390.65C370.3 376.147 358.791 364.39 344.594 364.39C330.397 364.39 318.888 376.147 318.888 390.65C318.888 405.153 330.397 416.909 344.594 416.909Z" fill="black"/>
<path d="M344.594 417.569C358.791 417.569 370.3 405.812 370.3 391.309C370.3 376.806 358.791 365.049 344.594 365.049C330.397 365.049 318.888 376.806 318.888 391.309C318.888 405.812 330.397 417.569 344.594 417.569Z" fill="#FFB9B9"/>
<path d="M337.226 368.608C334.529 369.353 331.87 370.777 330.554 373.116C329.76 374.527 329.483 376.221 328.334 377.394C326.708 379.062 323.966 379.095 321.766 380.031C319.566 380.967 318.114 384.262 320.269 385.304C318.024 385.423 316.359 387.538 316.081 389.641C315.804 391.744 316.585 393.84 317.34 395.843C319.804 402.329 322.456 409.099 327.889 413.713C336.742 421.24 350.085 420.891 361.977 420.093C362.948 420.126 363.911 419.899 364.77 419.434C366.061 418.564 366.222 416.896 366.435 415.433C367.332 409.184 370.648 403.509 372.816 397.544C374.984 391.579 375.875 384.572 372.223 379.293C366.848 371.462 346.272 366.103 337.226 368.608Z" fill="#B96B6B"/>
<path opacity="0.1" d="M387.327 258.084L386.534 264.313L377.288 265.631C377.288 265.631 376.288 263.443 374.875 260.082L387.179 257.722L387.327 258.084Z" fill="black"/>
<path d="M397.07 395.705L402.452 389.331L401.374 354.18C401.904 351.644 402.264 349.074 402.452 346.487C402.665 342.75 399.761 334.405 399.761 334.405C400.211 332.735 400.823 331.114 401.587 329.567C402.877 326.931 399.767 320.999 399.767 320.999C399.767 320.999 395.135 305.621 397.07 297.929C399.006 290.237 396.599 285.847 396.599 285.847C396.599 285.847 394.709 277.278 394.922 273.765C395.135 270.252 390.618 266.95 390.618 266.95L387.179 258.381L373.416 261.017V290.678C373.416 290.678 374.274 319.021 373.416 324.518C372.558 330.016 375.133 335.282 375.133 335.282C375.133 335.282 373.629 343.409 374.92 346.487C376.21 349.566 378.791 357.034 378.791 357.034C378.312 359.703 378.46 362.45 379.223 365.049C380.514 368.898 379.223 371.093 379.223 371.093L397.07 395.705Z" fill="#767D9F"/>
<g opacity="0.1">
<path opacity="0.1" d="M435.791 45.164C435.063 49.0223 434.736 52.9484 434.816 56.8768C434.871 53.6103 435.206 50.3549 435.816 47.148C436.384 44.2214 437.107 41.0707 436.952 38.1508C436.714 40.5117 436.326 42.8544 435.791 45.164Z" fill="black"/>
<path opacity="0.1" d="M367.596 72.373C366.906 71.7138 366.08 71.2524 365.37 70.6263C363.486 68.985 362.693 66.6055 362.538 64.0349C362.351 67.3306 363.009 70.5208 365.37 72.6037C366.08 73.2298 366.906 73.7044 367.596 74.3504C369.04 75.8093 369.876 77.7808 369.932 79.8542C370.119 77.0858 369.571 74.2054 367.596 72.373Z" fill="black"/>
<path opacity="0.1" d="M365.538 47.7609C365.651 46.3687 365.533 44.9671 365.19 43.615C364.816 42.2044 364.145 40.8268 363.899 39.4097C363.899 39.5613 363.848 39.7195 363.828 39.8842C363.641 41.8617 364.687 43.6875 365.19 45.5924C365.375 46.3018 365.492 47.0281 365.538 47.7609Z" fill="black"/>
<path opacity="0.1" d="M433.061 69.4663C431.274 71.4437 428.428 71.9314 425.809 71.9117C423.189 71.8919 420.537 71.4569 417.963 71.9842C416.169 72.3533 414.343 73.1772 412.582 72.6433C410.149 71.9249 409.175 68.6885 406.846 68.0623C404.194 67.3505 402.174 71.0614 400.393 72.5378C396.038 76.0972 389.928 76.0642 384.359 75.8335C381.991 75.7215 379.069 75.9126 378.049 78.1009C377.738 78.7645 377.672 79.5204 377.862 80.2299L369.977 81.4955C369.948 82.1586 369.876 82.8191 369.764 83.4729L377.862 82.1546C377.672 81.4451 377.738 80.6892 378.049 80.0256C379.069 77.8373 381.991 77.6461 384.359 77.7582C389.928 78.0218 396.038 78.0548 400.393 74.4625C402.2 72.9861 404.22 69.2751 406.846 69.987C409.175 70.6066 410.149 73.8495 412.582 74.568C414.343 75.0821 416.169 74.2582 417.963 73.9088C420.544 73.3815 423.189 73.8166 425.809 73.8363C428.428 73.8561 431.274 73.3486 433.061 71.391C434.848 69.4333 435.107 66.5134 434.997 63.6659C434.919 65.874 434.474 67.9173 433.061 69.4663Z" fill="black"/>
</g>
<g opacity="0.1">
<path opacity="0.1" d="M373.333 101.124C372.573 100.716 371.775 100.385 370.952 100.136C369.551 99.4857 368.44 98.3243 367.835 96.8796C368.319 99.1537 369.545 101.223 371.597 102.113C372.42 102.362 373.218 102.693 373.978 103.102C374.464 103.453 374.856 103.921 375.12 104.466C374.862 103.174 374.391 101.856 373.333 101.124Z" fill="black"/>
<path opacity="0.1" d="M384.353 117.161C381.378 117.932 377.494 118.334 375.862 115.757C375.913 116.378 376.088 116.982 376.378 117.53C377.772 120.068 381.178 119.982 384.076 119.356L384.353 117.161Z" fill="black"/>
<path opacity="0.1" d="M396.406 118.967C396.819 121.643 395.115 124.313 392.857 125.717C390.599 127.121 387.844 127.51 385.185 127.694C384.763 127.75 384.333 127.7 383.934 127.549C383.812 127.828 383.773 128.137 383.821 128.438C383.869 128.739 384.002 129.019 384.203 129.244C384.404 129.469 384.665 129.629 384.954 129.705C385.243 129.781 385.548 129.77 385.831 129.672C388.489 129.5 391.225 129.125 393.502 127.694C395.78 126.264 397.483 123.601 397.045 120.918C396.921 120.241 396.706 119.584 396.406 118.967Z" fill="black"/>
<path opacity="0.1" d="M399.271 95.1066C399.664 96.7091 399.695 98.3824 399.359 99.9988C399.024 101.615 398.331 103.132 397.335 104.433C395.812 106.318 393.496 107.828 393.167 110.247C393.057 111.359 393.282 112.479 393.812 113.457C393.754 113.048 393.754 112.633 393.812 112.224C394.141 109.805 396.457 108.269 397.98 106.411C400.484 103.319 400.832 98.7648 399.271 95.1066Z" fill="black"/>
</g>
<g opacity="0.1">
<path opacity="0.1" d="M321.772 381.046C323.966 380.117 326.708 380.084 328.341 378.409C329.489 377.236 329.767 375.542 330.56 374.138C331.851 371.792 334.529 370.375 337.226 369.63C346.259 367.125 366.854 372.477 372.223 380.235C373.796 382.582 374.654 385.353 374.687 388.198C374.894 384.914 374.03 381.652 372.229 378.924C366.861 371.166 346.285 365.813 337.232 368.318C334.535 369.063 331.877 370.48 330.567 372.827C329.773 374.231 329.496 375.924 328.347 377.098C326.715 378.765 323.973 378.798 321.779 379.734C320.108 380.44 318.869 382.522 319.321 383.92C319.501 383.288 319.813 382.703 320.237 382.207C320.66 381.711 321.184 381.314 321.772 381.046Z" fill="black"/>
<path opacity="0.1" d="M316.094 390.623C316.365 388.514 318.03 386.405 320.282 386.286C320.046 386.185 319.834 386.032 319.663 385.837C319.492 385.642 319.367 385.41 319.295 385.159C318.438 385.484 317.685 386.042 317.116 386.773C316.548 387.504 316.185 388.379 316.069 389.305C316.007 389.841 316.007 390.383 316.069 390.92C316.094 390.821 316.094 390.722 316.094 390.623Z" fill="black"/>
</g>
<path d="M339.386 160.362L291.708 168.726L292.39 172.785L340.068 164.421L339.386 160.362Z" fill="#4A4A7D"/>
<path d="M340.95 167.829L293.271 176.192L293.954 180.251L341.632 171.887L340.95 167.829Z" fill="#4A4A7D"/>
<path d="M427.074 130.509C427.074 130.509 400.084 158.192 413.634 165.225C427.183 172.258 436.004 141.826 436.004 141.826L438.146 134.905L427.074 130.509Z" fill="#AE6E79"/>
<path opacity="0.1" d="M424.712 128.063L421.376 135.591C421.376 135.591 437.829 137.95 441.268 143.032L439.229 129.751L436.81 124.082L424.712 128.063Z" fill="black"/>
<path d="M425.357 127.404L422.021 134.931C422.021 134.931 438.475 137.291 441.914 142.373L439.875 129.092L437.455 123.423L425.357 127.404Z" fill="#4A4A7D"/>
<defs>
<filter id="filter0_d" x="38.4897" y="126" width="597.62" height="251" filterUnits="userSpaceOnUse" color-interpolation-filters="sRGB">
<feFlood flood-opacity="0" result="BackgroundImageFix"/>
<feColorMatrix in="SourceAlpha" type="matrix" values="0 0 0 0 0 0 0 0 0 0 0 0 0 0 0 0 0 0 127 0"/>
<feOffset dx="4" dy="4"/>
<feGaussianBlur stdDeviation="10"/>
<feColorMatrix type="matrix" values="0 0 0 0 0 0 0 0 0 0 0 0 0 0 0 0 0 0 0.5 0"/>
<feBlend mode="normal" in2="BackgroundImageFix" result="effect1_dropShadow"/>
<feBlend mode="normal" in="SourceGraphic" in2="effect1_dropShadow" result="shape"/>
</filter>
<filter id="filter1_d" x="284.33" y="138.724" width="124.241" height="105.32" filterUnits="userSpaceOnUse" color-interpolation-filters="sRGB">
<feFlood flood-opacity="0" result="BackgroundImageFix"/>
<feColorMatrix in="SourceAlpha" type="matrix" values="0 0 0 0 0 0 0 0 0 0 0 0 0 0 0 0 0 0 127 0"/>
<feOffset dy="4"/>
<feGaussianBlur stdDeviation="2"/>
<feColorMatrix type="matrix" values="0 0 0 0 0 0 0 0 0 0 0 0 0 0 0 0 0 0 0.25 0"/>
<feBlend mode="normal" in2="BackgroundImageFix" result="effect1_dropShadow"/>
<feBlend mode="normal" in="SourceGraphic" in2="effect1_dropShadow" result="shape"/>
</filter>
<filter id="filter2_d" x="332.921" y="26.7869" width="120.949" height="63.6072" filterUnits="userSpaceOnUse" color-interpolation-filters="sRGB">
<feFlood flood-opacity="0" result="BackgroundImageFix"/>
<feColorMatrix in="SourceAlpha" type="matrix" values="0 0 0 0 0 0 0 0 0 0 0 0 0 0 0 0 0 0 127 0"/>
<feOffset dy="4"/>
<feGaussianBlur stdDeviation="2"/>
<feColorMatrix type="matrix" values="0 0 0 0 0 0 0 0 0 0 0 0 0 0 0 0 0 0 0.25 0"/>
<feBlend mode="normal" in2="BackgroundImageFix" result="effect1_dropShadow"/>
<feBlend mode="normal" in="SourceGraphic" in2="effect1_dropShadow" result="shape"/>
</filter>
<filter id="filter3_d" x="299.61" y="419.649" width="122.671" height="47.3167" filterUnits="userSpaceOnUse" color-interpolation-filters="sRGB">
<feFlood flood-opacity="0" result="BackgroundImageFix"/>
<feColorMatrix in="SourceAlpha" type="matrix" values="0 0 0 0 0 0 0 0 0 0 0 0 0 0 0 0 0 0 127 0"/>
<feOffset dy="4"/>
<feGaussianBlur stdDeviation="2"/>
<feColorMatrix type="matrix" values="0 0 0 0 0 0 0 0 0 0 0 0 0 0 0 0 0 0 0.25 0"/>
<feBlend mode="normal" in2="BackgroundImageFix" result="effect1_dropShadow"/>
<feBlend mode="normal" in="SourceGraphic" in2="effect1_dropShadow" result="shape"/>
</filter>
<filter id="filter4_d" x="277.335" y="263" width="75.6819" height="86.2649" filterUnits="userSpaceOnUse" color-interpolation-filters="sRGB">
<feFlood flood-opacity="0" result="BackgroundImageFix"/>
<feColorMatrix in="SourceAlpha" type="matrix" values="0 0 0 0 0 0 0 0 0 0 0 0 0 0 0 0 0 0 127 0"/>
<feOffset dy="4"/>
<feGaussianBlur stdDeviation="2"/>
<feColorMatrix type="matrix" values="0 0 0 0 0 0 0 0 0 0 0 0 0 0 0 0 0 0 0.25 0"/>
<feBlend mode="normal" in2="BackgroundImageFix" result="effect1_dropShadow"/>
<feBlend mode="normal" in="SourceGraphic" in2="effect1_dropShadow" result="shape"/>
</filter>
</defs>
</svg>
