<svg width="263" height="224" viewBox="0 0 263 224" fill="none" xmlns="http://www.w3.org/2000/svg">
<g filter="url(#filter0_d)">
<rect x="16.793" y="16" width="221.849" height="184" rx="10" fill="white"/>
<g clip-path="url(#clip0)" filter="url(#filter1_d)">
<path d="M158.838 74.8605C160.987 75.7737 163.088 76.7082 165.141 77.664" stroke="#2F2E41" stroke-miterlimit="10"/>
<path d="M118.838 69.2018C128.214 70.8336 138.449 73.6506 148.761 77.6261C156.229 80.4865 163.376 83.8626 170.12 87.7165" stroke="#2F2E41" stroke-miterlimit="10"/>
<path d="M87.6316 179.318H183.763" stroke="#3F3D56" stroke-miterlimit="10"/>
<path d="M110.066 67.9941C112.883 68.2729 115.816 68.6758 118.838 69.2018" stroke="#2F2E41" stroke-miterlimit="10"/>
<path d="M82.4946 91.655C77.2896 85.5238 75.5016 79.7309 78.1758 75.237C81.1337 70.2664 89.0512 67.7238 99.7838 67.5366" stroke="#2F2E41" stroke-miterlimit="10"/>
<path d="M192.104 105.35C196.442 110.971 197.788 116.241 195.314 120.4C193.136 124.059 188.271 126.402 181.573 127.459" stroke="#2F2E41" stroke-miterlimit="10"/>
<path d="M170.12 87.7166C174.468 90.1986 178.578 92.9403 182.414 95.9186" stroke="#2F2E41" stroke-miterlimit="10"/>
<path d="M79.6125 60.3511C88.2524 58.8571 99.4329 59.1226 111.937 61.1066" stroke="#2F2E41" stroke-miterlimit="10"/>
<path d="M205.361 105.349C209.229 109.897 211.608 114.298 212.23 118.306" stroke="#2F2E41" stroke-miterlimit="10"/>
<path d="M165.141 77.664C169.021 79.4696 172.712 81.3371 176.215 83.2664" stroke="#2F2E41" stroke-miterlimit="10"/>
<path d="M170.701 144.65C169.708 144.695 168.751 144.961 167.937 145.42C167.123 145.878 166.483 146.51 166.09 147.245C164.937 149.488 166.421 152.123 168.65 153.759C170.878 155.395 173.741 156.33 176.342 157.559C179.836 159.21 182.975 161.502 184.723 164.443C186.471 167.385 186.657 171.029 184.603 173.839C182.695 176.448 179.227 178.009 175.92 179.449" stroke="#3F3D56" stroke-miterlimit="10"/>
<path d="M173.638 146.437C175.887 146.437 177.711 145.724 177.711 144.845C177.711 143.965 175.887 143.252 173.638 143.252C171.388 143.252 169.564 143.965 169.564 144.845C169.564 145.724 171.388 146.437 173.638 146.437Z" fill="#57B894"/>
<path d="M176.897 156.929C179.146 156.929 180.97 156.216 180.97 155.337C180.97 154.457 179.146 153.744 176.897 153.744C174.647 153.744 172.823 154.457 172.823 155.337C172.823 156.216 174.647 156.929 176.897 156.929Z" fill="#57B894"/>
<path d="M169.448 158.616C171.698 158.616 173.521 157.903 173.521 157.023C173.521 156.144 171.698 155.431 169.448 155.431C167.198 155.431 165.375 156.144 165.375 157.023C165.375 157.903 167.198 158.616 169.448 158.616Z" fill="#57B894"/>
<path d="M181.086 167.421C183.336 167.421 185.16 166.708 185.16 165.829C185.16 164.949 183.336 164.236 181.086 164.236C178.837 164.236 177.013 164.949 177.013 165.829C177.013 166.708 178.837 167.421 181.086 167.421Z" fill="#57B894"/>
<path d="M189.233 167.421C191.483 167.421 193.306 166.708 193.306 165.829C193.306 164.949 191.483 164.236 189.233 164.236C186.983 164.236 185.16 164.949 185.16 165.829C185.16 166.708 186.983 167.421 189.233 167.421Z" fill="#57B894"/>
<path d="M148.872 82.8087H151.167C151.167 82.8087 153.27 95.8922 151.741 97.1236C150.211 98.355 146.004 99.1246 145.43 97.1236C144.856 95.1226 145.43 87.7343 145.43 87.7343L148.872 82.8087Z" fill="#4C4981"/>
<path d="M133.861 84.5789C141.57 84.5789 147.82 78.6868 147.82 71.4185C147.82 64.1502 141.57 58.2581 133.861 58.2581C126.151 58.2581 119.901 64.1502 119.901 71.4185C119.901 78.6868 126.151 84.5789 133.861 84.5789Z" fill="#2F2E41"/>
<path d="M130.705 73.8812C130.705 73.8812 131.47 78.9607 129.176 80.0381C126.881 81.1156 131.853 87.2725 131.853 87.2725L137.781 88.5039L141.797 84.0401L141.032 79.4224C141.032 79.4224 136.442 75.7283 138.546 72.342L130.705 73.8812Z" fill="#FFC1C7"/>
<path opacity="0.1" d="M130.705 73.8812C130.705 73.8812 131.47 78.9607 129.176 80.0381C126.881 81.1156 131.853 87.2725 131.853 87.2725L137.781 88.5039L141.797 84.0401L141.032 79.4224C141.032 79.4224 136.442 75.7283 138.546 72.342L130.705 73.8812Z" fill="black"/>
<path d="M122.1 129.02C122.1 129.02 119.805 145.797 122.1 149.799C124.395 153.801 130.514 165.037 130.514 165.037L128.602 168.27L133.765 167.346L135.869 164.114C135.869 164.114 133.383 156.264 133 153.493C132.618 150.723 129.749 145.643 129.749 145.643L135.104 127.326L122.1 129.02Z" fill="#FFC1C7"/>
<path d="M140.267 126.215C140.267 126.215 140.458 143.147 141.797 145.773L141.032 168.707L145.239 169.159C145.239 169.159 151.358 149.919 150.402 145.301C149.446 140.684 150.593 124.06 150.593 124.06L140.267 126.215Z" fill="#FFC1C7"/>
<path d="M133.861 75.9592C137.874 75.9592 141.127 73.3405 141.127 70.1101C141.127 66.8798 137.874 64.261 133.861 64.261C129.847 64.261 126.594 66.8798 126.594 70.1101C126.594 73.3405 129.847 75.9592 133.861 75.9592Z" fill="#FFC1C7"/>
<path d="M158.625 128.37C158.625 128.37 153.462 131.141 151.358 129.14C149.255 127.139 123.439 130.371 120.188 129.755C116.937 129.14 121.909 119.288 121.909 114.209C121.909 110.409 123.622 104.627 124.485 101.955C124.776 101.056 124.969 100.51 124.969 100.51C124.969 100.51 126.931 96.0169 126.564 94.1498C126.539 94.0083 126.49 93.87 126.42 93.7388C126.389 93.6839 126.352 93.6318 126.307 93.5833C125.391 92.5998 122.766 85.427 121.746 82.347C121.58 81.8912 121.443 81.4288 121.335 80.9617C121.335 80.4999 128.411 79.1146 130.18 79.0484C131.95 78.9822 132.427 80.9617 132.427 80.9617C133 81.2695 135.677 86.6568 135.677 86.6568L138.163 81.5774C138.163 81.5774 137.972 80.4999 137.781 80.4999C137.59 80.4999 140.609 79.0469 140.609 79.0469C140.609 79.0469 143.709 80.8077 145.43 80.4999C147.151 80.1921 151.167 82.9627 151.167 82.9627C151.167 82.9627 144.091 97.2775 146.96 100.356C149.828 103.434 158.625 128.37 158.625 128.37Z" fill="#4C4981"/>
<path d="M135.295 163.498C135.295 163.498 132.044 166.115 132.044 166.423L129.367 165.499C129.367 165.499 128.22 168.886 128.028 169.347C127.837 169.809 124.586 173.965 121.335 175.812C118.084 177.659 121.335 179.968 124.204 179.506C127.072 179.044 134.339 173.811 134.339 173.811C134.339 173.811 139.311 173.811 141.032 170.733C141.032 170.733 136.442 163.19 135.295 163.498Z" fill="#2F2E41"/>
<path d="M144.856 167.938C144.856 167.938 139.944 165.065 139.627 167.733C139.311 170.401 139.311 176.25 139.311 176.25C139.311 176.25 137.781 180.098 142.561 179.636C147.342 179.174 147.725 178.097 147.725 178.097L145.43 170.708V167.476L144.856 167.938Z" fill="#2F2E41"/>
<path opacity="0.1" d="M126.307 93.5834C125.391 92.5998 122.766 85.427 121.746 82.347H122.674C122.674 82.347 125.003 89.6845 126.42 93.7388C126.389 93.6839 126.352 93.6318 126.307 93.5834Z" fill="black"/>
<path opacity="0.1" d="M138.928 103.742C138.928 103.742 136.251 103.896 126.498 102.357C125.819 102.252 125.147 102.118 124.485 101.955C124.776 101.056 124.969 100.51 124.969 100.51C124.969 100.51 126.931 96.0169 126.564 94.1498C127.021 95.4427 127.361 96.3155 127.455 96.354C127.837 96.5079 140.076 98.201 141.797 98.8167C143.518 99.4324 138.928 103.742 138.928 103.742Z" fill="black"/>
<path opacity="0.1" d="M142.37 83.597C142.37 83.597 147.645 83.0732 147.972 83.7615C148.298 84.4499 149.637 91.1027 150.211 91.9556C150.784 92.8085 150.976 98.0966 148.681 98.2672C146.386 98.4377 143.327 96.5613 143.9 95.0261C144.474 93.4908 142.37 83.597 142.37 83.597Z" fill="black"/>
<path d="M139.693 97.7393C139.693 97.7393 147.725 98.5089 149.063 97.7393C150.402 96.9696 155.948 96.9697 154.8 99.1246C153.653 101.279 143.709 101.433 143.709 101.433H137.972L139.693 97.7393Z" fill="#FFC1C7"/>
<path d="M122.674 81.2695H121.335C121.335 81.2695 118.658 81.7313 119.041 88.5039C119.423 95.2765 116.746 99.7403 126.498 101.279C136.251 102.819 138.928 102.665 138.928 102.665C138.928 102.665 143.518 98.355 141.797 97.7393C140.076 97.1236 127.837 95.4304 127.455 95.2765C127.072 95.1226 122.674 81.2695 122.674 81.2695Z" fill="#4C4981"/>
<path d="M147.825 84.3076C147.825 84.3076 144.474 74.1891 141.797 74.1891C139.119 74.1891 136.06 74.6508 138.354 76.6518C140.649 78.6528 143.518 80.8077 143.709 81.8852C143.9 82.9627 144.665 84.5019 144.665 84.5019L147.825 84.3076Z" fill="#FFC1C7"/>
<path d="M143.135 83.597C143.135 83.597 148.41 83.0732 148.737 83.7615C149.063 84.4499 150.402 91.1027 150.976 91.9556C151.549 92.8085 151.741 98.0966 149.446 98.2672C147.151 98.4377 144.091 96.5613 144.665 95.0261C145.239 93.4908 143.135 83.597 143.135 83.597Z" fill="#4C4981"/>
<path d="M131.948 70.1101C135.75 70.1101 138.833 67.6292 138.833 64.5689C138.833 61.5086 135.75 59.0277 131.948 59.0277C128.146 59.0277 125.064 61.5086 125.064 64.5689C125.064 67.6292 128.146 70.1101 131.948 70.1101Z" fill="#2F2E41"/>
<path d="M159.689 127.209C149.006 125.792 136.92 122.711 124.729 118.011C110.848 112.659 99.0849 106.077 90.7034 99.4246" stroke="#2F2E41" stroke-miterlimit="10"/>
<path d="M116.374 120.906C106.817 116.92 98.1643 112.489 90.7029 107.876" stroke="#2F2E41" stroke-miterlimit="10"/>
<path d="M48.8127 58.6147C55.1408 58.6147 60.2708 54.4855 60.2708 49.3918C60.2708 44.2982 55.1408 40.1689 48.8127 40.1689C42.4845 40.1689 37.3545 44.2982 37.3545 49.3918C37.3545 54.4855 42.4845 58.6147 48.8127 58.6147Z" fill="#4C4981"/>
<path d="M51.5004 54.8573C57.8286 54.8573 62.9586 50.728 62.9586 45.6344C62.9586 40.5407 57.8286 36.4114 51.5004 36.4114C45.1722 36.4114 40.0422 40.5407 40.0422 45.6344C40.0422 50.728 45.1722 54.8573 51.5004 54.8573Z" stroke="#2F2E41" stroke-miterlimit="10"/>
<path d="M208.12 88.0712C211.802 88.0712 214.786 85.6687 214.786 82.7051C214.786 79.7415 211.802 77.339 208.12 77.339C204.438 77.339 201.453 79.7415 201.453 82.7051C201.453 85.6687 204.438 88.0712 208.12 88.0712Z" fill="#F2F2F2"/>
<path d="M209.684 85.885C213.366 85.885 216.35 83.4825 216.35 80.5189C216.35 77.5553 213.366 75.1529 209.684 75.1529C206.002 75.1529 203.017 77.5553 203.017 80.5189C203.017 83.4825 206.002 85.885 209.684 85.885Z" stroke="#2F2E41" stroke-miterlimit="10"/>
<path d="M86.5075 146.355C91.8002 146.355 96.0907 142.901 96.0907 138.641C96.0907 134.381 91.8002 130.927 86.5075 130.927C81.2149 130.927 76.9243 134.381 76.9243 138.641C76.9243 142.901 81.2149 146.355 86.5075 146.355Z" fill="#F2F2F2"/>
<path d="M88.7556 143.212C94.0482 143.212 98.3388 139.758 98.3388 135.498C98.3388 131.238 94.0482 127.785 88.7556 127.785C83.4629 127.785 79.1724 131.238 79.1724 135.498C79.1724 139.758 83.4629 143.212 88.7556 143.212Z" stroke="#2F2E41" stroke-miterlimit="10"/>
</g>
</g>
<defs>
<filter id="filter0_d" x="0.792969" y="0" width="261.849" height="224" filterUnits="userSpaceOnUse" color-interpolation-filters="sRGB">
<feFlood flood-opacity="0" result="BackgroundImageFix"/>
<feColorMatrix in="SourceAlpha" type="matrix" values="0 0 0 0 0 0 0 0 0 0 0 0 0 0 0 0 0 0 127 0"/>
<feOffset dx="4" dy="4"/>
<feGaussianBlur stdDeviation="10"/>
<feColorMatrix type="matrix" values="0 0 0 0 0 0 0 0 0 0 0 0 0 0 0 0 0 0 0.25 0"/>
<feBlend mode="normal" in2="BackgroundImageFix" result="effect1_dropShadow"/>
<feBlend mode="normal" in="SourceGraphic" in2="effect1_dropShadow" result="shape"/>
</filter>
<filter id="filter1_d" x="33.3545" y="36.3256" width="187.102" height="151.349" filterUnits="userSpaceOnUse" color-interpolation-filters="sRGB">
<feFlood flood-opacity="0" result="BackgroundImageFix"/>
<feColorMatrix in="SourceAlpha" type="matrix" values="0 0 0 0 0 0 0 0 0 0 0 0 0 0 0 0 0 0 127 0"/>
<feOffset dy="4"/>
<feGaussianBlur stdDeviation="2"/>
<feColorMatrix type="matrix" values="0 0 0 0 0 0 0 0 0 0 0 0 0 0 0 0 0 0 0.25 0"/>
<feBlend mode="normal" in2="BackgroundImageFix" result="effect1_dropShadow"/>
<feBlend mode="normal" in="SourceGraphic" in2="effect1_dropShadow" result="shape"/>
</filter>
<clipPath id="clip0">
<rect width="179.102" height="143.349" fill="white" transform="translate(37.3545 36.3256)"/>
</clipPath>
</defs>
</svg>
